<svg id="Logo" xmlns="http://www.w3.org/2000/svg" viewBox="0 0 700 282.17" width="200"><defs><style>.cls-1{fill:#231f20}.cls-2{fill:#b9a77a}</style></defs><title>MDI_Logo_V2</title><g class="logo--inc"><path class="cls-1" d="M539.4 390.19h14.46v2.27h-1.11a4.46 4.46 0 0 0-2.27.44 2.51 2.51 0 0 0-1 1.24 9.75 9.75 0 0 0-.32 3.12v24.34a6.87 6.87 0 0 0 .35 2.61 2.34 2.34 0 0 0 1 1.12 5.18 5.18 0 0 0 2.29.35h1.11V428H539.4v-2.27h1.19a5 5 0 0 0 2.26-.37 2.15 2.15 0 0 0 1-1.06 7.83 7.83 0 0 0 .3-2.67v-24.94a8.69 8.69 0 0 0-.3-2.82 2 2 0 0 0-1-1.06 5.39 5.39 0 0 0-2.26-.34h-1.19v-2.27z" transform="translate(-46 -164.92)"/><path class="cls-1" d="M553.86 390.19h11.58l17.18 28.32V397a7.34 7.34 0 0 0-.38-2.78 2.71 2.71 0 0 0-1.14-1.28 4.57 4.57 0 0 0-2.25-.44h-1v-2.27h12.62v2.27h-.67a6.25 6.25 0 0 0-2.26.27 2.49 2.49 0 0 0-1.25 1.39 7.66 7.66 0 0 0-.42 2.83v31h-3.28l-20.71-34v27a15.18 15.18 0 0 0 .14 2.73 2.78 2.78 0 0 0 .69 1.14 2.6 2.6 0 0 0 1.18.7 13.07 13.07 0 0 0 2.73.22V428h-12.76v-2.27h.68a6.17 6.17 0 0 0 2.64-.38 2.49 2.49 0 0 0 1.07-1.3 9 9 0 0 0 .38-3.11V397a19.2 19.2 0 0 0-.11-2.75 2.08 2.08 0 0 0-.93-1.33 6.07 6.07 0 0 0-2.75-.41h-1v-2.27zm66.89 0h1.95l3.43 12.59-2.52.7a43.5 43.5 0 0 0-3.09-5.85 12.79 12.79 0 0 0-4.32-3.82 11.72 11.72 0 0 0-5.7-1.41 12.25 12.25 0 0 0-6.73 2 14.23 14.23 0 0 0-5 5.76 18.73 18.73 0 0 0-1.91 8.54 19 19 0 0 0 1.94 8.7 14.44 14.44 0 0 0 5.24 5.88 13.22 13.22 0 0 0 7.12 2.06 15.26 15.26 0 0 0 7.36-2.07 20.18 20.18 0 0 0 6.53-5.78l2.17 1.49a22.22 22.22 0 0 1-3.63 4.22 21.47 21.47 0 0 1-6.42 4.12 19.58 19.58 0 0 1-7.31 1.33 17.81 17.81 0 0 1-14.3-6.53 19.39 19.39 0 0 1-4.56-12.93 19.86 19.86 0 0 1 2.52-10 18.94 18.94 0 0 1 6.94-7.08 18.38 18.38 0 0 1 9.54-2.63 16.67 16.67 0 0 1 5.08.74 18.23 18.23 0 0 1 4.75 2.4zm12.72 31.46a3.37 3.37 0 0 1 3.41 3.38 3.24 3.24 0 0 1-1 2.4 3.4 3.4 0 0 1-4.79 0 3.38 3.38 0 0 1 2.38-5.78z" transform="translate(-46 -164.92)"/></g><g class="logo--md"><path class="cls-1" d="M119.12 172.53L173 379.45l59.51-206.92h63.79v12.28h-2.82c-7.61 1.21-15.53 2.42-19.48 13.29-3.65 9.67-3.11 26.61-3.11 37.88v142.28c0 32.63-2.5 54 21.46 56.42l4 .39v12h-77.94v-12H221c7.33-1.21 15.79-2.42 19.46-14.89 2.83-9.7 2.54-21.36 2.54-42.32V201.33l-70.8 245.76H160l-66-253v185.78c0 23 .57 38.27 5.93 46.76 4.78 7.64 14.39 8.06 18.34 8.06l4.78.39v12H51.94v-12h3.11c7.9-.8 16.11-2 20.33-13.31 3.66-9.65 3.12-20.14 3.12-41.5V235.59c0-24.58 2.2-48.36-21.46-50.36l-5.1-.41v-12.29h67.18z" transform="translate(-46 -164.92)"/><path class="cls-1" d="M213.3 172.46v11.93c.86 0 4 .38 4 .38 22.84 2.42 21.18 24.19 21.18 50v163.45c0 5.64 0 18.14-4.81 26.61-3.66 6.47-8.46 8.48-17.79 9.69l-2.53.4V447h90.09c43 0 59.91-10.1 76.29-25.84 17-16.53 37.1-55.26 37.1-109.74 0-47.62-16.42-98-47.27-120.64-19.78-14.39-45.22-18.35-69.24-18.35h-87zm56.17 28.44c2.82-10.51 20.91-12.93 31.67-12.93 36.44 0 54.8 21.81 60.18 29.87 11 16.15 21.48 43.58 21.48 90 0 75.44-27.71 122.24-80.54 122.24-13.58 0-27.14-2.81-31.09-9.28-2.54-4.43-4.81-14.12-4.81-25.83v-161.8c0-6.86.3-21.8 3.11-32.27" transform="translate(-46 -164.92)"/><path class="cls-2" d="M113.17 165l53.87 207 59.52-207h63.8v12.27h-2.86c-7.61 1.23-15.51 2.43-19.47 13.32-3.66 9.66-3.11 26.58-3.11 37.88v142.26c0 32.62-2.5 54 21.47 56.41l4 .38v12h-77.9v-12H215c7.33-1.19 15.8-2.41 19.47-14.89 2.82-9.67 2.55-21.37 2.55-42.32V193.78l-70.81 245.76h-12.15l-66-253v185.78c0 23 .58 38.3 5.94 46.75 4.78 7.66 14.36 8.07 18.33 8.07l4.79.38v12H46v-12h3.11c7.89-.79 16.11-2 20.33-13.29 3.66-9.66 3.12-20.15 3.12-41.51V228.05c0-24.61 2.2-48.37-21.48-50.39l-5.08-.4V165h67.17z" transform="translate(-46 -164.92)"/><path class="cls-2" d="M207.34 164.92v11.93c.85 0 4 .38 4 .38 22.84 2.42 21.18 24.2 21.18 50v163.45c0 5.64 0 18.14-4.81 26.61-3.66 6.46-8.47 8.47-17.79 9.69l-2.54.39v12.12h90.1c42.94 0 59.91-10.1 76.3-25.84 17-16.54 37.1-55.26 37.1-109.74 0-47.62-16.45-98-47.28-120.63-19.78-14.39-45.23-18.36-69.25-18.36h-87zm56.17 28.43c2.83-10.48 20.93-12.93 31.66-12.93 36.46 0 54.83 21.81 60.19 29.89 11 16.14 21.5 43.56 21.5 90 0 75.46-27.7 122.27-80.57 122.27-13.57 0-27.13-2.85-31.07-9.29-2.58-4.45-4.81-14.15-4.81-25.84V225.62c0-6.86.28-21.78 3.1-32.28" transform="translate(-46 -164.92)"/></g><g class="logo--imaging"><path class="cls-1" d="M327.1 354.1c-4.8 5.27-9 8.91-15.67 8.91-9 0-12.16-8.28-10.31-17 .78-3.74 2.5-7.46 4.8-12.41l23-48.45h15.29l-27.63 56.52c-2.27 4.65-4.58 9.61-5.23 12.73-.47 2.16.65 4.35 3.19 4.35 7.87 0 20.3-20.82 31.14-38.5l3.46 1.24c-7.39 11.47-14.4 24.18-22 32.59m19.05-83.81c-5.23 0-7.22-3.74-6.28-8.1C341.19 256 346.88 251 353 251a6.73 6.73 0 0 1 6.84 8.42 13.67 13.67 0 0 1-13.72 10.92" transform="translate(-46 -164.92)"/><path class="cls-1" d="M421.74 353.66c-4.67 5.84-10.38 9.34-16.63 9.34-9.46 0-12.51-7.5-10.88-15.19 2.95-13.82 23.53-41.16 25.94-52.51.53-2.47.3-4.62-2.93-4.62-7.44 0-19 16.6-27.74 34.1L371.06 362h-15.22l29.69-59.36a40.1 40.1 0 0 0 3.38-8.61c.4-1.84-.41-4-2-4-7.11 0-17.89 14.14-28 33.79L340 362h-14.58l37-76.38h15.18l-5.09 10.85c5.52-5.52 11.81-11.79 19.89-11.79 7.44 0 9.76 6.58 9 14.57 7.1-7.07 13.28-14.26 22.48-14.26 6.84 0 9.85 6.26 8.15 14.26-3.54 16.6-24.25 43-26.71 54.68-.65 3.07.58 5.22 3.11 5.22 9.32 0 24.68-23 34.5-38.71l3.15 1.24c-8 12.9-16.82 22.74-24.36 31.95" transform="translate(-46 -164.92)"/><path class="cls-1" d="M516.37 321.5l-3.16-1.25c-9.88 15.8-24.69 38.13-33.36 38.13-2.79 0-3.51-2.49-3.06-4.66a18.59 18.59 0 0 1 2.05-5.27l30.8-63.16h-15.51l-4.44 9.22c-.48-6.51-3.23-11-7.89-11-17.7 0-40.11 29.92-45.45 55-2.35 10.87-1.35 23.91 10.35 23.91 8.09 0 13.07-7.45 19.44-15.5-.73 9.3 1.84 16.11 9.91 16.11 13.67 0 25.45-18.28 40.32-41.53m-31.15-22c-2.78 13-14.51 34.72-22.89 47.73-4.17 6.5-10.34 10.86-12.84 10.86-3.42 0-4.53-3.41-3.42-8.7 2-9.61 16.86-38.43 25.65-52.08 3.8-6.2 6.77-9.9 9.88-9.9 3.4 0 4.67 7.12 3.62 12.09" transform="translate(-46 -164.92)"/><path class="cls-1" d="M522.67 370.79l-18.84 39.07c-3.75 7.5-8 17.17-14.21 17.17-7.77 0-9.29-8.74-7.64-16.56 4-19 21.56-34.37 40.69-39.68m59.71-49.21l-3.48-1.22c-8.72 13.27-20.23 27.15-33.14 35.2l34.76-70H565l-4.81 9.44c-1.09-6.47-2.67-10.74-8.57-10.74-17.09 0-40.45 31.13-45.37 54.29C503.83 350 506 363 517.51 363c5 0 8.53-3.73 12.37-7.14l-5 10.27c-26.52 9.36-42.37 23.73-46.74 44.35-2.6 12.19 1.31 20.43 12.18 20.43 12.72 0 23.58-11.66 30.11-24.81L543 361.43c19-10.52 30.73-26.87 39.42-39.85m-26.86-20.68c-1.77 8.33-17.55 41.68-27.1 51.55-2.82 3.1-5.51 5.55-8.62 5.55-2.79 0-4.37-2.78-3.27-8 2.23-10.52 16.63-37.38 26.21-53.14 2-3.38 5.47-8.32 8.89-8.32 4 0 5.54 4.63 3.89 12.35" transform="translate(-46 -164.92)"/><path class="cls-1" d="M593.55 354.1c-4.81 5.27-9 8.91-15.69 8.91-9 0-12.17-8.28-10.32-17 .79-3.74 2.5-7.46 4.8-12.41l23-48.45h15.29L583 341.69c-2.28 4.65-4.6 9.61-5.26 12.73-.47 2.16.67 4.35 3.21 4.35 7.87 0 23.3-20.82 34.14-38.5l3.45 1.24a273.31 273.31 0 0 1-25 32.59m19-83.81c-5.23 0-7.22-3.74-6.28-8.1 1.34-6.24 7-11.24 13.17-11.24a6.72 6.72 0 0 1 6.82 8.42 13.63 13.63 0 0 1-13.7 10.92" transform="translate(-46 -164.92)"/><path class="cls-1" d="M659.53 353.46c-5 5.86-8.91 9.57-16.36 9.57-8.91 0-12.93-5.89-11-15.11 3.13-14.71 23.61-41.44 26.06-53.09.46-2.15.26-4-2.44-4-6.21 0-19.48 17.19-26.59 31.61l-19.9 39.65h-15.21l37.64-76.29h15.51l-5.34 10.58c6.44-5.53 12.23-10.9 19.9-10.9 7.19 0 10.13 6.61 8.71 13.35-3.52 16.56-25.28 46-27.15 54.93-.8 3.68.58 5.55 2.73 5.55 8.13 0 22.36-22.75 32.26-38.7l2.16 1.24c-6.25 10.43-13.59 23-21 31.61" transform="translate(-46 -164.92)"/><path class="cls-1" d="M688.14 370.79l-18.84 39.07c-3.79 7.5-8 17.17-14.22 17.17-7.75 0-9.29-8.74-7.62-16.56 4-19 21.56-34.37 40.69-39.68m56.7-49.21l-3.47-1.22c-8.73 13.27-17.25 27.15-30.14 35.2l34.76-70h-15.54l-4.8 9.44c-1.1-6.47-2.67-10.74-8.58-10.74-17.06 0-40.44 31.13-45.37 54.29C669.28 350 671.47 363 683 363c5 0 8.55-3.73 12.36-7.14l-5 10.27c-26.5 9.36-42.36 23.73-46.76 44.35-2.58 12.19 1.34 20.43 12.19 20.43 12.73 0 23.6-11.66 30.11-24.81l22.54-44.66c19-10.52 27.74-26.87 36.4-39.85M721 300.91c-1.76 8.33-17.54 41.68-27.07 51.55-2.85 3.1-5.54 5.55-8.65 5.55-2.79 0-4.35-2.78-3.26-8 2.25-10.52 16.64-37.38 26.2-53.14 2-3.38 5.49-8.32 8.9-8.32 4 0 5.51 4.63 3.87 12.35" transform="translate(-46 -164.92)"/></g></svg>