<svg id="icon--phone" data-name="Layer 1" xmlns="http://www.w3.org/2000/svg" viewBox="0 0 63.4 63.4"><path class="icon-path" d="M51.4 50.6a11.91 11.91 0 0 1-1.9 3.5 5.14 5.14 0 0 1-2.6 1.8 10.55 10.55 0 0 1-1.9.5 22.62 22.62 0 0 1-4.5.2 8.56 8.56 0 0 1-2.3-.5 14.25 14.25 0 0 1-4.3-2.5c-1-.8-2-1.7-3.1-2.5a32.62 32.62 0 0 1-4.5-4.6 48.3 48.3 0 0 1-4.4-6.7 45.9 45.9 0 0 1-2.4-5 34.5 34.5 0 0 1-2.6-9.9 47.06 47.06 0 0 1-.3-7.5 12.28 12.28 0 0 1 .8-3.8 11.65 11.65 0 0 1 1.7-2.8 14.22 14.22 0 0 1 3-3A5.24 5.24 0 0 1 25 6.4a15.06 15.06 0 0 1 3 .1 12.44 12.44 0 0 1 1.6.4 1.12 1.12 0 0 1 .8.7A10.55 10.55 0 0 1 31 10c.4 1.9.8 3.9 1.1 5.8.1.5.3 1 .4 1.4a4.25 4.25 0 0 1 .2 1.1 1.61 1.61 0 0 1-.6 1.3 9 9 0 0 1-2.4 1.2c-1 .4-1.9.7-2.9 1.1-.4.2-.7.4-1.1.6a1.38 1.38 0 0 0-.6 1.1 4.1 4.1 0 0 0 .1 1.1c.3 1.7.7 3.3 1.1 5A31.08 31.08 0 0 0 32.4 41l1.8 2.1a6.47 6.47 0 0 0 .9.8 1.23 1.23 0 0 0 1.5.2 9.14 9.14 0 0 0 1.4-.7c1.1-.6 2.2-1.3 3.2-1.9a9.74 9.74 0 0 1 1.1-.5 1.54 1.54 0 0 1 1.9.5 2.18 2.18 0 0 1 .4.5 40.89 40.89 0 0 0 3.3 3.8 40 40 0 0 1 2.7 3.1 3 3 0 0 1 .5.7.81.81 0 0 1 .3 1z"/></svg>