<svg xmlns="http://www.w3.org/2000/svg" width="101.4" height="101.4" viewBox="0 0 101.4 101.4"><style>.st0{fill:#973d6a}.st1{fill:#fff}.st2,.st3,.st4{fill:none;stroke:#fff;stroke-width:1.235;stroke-miterlimit:10}.st3,.st4{stroke:#e871ad;stroke-width:1.7659;stroke-linecap:round}.st4{stroke:#fff;stroke-width:1.3597;stroke-dasharray:0,2.6488}</style><circle class="st0" cx="50.7" cy="50.7" r="50.7"/><path class="st1" d="M36.7 81.5h23.5c1.2 0 2.3-1 2.3-2.3V39c0-1.2-1-2.3-2.3-2.3H36.7c-1.2 0-2.3 1-2.3 2.3v40.2c0 1.2 1 2.3 2.3 2.3z"/><path class="st1" d="M43.4 43.6h10.1c.6 0 1.1-.5 1.1-1.1v-7.9c0-.6-.5-1.1-1.1-1.1H43.4c-.6 0-1.1.5-1.1 1.1v7.9c0 .6.5 1.1 1.1 1.1z"/><path class="st2" d="M45.1 41.2h6.5c.6 0 1.1-.5 1.1-1.1V25.4c0-.6-.5-1.1-1.1-1.1h-6.5c-.6 0-1.1.5-1.1 1.1v14.7c0 .6.5 1.1 1.1 1.1z"/><circle class="st1" cx="50.1" cy="26.6" r=".6"/><path class="st3" d="M58.4 41.2v35.4"/><path class="st4" d="M55.7 26l17.9-3.8m-17.9 7.2h16.5M55.7 32l17.9 4.6"/></svg>