<svg xmlns="http://www.w3.org/2000/svg" width="101.4" height="101.4" viewBox="0 0 101.4 101.4"><style>.st0{fill:#973d6a}.st1{fill:#fff}</style><circle class="st0" cx="50.7" cy="50.7" r="50.7"/><path class="st1" d="M36.3 28.1c1-.8 2-1.6 3.1-2.3 1.1-.7 2.3-1.3 3.6-1.8 1.3-.5 2.7-.9 4.2-1.2 1.5-.3 3.1-.4 4.8-.4 2.4 0 4.6.3 6.6 1s3.6 1.6 5 2.8c1.4 1.2 2.4 2.7 3.2 4.4.7 1.7 1.1 3.6 1.1 5.7 0 2-.3 3.7-.8 5.1-.5 1.4-1.2 2.7-2.1 3.7-.8 1.1-1.7 2-2.7 2.8-1 .8-1.9 1.5-2.8 2.2-.9.7-1.7 1.3-2.3 2s-1.1 1.4-1.3 2.2l-1.1 5.4h-8.2l-.9-6.3c-.2-1.3-.1-2.4.4-3.3.5-.9 1.1-1.8 1.9-2.6.8-.8 1.7-1.5 2.7-2.2 1-.7 2-1.4 2.8-2.2.9-.8 1.6-1.7 2.2-2.6.6-1 .9-2.1.9-3.5 0-1.6-.5-2.8-1.5-3.7-1-.9-2.4-1.4-4.2-1.4-1.4 0-2.5.1-3.4.4-.9.3-1.7.6-2.4 1s-1.2.7-1.7 1-1 .4-1.5.4c-1.1 0-1.9-.5-2.5-1.4l-3.1-5.2zm7.2 45.3c0-.9.2-1.8.5-2.6s.8-1.5 1.4-2.1c.6-.6 1.3-1.1 2.2-1.4.8-.3 1.7-.5 2.7-.5 1 0 1.9.2 2.7.5.8.3 1.6.8 2.2 1.4.6.6 1.1 1.3 1.5 2.1s.5 1.7.5 2.6c0 .9-.2 1.8-.5 2.6s-.8 1.5-1.5 2.1c-.6.6-1.3 1.1-2.2 1.4-.8.3-1.7.5-2.7.5-1 0-1.9-.2-2.7-.5-.8-.3-1.5-.8-2.2-1.4-.6-.6-1.1-1.3-1.4-2.1-.3-.8-.5-1.7-.5-2.6z"/></svg>