<svg xmlns="http://www.w3.org/2000/svg" width="101.4" height="101.4" viewBox="0 0 101.4 101.4"><style>.st0{fill:#e871ad}.st1{fill:#fff}</style><circle class="st0" cx="50.7" cy="50.7" r="50.7"/><path class="st1" d="M70.4 69.6c-.4 1.3-1.1 2.4-1.9 3.5-.7.9-1.6 1.5-2.6 1.8-.6.2-1.2.4-1.9.5-1.5.2-3 .3-4.5.2-.8-.1-1.6-.2-2.3-.5-1.6-.6-3-1.4-4.3-2.5-1-.8-2-1.7-3.1-2.5-1.7-1.4-3.1-2.9-4.5-4.6-1.7-2.1-3.1-4.4-4.4-6.7-.9-1.6-1.7-3.3-2.4-5-1.3-3.2-2.3-6.5-2.6-9.9-.3-2.5-.4-5-.3-7.5.1-1.3.3-2.6.8-3.8.4-1 1-1.9 1.7-2.8.9-1.1 1.8-2.2 3-3 .9-.8 1.9-1.3 2.9-1.4 1-.1 2 0 3 .1.5.1 1 .2 1.6.4.4.1.6.3.8.7.3.8.5 1.6.6 2.4.4 1.9.8 3.9 1.1 5.8.1.5.3 1 .4 1.4.1.4.2.7.2 1.1 0 .5-.2 1-.6 1.3-.7.5-1.5.9-2.4 1.2-1 .4-1.9.7-2.9 1.1-.4.2-.7.4-1.1.6-.4.3-.6.7-.6 1.1 0 .4 0 .7.1 1.1.3 1.7.7 3.3 1.1 5 1.2 4.2 3.3 7.9 6.1 11.3l1.8 2.1c.3.3.6.6.9.8.5.4 1 .5 1.5.2.5-.2.9-.4 1.4-.7 1.1-.6 2.2-1.3 3.2-1.9.4-.2.8-.4 1.1-.5.8-.3 1.4-.1 1.9.5.1.1.3.3.4.5 1 1.4 2.2 2.6 3.3 3.8.9 1 1.9 2 2.7 3.1.2.2.4.5.5.7.4.3.4.6.3 1z" id="XMLID_2_"/></svg>