<svg version="1" xmlns="http://www.w3.org/2000/svg" width="1066.667" height="1066.667" viewBox="0 0 800.000000 800.000000"><path d="M612.7 238.6c-48.4 7.5-76.9 39.1-88.2 97.9-.8 4.4-1.7 10.4-2.1 13.4-.3 3.1-.7 5.8-.9 6.1-.9 1.4-1.9 24.3-1.9 42 .1 16.6.9 34.4 1.9 40 .1.8.6 4.2 1 7.5 3 25.8 13.5 55.8 25.2 71.8 6.5 8.9 19.1 22.4 25.4 27.3 12.3 9.5 30.9 17 47.4 19.1 7.6 1 41.5.9 47.5-.1 31.7-5.6 53.1-22.6 64-50.8 3.9-9.9 6.9-23.1 7.2-31.1l.3-6.2-3.5-.5c-3.2-.5-3.5-.8-3.5-4v-3.5l-7-.1c-8.3-.2-9.5.2-9.5 2.8 0 4.9-4.6 20.1-8.5 28.4-11.3 23.4-31.1 34.7-63.1 35.9-10.8.3-22.1-1.2-29.4-4-7.6-3-17.7-10.3-21.5-15.5-6.3-8.5-14.2-26.8-17-39-2.3-10.2-3.7-17.5-5.1-28.5-2-15-2.6-59.7-1-79 5.1-65.2 24.1-99.9 58.6-107.1 24.2-5 58.3 3.6 72.2 18.3 7.2 7.6 12.3 23.9 12.8 40.5 0 1 1.4 2.1 3.4 2.8 2.9.9 3.5 1.7 3.8 4.3.2 2.6.8 3.2 3.3 3.7 1.7.4 4.1.3 5.5 0l2.5-.6v-55.9L730 271c-6.3-9-13.9-16.3-21.5-20.5-8.8-4.9-25.2-9.7-41.5-12-9.2-1.4-45.3-1.3-54.3.1zm-573.4 2.2c-1.8.2-3.4.9-3.4 1.5-1.1 8.7-.1 12.7 3.1 12.7 1.1 0 2 .6 2.1 1.2.1 2.7.8 5.1 1.6 5.8.4.4 3.7 1 7.1 1.4 7.2.6 16.5 4.4 18 7.3 1.1 2.1 7.7 24.2 9.8 32.8.1.5 2.1 8.2 4.4 17 5.7 21.6 9 34.7 9.5 36.5.1.8 3.3 13.2 7 27.5s6.9 26.7 7 27.5c.2.8 2.7 10.5 5.5 21.5 2.9 11 5.3 20.7 5.5 21.5.2.8 2.4 9.6 5 19.5s4.9 18.7 5.1 19.5c.2.8 1.5 6 2.9 11.5 1.5 5.5 2.8 10.7 3 11.5.2.8 1.5 5.8 2.9 11 7.3 28 7.7 29 10 29 .7 0 2 1.8 2.9 4.1 1.5 3.9 1.7 4 5.8 3.7l4.2-.3 3.8-11.5c2.1-6.3 7.4-23 11.9-37s8.5-26.6 9-28c.5-1.4 3.9-12 7.5-23.5 3.6-11.6 8.8-27.8 11.5-36 6.7-20.9 17.4-54.4 20.3-64 1.4-4.3 2.9-8.1 3.5-8.3.5-.1 2.9 5.7 5.2 13 2.3 7.3 6.6 20.9 9.5 30.3 3 9.3 7.4 23.5 9.9 31.5 19 61.5 32.9 105.8 33.6 107.5.5 1.1 1.8 5.4 3 9.6 1.7 5.8 2.8 7.9 4.5 8.7 1.4.6 2.6 2.3 3 4.1.7 3.4 3.7 4.8 8 3.7 2-.5 2.8-1.7 4-6.4.9-3.1 2.3-8 3.1-10.7 2.1-7.4 15.5-56.8 15.9-58.5.3-1.6 1-4.1 11.7-43.5 3.8-14.3 7.2-27.1 7.4-28.5.3-1.4.7-3.2 1-4 .5-1.3 9.8-35.5 10.8-40 .2-.8 2.3-8.5 4.6-17 21.1-78.5 21.1-78.4 26.1-83.8 7.6-8.2 20.5-10.7 33.6-6.6 9.7 3.1 8.8-9.8 8.9 128.8 0 67-.3 123.9-.8 126.4-.9 5.1-4.6 10.5-9 13.2-3.3 2-12.8 4-20.1 4.4-5.6.2-6.7 1.2-6.9 5.7-.2 5.1 1 7.6 3.7 8.3 1.7.4 2.5 1.3 2.5 2.9.1 5.3-2.4 5 56.5 5 45.9 0 54.8-.2 55.6-1.4.5-.8.9-3.5.9-6 0-4.9-1.8-7.6-4.5-6.5-1.1.4-1.5-.2-1.5-2.7 0-4.5-.9-5.4-5.5-5.4-6.4 0-13.6-1.3-18.7-3.5-4-1.7-4.9-2.6-5.8-5.7-1.5-5.3-1.4-243.8.1-249.6 2.4-9.6 11.1-14.9 26.2-16.1 4.5-.4 8.5-1.2 8.9-1.8.4-.6.8-3.2.8-5.8 0-5-2-8.1-4.5-7.2-1.1.5-1.5-.1-1.5-2.2 0-6 5.8-5.6-89.5-5.6-53.4 0-88 .3-88.6.9-1.4 1.4-2 7.9-.9 10.8.6 1.5 1.7 2.5 2.9 2.5 1.4 0 2.1 1 2.5 3.6.8 4 1 4.1 9.1 4.7 7.8.6 15.1 2.5 16.7 4.4 1 1.2.9 3.2-.5 9.8-.9 4.6-2.4 10.5-3.2 13.1-1.4 4.6-15.3 55.8-22.5 82.9-1.8 6.6-4.1 15.1-5.1 19-1.1 3.8-2.1 7.7-2.3 8.5-4.3 17.1-15.8 57.5-16.7 58.6-1.3 1.6 1.1 8.6-38.1-108.6-12.6-37.6-23.4-68.8-24.1-69.2-.6-.3-1.4-.5-1.8-.3-.3.3-1.2-1.3-1.9-3.5-.7-2.1-1.8-4.1-2.4-4.3-2.1-.7-10.6-.1-11.5.8-.8.9-15.3 44.3-32.5 97.5-23.3 71.9-28.9 88.6-30 89.7-1.1 1.2-3.9-8.1-8.6-27.7-.4-1.9-2.7-10.5-4.9-19-9.4-35.7-18.3-69.7-19.1-73-1.3-5.3-5.2-20.4-10.5-40-2.6-9.6-4.8-19.3-4.9-21.5-.3-4 1.4-8.7 4.1-11.3 2.5-2.6 11.2-5.2 19.1-5.8 4.2-.4 8-1.1 8.4-1.8 1-1.4 1-9.8 0-11.2-.4-.7-1.6-1.3-2.7-1.5-1.2-.3-2.2-1.5-2.6-3.7-.4-1.8-.9-3.6-1.2-3.9-.6-.5-97.8-1-103.4-.5z"/></svg>