<?xml version="1.0" standalone="no"?>
<!DOCTYPE svg PUBLIC "-//W3C//DTD SVG 1.1//EN" "http://www.w3.org/Graphics/SVG/1.1/DTD/svg11.dtd" >
<svg xmlns="http://www.w3.org/2000/svg">
<metadata></metadata>
<defs>
<font id="ethos_boldbold" horiz-adv-x="1085" >
<font-face units-per-em="2048" ascent="1536" descent="-512" />
<missing-glyph horiz-adv-x="542" />
<glyph unicode="&#xfb01;" horiz-adv-x="1325" d="M676 1405q198 0 297.5 -55t99.5 -158q0 -59 -32 -88t-85 -29q-45 0 -72.5 27.5t-27.5 60.5q0 17 7 33t7 33q0 104 -182 104q-231 0 -231 -246v-108h501q25 0 39 -1t37.5 -9.5t36 -24t23 -47.5t10.5 -78v-610q0 -31 4 -50t18.5 -39t46.5 -29t84 -9q13 0 13 -41t-13 -41 h-534q-14 0 -14 41t14 41q65 0 93 32t28 95v692h-209q-61 0 -98.5 -9t-54 -29t-21 -38.5t-4.5 -50.5v-565q0 -28 3.5 -46.5t15.5 -39t40.5 -31t73.5 -10.5q14 0 14 -41t-14 -41h-545q-6 0 -10 13.5t-4 27.5q0 41 14 41q89 0 121.5 29.5t32.5 97.5v692h-119q-14 0 -14 39 t16 39h27q57 0 83 31t31 100q12 141 123.5 218t329.5 77z" />
<glyph unicode="&#xfb02;" horiz-adv-x="1386" d="M705 1405q477 0 477 -313v-883q0 -62 28 -94.5t115 -32.5q12 0 12 -41t-12 -41h-299q-104 0 -104 156v936q0 239 -217 239q-49 0 -86.5 -7.5t-63.5 -20t-44 -35.5t-28 -45.5t-15.5 -58.5t-7 -66.5t-1.5 -77.5v-41h227q12 0 12 -39t-12 -39h-51q-59 0 -95.5 -8.5 t-53.5 -28t-22 -39t-5 -51.5v-565q0 -30 3.5 -48.5t15.5 -39t40 -30t72 -9.5q14 0 14 -41t-14 -41h-543q-14 0 -14 41t14 41q52 0 84.5 10.5t46 31.5t17.5 39t4 46v692h-117q-14 0 -14 39t14 39h29q34 0 56.5 9.5t34 30.5t15.5 38.5t8 48.5q8 76 41.5 131.5t79 87t110 50.5 t122 24.5t127.5 5.5z" />
<glyph horiz-adv-x="0" />
<glyph horiz-adv-x="682" />
<glyph unicode=" "  horiz-adv-x="542" />
<glyph unicode="&#x09;" horiz-adv-x="542" />
<glyph unicode="&#xa0;" horiz-adv-x="542" />
<glyph unicode="!" horiz-adv-x="606" d="M193 477v899q0 17 112 17q111 0 111 -17v-899q0 -16 -113 -16q-110 0 -110 16zM303 -27q-18 0 -35 2t-39 11t-38 24t-27.5 44t-11.5 67q0 145 155 145q148 0 148 -147q0 -38 -11.5 -66t-27 -43t-38 -24t-39.5 -11t-36 -2z" />
<glyph unicode="&#x22;" horiz-adv-x="776" d="M152 1008v378q0 7 27 12t61 5q86 0 86 -17v-378q0 -17 -88 -17q-86 0 -86 17zM453 1008v378q0 7 26.5 12t61.5 5q84 0 84 -17v-378q0 -17 -88 -17q-84 0 -84 17z" />
<glyph unicode="#" horiz-adv-x="1349" d="M1264 979q15 0 4 -86q-5 -34 -13.5 -58t-17.5 -24h-207l-45 -242h211q16 0 2 -86q-13 -82 -33 -82h-207q-63 -387 -67 -401q-5 -16 -98 -16q-17 0 -31.5 0.5t-30 2t-24 5t-7.5 8.5l66 401h-141q-48 0 -80.5 -10.5t-49 -32t-23 -40t-11.5 -46.5q-6 -43 -24 -151t-21 -121 q-2 -16 -99 -16q-17 0 -31.5 0.5t-29.5 2t-23.5 5t-7.5 8.5l66 401h-207q-14 0 -2 84q4 27 10 47t11.5 28.5t9.5 8.5h204l43 242h-204q-17 0 -4 84q12 84 30 84h205q66 387 68 399q2 17 100 17q16 0 30.5 -0.5t29.5 -2.5t24 -5.5t8 -8.5l-65 -399h139q49 0 82 11.5t49 33.5 t22.5 40t10.5 44q36 238 45 270q2 17 100 17q16 0 29 -0.5t29.5 -2t25.5 -5t8 -9.5l-65 -399h207zM815 698l21 113h-142q-49 0 -81.5 -11t-48.5 -33t-22 -40t-10 -45l-22 -113h143q39 0 68.5 9t45 20.5t26.5 32t14.5 33t7.5 34.5z" />
<glyph unicode="$" horiz-adv-x="1177" d="M674 829q70 -34 124.5 -66t110 -77.5t91.5 -94.5t58.5 -114t22.5 -139t-21.5 -134t-58 -98t-79 -65t-90.5 -40.5t-86 -19.5t-72 -6v-116q0 -17 -82 -17t-82 17v116q-52 0 -118.5 13t-131 36.5t-108 63t-43.5 86.5v217q0 10 38 10q39 0 39 -10q0 -63 23 -118t59 -92.5 t80 -65.5t85.5 -42.5t76.5 -17.5v561q-68 32 -118.5 60t-102.5 68.5t-85 84t-54 102.5t-21 128q0 83 30 147t73 99.5t98.5 58.5t98.5 30t81 7v119q0 16 84 16q80 0 80 -16v-117q45 0 102.5 -13t113.5 -36.5t94 -63.5t38 -86v-157q0 -5 -11.5 -9t-29.5 -4q-37 0 -37 13 q0 57 -29 109.5t-72.5 87t-88.5 55.5t-80 24v-494zM674 70q157 61 157 243q0 108 -157 207v-450zM510 926v381q-133 -59 -133 -203q0 -52 35.5 -94.5t97.5 -83.5z" />
<glyph unicode="%" horiz-adv-x="1529" d="M1155 633q71 0 125 -15.5t96.5 -51.5t65 -101t22.5 -158q0 -319 -317 -319q-52 0 -95 8t-85.5 29.5t-72 56.5t-47.5 93.5t-18 135.5q0 322 326 322zM391 1419q70 0 124 -15.5t97 -51.5t65.5 -100.5t22.5 -157.5q0 -320 -319 -320q-315 0 -315 324q0 77 18.5 135t48.5 93 t74 56.5t87.5 29t96.5 7.5zM422 -12q-25 0 -43.5 0.5t-34.5 2t-23.5 4.5t-5.5 7q3 8 332.5 689.5t333.5 688.5q4 15 109 15q23 0 39 -0.5t34.5 -2t27 -4.5t5.5 -8l-666 -1378q-6 -14 -108 -14zM1147 55q25 0 40 7.5t28.5 32.5t19.5 78.5t6 141.5q0 110 -9 164t-26 70t-51 16 q-35 0 -55.5 -15.5t-34.5 -71.5t-14 -159q0 -88 6 -143t20 -80.5t29.5 -33t40.5 -7.5zM381 842q36 0 54 14t30 72t12 174q0 109 -9.5 163.5t-26.5 70.5t-50 16q-37 0 -57 -16t-32.5 -71t-12.5 -159q0 -88 6 -143t19.5 -80.5t28 -33t38.5 -7.5z" />
<glyph unicode="&#x26;" horiz-adv-x="1296" d="M1212 0h-278q-62 0 -96 37q-122 -66 -246 -66q-56 0 -100 2.5t-100 12.5t-98 27.5t-85 50t-70.5 77t-45 111t-17.5 149.5q0 70 17.5 136.5t42 112t49 81t41.5 51.5l18 17q-3 3 -7.5 10t-16.5 30.5t-21.5 50t-17 70t-7.5 89.5q0 77 13 135.5t40.5 97t61.5 63.5t85 38 t100.5 17.5t117.5 4.5q173 0 259.5 -53t86.5 -148v-178q0 -12 -51 -12q-15 0 -33 3.5t-18 8.5q0 34 -4 66t-19 72.5t-39.5 69.5t-69 49t-104.5 20q-103 0 -150 -55t-47 -175q0 -33 6.5 -66.5t15.5 -60.5t25 -58t28 -51t32.5 -47t30 -39t29 -34.5t22.5 -26.5q22 -25 96 -120 t136 -173t65 -78l22 60v100q0 25 -3 43.5t-13.5 40t-34.5 33.5t-61 12q-13 0 -13 39q0 41 13 41h420q12 0 12 -41q0 -39 -12 -39q-34 0 -58 -9t-36 -21t-19 -31.5t-8.5 -33.5t-1.5 -34v-125q-35 -96 -101 -174q45 -51 91.5 -75.5t125.5 -24.5q15 0 15 -39q0 -41 -15 -41z M762 129l-408 508q-5 -8 -11.5 -24t-18 -76.5t-11.5 -135.5q0 -53 5.5 -96.5t13.5 -75.5t23 -56.5t28 -40.5t36 -27t38.5 -16.5t43.5 -8.5t44.5 -3.5t46.5 -0.5q47 0 89.5 13t61.5 27z" />
<glyph unicode="'" horiz-adv-x="499" d="M162 1008v378q0 7 27 12t61 5q86 0 86 -17v-378q0 -17 -88 -17q-86 0 -86 17z" />
<glyph unicode="(" horiz-adv-x="653" d="M426 -154q-71 0 -86 9q-6 3 -10 8q-25 34 -44.5 65.5t-51 104.5t-52 155.5t-36 215t-15.5 286.5q0 115 9 218.5t21 176.5t33.5 143.5t36 109t40 83.5t34 57.5t27.5 39.5q10 16 96 16q84 0 94 -12q1 -2 0 -4q-65 -86 -99 -276.5t-34 -551.5t32 -549t101 -278q4 -7 -18 -12 q-26 -5 -78 -5z" />
<glyph unicode=")" horiz-adv-x="653" d="M227 -154q-100 1 -94 17q68 89 99.5 276.5t31.5 550.5q0 361 -34 551.5t-99 276.5q-3 5 13 9q29 7 81 7q87 0 99 -16q61 -89 92 -163q108 -252 108 -665q0 -154 -16 -287t-36 -214.5t-51.5 -155.5t-50 -104t-44.5 -66q-5 -7 -12.5 -10.5t-24.5 -5t-25.5 -1.5h-36.5z" />
<glyph unicode="*" horiz-adv-x="1112" d="M557 1405q78 0 78 -16v-162q0 -11 13.5 -20.5t25.5 -6.5q11 4 84 25.5t82 23.5q7 3 20 -19t21 -48q25 -72 8 -78q-32 -6 -166 -51q-10 -3 -15 -18.5t1 -24.5t51 -68t49 -63q12 -12 -55 -60q-61 -45 -72 -31q-4 4 -49 63t-51 69q-9 9 -26.5 8.5t-25.5 -8.5 q-2 -2 -49 -65.5t-53 -68.5q-8 -12 -74 35q-62 43 -53 58l102 131q7 9 1.5 24.5t-15.5 18.5l-166 51q-16 5 10 80q10 33 19.5 50.5t19.5 14.5l166 -49q10 -4 24.5 6t14.5 21v162q0 16 80 16z" />
<glyph unicode="+" horiz-adv-x="1118" d="M471 520h-334q-18 0 -18 86q0 84 18 84h334v316q0 16 90 16q86 0 86 -14v-318h336q7 0 11.5 -27.5t4.5 -58.5q0 -84 -16 -84h-336v-317q0 -8 -29 -12.5t-59 -4.5q-88 0 -88 17v317z" />
<glyph unicode="," horiz-adv-x="507" d="M252 289q86 0 123 -48.5t37 -164.5q0 -32 -7 -66.5t-18.5 -66t-26.5 -63t-32 -59.5t-33.5 -53t-32.5 -45t-27.5 -34.5t-19.5 -23.5l-8 -9q-9 -9 -57 6q-16 5 -32.5 15t-13.5 14l12 16q11 16 24 37t29 53t26 64t15 69.5t-5 69.5q-107 25 -107 143q0 146 154 146z" />
<glyph unicode="-" horiz-adv-x="794" d="M692 518h-588q-18 0 -18 86q0 84 18 84h588q15 0 15 -86q0 -84 -15 -84z" />
<glyph unicode="." horiz-adv-x="479" d="M238 -16q-22 0 -41 4t-43 16.5t-38 41t-14 71.5q0 131 142 131q133 0 133 -133q0 -131 -139 -131z" />
<glyph unicode="/" horiz-adv-x="909" d="M229 -12q-9 -15 -110 -15q-21 0 -37 0.5t-34.5 2t-27.5 4.5t-6 8l664 1378q7 14 110 14q24 0 38 -0.5t34 -1.5t29 -4t6 -8z" />
<glyph unicode="0" horiz-adv-x="1224" d="M623 1403q58 0 104.5 -5t103 -22.5t99 -47.5t85.5 -84t70.5 -128t44.5 -183.5t17 -246.5q0 -135 -17 -243t-44 -182t-69.5 -128t-85.5 -84.5t-99 -48.5t-103.5 -23.5t-105.5 -5.5q-61 0 -110.5 5.5t-108 23.5t-103 48.5t-88.5 84.5t-72 128t-45.5 182t-17.5 243 q0 109 11.5 200.5t30.5 159.5t49 122.5t61.5 91.5t72.5 64t77.5 42t82.5 23.5t81.5 11t78.5 2.5zM623 76q25 0 41.5 1.5t37 6t34 14t29 25t25.5 39.5t20.5 57t16.5 77.5t11.5 101.5t7.5 129t2 159q0 139 -5 238.5t-17.5 168.5t-28.5 110.5t-44 64t-57 30t-73 7.5 q-37 0 -62 -4t-53 -18t-46 -40.5t-35 -71.5t-26.5 -110.5t-15.5 -159t-6 -215.5q0 -166 14 -283t34 -180t55 -97t65 -42t76 -8z" />
<glyph unicode="1" horiz-adv-x="923" d="M813 0h-629q-5 0 -8.5 14.5t-3.5 26.5q0 41 12 41q49 0 83 7t52 17t27.5 28.5t11.5 34t2 40.5v870h-227q-14 0 -14 39q0 12 4 25.5t10 13.5q29 0 69 6t90.5 22.5t92 40t70 63.5t28.5 89q0 15 78 15q76 0 76 -15v-1169q0 -33 5.5 -53t22.5 -38.5t53.5 -27t94.5 -8.5 q14 0 14 -41t-14 -41z" />
<glyph unicode="2" horiz-adv-x="1140" d="M981 0h-918q-18 0 -24.5 12t6.5 27q1 1 79 88.5t179.5 208.5t206 255t175.5 256.5t71 184.5q0 68 -18 118t-43 75.5t-60.5 40.5t-60 18.5t-52.5 3.5q-131 0 -216 -80.5t-85 -181.5q0 -10 -39 -10t-39 10v180q0 85 113.5 142t271.5 57q61 0 117.5 -7t125 -31t118 -64 t83.5 -113t34 -170q0 -68 -55 -179t-130 -218.5t-157.5 -213t-133 -164t-61.5 -69.5q-10 -9 -2.5 -23t25.5 -14h294q30 0 46.5 1.5t39.5 9t36.5 23t27.5 45t22 73.5q2 12 43 12t41 -12q0 -9 -16.5 -132.5t-19.5 -138.5q-1 -8 -9.5 -14t-15.5 -6z" />
<glyph unicode="3" horiz-adv-x="1157" d="M551 -29q-124 0 -211.5 15.5t-134 44.5t-66.5 63t-20 78v197q0 5 15.5 8.5t27.5 3.5q11 0 27 -3.5t16 -8.5q0 -47 5.5 -82t26.5 -75t57 -66t101.5 -43t155.5 -17q217 0 217 262q0 69 -7 120t-21.5 83t-31 52t-42.5 29t-48 12t-55 3h-151q-7 0 -12 19t-5 41q0 57 17 57 h151q27 0 47.5 4t45.5 21t41 46.5t27 85.5t11 134q0 49 -6 86.5t-15.5 62.5t-26 42.5t-31 26.5t-38 14t-39.5 6t-42 1q-63 0 -116 -19t-87 -48.5t-57.5 -66.5t-33.5 -71.5t-10 -64.5q0 -10 -38 -10q-37 0 -37 10v178q0 82 101.5 141.5t277.5 59.5q33 0 61.5 -1.5t66 -5.5 t68.5 -11.5t66 -21t62.5 -32t53 -45.5t43 -60.5t27.5 -79t10 -99.5q0 -227 -157 -306q-9 -4 -11.5 -10t1.5 -11.5t14 -8.5q196 -81 196 -371q0 -369 -487 -369z" />
<glyph unicode="4" horiz-adv-x="1157" d="M1087 512q15 0 15 -94q0 -90 -15 -90h-229v-119q0 -31 4.5 -50t21 -39t53.5 -29t97 -9q13 0 13 -41t-13 -41h-612q-12 0 -12 41t12 41q50 0 84.5 8t52 18t27 29.5t11 33.5t1.5 38v119h-541q-12 0 -19 9.5t-1 18.5l522 1022q9 15 139 15h13q147 0 147 -15v-866h229z M598 512v692q0 9 -3.5 13t-8.5 2t-8 -9l-330 -655q-8 -14 4 -28.5t27 -14.5h319z" />
<glyph unicode="5" horiz-adv-x="1064" d="M510 -27q-201 0 -306.5 46.5t-105.5 154.5v166q0 10 45 10q43 0 43 -10q0 -131 72 -191.5t252 -60.5q34 0 59 5.5t51.5 24t43 50t27.5 88.5t11 135q0 100 -6 164t-15 102.5t-30.5 56.5t-42.5 22.5t-61 4.5q-69 0 -167.5 -17.5t-160.5 -34t-74 -21.5q-10 -3 -21.5 4 t-10.5 18q2 11 26.5 327t24.5 329q2 13 12.5 22.5t28.5 9.5h657q28 0 31 -24q2 -10 20 -147t19 -140t-3.5 -5.5t-11.5 -3.5l-14 -2t-12 -1q-40 0 -43 12q-20 105 -62.5 138.5t-115.5 33.5h-168q-55 0 -90.5 -10.5t-52.5 -33t-22.5 -42.5t-8.5 -53l-23 -221q-2 -12 9 -20 t24 -5q1 0 26 7t49 12.5t62 10.5t72 5q41 0 69 -1t67 -6.5t65.5 -15t59 -27t54 -43t43.5 -63.5t35 -86t21 -113.5t8 -144.5q0 -80 -16 -143.5t-41.5 -106.5t-64 -74.5t-76.5 -48.5t-87.5 -27t-88 -13t-85.5 -3z" />
<glyph unicode="6" horiz-adv-x="1191" d="M616 877q44 0 73.5 -1t73 -5.5t73.5 -12.5t67.5 -24t62.5 -38t51 -55.5t41.5 -76t25.5 -100.5t10 -128q0 -87 -15.5 -156.5t-40 -116.5t-62.5 -82t-76.5 -54.5t-89 -31t-92 -15t-93.5 -3.5q-53 0 -92.5 2.5t-87 11t-82.5 23.5t-73 41.5t-65 63.5t-52.5 91t-41 122.5 t-24.5 159.5t-9 200q0 112 12 206t31.5 163t51 123.5t63 90.5t75.5 62t80 39.5t84.5 21.5t82 9.5t79.5 1.5q85 0 163 -17t133 -55t55 -88v-166q0 -12 -47 -12q-41 0 -41 12q0 207 -265 207q-66 0 -111 -18.5t-81 -67.5t-56.5 -140t-27.5 -230q-1 -18 13.5 -23.5t25.5 2.5 q90 64 198 64zM625 80q21 0 32.5 0.5t31 3.5t31 9t28 18t26 29.5t20.5 44t17 60t10 80.5t4 103q0 126 -13.5 202t-47 106t-59 36t-78.5 6h-11q-55 0 -105.5 -18.5t-76.5 -36.5t-59 -47q-2 -162 10 -274t31 -175t54.5 -96.5t68.5 -42t86 -8.5z" />
<glyph unicode="7" horiz-adv-x="1071" d="M295 -14q-27 0 -46.5 0.5t-37.5 2t-26.5 4.5t-6.5 7l588 1206q6 12 -6 27.5t-27 15.5h-368q-82 0 -121.5 -31.5t-61.5 -130.5q-2 -12 -39 -12q-6 0 -13.5 1t-14.5 2t-11.5 3.5t-3.5 5.5q0 5 18.5 133.5t20.5 137.5q0 20 25 20h872q13 0 21 -12t2 -20q-14 -21 -324.5 -680 t-318.5 -670q-40 -10 -121 -10z" />
<glyph unicode="8" horiz-adv-x="1128" d="M848 711q69 -37 107 -87q75 -97 75 -255q0 -76 -18.5 -137.5t-47 -101.5t-70.5 -70t-82 -46t-89.5 -25t-84.5 -11.5t-75 -2.5q-38 0 -72.5 2.5t-83.5 12t-89 25.5t-82.5 46t-71.5 70.5t-47.5 102.5t-18.5 139q0 236 177 335l6 3q14 6 15.5 18.5t-11.5 20.5 q-150 91 -150 301q0 356 436 356q40 0 73.5 -2t78.5 -11t80.5 -23.5t72.5 -42t61.5 -64t40 -92.5t15.5 -125q0 -60 -13.5 -111t-30.5 -80.5t-41.5 -55t-36 -33t-25.5 -15.5q-11 -6 -11 -20t13 -21zM571 1323q-32 0 -53.5 -3t-48 -18t-42.5 -42t-27 -78t-11 -123 q0 -80 11 -137t26.5 -86.5t41.5 -45.5t45.5 -19t49.5 -3q25 0 42 2.5t39.5 11t37.5 27.5t29 49.5t21 80.5t7 116q0 74 -9.5 125.5t-23.5 79t-38.5 42t-44.5 18t-52 3.5zM563 80q25 0 41 1t41 7.5t41 17.5t34.5 33t29.5 53t18.5 79t7.5 108q0 85 -15 146t-35 92.5t-52.5 49.5 t-55.5 21.5t-55 3.5q-29 0 -54.5 -6t-55.5 -25.5t-51 -52t-35.5 -91t-14.5 -136.5q0 -54 5 -97.5t16 -74t22.5 -53.5t29.5 -36.5t32.5 -22t36 -12t35 -4.5t34.5 -1z" />
<glyph unicode="9" horiz-adv-x="1165" d="M563 1405q52 0 90.5 -2.5t84 -11t79 -23.5t70 -41.5t61.5 -63.5t49 -91t38.5 -122.5t23 -159t8.5 -200.5q0 -112 -12 -206t-31 -163t-50 -123.5t-61.5 -90.5t-73 -62t-77.5 -39.5t-82 -21.5t-79.5 -9.5t-76.5 -1.5q-94 0 -180 17t-146.5 55t-60.5 88v166q0 12 43 12 q12 0 27.5 -3.5t15.5 -8.5q0 -63 24 -105t69.5 -62t93.5 -27t114 -7q88 0 138.5 36.5t82.5 140t43 294.5q1 18 -12 24t-24 -3q-59 -37 -96 -48q-48 -14 -113 -14q-53 0 -90 2t-87.5 11t-84.5 25.5t-71.5 48t-60 75.5t-37 110.5t-14.5 151.5q0 86 15 155t39.5 116t62 81 t75.5 53t88 30.5t91.5 14.5t93.5 3zM559 627q43 0 78.5 8.5t67 28t44.5 30t42 35.5q-1 147 -7.5 242.5t-21 164.5t-41.5 104.5t-64 51t-94 15.5q-32 0 -51 -2.5t-45 -12.5t-41.5 -32.5t-30.5 -59.5t-21.5 -97t-6.5 -142q0 -93 10 -157t24.5 -98.5t42 -52.5t51 -22t64.5 -4z " />
<glyph unicode=":" horiz-adv-x="542" d="M268 655q-21 0 -40 4.5t-43 16.5t-38 41t-14 71q0 132 141 132q22 0 41.5 -4.5t43 -17t37.5 -41t14 -71.5q0 -34 -10.5 -59t-25.5 -38.5t-36 -21.5t-37 -10t-33 -2zM268 -12q-21 0 -40 4.5t-43 16.5t-38 41t-14 71q0 131 141 131q136 0 136 -133q0 -34 -10.5 -59 t-25.5 -38.5t-36 -21.5t-37 -10t-33 -2z" />
<glyph unicode=";" horiz-adv-x="550" d="M270 655q-22 0 -41 4t-42.5 16.5t-37.5 41t-14 71.5q0 132 139 132q136 0 136 -134q0 -34 -10.5 -59t-25 -38.5t-35 -21.5t-36.5 -10t-33 -2zM274 233q78 0 111 -43.5t33 -148.5q0 -29 -6 -59.5t-16.5 -59t-24 -57t-29 -53.5t-30 -47t-29 -41t-24.5 -31.5t-18 -21.5 l-8 -9q-7 -7 -51 8q-6 2 -14 5.5t-15 7.5t-11 8t-3 6q3 3 14 18t29.5 45t31.5 63t20.5 73.5t-3.5 76.5q-96 21 -96 129q0 131 139 131z" />
<glyph unicode="&#x3c;" horiz-adv-x="1034" d="M936 307q-2 -125 -23 -119l-802 482q-12 8 -12 20t12 19l802 477q6 4 9 -8q4 -16 4 -70q0 -78 -13 -88q-5 -4 -224 -129.5t-230 -130.5q-14 -7 -13.5 -24.5t15.5 -26.5l454 -263q21 -13 21 -139z" />
<glyph unicode="=" horiz-adv-x="1116" d="M981 336h-844q-18 0 -18 86q0 84 18 84h844q16 0 16 -86q0 -84 -16 -84zM981 705h-844q-18 0 -18 86q0 83 18 83h844q16 0 16 -86q0 -83 -16 -83z" />
<glyph unicode="&#x3e;" horiz-adv-x="1034" d="M98 307q0 127 21 139l452 263q15 9 16.5 26.5t-12.5 24.5l-456 260q-13 10 -13 88q0 79 10 79q2 0 3 -1l803 -477q14 -7 14 -19t-14 -20l-803 -482q-11 -7 -16 25.5t-5 93.5z" />
<glyph unicode="?" horiz-adv-x="917" d="M389 -25q-60 0 -96.5 30.5t-36.5 96.5q0 127 137 127q129 0 129 -127t-133 -127zM379 389q-96 0 -96 14q0 79 19.5 148.5t50.5 119.5t68.5 94t75 81.5t68.5 72.5t50.5 74.5t19.5 81.5q0 223 -201 223q-109 0 -172 -72t-63 -198q0 -12 -52 -12q-49 0 -49 12v178 q0 87 92 144t254 57q106 0 180 -16.5t129.5 -56.5t82 -110t26.5 -173q0 -50 -21.5 -97t-56 -85.5t-75.5 -77.5t-82.5 -80t-76 -85.5t-56 -102t-21.5 -120.5q0 -14 -94 -14z" />
<glyph unicode="@" horiz-adv-x="1628" d="M823 -27q-65 0 -128 7t-139.5 27t-142 52.5t-129.5 88t-108.5 128.5t-72 179t-27.5 235q0 715 794 715q63 0 125 -7t131 -25t129 -45.5t115.5 -73t95 -104t63 -141t23.5 -180.5q0 -89 -17.5 -164t-46 -126t-65 -91.5t-72 -64t-70.5 -38.5t-58.5 -20.5t-36.5 -5.5h-156 q-23 0 -36.5 12t-14.5 48q-67 -80 -180 -80q-39 0 -72.5 3.5t-72 14.5t-68.5 29t-59 49.5t-48.5 74t-31 104t-11.5 137.5q0 97 20.5 170.5t53.5 118.5t82 73t100 38.5t113 10.5q78 0 149 -59q6 -6 16 -4t11 12q11 33 49 33h156v-672q10 0 28 10t43.5 39t47 71t36.5 115 t15 162q0 111 -30.5 196.5t-78 136t-114 83t-130 44t-133.5 11.5q-68 0 -126 -6.5t-119.5 -24t-110 -46t-93 -75.5t-74 -109.5t-47 -151t-17.5 -197.5q0 -164 44.5 -285.5t122 -190t171 -100.5t204.5 -32q78 0 167.5 16.5t153.5 36t133 46.5t88.5 36.5t37.5 18.5q4 3 8 -9 q4 -16 4 -43q0 -48 -10 -55q-10 -6 -35.5 -19t-86.5 -38t-127.5 -46t-157.5 -37t-177 -16zM799 354q39 0 69 15t56.5 52.5t40.5 109.5t14 176v262q-9 11 -25.5 27.5t-62 43.5t-86.5 27q-26 0 -45 -5t-41 -26.5t-35.5 -58.5t-23 -106.5t-9.5 -165.5q0 -94 9 -161.5t22 -103.5 t34.5 -56t39 -25t43.5 -5z" />
<glyph unicode="A" horiz-adv-x="1468" d="M37 0q-12 0 -12 41q0 39 12 39q34 0 59 4t54 16t52 38t40 67q16 39 139.5 333t239 567.5t116.5 276.5q5 9 19 9t16 -9q1 -4 109 -279.5t224.5 -571t133.5 -336.5q26 -65 73 -90t115 -25q4 0 8.5 -14t4.5 -25q0 -14 -3.5 -27.5t-9.5 -13.5h-618q-12 0 -12 41q0 39 12 39 q96 0 128 29t7 96l-61 176h-305q-47 0 -81.5 -6t-53.5 -12.5t-35.5 -24t-21 -25.5t-15.5 -33q-3 -5 -4 -8q-9 -18 -31 -73q-26 -69 9.5 -94t123.5 -25q14 0 14 -39q0 -41 -14 -41h-432zM442 459h258q83 0 110 29t7 83l-137 379q-3 13 -15 13.5t-18 -11.5z" />
<glyph unicode="B" horiz-adv-x="1312" d="M61 82q106 0 140.5 27t34.5 100v960q0 72 -34 99.5t-141 27.5q-14 0 -14 41t14 41h660q105 0 187.5 -21.5t133 -55.5t83 -81.5t45 -95t12.5 -100.5q0 -49 -10.5 -92.5t-25.5 -73t-38 -55t-39.5 -39.5t-39.5 -27t-29.5 -15.5t-16.5 -6.5q71 -24 118 -60q126 -99 126 -280 q0 -185 -120 -280t-335 -95h-711q-14 0 -14 41t14 41zM606 80h45q289 0 289 295q0 59 -11 108t-37 94t-76.5 71t-121.5 26h-26q-93 0 -123.5 -33.5t-30.5 -95.5v-336q0 -65 20 -97t72 -32zM514 1174l-2 -424q76 2 94 2q156 0 227.5 66t71.5 206q0 141 -66 208.5t-212 67.5 h-21q-52 0 -72 -30t-20 -96z" />
<glyph unicode="C" horiz-adv-x="1331" d="M743 -27q-45 0 -80.5 1.5t-89 9.5t-95.5 21.5t-93.5 39.5t-90 61.5t-76.5 90.5t-62.5 123t-40 162t-15.5 206q0 143 25 257t63.5 187.5t97.5 127t112 81t123.5 43t116.5 18.5t105 3q84 0 163 -12t145.5 -35t106.5 -60.5t40 -83.5v-227q0 -12 -41 -12q-7 0 -22 3.5 t-15 8.5q0 78 -26 139.5t-65.5 98t-92 60.5t-100 33t-95.5 9q-40 0 -68 -3t-66 -17.5t-64.5 -39.5t-54.5 -72.5t-45.5 -113.5t-28.5 -166t-11 -227q0 -107 12 -194.5t31.5 -148t47.5 -106t57.5 -72.5t64.5 -43.5t65 -22t62 -5.5q36 0 61.5 1t66 7.5t70.5 18t65.5 33.5 t60.5 52.5t47 78t33 106.5q2 8 45 8h7h9.5t11 -1t9 -1.5t6.5 -2t2 -3.5q-10 -93 -44 -167t-81.5 -120.5t-109.5 -77t-125.5 -43t-133.5 -12.5z" />
<glyph unicode="D" horiz-adv-x="1423" d="M66 80q56 0 92 8.5t54 26.5t24 39.5t6 54.5v960q0 71 -37 99t-139 28q-13 0 -13 41t13 41h649q62 0 114 -5t118.5 -22t118 -45.5t104 -81t87.5 -123.5t56.5 -176.5t21.5 -236.5t-21 -236t-55 -175.5t-85.5 -123t-103 -81t-118 -45.5t-119.5 -22t-118 -5h-649 q-13 0 -13 41q0 12 4 25.5t9 13.5zM518 1171v-966q0 -73 23 -100t73 -27h101q41 0 70.5 4t65.5 18t60.5 39.5t50 71t40.5 108.5t24.5 156.5t9.5 212.5t-9.5 212.5t-24.5 157t-40.5 109t-50.5 71t-61 40t-66 18.5t-71 4h-99q-55 0 -75.5 -31.5t-20.5 -97.5z" />
<glyph unicode="E" horiz-adv-x="1259" d="M70 82q57 0 92.5 8t53 26t23 38.5t5.5 54.5v960q0 74 -37 101.5t-137 27.5q-15 0 -15 39q0 41 15 41h1001q17 0 21 -18l36 -293q1 -4 -6.5 -6.5t-17 -4t-17.5 -1.5q-40 0 -40 12q-16 95 -43 147.5t-59 69t-81 16.5h-250q-49 0 -70.5 -28t-21.5 -98v-420h240 q72 0 103.5 34t31.5 119q0 6 14 9.5t29 3.5q11 0 26 -4t15 -9v-385q0 -5 -14.5 -8.5t-26.5 -3.5q-43 0 -43 12q0 92 -33 123t-102 31h-107q-73 0 -103 -35t-30 -131v-303q0 -68 20 -98.5t70 -30.5h273q43 0 73 16t50 50t32 71.5t23 95.5q0 13 43 13q41 0 41 -13l-37 -293 q-3 -18 -23 -18h-1017q-7 0 -11 14t-4 27q0 41 15 41z" />
<glyph unicode="F" horiz-adv-x="1202" d="M70 80q107 0 140.5 29t33.5 100v960q0 70 -34.5 98.5t-139.5 28.5q-13 0 -13 41t13 41h1001q7 0 13 -5.5t8 -12.5q1 -4 19 -147t19 -146q0 -12 -45 -12q-38 0 -41 12q-18 93 -43 144.5t-56 70t-79 18.5h-250q-47 0 -70.5 -27t-23.5 -102v-417h242q65 0 99 30t34 123 q0 13 41 13q43 0 43 -13v-387q0 -5 -15.5 -8.5t-27.5 -3.5q-11 0 -26 3.5t-15 8.5q0 90 -33.5 123t-99.5 33h-111q-70 0 -100.5 -33.5t-30.5 -134.5v-299q0 -25 2 -40t11.5 -34t27.5 -29.5t52 -18t83 -7.5q13 0 13 -39q0 -41 -13 -41h-628q-13 0 -13 41q0 39 13 39z" />
<glyph unicode="G" horiz-adv-x="1462" d="M758 -23q-66 0 -122 5t-126.5 23t-126 48t-111.5 84.5t-93 128t-60 182.5t-23 244t23.5 245t61 183t94 128t112.5 85t126 48t125 23t120 5q201 0 343 -57.5t142 -143.5v-217q0 -12 -41 -12q-9 0 -23 3.5t-14 8.5q0 103 -57.5 182t-149 118.5t-200.5 39.5 q-42 0 -72.5 -3.5t-70.5 -18t-68.5 -40t-58.5 -73t-48.5 -113.5t-30.5 -165.5t-12 -225.5q0 -124 14.5 -223.5t36 -163.5t55 -110.5t63 -69.5t69.5 -36.5t65 -16t58 -2.5q83 0 144.5 15t81.5 29l20 15v342q0 68 -27 97.5t-94 29.5q-6 0 -10.5 14t-4.5 27t4 27t11 14h497 q15 0 15 -41t-15 -41q-67 0 -95 -28t-28 -99v-307q-6 -8 -18.5 -20.5t-58 -44.5t-98 -57t-140.5 -45t-184 -20z" />
<glyph unicode="H" horiz-adv-x="1544" d="M57 80q106 0 140 30t34 99v960q0 70 -34 98.5t-140 28.5q-14 0 -14 41t14 41h625q16 0 16 -41t-14 -41q-102 0 -138 -27t-36 -100v-413h346q108 0 143 27.5t35 99.5v286q0 70 -36.5 98.5t-141.5 28.5q-4 0 -8 14.5t-4 26.5t3.5 26.5t8.5 14.5h631q14 0 14 -41 q0 -11 -3.5 -26t-10.5 -15q-105 0 -140.5 -29t-35.5 -98v-960q0 -70 35.5 -99.5t140.5 -29.5q14 0 14 -39q0 -41 -14 -41h-631q-4 0 -8 14t-4 27q0 39 12 39q75 0 114.5 15.5t51.5 41t12 72.5v469h-350q-59 0 -96 -9t-53 -29t-20.5 -39t-4.5 -52v-340q0 -32 5 -52 t21.5 -39.5t53 -28.5t94.5 -9q14 0 14 -39q0 -41 -14 -41h-627q-14 0 -14 41q0 39 14 39z" />
<glyph unicode="I" horiz-adv-x="759" d="M68 80q59 0 96 9t53 29t20.5 39.5t4.5 51.5v960q0 24 -1.5 38t-11 33.5t-27 29.5t-51.5 18t-83 8q-13 0 -13 41q0 11 4 26t9 15h630q11 0 11 -41t-11 -41q-58 0 -94.5 -8.5t-54 -26.5t-23.5 -38.5t-6 -53.5v-960q0 -23 1.5 -36.5t10.5 -33.5t27 -31t53 -19.5t86 -8.5 q11 0 11 -39q0 -41 -11 -41h-630q-4 0 -8.5 14.5t-4.5 26.5q0 13 3.5 26t9.5 13z" />
<glyph unicode="J" horiz-adv-x="784" d="M2 -145q-12 0 -12 43q0 45 12 45q63 0 90.5 1.5t66.5 10t54 26.5t32 52t22 85.5t5 127.5v923q0 28 -4 45.5t-20 39t-54.5 32t-99.5 10.5q-4 0 -8 14t-4 27q0 41 12 41h631q6 0 10 -15.5t4 -25.5t-4 -25.5t-10 -15.5q-73 0 -112 -15t-51.5 -40.5t-12.5 -71.5v-923 q0 -64 -12.5 -117t-30.5 -91t-51.5 -68.5t-60 -49t-73 -32t-74.5 -20t-79 -10t-72 -3.5h-69h-25z" />
<glyph unicode="K" horiz-adv-x="1503" d="M76 80q94 0 129 28.5t35 100.5q0 43 1 481t1 479q0 66 -34.5 96.5t-131.5 30.5q-6 0 -10.5 13t-4.5 28q0 14 4.5 27.5t10.5 13.5h600q5 0 8.5 -15.5t3.5 -25.5t-3.5 -25.5t-8.5 -15.5q-94 0 -126 -33t-32 -94v-403h29q46 0 76 3.5t70 17.5t76.5 46.5t72.5 84.5l186 268 q14 20 20.5 31.5t8.5 28.5t-10 26.5t-44 16.5t-85 7q-6 0 -9.5 13.5t-3.5 27.5q0 12 4.5 26.5t8.5 14.5h458q5 0 9 -13t4 -28q0 -41 -13 -41q-87 0 -135 -29t-88 -85l-192 -277q-66 -101 -140 -149q127 -28 226 -205q22 -37 101 -182.5t87 -159.5q33 -61 53 -81 q50 -48 146 -48q5 0 9.5 -14t4.5 -25t-4.5 -26t-9.5 -15h-312q-30 0 -60.5 13t-41.5 36q-5 8 -117.5 223.5t-140.5 264.5q-22 38 -38.5 64t-34.5 43t-30 25.5t-33.5 13t-34.5 5t-44 0.5h-29v-479q0 -67 34 -98t124 -31q12 0 12 -37q0 -12 -3.5 -27.5t-8.5 -15.5h-600 q-15 0 -15 41q0 14 4.5 26.5t10.5 12.5z" />
<glyph unicode="L" horiz-adv-x="1191" d="M1077 0h-1001q-4 0 -8.5 13t-4.5 26q0 41 13 41q60 0 97.5 9.5t53 30.5t19.5 39t4 50q0 18 2 475.5t2 484.5q0 33 -6 53.5t-23.5 38.5t-54 26.5t-94.5 8.5q-5 0 -9 14t-4 27t4 27t9 14h631q5 0 8.5 -15.5t3.5 -25.5t-3.5 -25.5t-8.5 -15.5q-60 0 -97.5 -9t-54.5 -29 t-22 -39t-5 -50v-964q0 -24 2.5 -39.5t12.5 -34t28.5 -29t52.5 -17.5t83 -7h167q73 0 114.5 51.5t62.5 181.5q2 13 43 13q5 0 12 -1t14.5 -2.5t12.5 -4t4 -5.5l-39 -293q0 -8 -7 -13t-14 -5z" />
<glyph unicode="M" horiz-adv-x="1904" d="M57 82q56 0 92 9.5t52.5 29.5t22 38.5t7.5 49.5q1 21 12.5 255t23 456.5t14.5 248.5q1 32 -3 50.5t-20 38.5t-54 29t-100 9q-6 0 -10 14t-4 27q0 41 14 41h463q9 0 18.5 -5.5t12.5 -12.5q1 -3 87.5 -202.5t175 -402t91.5 -210.5q6 -13 19.5 -12.5t19.5 12.5 q6 9 181.5 410t181.5 409q14 14 26 14h416q5 0 8.5 -14.5t3.5 -26.5t-3.5 -26.5t-8.5 -14.5q-93 0 -122 -29t-27 -98l30 -960q1 -33 6.5 -53.5t22.5 -39t51.5 -26.5t89.5 -8q13 0 13 -41t-13 -41h-633q-14 0 -14 41t14 41q60 0 97.5 9t55.5 27.5t23.5 39t4.5 51.5 q-23 805 -23 946q0 14 -6 15.5t-12 -11.5l-445 -1053q-3 -8 -39 -8t-39 8l-448 1068q-4 14 -13 9q-7 -4 -8 -18q0 -10 -11 -237t-22 -463.5t-12 -255.5q-2 -33 2.5 -53.5t22 -39t54.5 -26.5t98 -8q5 0 8.5 -15t3.5 -26t-3.5 -26t-8.5 -15h-437q-14 0 -14 41t14 41z" />
<glyph unicode="N" horiz-adv-x="1499" d="M72 82q57 0 93 9t52 28.5t20.5 38.5t4.5 51v960q0 32 -5.5 52.5t-22 39t-52 27t-90.5 8.5q-7 0 -11 14t-4 27q0 41 15 41h370q23 0 33 -10q1 -1 335.5 -442t340.5 -447q7 -11 18 -9t11 17v682q0 33 -5 53.5t-22 39t-52.5 26.5t-92.5 8q-7 0 -11 14t-4 27t4 27t11 14h428 q12 0 12 -39q0 -43 -12 -43q-58 0 -94 -9t-52.5 -28.5t-21 -39t-4.5 -52.5v-1185q0 -9 -33 -9q-26 0 -33 9l-846 1112q-8 11 -18 7.5t-10 -16.5v-876q0 -24 2 -39t11.5 -33.5t27 -29t50.5 -18t81 -7.5q12 0 12 -41q0 -11 -3.5 -26t-8.5 -15h-424q-7 0 -11 13.5t-4 27.5 t4 27.5t11 13.5z" />
<glyph unicode="O" horiz-adv-x="1445" d="M731 1403q59 0 102 -3t112.5 -18t120 -42t108.5 -80t94.5 -127t61 -188.5t24.5 -258.5q0 -110 -14.5 -203t-37.5 -161t-59.5 -122.5t-73.5 -90.5t-85.5 -62.5t-90 -41t-93 -22.5t-88 -10t-81.5 -2q-46 0 -83.5 2t-90.5 10t-95.5 22t-93 40.5t-89 62.5t-76 90.5 t-61.5 122.5t-39 161.5t-15 203.5q0 113 15.5 208t40.5 164t64.5 124t78 90.5t90.5 61t93 38.5t95 20.5t87.5 9t78.5 1.5zM731 49q39 0 66 3t63.5 17t61.5 38.5t51.5 72t42.5 113.5t26.5 166t10.5 227q0 128 -10.5 228t-26 166.5t-42 113.5t-51.5 72t-61.5 39t-63.5 17 t-67 3q-38 0 -65.5 -3t-65.5 -17t-65 -38.5t-56 -72t-47 -114t-29.5 -167t-11.5 -227.5q0 -124 12.5 -224t32 -165t49.5 -113t58.5 -73.5t65 -40t63 -18t59.5 -3.5z" />
<glyph unicode="P" horiz-adv-x="1273" d="M68 82q49 0 82.5 6.5t51.5 15.5t27 27.5t11 34t2 43.5v960q0 34 -4 52t-19.5 38t-52.5 28.5t-98 8.5q-4 0 -8.5 13.5t-4.5 27.5t4.5 27.5t8.5 13.5h659q483 0 483 -385q0 -38 -4.5 -72t-17.5 -73.5t-34 -72.5t-56.5 -64.5t-82 -53t-114 -34.5t-149.5 -13h-56 q-60 0 -97 -9t-53.5 -29t-21 -39t-4.5 -50v-274q0 -33 4.5 -52t21 -38.5t53.5 -28t97 -8.5q13 0 13 -41t-13 -41h-628q-5 0 -9 13t-4 28t4 28t9 13zM520 688h96q84 0 146 21.5t94 52t50.5 75.5t23 79t4.5 77q0 47 -4 82t-20.5 80t-46 74.5t-85.5 50t-133 20.5h-29 q-32 0 -52.5 -11t-29.5 -32t-11.5 -39t-2.5 -44v-486z" />
<glyph unicode="Q" horiz-adv-x="1470" d="M1501 82q9 0 14 -13.5t5 -27.5q0 -13 -5 -27t-14 -14q-256 0 -323 10q-73 11 -97 39q-135 -78 -364 -78q-45 0 -80 1.5t-88.5 9.5t-95.5 21.5t-93 39.5t-89.5 61.5t-76.5 90.5t-62.5 123t-40 162.5t-15.5 205.5q0 112 15.5 206t40 162.5t63 123.5t77.5 91t90 62t93 39.5 t95 21.5t88 9.5t79 1.5q45 0 79.5 -1.5t86.5 -9.5t92.5 -21.5t90.5 -39.5t87 -62t74 -91t60.5 -123.5t38.5 -162.5t15 -206q0 -87 -9.5 -165.5t-23 -128t-27 -87t-23.5 -53.5l-9 -16q84 -97 132.5 -125.5t119.5 -28.5zM717 47q30 0 51.5 1.5t50.5 8.5t49.5 19.5t45.5 35.5 t42 55.5t34 81t27 110t16.5 144.5t6.5 183q0 128 -10.5 228t-26 166.5t-42.5 113.5t-51.5 72t-61.5 39t-64 17t-67 3t-67.5 -3t-65.5 -17t-64.5 -38.5t-55 -72t-45.5 -114t-28.5 -167t-11.5 -227.5q0 -126 13 -227.5t33 -167t51 -113.5t59 -72.5t65 -38.5t61.5 -17t55.5 -3z " />
<glyph unicode="R" horiz-adv-x="1386" d="M63 82q62 0 99 8.5t53.5 28.5t20.5 39t4 53v958q0 27 -2 42.5t-11.5 34.5t-27.5 28.5t-52 16.5t-84 7q-4 0 -8 12.5t-4 26.5q0 15 4 28t8 13h660q93 0 168.5 -15.5t125 -39t86.5 -58.5t56.5 -68t31 -73.5t14.5 -69t3 -59.5q0 -298 -293 -364q46 -25 81 -71t51 -89 l127 -262q14 -31 26.5 -50.5t33.5 -38.5t52.5 -28.5t75.5 -9.5q12 0 12 -41t-12 -41h-289q-26 0 -57.5 9.5t-40.5 31.5l-193 420q-20 43 -38.5 71t-34.5 44.5t-39 24t-42 9.5t-53 2h-57v-403q0 -34 3.5 -51.5t19.5 -38t53.5 -29t99.5 -8.5q11 0 11 -41t-11 -41h-631 q-4 0 -8 13.5t-4 27.5t4 27.5t8 13.5zM612 690q62 0 112 11t83 28.5t57 44.5t37 52.5t20 58.5t9 56.5t2 53.5q0 50 -5.5 89t-24.5 81.5t-50.5 70.5t-87 46t-131.5 18h-21q-31 0 -51.5 -11t-29 -31.5t-11 -39t-2.5 -44.5v-484h94z" />
<glyph unicode="S" horiz-adv-x="1173" d="M580 -29q-69 0 -146.5 12t-151 35t-121.5 63.5t-48 90.5v217q0 5 14.5 8.5t26.5 3.5q10 0 23 -3.5t13 -8.5q0 -138 113.5 -239t271.5 -101q28 0 57.5 5t68 21.5t67.5 43.5t49.5 77t20.5 115q0 83 -79.5 152.5t-262.5 163.5q-76 39 -126 69t-99 69.5t-76.5 80t-44.5 94.5 t-17 119q0 66 18 119t46 88t70.5 61t83.5 40.5t92.5 22.5t90.5 10.5t84 2.5q101 0 193.5 -24t153.5 -71t61 -106v-158q0 -10 -39 -10t-39 10q0 43 -23 91.5t-62.5 91t-102 70.5t-133.5 28q-30 0 -59.5 -4.5t-64.5 -19.5t-61 -38.5t-43.5 -65t-17.5 -95.5q0 -73 84 -145 t254 -150q172 -80 270 -199.5t98 -271.5q0 -365 -507 -365z" />
<glyph unicode="T" horiz-adv-x="1261" d="M942 0h-629q-12 0 -12 41t12 41q49 0 83 7.5t52 18t27.5 29t11.5 33.5t2 39v926q0 57 -10 92t-32 50t-41.5 19t-53.5 4h-43q-74 0 -114.5 -49t-65.5 -184q-2 -12 -41 -12q-4 0 -10.5 1t-14.5 2t-13.5 3.5t-4.5 5.5q0 7 18.5 143.5t20.5 149.5q0 18 27 18h1040 q20 0 23 -16q0 -6 18 -149t18 -146q1 -3 -3.5 -5.5t-11.5 -3.5l-14 -2t-12 -1q-41 0 -41 12q-26 136 -67 184.5t-113 48.5h-47q-33 0 -53 -4.5t-41 -20t-31 -50.5t-10 -90v-926q0 -30 4 -47.5t19.5 -38.5t53.5 -31t99 -10q12 0 12 -41t-12 -41z" />
<glyph unicode="U" horiz-adv-x="1499" d="M55 1298q-5 0 -8.5 14t-3.5 25q0 41 12 41h627q5 0 8.5 -15t3.5 -26t-3.5 -25t-8.5 -14q-51 0 -84.5 -4.5t-52 -11t-27 -21.5t-10.5 -27.5t-2 -37.5v-799q0 -313 305 -313q58 0 105 6t99.5 26t88 53.5t59 93.5t23.5 140v793q0 26 -1.5 37.5t-10 27t-26.5 21.5t-52 11 t-86 5q-5 0 -9 14t-4 25q0 13 4 27t9 14h432q14 0 14 -41q0 -11 -3.5 -25t-10.5 -14q-43 0 -73.5 -2.5t-49.5 -9.5t-30 -13.5t-16 -20.5t-6 -24.5t-1 -31.5v-795q0 -83 -17 -149.5t-44 -110.5t-68 -76.5t-80.5 -49.5t-91 -27t-89 -12.5t-85.5 -2.5q-57 0 -102 2.5t-106 12.5 t-107 27.5t-94 50.5t-79.5 78t-51.5 113t-20 153v786q0 32 -3 46.5t-19.5 30t-53 20.5t-100.5 5z" />
<glyph unicode="V" horiz-adv-x="1435" d="M20 1296q-14 0 -14 41q0 12 3.5 26.5t10.5 14.5h629q10 0 10 -41t-10 -41q-53 0 -86.5 -7.5t-48.5 -18.5t-18 -30t1 -33.5t13 -37.5q10 -23 148 -371.5t141 -359.5q6 -15 20.5 -14.5t20.5 14.5l293 731q8 18 11.5 30t5 28.5t-7 27.5t-24 21t-46.5 15t-75 5q-12 0 -12 41 q0 12 3.5 26.5t8.5 14.5h414q12 0 12 -41t-12 -41q-46 0 -79 -10t-52.5 -31t-29.5 -39t-21 -47l-481 -1187q-2 -9 -33 -9q-29 0 -33 9l-475 1187q-13 29 -23.5 47t-31.5 39t-54 31t-78 10z" />
<glyph unicode="W" horiz-adv-x="1994" d="M61 1296q-6 0 -10 13t-4 26q0 43 14 43h607q12 0 12 -41t-12 -41q-65 0 -103.5 -11t-49.5 -32t-10 -39t9 -45q5 -20 38 -130t69 -227t67.5 -222t32.5 -107q5 -14 17.5 -13t17.5 11q7 12 148.5 379.5t146.5 374.5q6 6 39 6q34 0 38 -8l314 -715q4 -14 18 -14t19 14 q196 587 213 651q9 30 10.5 47.5t-8.5 38.5t-47.5 31t-102.5 10q-14 0 -14 41t14 41h404q14 0 14 -41t-14 -41q-44 0 -73.5 -9t-47 -29t-26 -37.5t-19.5 -49.5q-7 -21 -100 -320t-182 -583t-93 -288q-14 -7 -29 -7q-27 0 -30 9l-338 827q-6 13 -20 13t-19 -13 q-5 -15 -164 -419t-162 -408q-5 -9 -31 -9q-21 0 -28 7q-3 5 -89 290t-175 581.5t-99 322.5q-11 33 -19 50t-25.5 36.5t-46 27.5t-71.5 8z" />
<glyph unicode="X" horiz-adv-x="1433" d="M498 0h-455q-5 0 -8.5 15t-3.5 26q0 41 12 41q56 0 100.5 10.5t75 31.5t48.5 39.5t38 45.5l316 420q-269 470 -310 540q-18 31 -33.5 50.5t-41 38.5t-61.5 28.5t-85 9.5q-5 0 -8.5 13.5t-3.5 25.5t3.5 27.5t8.5 15.5h631q5 0 8.5 -15t3.5 -26q0 -41 -12 -41 q-58 0 -89.5 -9.5t-36.5 -29.5t0.5 -38.5t22.5 -49.5l148 -256q7 -13 27.5 -13t29.5 13l195 256q17 23 25.5 39t11.5 34t-8 28.5t-39 18t-76 7.5q-14 0 -14 41t14 41h432q10 0 10 -41t-10 -41q-92 0 -147 -34t-99 -93l-282 -376q290 -506 333 -584q37 -65 85.5 -96 t134.5 -31q5 0 8.5 -15.5t3.5 -25.5t-3.5 -25.5t-8.5 -15.5h-625q-6 0 -10 14t-4 27q0 41 14 41q46 0 74.5 7.5t40 18.5t11 29t-7 33t-18.5 37l-176 301q-7 14 -26.5 14t-30.5 -14l-221 -299q-17 -24 -25.5 -39t-11.5 -33.5t7.5 -29t39.5 -18t78 -7.5q5 0 8.5 -14.5 t3.5 -26.5t-3.5 -26.5t-8.5 -14.5z" />
<glyph unicode="Y" horiz-adv-x="1353" d="M991 0h-629q-14 0 -14 43q0 39 14 39q49 0 83.5 7.5t52.5 18.5t27.5 30t11.5 33.5t2 37.5l-2 387q-265 499 -306 573q-31 65 -77 97t-134 32q-4 0 -8 13t-4 26q0 41 12 41h627q5 0 8.5 -14.5t3.5 -26.5q0 -39 -12 -39q-58 0 -90 -10t-38 -30t-1 -39.5t21 -49.5l223 -415 q8 -14 23.5 -13.5t21.5 13.5l223 415q17 32 22 53.5t-2.5 40t-39 27t-86.5 8.5q-7 0 -11 13.5t-4 25.5q0 13 4 27t11 14h411q13 0 13 -41q0 -9 -3.5 -24t-9.5 -15q-87 0 -131.5 -30t-79.5 -99q-20 -34 -97 -179.5t-143 -270.5t-69 -125v-385q0 -31 4.5 -49.5t20.5 -38.5 t53.5 -29.5t97.5 -9.5q7 0 11 -15t4 -24q0 -11 -4 -27t-11 -16z" />
<glyph unicode="Z" horiz-adv-x="1224" d="M1092 0h-996q-15 0 -24 14t-2 27q5 12 353.5 604.5t360.5 611.5q8 12 -1.5 27.5t-26.5 15.5h-330q-25 0 -42 -3t-39 -16t-38 -37t-32 -69t-27 -108q-3 -12 -43 -12q-41 0 -41 12q0 5 17 139t20 152q6 20 26 20h881q8 0 17 -8.5t12.5 -16.5t-0.5 -12q-13 -16 -358 -614 t-359 -612q-4 -3 -2.5 -11.5t10.5 -17t21 -8.5h446q32 0 55 8t47.5 30.5t44 71t33.5 123.5q-1 5 7.5 8t17 4t14.5 1q3 0 10 -1t15 -2.5t13.5 -4t4.5 -5.5q0 -5 -19.5 -146t-19.5 -147q-3 -18 -26 -18z" />
<glyph unicode="[" horiz-adv-x="733" d="M645 -393h-471v1771h471q12 0 12 -41t-12 -41q-58 0 -99.5 -8.5t-62 -19.5t-32 -30.5t-13.5 -33t-2 -35.5q0 -30 1 -680.5t1 -672.5q0 -29 4.5 -46t23 -38.5t63 -32t116.5 -10.5q12 0 12 -41t-12 -41z" />
<glyph unicode="\" horiz-adv-x="909" d="M680 -12q-4 7 -334 689t-334 689q-2 5 7 8t29.5 4t34.5 1.5t38 0.5q103 0 110 -14l666 -1378q2 -5 -7 -8t-27.5 -4.5t-34.5 -2t-37 -0.5q-105 0 -111 15z" />
<glyph unicode="]" horiz-adv-x="733" d="M561 1378v-1771h-473q-12 0 -12 41t12 41q58 0 99 8t62 19t32.5 30t13.5 33.5t2 36.5t1 672.5t1 680.5q0 22 -2 35.5t-13.5 33t-32.5 30.5t-62.5 19.5t-100.5 8.5q-12 0 -12 41t12 41h473z" />
<glyph unicode="^" horiz-adv-x="1083" d="M152 668q-124 0 -123 16l2 4l493 719q9 12 22.5 12t22.5 -12q10 -13 250.5 -363t243.5 -356q3 -7 -21 -10q-20 -2 -61 -2q-83 0 -92 12l-268 385q-8 11 -27 9.5t-27 -11.5q-12 -12 -135.5 -192.5t-134.5 -192.5q-15 -18 -145 -18z" />
<glyph unicode="_" horiz-adv-x="1105" d="M1044 -291h-983q-18 0 -18 86q0 84 18 84h983q9 0 14 -28.5t5 -57.5q0 -84 -19 -84z" />
<glyph unicode="`" d="M518 1096l-229 309q-4 6 15.5 24.5t47.5 36.5q71 48 80 35l230 -309q4 -7 -15 -24t-49 -38q-73 -48 -80 -34z" />
<glyph unicode="a" horiz-adv-x="1087" d="M1057 82q7 0 10.5 -14.5t3.5 -26.5t-3.5 -26.5t-10.5 -14.5h-332q-15 0 -25 2t-21 9.5t-16.5 23.5t-5.5 41q-69 -96 -215 -96q-379 0 -379 278q0 79 26.5 138t66 91t97.5 51.5t108 25t112 5.5h10q48 0 81.5 7t51.5 17.5t27.5 29.5t11.5 34.5t2 40.5v19q0 65 -16 111 t-42.5 67.5t-53 30t-56.5 8.5q-45 0 -76.5 -10.5t-46.5 -22.5t-23 -31t-8.5 -27t-0.5 -20q0 -8 3 -25t3 -26q0 -36 -12 -61t-32 -36t-37.5 -15.5t-35.5 -4.5q-17 0 -33.5 5t-35.5 18t-31 41.5t-12 68.5q0 35 21.5 70.5t64.5 68.5t119 53.5t173 20.5q32 0 62.5 -2t73.5 -9 t79.5 -18.5t75 -33t65 -50.5t43.5 -73t17 -98v-508q0 -29 4.5 -48.5t19 -39t46.5 -29.5t82 -10zM442 80q29 0 51.5 4t55.5 25.5t54.5 60t37.5 114.5t16 181v31h-184q-46 0 -78.5 -13t-51 -32.5t-28.5 -52.5t-13 -63.5t-3 -74.5q0 -48 12.5 -83.5t29 -53.5t39 -28.5t36 -12.5 t26.5 -2z" />
<glyph unicode="b" horiz-adv-x="1202" d="M674 1004q40 0 73.5 -2.5t83 -14t87.5 -31.5t79.5 -59t69 -92t45.5 -134t18 -182t-17 -182t-43 -133.5t-66.5 -91t-78 -58t-87 -31t-83 -14t-77.5 -2.5q-140 0 -223 97q0 -74 -66 -74h-346q-10 0 -10 41q0 11 1.5 20.5t4 15t4.5 5.5q42 0 72 8t46 19.5t25 30t11 33.5 t2 36v960q0 22 -1.5 36t-10 33.5t-24 31t-46 20t-74.5 8.5q-10 0 -10 39q0 41 10 41h412v-417q0 -15 14 -21.5t29 2.5q83 62 176 62zM678 47q32 0 53 5t48.5 29t43.5 67.5t27.5 127.5t11.5 203q0 122 -11.5 209.5t-28.5 134t-44.5 73t-49.5 32.5t-54 6q-103 0 -219 -113 q-2 -186 -2 -344q0 -85 9 -153t22.5 -112t34 -76t39.5 -49t43.5 -26.5t40.5 -11.5t36 -2z" />
<glyph unicode="c" horiz-adv-x="1005" d="M575 -33q-45 0 -84 3.5t-91 16.5t-93.5 34t-84.5 60.5t-72 92.5t-47.5 133t-18.5 178t18 177.5t46 132t70 92t83 60.5t92.5 34t91 16.5t84.5 3.5q55 0 112.5 -9t112 -26.5t89.5 -49.5t35 -74v-166q0 -5 -18 -8.5t-28 -3.5t-26.5 3.5t-16.5 8.5q0 124 -67.5 188t-192.5 64 q-36 0 -62 -6t-57.5 -31.5t-51 -70.5t-33 -128.5t-13.5 -199.5q0 -110 14.5 -190.5t35.5 -124t53 -69t58.5 -32t61.5 -6.5q111 0 177 46t86 169q2 8 47 8h7h9.5t11.5 -1t10 -1.5t7 -2t2 -3.5q-13 -76 -38.5 -133t-58 -91.5t-76 -56t-87.5 -29.5t-97 -8z" />
<glyph unicode="d" horiz-adv-x="1183" d="M1157 80q14 0 14 -39q0 -41 -14 -41h-342q-20 0 -32 3t-23.5 20t-11.5 49q-87 -95 -224 -95q-46 0 -84 3.5t-87 15.5t-86.5 33t-76 59.5t-63.5 91t-41 131t-16 176.5q0 99 17 178.5t43.5 132t66.5 91.5t78.5 60t87.5 33.5t85.5 15.5t79.5 3q91 0 179 -61q13 -9 27 -1.5 t14 22.5v208q0 22 -2 36.5t-11 33t-24.5 30t-46 19.5t-72.5 8q-12 0 -12 41q0 12 3.5 26.5t8.5 14.5h412v-1169q0 -28 3.5 -46t17 -39.5t47 -32.5t85.5 -11zM524 45q34 0 61.5 8t59 35t53 73t36 128.5t14.5 193.5v338q-117 113 -220 113q-31 0 -53.5 -6.5t-50 -32.5t-45 -73 t-29.5 -134.5t-12 -208.5q0 -84 5.5 -150.5t15 -111.5t24 -77.5t29.5 -50.5t35.5 -28t37 -13t39.5 -3z" />
<glyph unicode="e" horiz-adv-x="1058" d="M563 66q104 0 178.5 46.5t116.5 170.5q3 10 53 10h7.5t10.5 -0.5t12.5 -1t11 -1.5t8 -3t2.5 -4q-28 -97 -67 -161t-91.5 -97.5t-108.5 -46.5t-133 -13q-47 0 -88.5 4t-93 18t-93.5 36t-83.5 62t-69.5 92.5t-45.5 131t-17.5 174.5t17 174.5t44 131.5t66.5 92.5t79.5 61.5 t89 35t88 17t83 4q46 0 84.5 -4t85.5 -17.5t84 -36t74 -62t62 -93t41.5 -132t18.5 -175.5h-477q-92 0 -137 -25.5t-37 -101.5t23 -129.5t33 -84t46.5 -47t55.5 -21t67 -4.5zM332 557h393q-7 151 -31 234.5t-60 112t-95 28.5q-45 0 -78 -15.5t-61.5 -55.5t-45.5 -116 t-22 -188z" />
<glyph unicode="f" horiz-adv-x="727" d="M612 0h-565q-14 0 -14 41t14 41q43 0 73 9t45 20t23.5 31t9.5 33t1 34v692h-117q-14 0 -14 39t14 39h29q114 0 114 125q0 77 26 134.5t63 88.5t87 49.5t88 23.5t76 5q32 0 64.5 -4t70.5 -15.5t66.5 -29.5t48 -50t19.5 -73q0 -35 -11.5 -59.5t-30.5 -35.5t-35.5 -15.5 t-33.5 -4.5q-35 0 -65.5 23t-30.5 61q0 14 7 34t7 32q0 32 -19.5 47.5t-46.5 15.5q-72 0 -94 -60.5t-22 -228.5v-63h229q10 0 10 -39t-12 -39h-51q-60 0 -97 -9t-53.5 -29t-21 -39t-4.5 -50v-565q0 -21 2 -36t11 -33.5t24.5 -30t45 -19.5t70.5 -8q13 0 13 -41t-13 -41z" />
<glyph unicode="g" horiz-adv-x="1091" d="M1010 979q14 0 14 -39t-14 -39q-70 0 -99.5 -15.5t-26 -41.5t11.5 -59q2 -7 3 -11q14 -46 14 -98q0 -42 -7.5 -80.5t-33.5 -84t-68.5 -78t-120 -55t-179.5 -22.5q-52 0 -87.5 -9.5t-51 -26t-21.5 -30.5t-6 -30q0 -40 40 -58t142 -18q248 0 359.5 -76t111.5 -235 q0 -135 -121 -216t-358 -81q-233 0 -349 67t-116 216q0 50 13.5 94t30.5 70.5t39 48.5t33 29.5t19 11.5q24 14 19 30q-21 66 -21 101q0 14 2.5 26.5t7 23t9 19.5t11.5 17t12.5 13.5t13 11t11 8.5t9.5 7l6 3q9 5 8 14.5t-10 15.5q-10 4 -23.5 10.5t-40 29t-46.5 50.5t-36 78 t-16 109q0 69 22.5 125t70 101t129.5 70t194 25q47 0 91.5 -5.5t65.5 -11.5l21 -5h318zM518 0q-148 0 -219.5 -31t-71.5 -116q0 -52 21.5 -88t62 -55.5t88.5 -27.5t111 -8q120 0 190 45t70 131t-58 118t-194 32zM504 424q166 0 166 260q0 250 -156 250q-80 0 -126 -62.5 t-46 -185.5q0 -262 162 -262z" />
<glyph unicode="h" horiz-adv-x="1267" d="M561 0h-514q-12 0 -12 41t12 41q49 0 80 11t43.5 32.5t16 39t3.5 44.5v960q0 28 -3.5 46t-17 39.5t-47 32.5t-85.5 11q-12 0 -12 39q0 41 12 41h412v-420q0 -16 15.5 -22.5t27.5 0.5q98 65 192 65q34 0 65 -2.5t72.5 -10.5t75.5 -21.5t69 -38.5t59 -58.5t39 -83.5 t15 -112v-465q0 -30 3 -48.5t15 -39t39.5 -30t71.5 -9.5q5 0 9 -15.5t4 -25.5q0 -41 -13 -41h-503q-5 0 -9 15t-4 26t4 26t9 15q36 0 59.5 10.5t33 31t12.5 39t3 46.5v416q0 77 -9 132t-22 84t-34 45t-38 19.5t-42 3.5q-107 0 -219 -104v-596q0 -20 1 -33.5t7 -33t17 -31 t33.5 -20.5t53.5 -9q7 0 10.5 -15t3.5 -26t-3.5 -26t-10.5 -15z" />
<glyph unicode="i" horiz-adv-x="686" d="M629 0h-559q-3 0 -7 15t-4 28t3.5 26t7.5 13q49 0 80.5 11t44.5 32.5t16.5 39t3.5 44.5v561q0 29 -4 47.5t-18 39.5t-47 31.5t-85 10.5q-7 0 -10.5 14t-3.5 25q0 12 3.5 26.5t10.5 14.5h412v-770q0 -30 4 -48.5t18.5 -39t47.5 -30t86 -9.5q12 0 12 -39q0 -43 -12 -43z M342 1112q-18 0 -34.5 2t-38.5 11t-38 24t-27 44t-11 67q0 145 153 145q150 0 150 -148q0 -145 -154 -145z" />
<glyph unicode="j" horiz-adv-x="659" d="M-25 -305h78q83 0 118.5 67.5t35.5 235.5v772q0 21 -2 35t-10.5 33t-24.5 30.5t-47 20t-74 8.5q-4 0 -8 14.5t-4 26.5q0 41 12 41h422v-981q0 -60 -11.5 -114t-40.5 -105.5t-72.5 -89t-112.5 -60t-156 -22.5h-103q-4 0 -8 15t-4 28q0 45 12 45zM340 1112q-154 0 -154 145 q0 148 158 148q24 0 46 -5t47 -19.5t40 -46.5t15 -79q0 -143 -152 -143z" />
<glyph unicode="k" horiz-adv-x="1257" d="M586 0h-537q-5 0 -8.5 14.5t-3.5 26.5t4 26.5t8 14.5q39 0 67 8t43 19t23 30t9.5 33.5t1.5 36.5v960q0 29 -4 47.5t-18 39.5t-47 31.5t-85 10.5q-12 0 -12 39q0 41 12 41h412v-784q0 -14 13.5 -19t24.5 5l246 233q95 86 -78 86q-4 0 -8 12.5t-4 26.5q0 15 4 28t8 13h480 q14 0 14 -41q0 -39 -14 -39q-55 0 -97.5 -7.5t-72.5 -23.5t-44.5 -27.5t-35.5 -31.5l-225 -215q91 0 157 -52.5t129 -162.5q49 -79 96 -170q30 -56 50 -76q51 -51 151 -51q7 0 11 -15t4 -26q0 -10 -4 -25.5t-11 -15.5h-311q-27 0 -59 13t-46 36q-63 137 -153 293 q-74 129 -137 129l-88 -86v-176q0 -29 3.5 -47t15.5 -39t41 -31t75 -10q6 0 10 -15.5t4 -25.5q0 -9 -4 -25t-10 -16z" />
<glyph unicode="l" horiz-adv-x="661" d="M604 0h-547q-12 0 -12 41t12 41q49 0 80 11t44 32t16.5 39t3.5 45v960q0 28 -4 46t-17.5 39t-46 31.5t-84.5 10.5q-7 0 -10.5 14.5t-3.5 26.5q0 41 14 41h412v-1169q0 -21 1.5 -34.5t9 -33t22 -31t42.5 -20t68 -8.5q12 0 12 -41t-12 -41z" />
<glyph unicode="m" horiz-adv-x="1837" d="M586 0h-518q-13 0 -13 41q0 12 4.5 25.5t8.5 13.5q43 0 73.5 8.5t45.5 19.5t23 31t9.5 33.5t1.5 36.5v561q0 30 -4.5 49.5t-19.5 39t-47 29t-82 9.5q-6 0 -9.5 13.5t-3.5 27.5t3.5 27.5t9.5 13.5h338q29 0 44 -11t21 -40q2 -11 10 -13t17 5q81 81 188 81q233 0 318 -116 q7 -8 17 -8.5t21 10.5q85 114 215 114q36 0 65.5 -2t70 -9.5t72.5 -21t65 -38.5t54.5 -58.5t35.5 -84.5t14 -115v-463q0 -61 25 -95t104 -34q4 0 8.5 -15t4.5 -24q0 -11 -4 -26t-9 -15h-503q-13 0 -13 41q0 39 13 39q36 0 58.5 10t32 30.5t12.5 39.5t3 49v414q0 71 -7.5 120 t-18.5 76.5t-31.5 42t-39.5 18t-50 3.5q-44 0 -78 -18t-46 -33t-35 -50q-5 -7 -7 -10q10 -62 10 -100v-463q0 -31 3 -50.5t13 -39.5t32.5 -29.5t57.5 -9.5q13 0 13 -39q0 -41 -13 -41h-483q-5 0 -8.5 14.5t-3.5 26.5q0 11 3.5 25t8.5 14q37 0 60 10t33 30.5t13 39.5t3 49 v414q0 72 -8.5 122.5t-20.5 77t-34 40.5t-39 17t-46 3q-36 0 -62.5 -8.5t-47 -27.5t-31 -33.5t-27.5 -43.5q-4 -7 -6 -10v-551q0 -30 3.5 -50t14.5 -40t34.5 -29.5t60.5 -9.5q7 0 10.5 -14t3.5 -25t-3.5 -26t-10.5 -15z" />
<glyph unicode="n" horiz-adv-x="1282" d="M594 0h-518q-7 0 -11 13.5t-4 27.5t4 27.5t11 13.5q51 0 83.5 10t46 30.5t17.5 39t4 47.5v561q0 66 -31 96.5t-120 30.5q-15 0 -15 41t15 41h340q26 0 41.5 -11t19.5 -42q2 -11 10 -13t17 5q26 24 45.5 38t61.5 29.5t89 15.5q49 0 93.5 -6t98.5 -26.5t93 -54.5 t65.5 -96.5t26.5 -145.5v-463q0 -62 21.5 -94.5t89.5 -32.5q5 0 8.5 -14.5t3.5 -26.5q0 -41 -12 -41h-483q-4 0 -8.5 13.5t-4.5 27.5t3.5 27.5t9.5 13.5q36 0 59 10.5t32.5 31.5t12 38.5t2.5 46.5v414q0 73 -9.5 124t-22 77t-35 40t-38.5 16.5t-42 2.5q-39 0 -69.5 -10 t-52.5 -31.5t-33 -37t-28 -44.5v-551q0 -63 21 -95t92 -32q12 0 12 -41q0 -10 -3.5 -25.5t-8.5 -15.5z" />
<glyph unicode="o" horiz-adv-x="1083" d="M549 1001q46 0 87 -4.5t88.5 -19t86.5 -37.5t76 -63.5t62.5 -93.5t41 -130t15.5 -172q0 -94 -16 -171t-42.5 -129.5t-65.5 -92t-78.5 -62t-87.5 -36.5t-88.5 -18.5t-84.5 -4.5q-467 0 -467 518q0 131 31.5 228t78 150.5t113.5 86t125 42t125 9.5zM541 37q34 0 58 6.5 t53.5 32.5t48 72.5t31.5 133.5t13 207q0 121 -12.5 207t-30.5 131.5t-47 70.5t-51.5 30.5t-54.5 5.5t-56.5 -5.5t-56 -31t-51.5 -70t-34.5 -130t-14.5 -203.5q0 -119 12.5 -205.5t31 -134t47.5 -75t54.5 -35t59.5 -7.5z" />
<glyph unicode="p" horiz-adv-x="1189" d="M664 1001q45 0 82 -3t85.5 -15.5t86.5 -33.5t77 -60t64.5 -91.5t42 -132t16.5 -178.5t-17 -178.5t-43.5 -132t-66 -91.5t-78 -60t-87.5 -33.5t-85 -15.5t-79 -3q-104 0 -181 62q-11 10 -26 3t-15 -24v-198q0 -29 5 -49t19.5 -39.5t47 -29t82.5 -9.5q5 0 8.5 -14.5 t3.5 -26.5t-3.5 -26.5t-8.5 -14.5h-563q-15 0 -15 41t15 41q51 0 83.5 10t46 30.5t17.5 39t4 47.5v954q0 31 -4 50t-18 39t-46 30t-83 10q-7 0 -11 13t-4 26q0 41 15 41h342q15 0 25 -2t20.5 -9.5t16 -23.5t5.5 -41q85 98 224 98zM659 41q22 0 39 3t38 14t36.5 30t30.5 53.5 t25 81.5t16 116.5t6 156.5t-6 155.5t-15.5 114t-25.5 78t-30.5 50t-35.5 27t-36 11.5t-37 2q-33 0 -60 -7.5t-59 -35t-53.5 -73t-36.5 -129.5t-15 -197v-338q123 -113 219 -113z" />
<glyph unicode="q" horiz-adv-x="1183" d="M1155 -313q14 0 14 -39q0 -41 -14 -41h-563q-12 0 -12 41q0 12 3.5 25.5t8.5 13.5q50 0 82 10t47 30t19.5 39.5t4.5 49.5v198q0 15 -14 22.5t-26 -1.5q-82 -62 -179 -62q-33 0 -61.5 2t-65.5 8t-68.5 17t-66 30.5t-62 46t-53.5 65.5t-43 87.5t-27.5 114.5t-10.5 143 q0 98 16.5 177.5t42 132.5t64.5 91.5t77.5 60t87 33.5t86 15.5t82.5 3.5q138 0 221 -100q1 26 7 42.5t16.5 23.5t20 9.5t22.5 2.5h344q14 0 14 -41t-14 -41q-50 0 -82.5 -9.5t-47 -29t-19.5 -39.5t-5 -49v-954q0 -29 4.5 -48.5t19 -40t47 -30.5t83.5 -10zM526 41 q56 0 107 28.5t112 84.5v338q0 113 -14.5 196.5t-36 129t-53 72.5t-58 34.5t-59.5 7.5q-32 0 -53.5 -5t-49.5 -29t-44.5 -68t-28.5 -129t-12 -205q0 -121 12 -208t29 -134t44.5 -73.5t50.5 -33t54 -6.5z" />
<glyph unicode="r" horiz-adv-x="946" d="M618 0h-559q-12 0 -12 41t12 41q50 0 82.5 9t47 28t19.5 39t5 51v561q0 64 -30.5 96.5t-123.5 32.5q-12 0 -12 39q0 41 12 41h340q14 0 22.5 -2t20.5 -9t18 -25t5 -46q90 104 244 104q105 0 168 -55.5t63 -142.5q0 -60 -30.5 -89.5t-80.5 -29.5q-46 0 -79 25.5t-33 62.5 q0 18 7 39t7 37q0 24 -16.5 38.5t-38.5 14.5q-14 0 -27 -2t-35 -11t-41 -24.5t-39.5 -46.5t-35 -72t-24 -106t-9.5 -145v-285q0 -30 4.5 -49.5t19.5 -39t47 -29t82 -9.5q5 0 9 -14t4 -27q0 -11 -4 -26t-9 -15z" />
<glyph unicode="s" horiz-adv-x="972" d="M502 -31q-149 0 -261 34.5t-112 80.5v190q0 6 15.5 9.5t23.5 3.5q9 0 24 -3.5t15 -9.5q0 -30 15 -68t43.5 -76.5t80 -64.5t115.5 -26q25 0 49 4.5t49 16t43.5 30t30.5 48.5t12 69q0 54 -55 95.5t-178 98.5q-44 21 -60 29t-54.5 30t-55.5 36t-43.5 40t-38.5 50.5t-21.5 59 t-9.5 73.5q0 73 28.5 127t67.5 82.5t93 45.5t92 21t77 4q155 0 241.5 -40t86.5 -91v-137q0 -12 -39 -12t-39 12q0 32 -12 64.5t-36.5 64t-70.5 51t-106 19.5q-67 0 -111.5 -35t-44.5 -115q0 -56 61 -97q38 -25 177 -87q287 -124 287 -326q0 -77 -27 -134.5t-65.5 -88.5 t-93.5 -49.5t-99 -23.5t-94 -5z" />
<glyph unicode="t" horiz-adv-x="727" d="M180 903h-117q-14 0 -14 37q0 39 14 39q45 0 84 14.5t73.5 45.5t54.5 89.5t20 137.5q0 8 80 8q74 0 74 -8v-287h227q12 0 12 -39q0 -37 -12 -37h-51q-41 0 -71.5 -4.5t-49 -14t-30.5 -19.5t-17 -27t-6.5 -30t-1.5 -34v-416q0 -163 25 -224.5t104 -61.5q54 0 118 16 q3 1 6 -4.5t5 -16.5t2 -24q0 -34 -13 -43q-1 0 -15 -4.5t-30 -8t-44 -7t-58 -3.5q-66 0 -114 7t-99 30t-83 63.5t-52.5 111.5t-20.5 169v545z" />
<glyph unicode="u" horiz-adv-x="1269" d="M31 899q-13 0 -13 39q0 41 13 41h422v-680q0 -205 153 -205q30 0 59 10t59.5 33.5t49.5 72.5t19 118v442q0 28 -4.5 47t-18.5 39.5t-47 31.5t-84 11q-5 0 -9.5 14t-4.5 25t4.5 26t9.5 15h414v-770q0 -22 2 -36.5t10.5 -33.5t24 -30t45 -19t71.5 -8q13 0 13 -41t-11 -41 h-350q-32 0 -48.5 16t-16.5 66q-84 -102 -275 -102q-332 0 -332 329v461q0 29 -5 49.5t-20 40t-47.5 29.5t-82.5 10z" />
<glyph unicode="v" horiz-adv-x="1112" d="M18 899q-14 0 -14 39q0 41 14 41h531q6 0 10 -14t4 -27q0 -39 -14 -39q-30 0 -49.5 -6.5t-27.5 -16t-8.5 -26t3 -32.5t12.5 -38l154 -403q5 -13 17 -13t18 13l172 405q9 23 13.5 38.5t5 32t-7.5 25.5t-26.5 15t-48.5 6q-12 0 -12 39q0 41 12 41h318q14 0 14 -41 q0 -10 -3.5 -24.5t-10.5 -14.5q-71 0 -107.5 -31.5t-58.5 -89.5q-22 -53 -175 -412.5t-165 -385.5q-4 -7 -31 -7t-29 9q-7 12 -164 380t-180 414q-34 67 -67.5 95t-98.5 28z" />
<glyph unicode="w" horiz-adv-x="1613" d="M41 899q-12 0 -12 39q0 41 12 41h504q14 0 14 -41q0 -10 -3.5 -24.5t-10.5 -14.5q-31 0 -50.5 -6.5t-28.5 -17t-10.5 -27t2 -32t11.5 -36.5q9 -24 42 -121.5t61.5 -177.5t33.5 -88q5 -15 18 -14.5t21 14.5l217 449q3 8 43 8t45 -8l209 -453q5 -13 20 -13t19 13l139 389 q8 23 12 39.5t2.5 33t-10.5 26.5t-29 16t-50 6q-5 0 -9 14t-4 25t4 26t9 15h307q14 0 14 -41q0 -39 -12 -39q-65 0 -95.5 -32.5t-52.5 -92.5l-290 -792q-5 -9 -31 -9q-17 0 -31 7q-3 6 -57.5 137t-111 267t-60.5 146q-5 11 -21 11t-20 -13q-7 -11 -130.5 -275.5 t-125.5 -270.5q0 -9 -29 -9t-31 9l-290 792q-23 64 -55 94.5t-99 30.5z" />
<glyph unicode="x" horiz-adv-x="1165" d="M63 901q-12 0 -12 39q0 41 12 41h519q7 0 10.5 -14t3.5 -25t-3.5 -26t-10.5 -15q-36 0 -53.5 -8.5t-16.5 -25.5t7.5 -32.5t21.5 -39.5l63 -99q9 -14 32 -14t34 12q4 4 23 27t39.5 46.5t33.5 37.5q17 20 26 33.5t13 26.5t-2.5 20t-24 11.5t-47.5 4.5q-6 0 -10 13.5 t-4 25.5t4 26.5t10 14.5h324q12 0 12 -39q0 -41 -12 -41q-71 0 -111 -24.5t-88 -79.5l-182 -209q215 -336 248 -391q36 -58 75.5 -85.5t112.5 -27.5q14 0 14 -41t-14 -41h-526q-6 0 -9.5 13.5t-3.5 27.5q0 41 13 41q30 0 48.5 5.5t25.5 14t4.5 23t-9.5 29t-20 34.5 q-8 15 -29.5 47.5t-46 67.5t-25.5 37q-8 14 -30 13.5t-33 -11.5l-141 -166q-21 -24 -30 -38.5t-10 -28.5t17.5 -20.5t56.5 -6.5q13 0 13 -41t-13 -41h-329q-5 0 -9 13t-4 28q0 17 4 29t9 12q40 0 72.5 8t58 25.5t40 31.5t36.5 39l223 263q-164 259 -211 335 q-24 39 -45.5 61.5t-57.5 38t-86 15.5z" />
<glyph unicode="y" horiz-adv-x="1155" d="M47 897q-5 0 -8.5 15t-3.5 26q0 41 12 41h533q10 0 10 -41t-10 -41q-49 0 -71.5 -15.5t-21 -41.5t12.5 -62q16 -43 79.5 -232.5t67.5 -199.5q4 -12 17 -11.5t20 13.5l184 432q13 29 17.5 47t1 35.5t-23 26t-56.5 8.5q-14 0 -14 41t14 41h315q7 0 11 -15t4 -26 q0 -12 -4 -26.5t-11 -14.5q-39 0 -68 -10t-47.5 -29.5t-29 -37.5t-21.5 -46l-434 -1007q-14 -34 -31.5 -59t-33.5 -42.5t-42.5 -28.5t-45 -17t-57 -9t-62.5 -3.5t-76 -0.5q-6 0 -10 16.5t-4 30.5t3.5 30.5t10.5 16.5q44 0 67 0.5t54.5 4t49 10.5t37.5 19t33.5 31t24.5 46 l78 188q-276 682 -311 772q-25 64 -58 94.5t-102 30.5z" />
<glyph unicode="z" horiz-adv-x="1001" d="M840 0h-756q-12 0 -18.5 8t-2.5 17q1 1 53.5 89.5t125 210.5t146 245t125.5 210t54 90q6 10 -1 21.5t-19 11.5q-8 0 -82 -1t-90 -1q-25 0 -35 -0.5t-29 -2.5t-27 -6.5t-21 -12.5t-19.5 -21.5t-15.5 -32.5t-15.5 -45t-13.5 -61q0 -10 -39 -10q-43 0 -43 10q2 10 17.5 122 t15.5 120q7 18 26 18h721q11 0 18 -8t0 -15l-501 -847q-7 -9 0 -20t18 -11h209q28 0 39.5 0.5t32 3.5t30 10t24 19.5t22.5 32.5t17.5 49.5t16.5 68.5q2 12 41 12q43 0 43 -12l-41 -242q-1 -8 -9.5 -14t-16.5 -6z" />
<glyph unicode="{" horiz-adv-x="796" d="M137 463q-6 0 -6 31q0 30 6 30q90 0 124 35t34 94q0 166 11 287t25 189t42.5 118.5t48 69.5t57.5 48q11 8 17 13q24 17 96 17q78 0 95 -12q4 -2 1 -5q-30 -27 -47.5 -50t-36 -72t-28 -121.5t-15.5 -191.5t-6 -288q0 -100 -106 -153q-3 -2 -3 -9t5 -10q8 -3 21 -12t34 -27 t35 -47.5t14 -64.5q0 -212 8 -346.5t27.5 -209t39 -106t56.5 -63.5q5 -4 -7 -8q-26 -7 -87 -7q-74 0 -96 15q-8 6 -22 18q-27 21 -40.5 33.5t-36.5 40.5t-34.5 58t-26.5 82.5t-22.5 118t-13 161t-5.5 213.5q0 26 -5.5 46t-20.5 41t-48.5 32.5t-83.5 11.5z" />
<glyph unicode="|" horiz-adv-x="1083" d="M455 -393v1771q0 17 88 17q86 0 86 -17v-1771q0 -7 -27.5 -12t-58.5 -5q-88 0 -88 17z" />
<glyph unicode="}" horiz-adv-x="796" d="M662 463q-51 0 -85 -11.5t-49 -32.5t-20.5 -41t-5.5 -46q0 -118 -5.5 -213.5t-12.5 -160.5t-23 -118.5t-26.5 -82t-35 -58.5t-35.5 -40t-41 -34q-14 -12 -22 -18q-22 -15 -96 -15q-90 0 -95 12q-1 1 1 3q37 32 56.5 63.5t39 106t27.5 209t8 346.5q0 35 14.5 64.5 t35.5 47.5t34.5 27t21.5 12q6 3 6 10t-4 9q-108 54 -108 153q0 210 -7.5 342.5t-26.5 207t-39 107.5t-58 66q-9 8 32 13q29 4 62 4q74 0 96 -17q6 -5 17 -13q38 -29 57 -47.5t48 -69.5t43 -119t25 -189t11 -287q0 -59 34.5 -94t125.5 -35q4 0 4 -30q0 -31 -4 -31z" />
<glyph unicode="~" horiz-adv-x="1177" d="M408 600q-45 0 -83 -8.5t-60.5 -19.5t-40 -24.5t-23.5 -21t-8 -12.5q-4 -9 -56 2q-24 7 -37 13.5t-12 13.5q5 12 11.5 26t33 50t58.5 62t88.5 47.5t121.5 21.5q53 0 98.5 -12.5t76.5 -30t60 -34.5t63.5 -29.5t72.5 -12.5q44 0 82 8.5t61 20t39.5 25t23 21.5t7.5 11 q7 10 55 -2q50 -13 47 -27q-2 -7 -10 -25t-32.5 -51t-57 -61t-89 -49t-122.5 -21q-52 0 -93.5 12.5t-70 29.5t-56 34.5t-65 30t-83.5 12.5z" />
<glyph unicode="&#xa1;" horiz-adv-x="606" d="M414 492v-900q0 -16 -113 -16q-106 0 -106 16v900q0 16 110 16q109 0 109 -16zM305 995q24 0 45 -4.5t47.5 -18t42 -45.5t15.5 -79q0 -146 -154 -146q-149 0 -149 148q0 145 153 145z" />
<glyph unicode="&#xa2;" horiz-adv-x="1005" d="M885 293q9 0 17.5 -0.5t15.5 -1.5t11 -2.5t3 -3.5q-43 -273 -264 -312v-168q0 -16 -88 -16q-86 0 -86 16v164q-67 6 -124 24.5t-111 57t-91.5 94.5t-60.5 143t-23 197q0 88 14 160.5t37 123t57 90t69 63.5t78 40.5t78.5 23.5t76.5 11v170q0 17 88 17q86 0 86 -17v-174 q43 -6 82.5 -16.5t79.5 -28t64 -45t24 -61.5v-166q0 -5 -17 -8.5t-31 -3.5q-12 0 -26.5 3.5t-14.5 8.5q0 191 -161 237v-835q69 16 113.5 67.5t56.5 139.5q0 8 47 8zM494 84v831q-34 -13 -59.5 -39t-47.5 -73.5t-33.5 -125.5t-11.5 -185q0 -105 13 -182t37 -121t47.5 -67 t54.5 -38z" />
<glyph unicode="&#xa3;" horiz-adv-x="1177" d="M676 1405q50 0 103 -8.5t104 -26.5t83.5 -50.5t32.5 -74.5v-168q0 -4 -15 -7t-28 -3q-43 0 -43 12q0 75 -19.5 126.5t-55 77.5t-74.5 36t-88 10q-36 0 -61 -12.5t-40.5 -35t-23.5 -63t-11 -85.5t-3 -113v-248h192q16 0 16 -86q0 -82 -16 -82h-72q-57 0 -88.5 -29 t-31.5 -100v-270q0 -32 5 -51.5t21.5 -39.5t53.5 -29t96 -9h125q47 0 78 17.5t58 70t44 145.5q2 13 41 13q43 0 41 -13q0 -5 -17.5 -146t-17.5 -147q-6 -16 -23 -16h-931q-5 0 -9 13t-4 28q0 14 4 26.5t9 12.5q58 0 94.5 8.5t54 27t23.5 39t6 54.5v395h-170q-17 0 -17 86 q0 82 17 82h53q117 0 117 129v119q0 196 89 290.5t298 94.5z" />
<glyph unicode="&#xa5;" horiz-adv-x="1353" d="M1335 1378q13 0 13 -41t-13 -41q-88 0 -133 -30t-80 -97l-127 -231h105q18 0 18 -86q0 -84 -18 -84h-193q-80 -150 -84 -158h277q18 0 18 -86q0 -84 -18 -84h-285v-231q0 -32 4.5 -50.5t20 -38.5t52.5 -29t97 -9q15 0 15 -41t-15 -41h-627q-14 0 -14 41t14 41 q60 0 97.5 9.5t53.5 30t20 38.5t4 49v231h-281q-16 0 -16 86q0 84 16 84h272l-82 158h-190q-16 0 -16 86q0 84 16 84h102q-105 188 -127 231q-33 65 -78 96t-133 31q-4 0 -8 13.5t-4 27.5q0 41 12 41h625q7 0 10.5 -14.5t3.5 -26.5t-3.5 -26.5t-8.5 -14.5q-59 0 -91.5 -10.5 t-38.5 -30.5t-0.5 -39t20.5 -47q16 -28 69 -129.5t100 -190t54 -99.5q6 -12 23.5 -10t23.5 14l223 415q17 32 22 53t-3.5 39t-39.5 26.5t-87 8.5q-6 0 -10.5 14.5t-4.5 26.5q0 13 4 27t11 14h413z" />
<glyph unicode="&#xa6;" horiz-adv-x="1083" d="M455 -393v786q0 17 88 17q86 0 86 -17v-786q0 -7 -27.5 -12t-58.5 -5q-88 0 -88 17zM455 631v747q0 17 88 17q86 0 86 -17v-747q0 -7 -27.5 -12t-58.5 -5q-88 0 -88 17z" />
<glyph unicode="&#xa7;" horiz-adv-x="946" d="M848 678q0 -46 -8.5 -86t-20 -64.5t-25 -43t-22 -26t-12.5 -9.5q6 -3 25 -23t41 -63.5t22 -88.5q0 -72 -22.5 -126.5t-58.5 -87t-87 -53t-101 -27.5t-108 -7q-138 0 -255.5 33.5t-117.5 79.5v193q0 10 41 10q37 0 37 -10q0 -101 75.5 -169.5t176.5 -68.5q82 0 134 42.5 t52 127.5q0 55 -59 98.5t-174 96.5q-36 17 -56 27t-54 29t-54 35t-44.5 41t-38 50.5t-23 60t-9.5 72.5q0 153 93 223q-3 1 -11.5 8t-23 23t-27 36t-22 50.5t-9.5 62.5q0 68 23.5 119.5t59.5 81.5t85.5 48.5t94 25t92.5 6.5q57 0 112 -7t104.5 -22t80 -40.5t30.5 -59.5v-139 q0 -11 -39 -11q-38 0 -38 11q0 91 -63 145.5t-161 54.5q-69 0 -114 -34.5t-45 -114.5q0 -25 13.5 -47.5t32.5 -39.5t54 -35.5t63.5 -30.5t75.5 -31q53 -21 99.5 -49t90.5 -67.5t69.5 -94t25.5 -115.5zM608 549q27 37 27 86q0 24 -14.5 47.5t-34 41t-55.5 39t-60.5 33.5 t-68.5 32.5t-62 29.5q-37 -47 -37 -94q0 -31 18 -57t53 -47t69 -36.5t84 -37t81 -37.5z" />
<glyph unicode="&#xa8;" d="M317 1137q-22 0 -41 4t-42.5 16.5t-37.5 41t-14 71.5q0 131 142 131q133 0 133 -133q0 -34 -10.5 -59t-25 -38.5t-35 -21.5t-36.5 -10t-33 -2zM764 1137q-137 0 -137 133q0 131 141 131q133 0 133 -133q0 -131 -137 -131z" />
<glyph unicode="&#xa9;" horiz-adv-x="1282" d="M639 1403q149 0 274.5 -68.5t198 -186.5t72.5 -257q0 -140 -72.5 -258.5t-198 -187t-274.5 -68.5q-147 0 -271.5 68.5t-197 187t-72.5 258.5q0 139 72.5 257t197 186.5t271.5 68.5zM639 455q194 0 329.5 127.5t135.5 308.5q0 180 -136 307t-329 127q-125 0 -231 -58 t-168 -158t-62 -218q0 -181 135 -308.5t326 -127.5zM860 766q31 0 31 -6q-22 -118 -81 -162.5t-153 -44.5q-319 0 -319 338q0 88 22.5 152.5t54 99t78 54.5t83 25t79.5 5q35 0 72.5 -6t73 -18t58 -33t22.5 -48v-108q0 -6 -29 -6t-29 6q0 164 -168 164q-24 0 -40.5 -4 t-37 -20.5t-33 -45.5t-21.5 -83t-9 -130q0 -72 9 -124t22.5 -80.5t34.5 -45t38.5 -20.5t40.5 -4q164 0 164 139q0 6 37 6z" />
<glyph unicode="&#xaa;" horiz-adv-x="655" d="M635 602q10 0 10 -24q0 -7 -3 -16t-7 -9h-203q-11 0 -18.5 2.5t-14 13t-6.5 29.5q-39 -57 -127 -57q-229 0 -229 168q0 59 22.5 98.5t62 57t77 24t84.5 6.5h8q35 0 57 5.5t31 18t11.5 23.5t2.5 31v10q0 131 -102 131q-32 0 -52 -8t-27 -22t-8 -20.5t-1 -16.5q0 -5 2 -15 t2 -16q0 -40 -22.5 -55t-49.5 -15q-15 0 -28.5 4.5t-27 24t-13.5 51.5q0 47 57.5 87t167.5 40q30 0 57 -2.5t65 -12.5t64.5 -27t46 -50t19.5 -78v-303q0 -38 17.5 -58t74.5 -20zM266 602q14 0 24.5 2t27 8t28.5 21.5t23.5 39.5t17.5 64.5t6 93.5v19h-110q-64 0 -83.5 -35.5 t-19.5 -105.5q0 -35 10.5 -59t27 -33t27.5 -12t21 -3z" />
<glyph unicode="&#xab;" horiz-adv-x="1146" d="M502 186q-3 3 -94.5 99.5t-185.5 196t-99 104.5q-12 12 -13 27.5t13 31.5l379 379q11 11 61 -39q53 -49 41 -61l-307 -310q301 -323 307 -329q8 -13 -41 -62q-51 -51 -61 -37zM909 186q-3 3 -94 99.5t-184.5 196t-98.5 104.5q-12 12 -14 27.5t12 31.5l381 379q2 3 9.5 0 t21 -13t29.5 -26q56 -49 41 -61l-305 -310q301 -323 305 -329q12 -12 -41 -62q-51 -51 -62 -37z" />
<glyph unicode="&#xac;" horiz-adv-x="1173" d="M1085 614v-551q0 -16 -88 -16q-86 0 -86 16v381h-807q-18 0 -18 86q0 84 18 84h981z" />
<glyph unicode="&#xad;" horiz-adv-x="794" d="M692 518h-588q-18 0 -18 86q0 84 18 84h588q15 0 15 -86q0 -84 -15 -84z" />
<glyph unicode="&#xae;" horiz-adv-x="1280" d="M639 1403q148 0 273 -68.5t197.5 -186.5t72.5 -257t-72.5 -257t-197.5 -186.5t-273 -68.5q-147 0 -271.5 68.5t-197 186.5t-72.5 257t72.5 257t197 186.5t271.5 68.5zM639 455q192 0 327.5 127.5t135.5 308.5q0 180 -135.5 307t-327.5 127t-327.5 -127t-135.5 -307 q0 -181 135.5 -308.5t327.5 -127.5zM954 643q7 0 7 -18q0 -19 -7 -19h-131q-37 0 -45 19l-86 188q-20 46 -38.5 57t-53.5 11h-27v-181q0 -15 1.5 -23t9 -17t24.5 -13t45 -4q4 0 4 -18q0 -19 -4 -19h-284q-2 0 -4.5 6.5t-2.5 12.5t2.5 12t4.5 6q52 0 66 13.5t14 43.5v433 q0 15 -2 23.5t-9.5 17t-24.5 12.5t-44 4q-2 0 -4.5 6t-2.5 12q0 19 7 19h297q217 0 217 -174q0 -133 -131 -164q38 -17 59 -70q8 -14 29.5 -59t27.5 -60q12 -29 29.5 -43t56.5 -14zM616 915q144 0 144 138q0 63 -27.5 101t-107.5 38h-9q-19 0 -29 -9.5t-12 -20t-2 -27.5 v-220h43z" />
<glyph unicode="&#xaf;" horiz-adv-x="1083" d="M838 1208h-586q-19 0 -19 86q0 84 19 84h586q16 0 16 -86q0 -84 -16 -84z" />
<glyph unicode="&#xb0;" horiz-adv-x="839" d="M424 1466q101 0 150 -45.5t49 -140.5q0 -91 -48.5 -135.5t-152.5 -44.5q-106 0 -155.5 46t-49.5 138q0 91 50 136.5t157 45.5zM422 1188q41 0 57.5 22.5t16.5 75.5q0 51 -16 71.5t-56 20.5q-41 0 -61.5 -21t-20.5 -69q0 -52 18.5 -76t61.5 -24z" />
<glyph unicode="&#xb1;" horiz-adv-x="1118" d="M471 807h-268q-9 0 -14 26.5t-5 59.5q0 84 19 84h268v254q0 16 90 16q86 0 86 -14v-256h271q7 0 11.5 -27.5t4.5 -58.5q0 -84 -16 -84h-271v-256q0 -16 -88 -16t-88 16v256zM918 201h-713q-19 0 -19 86q0 84 19 84h713q16 0 16 -86q0 -84 -16 -84z" />
<glyph unicode="&#xb2;" horiz-adv-x="686" d="M590 553h-555q-10 0 -13.5 6.5t3.5 15.5l47 54q48 54 109 127t123.5 155t105.5 156t43 111q0 50 -15 84.5t-39.5 49t-44.5 20t-41 5.5q-77 0 -128.5 -54t-51.5 -116q0 -6 -24 -6q-23 0 -23 6v109q0 52 68 86.5t163 34.5q36 0 70 -4.5t75.5 -19t71 -38.5t50 -68t20.5 -102 q0 -50 -48 -139t-109 -169.5t-109 -139t-55 -64.5q-5 -6 -1 -14t15 -8h172q43 0 68.5 18.5t37.5 79.5q1 6 27 6q25 0 25 -6t-10.5 -82t-12.5 -82q-3 -12 -14 -12z" />
<glyph unicode="&#xb3;" horiz-adv-x="696" d="M330 537q-144 0 -201 32t-57 88v117q0 8 24 8q27 0 27 -8q0 -28 3.5 -49.5t16 -46.5t34 -41.5t60.5 -27.5t93 -11q57 0 94 37.5t37 126.5q0 61 -9 98.5t-28 54t-37 21t-49 4.5h-92q-8 0 -8 37q0 35 8 35h92q16 0 28 2.5t27 12.5t24.5 27.5t16 51t6.5 80.5q0 50 -9.5 81.5 t-28.5 45.5t-36 18t-44 4q-46 0 -83 -18t-57 -45.5t-30.5 -54.5t-10.5 -50q0 -6 -22 -6q-25 0 -25 6v107q0 49 62 85t166 36q39 0 70.5 -3t72.5 -15.5t68.5 -34t47 -63t19.5 -97.5q0 -138 -96 -185q-16 -10 0 -18q121 -49 121 -221q0 -221 -295 -221z" />
<glyph unicode="&#xb4;" d="M805 1405l-230 -309q-7 -13 -79 34q-30 21 -49 38t-15 24l230 309q8 13 79 -35q29 -18 48.5 -36.5t15.5 -24.5z" />
<glyph unicode="&#xb5;" horiz-adv-x="1290" d="M809 979h260v-770q0 -65 31 -97t123 -32q12 0 12 -39q0 -41 -12 -41h-349q-15 0 -23 1.5t-19.5 8t-17 24.5t-5.5 46q-48 -56 -120.5 -81.5t-139.5 -25.5l-80 2v-159q0 -64 30 -96.5t122 -32.5q14 0 14 -39q0 -41 -12 -41h-578q-4 0 -8 13t-4 28q0 14 4 26.5t8 12.5 q93 0 123.5 31t30.5 98v1163h270v-680q0 -110 42.5 -160.5t111.5 -50.5q76 0 131 63t55 175v653z" />
<glyph unicode="&#xb6;" horiz-adv-x="1374" d="M1266 -193q12 0 12 -38q0 -41 -12 -41h-963q-14 0 -14 41q0 38 14 38q60 0 97 9.5t52.5 30t20 39.5t4.5 51v634q0 28 -2.5 44.5t-12 35.5t-32 28t-59.5 9h-31q-274 0 -274 344q0 162 69.5 254t216.5 92h914q12 0 12 -41t-12 -41q-57 0 -93 -8t-54.5 -25.5t-25 -38.5 t-6.5 -55v-1232q0 -32 4.5 -51t21 -39.5t54.5 -30t99 -9.5zM897 -63v1232q0 68 -25.5 97.5t-89.5 29.5q-62 0 -86 -29t-24 -98v-1232q0 -28 3 -46.5t13 -40t33.5 -32.5t60.5 -11q39 0 63.5 11.5t35 33t13.5 40t3 45.5z" />
<glyph unicode="&#xb7;" horiz-adv-x="737" d="M367 510q-22 0 -41 4t-43 16.5t-38 41t-14 71.5q0 131 142 131q133 0 133 -133q0 -131 -139 -131z" />
<glyph unicode="&#xb8;" d="M418 -184l82 184h133l-39 -96q27 0 46.5 -1.5t41 -5.5t35.5 -11.5t26.5 -20.5t17.5 -31t4 -44.5t-9 -59.5q-9 -35 -24.5 -61.5t-38.5 -42t-42.5 -25t-51.5 -13t-49 -4t-51 -0.5h-14q-15 0 -33.5 3.5t-31.5 7.5t-25.5 8t-13.5 4q-10 5 -10 47q0 13 1 23.5t3.5 15.5t5.5 4 q84 -21 117 -21q25 0 36 1t28 6t26.5 17.5t15.5 33.5q24 88 -63 88z" />
<glyph unicode="&#xb9;" horiz-adv-x="557" d="M489 553h-378q-3 0 -6 9.5t-3 15.5q0 24 9 24q68 0 87 19.5t19 58.5v520h-135q-10 0 -10 23q0 24 10 24q22 0 54 6.5t68.5 20.5t61.5 42t25 64q0 9 49 9q45 0 45 -9v-700q0 -41 19 -59.5t85 -18.5q9 0 9 -24q0 -25 -9 -25z" />
<glyph unicode="&#xba;" horiz-adv-x="653" d="M328 1153q278 0 278 -311q0 -78 -19 -136.5t-47 -90.5t-68 -51.5t-74 -25.5t-72 -6q-283 0 -283 312q0 309 285 309zM324 575q20 0 34.5 4t32 19.5t28 43.5t18 80t7.5 124q0 73 -7.5 124.5t-18 79t-27.5 42.5t-30.5 18.5t-32.5 3.5t-33 -3.5t-32.5 -19t-30.5 -42 t-20.5 -78t-8.5 -121.5q0 -72 7 -124t18 -80.5t28 -45t32.5 -21t35.5 -4.5z" />
<glyph unicode="&#xbb;" horiz-adv-x="1146" d="M236 1022q3 -3 94.5 -99t185 -195.5t98.5 -104.5q12 -12 13.5 -27.5t-13.5 -32.5l-378 -379q-3 -3 -11 0t-21.5 13t-29.5 26q-52 49 -39 62l305 309q-301 324 -307 330q-8 12 41 61q51 51 62 37zM645 1022q3 -3 94 -99t184.5 -195.5t98.5 -104.5q12 -12 14 -28t-12 -32 l-379 -379q-11 -11 -61 39q-54 50 -39 62l305 309q-303 324 -307 330q-11 11 41 61q51 51 61 37z" />
<glyph unicode="&#xbc;" horiz-adv-x="1566" d="M1493 307q10 0 10 -57q0 -53 -10 -53h-137v-70q0 -19 2.5 -30.5t12.5 -24t32 -18t57 -5.5q8 0 8 -24q0 -25 -8 -25h-368q-9 0 -9 25q0 24 9 24q36 0 58.5 6t31.5 19t11.5 24t2.5 29v70h-322q-8 0 -12.5 5t-1.5 11l314 614q5 9 92 9q90 0 90 -9v-520h137zM516 0 q-6 -14 -88 -14q-22 0 -33.5 0.5t-26.5 1.5t-20.5 4t-3.5 8l664 1378q10 15 90 15q43 0 67 -3t19 -12q-4 -7 -334 -689t-334 -689zM489 553h-378q-3 0 -6 9.5t-3 15.5q0 24 9 24q68 0 87 19.5t19 58.5v520h-135q-10 0 -10 23q0 24 10 24q22 0 54 6.5t68.5 20.5t61.5 42 t25 64q0 9 49 9q45 0 45 -9v-700q0 -41 19 -59.5t85 -18.5q9 0 9 -24q0 -25 -9 -25zM1196 307v428q0 9 -4 9.5t-6 -5.5l-203 -405q-6 -9 1 -18t17 -9h195z" />
<glyph unicode="&#xbd;" horiz-adv-x="1638" d="M516 0q-6 -14 -88 -14q-22 0 -33.5 0.5t-26.5 1.5t-20.5 4t-3.5 8l664 1378q10 15 90 15q43 0 67 -3t19 -12q-4 -7 -334 -689t-334 -689zM489 553h-378q-3 0 -6 9.5t-3 15.5q0 24 9 24q68 0 87 19.5t19 58.5v520h-135q-10 0 -10 23q0 24 10 24q22 0 54 6.5t68.5 20.5 t61.5 42t25 64q0 9 49 9q45 0 45 -9v-700q0 -41 19 -59.5t85 -18.5q9 0 9 -24q0 -25 -9 -25zM1538 0h-555q-10 0 -13.5 7t3.5 16l47 54q48 54 109 127t123.5 154.5t105.5 155.5t43 111q0 50 -15 84.5t-39.5 49t-44 20t-40.5 5.5q-77 0 -129 -54t-52 -116q0 -6 -24 -6 q-23 0 -23 6v109q0 52 68.5 86.5t163.5 34.5q36 0 70 -4.5t75 -19t70.5 -38.5t50 -68t20.5 -102q0 -50 -48 -139t-109 -169.5t-109 -139t-55 -64.5q-5 -6 -1 -14t15 -8h172q43 0 69 18.5t38 79.5q2 6 26 6q25 0 25 -6t-10.5 -82t-12.5 -82q-3 -12 -14 -12z" />
<glyph unicode="&#xbe;" horiz-adv-x="1597" d="M1528 307q10 0 10 -57q0 -53 -10 -53h-137v-70q0 -19 2.5 -30.5t12.5 -24t32 -18t57 -5.5q8 0 8 -24q0 -25 -8 -25h-369q-8 0 -8 25q0 24 8 24q36 0 58.5 6t32 19t12 24t2.5 29v70h-322q-8 0 -12.5 5t-1.5 11l313 614q5 9 92 9q91 0 91 -9v-520h137zM573 0 q-6 -14 -88 -14q-23 0 -34.5 0.5t-26.5 1.5t-20.5 4t-2.5 8l664 1378q10 15 88 15q21 0 34.5 -0.5t28 -2t21 -4.5t4.5 -8q-4 -7 -334 -689t-334 -689zM330 537q-144 0 -201 32t-57 88v117q0 8 24 8q27 0 27 -8q0 -28 3.5 -49.5t16 -46.5t34 -41.5t60.5 -27.5t93 -11 q57 0 94 37.5t37 126.5q0 61 -9 98.5t-28 54t-37 21t-49 4.5h-92q-8 0 -8 37q0 35 8 35h92q16 0 28 2.5t27 12.5t24.5 27.5t16 51t6.5 80.5q0 50 -9.5 81.5t-28.5 45.5t-36 18t-44 4q-46 0 -83 -18t-57 -45.5t-30.5 -54.5t-10.5 -50q0 -6 -22 -6q-25 0 -25 6v107q0 49 62 85 t166 36q39 0 70.5 -3t72.5 -15.5t68.5 -34t47 -63t19.5 -97.5q0 -138 -96 -185q-16 -10 0 -18q121 -49 121 -221q0 -221 -295 -221zM1231 307v428q0 9 -4 9.5t-6 -5.5l-203 -405q-6 -9 1 -18t17 -9h195z" />
<glyph unicode="&#xbf;" horiz-adv-x="917" d="M528 1006q60 0 97 -30.5t37 -96.5q0 -127 -138 -127q-131 0 -131 127t135 127zM541 592q94 0 94 -14q0 -79 -19.5 -148.5t-50.5 -119.5t-68.5 -94t-75 -81.5t-68.5 -72.5t-50.5 -74.5t-19.5 -81.5q0 -223 198 -223q109 0 173.5 72.5t64.5 197.5q0 12 51 12q49 0 49 -12 v-178q0 -87 -92 -144t-254 -57q-106 0 -180.5 16.5t-130 56.5t-82.5 110t-27 173q0 50 21.5 97t56 85.5t76 77.5t83.5 80t76.5 85.5t56 102t21.5 120.5q0 14 97 14z" />
<glyph unicode="&#xc0;" horiz-adv-x="1468" d="M37 0q-12 0 -12 41q0 39 12 39q34 0 59 4t54 16t52 38t40 67q16 39 139.5 333t239 567.5t116.5 276.5q5 9 19 9t16 -9q1 -4 109 -279.5t224.5 -571t133.5 -336.5q26 -65 73 -90t115 -25q4 0 8.5 -14t4.5 -25q0 -14 -3.5 -27.5t-9.5 -13.5h-618q-12 0 -12 41q0 39 12 39 q96 0 128 29t7 96l-61 176h-305q-47 0 -81.5 -6t-53.5 -12.5t-35.5 -24t-21 -25.5t-15.5 -33q-3 -5 -4 -8q-9 -18 -31 -73q-26 -69 9.5 -94t123.5 -25q14 0 14 -39q0 -41 -14 -41h-432zM442 459h258q83 0 110 29t7 83l-137 379q-3 13 -15 13.5t-18 -11.5zM776 1495l-229 309 q-4 6 15.5 25t47.5 37q71 48 80 35l230 -310q4 -7 -14.5 -23t-49.5 -38q-73 -48 -80 -35z" />
<glyph unicode="&#xc1;" horiz-adv-x="1468" d="M37 0q-12 0 -12 41q0 39 12 39q34 0 59 4t54 16t52 38t40 67q16 39 139.5 333t239 567.5t116.5 276.5q5 9 19 9t16 -9q1 -4 109 -279.5t224.5 -571t133.5 -336.5q26 -65 73 -90t115 -25q4 0 8.5 -14t4.5 -25q0 -14 -3.5 -27.5t-9.5 -13.5h-618q-12 0 -12 41q0 39 12 39 q96 0 128 29t7 96l-61 176h-305q-47 0 -81.5 -6t-53.5 -12.5t-35.5 -24t-21 -25.5t-15.5 -33q-3 -5 -4 -8q-9 -18 -31 -73q-26 -69 9.5 -94t123.5 -25q14 0 14 -39q0 -41 -14 -41h-432zM442 459h258q83 0 110 29t7 83l-137 379q-3 13 -15 13.5t-18 -11.5zM920 1804 l-230 -309q-7 -13 -80 35q-30 21 -48.5 37.5t-14.5 23.5l229 310q9 13 80 -35q28 -18 48 -37t16 -25z" />
<glyph unicode="&#xc2;" horiz-adv-x="1468" d="M37 0q-12 0 -12 41q0 39 12 39q34 0 59 4t54 16t52 38t40 67q16 39 139.5 333t239 567.5t116.5 276.5q5 9 19 9t16 -9q1 -4 109 -279.5t224.5 -571t133.5 -336.5q26 -65 73 -90t115 -25q4 0 8.5 -14t4.5 -25q0 -14 -3.5 -27.5t-9.5 -13.5h-618q-12 0 -12 41q0 39 12 39 q96 0 128 29t7 96l-61 176h-305q-47 0 -81.5 -6t-53.5 -12.5t-35.5 -24t-21 -25.5t-15.5 -33q-3 -5 -4 -8q-9 -18 -31 -73q-26 -69 9.5 -94t123.5 -25q14 0 14 -39q0 -41 -14 -41h-432zM369 1595l336 318q11 11 27 12t32 -12l336 -318q3 -3 -1 -12t-15.5 -22.5t-28.5 -28.5 q-53 -56 -66 -43l-256 240q-242 -238 -250 -244q-10 -10 -71 47q-56 53 -43 63zM442 459h258q83 0 110 29t7 83l-137 379q-3 13 -15 13.5t-18 -11.5z" />
<glyph unicode="&#xc3;" horiz-adv-x="1468" d="M37 0q-12 0 -12 41q0 39 12 39q34 0 59 4t54 16t52 38t40 67q16 39 139.5 333t239 567.5t116.5 276.5q5 9 19 9t16 -9q1 -4 109 -279.5t224.5 -571t133.5 -336.5q26 -65 73 -90t115 -25q4 0 8.5 -14t4.5 -25q0 -14 -3.5 -27.5t-9.5 -13.5h-618q-12 0 -12 41q0 39 12 39 q96 0 128 29t7 96l-61 176h-305q-47 0 -81.5 -6t-53.5 -12.5t-35.5 -24t-21 -25.5t-15.5 -33q-3 -5 -4 -8q-9 -18 -31 -73q-26 -69 9.5 -94t123.5 -25q14 0 14 -39q0 -41 -14 -41h-432zM588 1653q-18 0 -34.5 -3.5t-28.5 -9t-22.5 -14t-17 -15.5t-12.5 -16t-8.5 -14.5 t-4.5 -11.5l-3 -6q-6 -12 -56 2q-25 7 -37.5 13t-9.5 13q3 11 7.5 26t23 51t41.5 63t64 49t90 22t95 -18t74.5 -40t64.5 -40t69 -18q25 0 45.5 6.5t33.5 16t24 21.5t15.5 21.5t8.5 18.5l4 8q4 11 55 -2q50 -13 47 -27l-4 -14q-5 -14 -12 -32t-18.5 -41t-29.5 -44.5 t-40.5 -40.5t-54.5 -30t-68 -11q-49 0 -94.5 18.5t-73.5 40t-64 40t-69 18.5zM442 459h258q83 0 110 29t7 83l-137 379q-3 13 -15 13.5t-18 -11.5z" />
<glyph unicode="&#xc4;" horiz-adv-x="1468" d="M37 0q-12 0 -12 41q0 39 12 39q34 0 59 4t54 16t52 38t40 67q16 39 139.5 333t239 567.5t116.5 276.5q5 9 19 9t16 -9q1 -4 109 -279.5t224.5 -571t133.5 -336.5q26 -65 73 -90t115 -25q4 0 8.5 -14t4.5 -25q0 -14 -3.5 -27.5t-9.5 -13.5h-618q-12 0 -12 41q0 39 12 39 q96 0 128 29t7 96l-61 176h-305q-47 0 -81.5 -6t-53.5 -12.5t-35.5 -24t-21 -25.5t-15.5 -33q-3 -5 -4 -8q-9 -18 -31 -73q-26 -69 9.5 -94t123.5 -25q14 0 14 -39q0 -41 -14 -41h-432zM442 459h258q83 0 110 29t7 83l-137 379q-3 13 -15 13.5t-18 -11.5zM971 1536 q-137 0 -137 133q0 131 141 131q133 0 133 -133q0 -131 -137 -131zM524 1536q-22 0 -41 4t-42.5 16.5t-37.5 41t-14 71.5q0 131 141 131q134 0 134 -133q0 -34 -10.5 -59t-25 -38.5t-35 -21.5t-36.5 -10t-33 -2z" />
<glyph unicode="&#xc5;" horiz-adv-x="1468" d="M37 0q-12 0 -12 41q0 39 12 39q34 0 59 4t54 16t52 38t40 67q16 39 139.5 333t239 567.5t116.5 276.5q5 9 19 9t16 -9q1 -4 109 -279.5t224.5 -571t133.5 -336.5q26 -65 73 -90t115 -25q4 0 8.5 -14t4.5 -25q0 -14 -3.5 -27.5t-9.5 -13.5h-618q-12 0 -12 41q0 39 12 39 q96 0 128 29t7 96l-61 176h-305q-47 0 -81.5 -6t-53.5 -12.5t-35.5 -24t-21 -25.5t-15.5 -33q-3 -5 -4 -8q-9 -18 -31 -73q-26 -69 9.5 -94t123.5 -25q14 0 14 -39q0 -41 -14 -41h-432zM752 1866q101 0 148.5 -45.5t47.5 -141.5q0 -91 -47 -135.5t-151 -44.5 q-106 0 -155.5 46t-49.5 138q0 183 207 183zM442 459h258q83 0 110 29t7 83l-137 379q-3 13 -15 13.5t-18 -11.5zM750 1587q41 0 57 23t16 76q0 51 -16 71.5t-55 20.5q-42 0 -62 -21t-20 -69q0 -52 18.5 -76.5t61.5 -24.5z" />
<glyph unicode="&#xc6;" horiz-adv-x="2052" d="M1921 322q44 0 41 -11q1 -6 -17 -148.5t-18 -146.5q-3 -16 -22 -16h-1020q-11 0 -11 41q0 39 11 39q49 0 83.5 7t52.5 17.5t28 29.5t12 34.5t2 40.5v172h-434q-57 0 -96 -7.5t-64 -24t-37.5 -30.5t-30.5 -40l-6 -9l-53 -73q-13 -17 -20.5 -30.5t-10 -30.5t6 -28.5 t34.5 -19.5t70 -8q14 0 14 -39q0 -41 -14 -41h-410q-4 0 -8 13.5t-4 27.5q0 39 12 39q47 0 84.5 11.5t64 33.5t39 36t27.5 36l836 1181h825q9 0 15 -6t6 -12q0 -7 17.5 -147.5t19.5 -145.5q0 -12 -41 -12t-41 12q-13 74 -32 122.5t-44 71.5t-49 31t-56 8h-251 q-54 0 -73.5 -32t-19.5 -97v-419h240q30 0 50 4.5t41.5 19t32.5 47.5t11 84q0 5 15 9t26 4q13 0 27 -4t14 -9v-387q0 -5 -14.5 -8.5t-26.5 -3.5t-26.5 3.5t-14.5 8.5q0 51 -10.5 83.5t-31.5 47t-41.5 19t-51.5 4.5h-109q-25 0 -41 -2t-35 -11t-29.5 -26t-18 -49t-7.5 -78 q0 -34 -1 -161.5t-1 -141.5q0 -67 20.5 -98t74.5 -31q20 0 131 1t139 1q31 0 54 8t48 30.5t44 71.5t32 123q2 11 41 11zM1063 571v611q0 13 -9.5 17t-19.5 -9l-508 -731h387q85 0 117.5 28t32.5 84z" />
<glyph unicode="&#xc7;" horiz-adv-x="1331" d="M1237 395q-10 -94 -44 -168t-81.5 -120.5t-109.5 -77t-125.5 -42.5t-133.5 -12l-26 -65q27 0 47 -1.5t41.5 -5.5t35.5 -11.5t26 -20.5t17 -31t4 -43.5t-9 -58.5q-8 -31 -21.5 -55t-28 -39.5t-37 -26.5t-38.5 -16t-44.5 -8t-42.5 -3h-43h-14q-16 0 -35 3.5t-32 7.5 t-25.5 8t-13.5 4q-10 5 -10 49q0 12 1 22t3.5 15t5.5 4q80 -20 117 -20q24 0 36 1t28.5 6t26 17.5t15.5 32.5q13 44 -3 66t-58 22l-125 -6l71 160q-510 52 -510 708q0 112 15.5 206t40 162.5t62.5 123.5t76.5 91t89.5 62t93 39.5t95.5 21.5t88.5 9.5t80 1.5q84 0 163.5 -12 t145.5 -34.5t106 -60t40 -83.5v-230q0 -10 -39 -10t-39 10q0 78 -26 139.5t-65.5 98.5t-91.5 61.5t-99.5 33.5t-94.5 9q-31 0 -53.5 -2t-52.5 -9t-52 -19.5t-47.5 -36t-44 -56t-36.5 -81t-29 -109.5t-18 -144t-7 -182q0 -107 12 -194.5t31.5 -148t47.5 -106.5t57.5 -73 t64.5 -44t65 -22.5t62 -5.5q36 0 61.5 1.5t66 7.5t70.5 17.5t65.5 33.5t60.5 53t47 78.5t33 107.5q2 8 45 8h7h9.5t11 -1t9 -1.5t6.5 -2t2 -3.5z" />
<glyph unicode="&#xc8;" horiz-adv-x="1259" d="M70 82q57 0 92.5 8t53 26t23 38.5t5.5 54.5v960q0 74 -37 101.5t-137 27.5q-15 0 -15 39q0 41 15 41h1001q17 0 21 -18l36 -293q1 -4 -6.5 -6.5t-17 -4t-17.5 -1.5q-40 0 -40 12q-16 95 -43 147.5t-59 69t-81 16.5h-250q-49 0 -70.5 -28t-21.5 -98v-420h240 q72 0 103.5 34t31.5 119q0 6 14 9.5t29 3.5q11 0 26 -4t15 -9v-385q0 -5 -14.5 -8.5t-26.5 -3.5q-43 0 -43 12q0 92 -33 123t-102 31h-107q-73 0 -103 -35t-30 -131v-303q0 -68 20 -98.5t70 -30.5h273q43 0 73 16t50 50t32 71.5t23 95.5q0 13 43 13q41 0 41 -13l-37 -293 q-3 -18 -23 -18h-1017q-7 0 -11 14t-4 27q0 41 15 41zM672 1495l-230 309q-4 6 16 25t48 37q71 48 80 35l229 -310q4 -7 -14.5 -23.5t-48.5 -37.5q-73 -48 -80 -35z" />
<glyph unicode="&#xc9;" horiz-adv-x="1259" d="M70 82q57 0 92.5 8t53 26t23 38.5t5.5 54.5v960q0 74 -37 101.5t-137 27.5q-15 0 -15 39q0 41 15 41h1001q17 0 21 -18l36 -293q1 -4 -6.5 -6.5t-17 -4t-17.5 -1.5q-40 0 -40 12q-16 95 -43 147.5t-59 69t-81 16.5h-250q-49 0 -70.5 -28t-21.5 -98v-420h240 q72 0 103.5 34t31.5 119q0 6 14 9.5t29 3.5q11 0 26 -4t15 -9v-385q0 -5 -14.5 -8.5t-26.5 -3.5q-43 0 -43 12q0 92 -33 123t-102 31h-107q-73 0 -103 -35t-30 -131v-303q0 -68 20 -98.5t70 -30.5h273q43 0 73 16t50 50t32 71.5t23 95.5q0 13 43 13q41 0 41 -13l-37 -293 q-3 -18 -23 -18h-1017q-7 0 -11 14t-4 27q0 41 15 41zM815 1804l-229 -309q-7 -13 -80 35q-31 22 -49.5 38t-14.5 23l230 310q9 13 80 -35q28 -17 47.5 -36.5t15.5 -25.5z" />
<glyph unicode="&#xca;" horiz-adv-x="1259" d="M70 82q57 0 92.5 8t53 26t23 38.5t5.5 54.5v960q0 74 -37 101.5t-137 27.5q-15 0 -15 39q0 41 15 41h1001q17 0 21 -18l36 -293q1 -4 -6.5 -6.5t-17 -4t-17.5 -1.5q-40 0 -40 12q-16 95 -43 147.5t-59 69t-81 16.5h-250q-49 0 -70.5 -28t-21.5 -98v-420h240 q72 0 103.5 34t31.5 119q0 6 14 9.5t29 3.5q11 0 26 -4t15 -9v-385q0 -5 -14.5 -8.5t-26.5 -3.5q-43 0 -43 12q0 92 -33 123t-102 31h-107q-73 0 -103 -35t-30 -131v-303q0 -68 20 -98.5t70 -30.5h273q43 0 73 16t50 50t32 71.5t23 95.5q0 13 43 13q41 0 41 -13l-37 -293 q-3 -18 -23 -18h-1017q-7 0 -11 14t-4 27q0 41 15 41zM264 1595l336 318q11 11 27 12t32 -12l336 -318q3 -3 -1 -12t-15.5 -22.5t-28.5 -28.5q-52 -56 -65 -43l-256 240q-242 -238 -250 -244q-11 -11 -72 47q-56 53 -43 63z" />
<glyph unicode="&#xcb;" horiz-adv-x="1259" d="M70 82q57 0 92.5 8t53 26t23 38.5t5.5 54.5v960q0 74 -37 101.5t-137 27.5q-15 0 -15 39q0 41 15 41h1001q17 0 21 -18l36 -293q1 -4 -6.5 -6.5t-17 -4t-17.5 -1.5q-40 0 -40 12q-16 95 -43 147.5t-59 69t-81 16.5h-250q-49 0 -70.5 -28t-21.5 -98v-420h240 q72 0 103.5 34t31.5 119q0 6 14 9.5t29 3.5q11 0 26 -4t15 -9v-385q0 -5 -14.5 -8.5t-26.5 -3.5q-43 0 -43 12q0 92 -33 123t-102 31h-107q-73 0 -103 -35t-30 -131v-303q0 -68 20 -98.5t70 -30.5h273q43 0 73 16t50 50t32 71.5t23 95.5q0 13 43 13q41 0 41 -13l-37 -293 q-3 -18 -23 -18h-1017q-7 0 -11 14t-4 27q0 41 15 41zM406 1536q-22 0 -41 4t-43 16.5t-38 41t-14 71.5q0 131 142 131q133 0 133 -133q0 -131 -139 -131zM852 1536q-137 0 -137 133q0 131 141 131q133 0 133 -133q0 -131 -137 -131z" />
<glyph unicode="&#xcc;" horiz-adv-x="759" d="M68 80q59 0 96 9t53 29t20.5 39.5t4.5 51.5v960q0 24 -1.5 38t-11 33.5t-27 29.5t-51.5 18t-83 8q-13 0 -13 41q0 11 4 26t9 15h630q11 0 11 -41t-11 -41q-58 0 -94.5 -8.5t-54 -26.5t-23.5 -38.5t-6 -53.5v-960q0 -23 1.5 -36.5t10.5 -33.5t27 -31t53 -19.5t86 -8.5 q11 0 11 -39q0 -41 -11 -41h-630q-4 0 -8.5 14.5t-4.5 26.5q0 13 3.5 26t9.5 13zM424 1495l-229 309q-4 6 15.5 25t47.5 37q71 48 80 35l229 -310q4 -7 -14.5 -23.5t-48.5 -37.5q-73 -48 -80 -35z" />
<glyph unicode="&#xcd;" horiz-adv-x="759" d="M68 80q59 0 96 9t53 29t20.5 39.5t4.5 51.5v960q0 24 -1.5 38t-11 33.5t-27 29.5t-51.5 18t-83 8q-13 0 -13 41q0 11 4 26t9 15h630q11 0 11 -41t-11 -41q-58 0 -94.5 -8.5t-54 -26.5t-23.5 -38.5t-6 -53.5v-960q0 -23 1.5 -36.5t10.5 -33.5t27 -31t53 -19.5t86 -8.5 q11 0 11 -39q0 -41 -11 -41h-630q-4 0 -8.5 14.5t-4.5 26.5q0 13 3.5 26t9.5 13zM578 1804l-230 -309q-7 -13 -80 35q-30 21 -48.5 37.5t-14.5 23.5l229 310q9 13 80 -35q28 -18 48 -37t16 -25z" />
<glyph unicode="&#xce;" horiz-adv-x="759" d="M68 80q59 0 96 9t53 29t20.5 39.5t4.5 51.5v960q0 24 -1.5 38t-11 33.5t-27 29.5t-51.5 18t-83 8q-13 0 -13 41q0 11 4 26t9 15h630q11 0 11 -41t-11 -41q-58 0 -94.5 -8.5t-54 -26.5t-23.5 -38.5t-6 -53.5v-960q0 -23 1.5 -36.5t10.5 -33.5t27 -31t53 -19.5t86 -8.5 q11 0 11 -39q0 -41 -11 -41h-630q-4 0 -8.5 14.5t-4.5 26.5q0 13 3.5 26t9.5 13zM16 1595l336 318q11 11 27.5 12t32.5 -12l336 -318q3 -3 -1.5 -12t-16 -22.5t-28.5 -28.5q-52 -56 -65 -43l-256 240q-242 -238 -250 -244q-11 -11 -72 47q-56 53 -43 63z" />
<glyph unicode="&#xcf;" horiz-adv-x="759" d="M68 80q59 0 96 9t53 29t20.5 39.5t4.5 51.5v960q0 24 -1.5 38t-11 33.5t-27 29.5t-51.5 18t-83 8q-13 0 -13 41q0 11 4 26t9 15h630q11 0 11 -41t-11 -41q-58 0 -94.5 -8.5t-54 -26.5t-23.5 -38.5t-6 -53.5v-960q0 -23 1.5 -36.5t10.5 -33.5t27 -31t53 -19.5t86 -8.5 q11 0 11 -39q0 -41 -11 -41h-630q-4 0 -8.5 14.5t-4.5 26.5q0 13 3.5 26t9.5 13zM158 1536q-22 0 -41 4t-42.5 16.5t-37.5 41t-14 71.5q0 131 141 131q133 0 133 -133q0 -131 -139 -131zM604 1536q-137 0 -137 133q0 131 141 131q133 0 133 -133q0 -131 -137 -131z" />
<glyph unicode="&#xd0;" horiz-adv-x="1423" d="M715 1378q68 0 126 -6.5t123.5 -25t117 -49.5t100.5 -84t81.5 -124t52 -173t19.5 -228q0 -138 -23 -247t-66 -183t-98 -125.5t-127.5 -80t-145.5 -40.5t-160 -12h-649q-13 0 -13 41q0 39 13 39q41 0 71.5 4.5t49 14t30.5 19.5t17 27t6.5 30t1.5 34v395h-156q-18 0 -18 86 q0 84 18 84h156v395q0 31 -4.5 49.5t-20 38.5t-53.5 29.5t-98 9.5q-5 0 -9 14t-4 27t4 27t9 14h649zM715 78q86 0 143 27.5t98 96t59.5 187.5t18.5 299q0 157 -15.5 269t-41 178t-68.5 103.5t-87.5 49.5t-108.5 12h-99q-57 0 -76.5 -31t-19.5 -95v-400h152q18 0 18 -86 q0 -84 -18 -84h-152v-399q0 -27 3 -46t12 -39.5t29.5 -31t51.5 -10.5h101z" />
<glyph unicode="&#xd1;" horiz-adv-x="1499" d="M72 82q57 0 93 9t52 28.5t20.5 38.5t4.5 51v960q0 32 -5.5 52.5t-22 39t-52 27t-90.5 8.5q-7 0 -11 14t-4 27q0 41 15 41h370q23 0 33 -10q1 -1 335.5 -442t340.5 -447q7 -11 18 -9t11 17v682q0 33 -5 53.5t-22 39t-52.5 26.5t-92.5 8q-7 0 -11 14t-4 27t4 27t11 14h428 q12 0 12 -39q0 -43 -12 -43q-58 0 -94 -9t-52.5 -28.5t-21 -39t-4.5 -52.5v-1185q0 -9 -33 -9q-26 0 -33 9l-846 1112q-8 11 -18 7.5t-10 -16.5v-876q0 -24 2 -39t11.5 -33.5t27 -29t50.5 -18t81 -7.5q12 0 12 -41q0 -11 -3.5 -26t-8.5 -15h-424q-7 0 -11 13.5t-4 27.5 t4 27.5t11 13.5zM602 1653q-18 0 -34.5 -3.5t-28.5 -9t-22.5 -14t-17 -15.5t-12.5 -16t-8.5 -14.5t-4.5 -11.5l-3 -6q-6 -12 -55 2q-25 7 -37.5 13t-9.5 13q3 12 7.5 26t22.5 50.5t41 63.5t64 49t90 22t95 -18t74.5 -40t64.5 -40t69 -18q25 0 45.5 6.5t33.5 16t24 21.5 t15.5 21.5t8.5 18.5l4 8q4 11 55 -2q50 -13 47 -27l-4 -14q-5 -14 -12 -32t-18.5 -41t-29.5 -44.5t-40.5 -40.5t-54.5 -30t-68 -11q-49 0 -94.5 18.5t-73.5 40t-64 40t-69 18.5z" />
<glyph unicode="&#xd2;" horiz-adv-x="1445" d="M731 1403q59 0 102 -3t112.5 -18t120 -42t108.5 -80t94.5 -127t61 -188.5t24.5 -258.5q0 -110 -14.5 -203t-37.5 -161t-59.5 -122.5t-73.5 -90.5t-85.5 -62.5t-90 -41t-93 -22.5t-88 -10t-81.5 -2q-46 0 -83.5 2t-90.5 10t-95.5 22t-93 40.5t-89 62.5t-76 90.5 t-61.5 122.5t-39 161.5t-15 203.5q0 113 15.5 208t40.5 164t64.5 124t78 90.5t90.5 61t93 38.5t95 20.5t87.5 9t78.5 1.5zM731 49q39 0 66 3t63.5 17t61.5 38.5t51.5 72t42.5 113.5t26.5 166t10.5 227q0 128 -10.5 228t-26 166.5t-42 113.5t-51.5 72t-61.5 39t-63.5 17 t-67 3q-38 0 -65.5 -3t-65.5 -17t-65 -38.5t-56 -72t-47 -114t-29.5 -167t-11.5 -227.5q0 -124 12.5 -224t32 -165t49.5 -113t58.5 -73.5t65 -40t63 -18t59.5 -3.5zM764 1495l-229 309q-4 6 15.5 25t47.5 37q71 48 80 35l229 -310q4 -7 -14.5 -23.5t-48.5 -37.5 q-73 -48 -80 -35z" />
<glyph unicode="&#xd3;" horiz-adv-x="1445" d="M731 1403q59 0 102 -3t112.5 -18t120 -42t108.5 -80t94.5 -127t61 -188.5t24.5 -258.5q0 -110 -14.5 -203t-37.5 -161t-59.5 -122.5t-73.5 -90.5t-85.5 -62.5t-90 -41t-93 -22.5t-88 -10t-81.5 -2q-46 0 -83.5 2t-90.5 10t-95.5 22t-93 40.5t-89 62.5t-76 90.5 t-61.5 122.5t-39 161.5t-15 203.5q0 113 15.5 208t40.5 164t64.5 124t78 90.5t90.5 61t93 38.5t95 20.5t87.5 9t78.5 1.5zM731 49q39 0 66 3t63.5 17t61.5 38.5t51.5 72t42.5 113.5t26.5 166t10.5 227q0 128 -10.5 228t-26 166.5t-42 113.5t-51.5 72t-61.5 39t-63.5 17 t-67 3q-38 0 -65.5 -3t-65.5 -17t-65 -38.5t-56 -72t-47 -114t-29.5 -167t-11.5 -227.5q0 -124 12.5 -224t32 -165t49.5 -113t58.5 -73.5t65 -40t63 -18t59.5 -3.5zM907 1804l-229 -309q-7 -13 -80 35q-30 21 -48.5 37.5t-14.5 23.5l229 310q9 13 80 -35q28 -17 47.5 -36.5 t15.5 -25.5z" />
<glyph unicode="&#xd4;" horiz-adv-x="1445" d="M731 1403q59 0 102 -3t112.5 -18t120 -42t108.5 -80t94.5 -127t61 -188.5t24.5 -258.5q0 -110 -14.5 -203t-37.5 -161t-59.5 -122.5t-73.5 -90.5t-85.5 -62.5t-90 -41t-93 -22.5t-88 -10t-81.5 -2q-46 0 -83.5 2t-90.5 10t-95.5 22t-93 40.5t-89 62.5t-76 90.5 t-61.5 122.5t-39 161.5t-15 203.5q0 113 15.5 208t40.5 164t64.5 124t78 90.5t90.5 61t93 38.5t95 20.5t87.5 9t78.5 1.5zM731 49q39 0 66 3t63.5 17t61.5 38.5t51.5 72t42.5 113.5t26.5 166t10.5 227q0 128 -10.5 228t-26 166.5t-42 113.5t-51.5 72t-61.5 39t-63.5 17 t-67 3q-38 0 -65.5 -3t-65.5 -17t-65 -38.5t-56 -72t-47 -114t-29.5 -167t-11.5 -227.5q0 -124 12.5 -224t32 -165t49.5 -113t58.5 -73.5t65 -40t63 -18t59.5 -3.5zM356 1595l336 318q11 11 27.5 12t32.5 -12l335 -318q3 -3 -1 -12t-15.5 -22.5t-28.5 -28.5q-52 -56 -65 -43 l-256 240q-242 -238 -250 -244q-11 -11 -72 47q-56 53 -43 63z" />
<glyph unicode="&#xd5;" horiz-adv-x="1445" d="M731 1403q59 0 102 -3t112.5 -18t120 -42t108.5 -80t94.5 -127t61 -188.5t24.5 -258.5q0 -110 -14.5 -203t-37.5 -161t-59.5 -122.5t-73.5 -90.5t-85.5 -62.5t-90 -41t-93 -22.5t-88 -10t-81.5 -2q-46 0 -83.5 2t-90.5 10t-95.5 22t-93 40.5t-89 62.5t-76 90.5 t-61.5 122.5t-39 161.5t-15 203.5q0 113 15.5 208t40.5 164t64.5 124t78 90.5t90.5 61t93 38.5t95 20.5t87.5 9t78.5 1.5zM731 49q39 0 66 3t63.5 17t61.5 38.5t51.5 72t42.5 113.5t26.5 166t10.5 227q0 128 -10.5 228t-26 166.5t-42 113.5t-51.5 72t-61.5 39t-63.5 17 t-67 3q-38 0 -65.5 -3t-65.5 -17t-65 -38.5t-56 -72t-47 -114t-29.5 -167t-11.5 -227.5q0 -124 12.5 -224t32 -165t49.5 -113t58.5 -73.5t65 -40t63 -18t59.5 -3.5zM575 1653q-18 0 -34.5 -3.5t-28.5 -9t-22.5 -14t-17 -15.5t-12.5 -16t-8.5 -14.5t-5.5 -11.5l-2 -6 q-6 -12 -55 2q-25 7 -37.5 13t-9.5 13q3 12 7.5 26t22.5 50.5t41 63.5t64 49t90 22t95 -18t74.5 -40t64.5 -40t69 -18q25 0 45.5 6.5t33.5 16t24 21.5t15.5 21.5t8.5 18.5l4 8q4 11 56 -2q50 -13 47 -27l-4 -14q-5 -14 -12 -32t-18.5 -41t-29.5 -44.5t-40.5 -40.5t-54.5 -30 t-68 -11q-49 0 -94.5 18.5t-74 40t-64.5 40t-69 18.5z" />
<glyph unicode="&#xd6;" horiz-adv-x="1445" d="M731 1403q59 0 102 -3t112.5 -18t120 -42t108.5 -80t94.5 -127t61 -188.5t24.5 -258.5q0 -110 -14.5 -203t-37.5 -161t-59.5 -122.5t-73.5 -90.5t-85.5 -62.5t-90 -41t-93 -22.5t-88 -10t-81.5 -2q-46 0 -83.5 2t-90.5 10t-95.5 22t-93 40.5t-89 62.5t-76 90.5 t-61.5 122.5t-39 161.5t-15 203.5q0 113 15.5 208t40.5 164t64.5 124t78 90.5t90.5 61t93 38.5t95 20.5t87.5 9t78.5 1.5zM731 49q39 0 66 3t63.5 17t61.5 38.5t51.5 72t42.5 113.5t26.5 166t10.5 227q0 128 -10.5 228t-26 166.5t-42 113.5t-51.5 72t-61.5 39t-63.5 17 t-67 3q-38 0 -65.5 -3t-65.5 -17t-65 -38.5t-56 -72t-47 -114t-29.5 -167t-11.5 -227.5q0 -124 12.5 -224t32 -165t49.5 -113t58.5 -73.5t65 -40t63 -18t59.5 -3.5zM498 1536q-22 0 -41 4t-43 16.5t-38 41t-14 71.5q0 131 142 131q133 0 133 -133q0 -131 -139 -131z M944 1536q-137 0 -137 133q0 131 141 131q133 0 133 -133q0 -131 -137 -131z" />
<glyph unicode="&#xd7;" horiz-adv-x="1120" d="M559 496l-237 -226q-4 -4 -28 11.5t-46 37.5q-60 61 -49 72l235 223l-235 224q-12 12 53 73q60 60 70 50l237 -226l238 226q9 9 73 -50q25 -23 40.5 -44t9.5 -27l-238 -226l238 -223q6 -6 -12 -29.5t-40 -44.5q-59 -59 -71 -47z" />
<glyph unicode="&#xd8;" horiz-adv-x="1445" d="M731 1403q127 0 219 -23q16 13 109 13q21 0 37 -0.5t35 -2t28 -4.5t6 -8q-1 -1 -5 -10.5t-13 -29t-19 -38.5q226 -170 226 -614q0 -110 -14.5 -203t-37.5 -161t-59.5 -122.5t-73.5 -90.5t-85.5 -62.5t-90 -41t-93 -22.5t-88 -10t-81.5 -2q-130 0 -235 25 q-16 -10 -107 -10q-24 0 -37.5 0.5t-33 1.5t-28 4t-5.5 8l34 74q-231 166 -231 612q0 113 15.5 208t40.5 164t64.5 124t78 90.5t90.5 61t93 38.5t95 20.5t87.5 9t78.5 1.5zM391 686q0 -228 41 -379l469 975q-56 43 -170 43q-38 0 -65.5 -3t-65.5 -17t-65 -38.5t-56 -72 t-47 -114t-29.5 -167t-11.5 -227.5zM731 49q39 0 66 3t63.5 17t61.5 38.5t51.5 72t42.5 113.5t26.5 166t10.5 227q0 224 -35 385q-117 -237 -469 -967q68 -55 182 -55z" />
<glyph unicode="&#xd9;" horiz-adv-x="1499" d="M55 1298q-5 0 -8.5 14t-3.5 25q0 41 12 41h627q5 0 8.5 -15t3.5 -26t-3.5 -25t-8.5 -14q-51 0 -84.5 -4.5t-52 -11t-27 -21.5t-10.5 -27.5t-2 -37.5v-799q0 -313 305 -313q58 0 105 6t99.5 26t88 53.5t59 93.5t23.5 140v793q0 26 -1.5 37.5t-10 27t-26.5 21.5t-52 11 t-86 5q-5 0 -9 14t-4 25q0 13 4 27t9 14h432q14 0 14 -41q0 -11 -3.5 -25t-10.5 -14q-43 0 -73.5 -2.5t-49.5 -9.5t-30 -13.5t-16 -20.5t-6 -24.5t-1 -31.5v-795q0 -83 -17 -149.5t-44 -110.5t-68 -76.5t-80.5 -49.5t-91 -27t-89 -12.5t-85.5 -2.5q-57 0 -102 2.5t-106 12.5 t-107 27.5t-94 50.5t-79.5 78t-51.5 113t-20 153v786q0 32 -3 46.5t-19.5 30t-53 20.5t-100.5 5zM821 1495l-229 309q-4 6 15.5 25t47.5 37q71 48 80 35l230 -310q4 -7 -14.5 -23t-49.5 -38q-73 -48 -80 -35z" />
<glyph unicode="&#xda;" horiz-adv-x="1499" d="M55 1298q-5 0 -8.5 14t-3.5 25q0 41 12 41h627q5 0 8.5 -15t3.5 -26t-3.5 -25t-8.5 -14q-51 0 -84.5 -4.5t-52 -11t-27 -21.5t-10.5 -27.5t-2 -37.5v-799q0 -313 305 -313q58 0 105 6t99.5 26t88 53.5t59 93.5t23.5 140v793q0 26 -1.5 37.5t-10 27t-26.5 21.5t-52 11 t-86 5q-5 0 -9 14t-4 25q0 13 4 27t9 14h432q14 0 14 -41q0 -11 -3.5 -25t-10.5 -14q-43 0 -73.5 -2.5t-49.5 -9.5t-30 -13.5t-16 -20.5t-6 -24.5t-1 -31.5v-795q0 -83 -17 -149.5t-44 -110.5t-68 -76.5t-80.5 -49.5t-91 -27t-89 -12.5t-85.5 -2.5q-57 0 -102 2.5t-106 12.5 t-107 27.5t-94 50.5t-79.5 78t-51.5 113t-20 153v786q0 32 -3 46.5t-19.5 30t-53 20.5t-100.5 5zM967 1804l-230 -309q-7 -13 -80 35q-30 21 -48.5 37.5t-14.5 23.5l229 310q9 13 80 -35q28 -18 48 -37t16 -25z" />
<glyph unicode="&#xdb;" horiz-adv-x="1499" d="M55 1298q-5 0 -8.5 14t-3.5 25q0 41 12 41h627q5 0 8.5 -15t3.5 -26t-3.5 -25t-8.5 -14q-51 0 -84.5 -4.5t-52 -11t-27 -21.5t-10.5 -27.5t-2 -37.5v-799q0 -313 305 -313q58 0 105 6t99.5 26t88 53.5t59 93.5t23.5 140v793q0 26 -1.5 37.5t-10 27t-26.5 21.5t-52 11 t-86 5q-5 0 -9 14t-4 25q0 13 4 27t9 14h432q14 0 14 -41q0 -11 -3.5 -25t-10.5 -14q-43 0 -73.5 -2.5t-49.5 -9.5t-30 -13.5t-16 -20.5t-6 -24.5t-1 -31.5v-795q0 -83 -17 -149.5t-44 -110.5t-68 -76.5t-80.5 -49.5t-91 -27t-89 -12.5t-85.5 -2.5q-57 0 -102 2.5t-106 12.5 t-107 27.5t-94 50.5t-79.5 78t-51.5 113t-20 153v786q0 32 -3 46.5t-19.5 30t-53 20.5t-100.5 5zM414 1595l336 318q11 11 27 12t32 -12l336 -318q3 -3 -1 -12t-15.5 -22.5t-28.5 -28.5q-53 -56 -66 -43l-256 240q-242 -238 -250 -244q-10 -10 -71 47q-56 53 -43 63z" />
<glyph unicode="&#xdc;" horiz-adv-x="1499" d="M55 1298q-5 0 -8.5 14t-3.5 25q0 41 12 41h627q5 0 8.5 -15t3.5 -26t-3.5 -25t-8.5 -14q-51 0 -84.5 -4.5t-52 -11t-27 -21.5t-10.5 -27.5t-2 -37.5v-799q0 -313 305 -313q58 0 105 6t99.5 26t88 53.5t59 93.5t23.5 140v793q0 26 -1.5 37.5t-10 27t-26.5 21.5t-52 11 t-86 5q-5 0 -9 14t-4 25q0 13 4 27t9 14h432q14 0 14 -41q0 -11 -3.5 -25t-10.5 -14q-43 0 -73.5 -2.5t-49.5 -9.5t-30 -13.5t-16 -20.5t-6 -24.5t-1 -31.5v-795q0 -83 -17 -149.5t-44 -110.5t-68 -76.5t-80.5 -49.5t-91 -27t-89 -12.5t-85.5 -2.5q-57 0 -102 2.5t-106 12.5 t-107 27.5t-94 50.5t-79.5 78t-51.5 113t-20 153v786q0 32 -3 46.5t-19.5 30t-53 20.5t-100.5 5zM565 1536q-22 0 -41 4t-42.5 16.5t-37.5 41t-14 71.5q0 131 141 131q134 0 134 -133q0 -34 -10.5 -59t-25 -38.5t-35 -21.5t-36.5 -10t-33 -2zM1012 1536q-138 0 -138 133 q0 131 142 131q133 0 133 -133q0 -131 -137 -131z" />
<glyph unicode="&#xdd;" horiz-adv-x="1353" d="M991 0h-629q-14 0 -14 43q0 39 14 39q49 0 83.5 7.5t52.5 18.5t27.5 30t11.5 33.5t2 37.5l-2 387q-265 499 -306 573q-31 65 -77 97t-134 32q-4 0 -8 13t-4 26q0 41 12 41h627q5 0 8.5 -14.5t3.5 -26.5q0 -39 -12 -39q-58 0 -90 -10t-38 -30t-1 -39.5t21 -49.5l223 -415 q8 -14 23.5 -13.5t21.5 13.5l223 415q17 32 22 53.5t-2.5 40t-39 27t-86.5 8.5q-7 0 -11 13.5t-4 25.5q0 13 4 27t11 14h411q13 0 13 -41q0 -9 -3.5 -24t-9.5 -15q-87 0 -131.5 -30t-79.5 -99q-20 -34 -97 -179.5t-143 -270.5t-69 -125v-385q0 -31 4.5 -49.5t20.5 -38.5 t53.5 -29.5t97.5 -9.5q7 0 11 -15t4 -24q0 -11 -4 -27t-11 -16zM897 1804l-229 -309q-7 -13 -80 35q-31 22 -49.5 38t-14.5 23l230 310q9 13 80 -35q28 -17 47.5 -36.5t15.5 -25.5z" />
<glyph unicode="&#xde;" horiz-adv-x="1308" d="M760 1126q483 0 483 -385q0 -55 -9.5 -103t-39.5 -101.5t-78.5 -91t-133.5 -62.5t-198 -25h-53q-61 0 -98.5 -7.5t-54 -25t-21 -35t-4.5 -48.5v-37q0 -34 4 -52.5t20.5 -37.5t54 -27t99.5 -8q10 0 10 -39q0 -41 -10 -41h-631q-14 0 -14 41q0 39 14 39q61 0 97.5 8 t52.5 28t20 39t4 54v960q0 23 -2 37t-11 33.5t-27 30t-52 18.5t-82 8q-14 0 -14 41q0 11 3.5 26t10.5 15h631q10 0 10 -41t-10 -41q-58 0 -94.5 -8.5t-54 -27t-23.5 -39t-6 -52.5v-43h207zM647 436q85 0 147 21.5t94.5 52t51 75.5t23 79t4.5 77q0 46 -4 81t-20.5 80.5 t-46 75t-85.5 50.5t-133 21h-31q-31 0 -51.5 -11.5t-29 -32.5t-11 -39.5t-2.5 -45.5v-484h94z" />
<glyph unicode="&#xdf;" horiz-adv-x="1187" d="M412 0h-344q-15 0 -15 41q0 39 15 39q51 0 83 10t46 30.5t18 39.5t4 49v813q0 383 393 383q41 0 73.5 -2t79.5 -10t82.5 -22t74 -41t63.5 -63.5t41 -92t16 -125.5q0 -60 -10 -109.5t-24 -80t-34.5 -55.5t-36 -37t-34.5 -24q-10 -4 -11.5 -14t7.5 -14q18 -7 28.5 -12 t33 -20t37 -31t34 -45.5t31 -63.5t19.5 -84.5t8 -110.5q0 -76 -18.5 -134t-54 -95t-78 -61.5t-101.5 -36.5t-112.5 -16.5t-121.5 -4.5q-14 0 -14 59q0 58 14 58q28 0 49.5 2.5t48.5 10.5t46 24.5t36 42t26 66t9 93.5q0 70 -5 120t-17 82t-24.5 50.5t-37 27.5t-44 11t-54.5 2 h-33q-3 0 -6 7t-5.5 21.5t-2.5 31.5q0 57 14 57h33q36 0 60 10.5t45 40t30.5 89t9.5 151.5q0 66 -8.5 113t-22.5 74.5t-37 43t-46 20.5t-56 5q-77 0 -106 -62t-29 -231v-944q0 -25 -5 -41t-15.5 -23.5t-20 -9.5t-24.5 -2z" />
<glyph unicode="&#xe0;" horiz-adv-x="1087" d="M1057 82q7 0 10.5 -14.5t3.5 -26.5t-3.5 -26.5t-10.5 -14.5h-332q-15 0 -25 2t-21 9.5t-16.5 23.5t-5.5 41q-69 -96 -215 -96q-379 0 -379 278q0 79 26.5 138t66 91t97.5 51.5t108 25t112 5.5h10q48 0 81.5 7t51.5 17.5t27.5 29.5t11.5 34.5t2 40.5v19q0 65 -16 111 t-42.5 67.5t-53 30t-56.5 8.5q-45 0 -76.5 -10.5t-46.5 -22.5t-23 -31t-8.5 -27t-0.5 -20q0 -8 3 -25t3 -26q0 -36 -12 -61t-32 -36t-37.5 -15.5t-35.5 -4.5q-17 0 -33.5 5t-35.5 18t-31 41.5t-12 68.5q0 35 21.5 70.5t64.5 68.5t119 53.5t173 20.5q32 0 62.5 -2t73.5 -9 t79.5 -18.5t75 -33t65 -50.5t43.5 -73t17 -98v-508q0 -29 4.5 -48.5t19 -39t46.5 -29.5t82 -10zM442 80q29 0 51.5 4t55.5 25.5t54.5 60t37.5 114.5t16 181v31h-184q-46 0 -78.5 -13t-51 -32.5t-28.5 -52.5t-13 -63.5t-3 -74.5q0 -48 12.5 -83.5t29 -53.5t39 -28.5t36 -12.5 t26.5 -2zM559 1096l-229 309q-4 6 15.5 24.5t47.5 36.5q71 48 80 35l229 -309q4 -7 -15 -24.5t-48 -37.5q-73 -48 -80 -34z" />
<glyph unicode="&#xe1;" horiz-adv-x="1087" d="M1057 82q7 0 10.5 -14.5t3.5 -26.5t-3.5 -26.5t-10.5 -14.5h-332q-15 0 -25 2t-21 9.5t-16.5 23.5t-5.5 41q-69 -96 -215 -96q-379 0 -379 278q0 79 26.5 138t66 91t97.5 51.5t108 25t112 5.5h10q48 0 81.5 7t51.5 17.5t27.5 29.5t11.5 34.5t2 40.5v19q0 65 -16 111 t-42.5 67.5t-53 30t-56.5 8.5q-45 0 -76.5 -10.5t-46.5 -22.5t-23 -31t-8.5 -27t-0.5 -20q0 -8 3 -25t3 -26q0 -36 -12 -61t-32 -36t-37.5 -15.5t-35.5 -4.5q-17 0 -33.5 5t-35.5 18t-31 41.5t-12 68.5q0 35 21.5 70.5t64.5 68.5t119 53.5t173 20.5q32 0 62.5 -2t73.5 -9 t79.5 -18.5t75 -33t65 -50.5t43.5 -73t17 -98v-508q0 -29 4.5 -48.5t19 -39t46.5 -29.5t82 -10zM442 80q29 0 51.5 4t55.5 25.5t54.5 60t37.5 114.5t16 181v31h-184q-46 0 -78.5 -13t-51 -32.5t-28.5 -52.5t-13 -63.5t-3 -74.5q0 -48 12.5 -83.5t29 -53.5t39 -28.5t36 -12.5 t26.5 -2zM711 1405l-230 -309q-7 -14 -80 34q-29 20 -48 37.5t-15 24.5l229 309q9 13 80 -35q29 -18 48.5 -36.5t15.5 -24.5z" />
<glyph unicode="&#xe2;" horiz-adv-x="1087" d="M1057 82q7 0 10.5 -14.5t3.5 -26.5t-3.5 -26.5t-10.5 -14.5h-332q-15 0 -25 2t-21 9.5t-16.5 23.5t-5.5 41q-69 -96 -215 -96q-379 0 -379 278q0 79 26.5 138t66 91t97.5 51.5t108 25t112 5.5h10q48 0 81.5 7t51.5 17.5t27.5 29.5t11.5 34.5t2 40.5v19q0 65 -16 111 t-42.5 67.5t-53 30t-56.5 8.5q-45 0 -76.5 -10.5t-46.5 -22.5t-23 -31t-8.5 -27t-0.5 -20q0 -8 3 -25t3 -26q0 -36 -12 -61t-32 -36t-37.5 -15.5t-35.5 -4.5q-17 0 -33.5 5t-35.5 18t-31 41.5t-12 68.5q0 35 21.5 70.5t64.5 68.5t119 53.5t173 20.5q32 0 62.5 -2t73.5 -9 t79.5 -18.5t75 -33t65 -50.5t43.5 -73t17 -98v-508q0 -29 4.5 -48.5t19 -39t46.5 -29.5t82 -10zM135 1196l336 317q11 11 27 12t32 -12l336 -317q3 -3 -1 -12t-15.5 -22.5t-28.5 -28.5q-52 -56 -65 -43l-256 239q-242 -238 -250 -244q-10 -10 -72 48q-56 53 -43 63zM442 80 q29 0 51.5 4t55.5 25.5t54.5 60t37.5 114.5t16 181v31h-184q-46 0 -78.5 -13t-51 -32.5t-28.5 -52.5t-13 -63.5t-3 -74.5q0 -48 12.5 -83.5t29 -53.5t39 -28.5t36 -12.5t26.5 -2z" />
<glyph unicode="&#xe3;" horiz-adv-x="1087" d="M1057 82q7 0 10.5 -14.5t3.5 -26.5t-3.5 -26.5t-10.5 -14.5h-332q-15 0 -25 2t-21 9.5t-16.5 23.5t-5.5 41q-69 -96 -215 -96q-379 0 -379 278q0 79 26.5 138t66 91t97.5 51.5t108 25t112 5.5h10q48 0 81.5 7t51.5 17.5t27.5 29.5t11.5 34.5t2 40.5v19q0 65 -16 111 t-42.5 67.5t-53 30t-56.5 8.5q-45 0 -76.5 -10.5t-46.5 -22.5t-23 -31t-8.5 -27t-0.5 -20q0 -8 3 -25t3 -26q0 -36 -12 -61t-32 -36t-37.5 -15.5t-35.5 -4.5q-17 0 -33.5 5t-35.5 18t-31 41.5t-12 68.5q0 35 21.5 70.5t64.5 68.5t119 53.5t173 20.5q32 0 62.5 -2t73.5 -9 t79.5 -18.5t75 -33t65 -50.5t43.5 -73t17 -98v-508q0 -29 4.5 -48.5t19 -39t46.5 -29.5t82 -10zM442 80q29 0 51.5 4t55.5 25.5t54.5 60t37.5 114.5t16 181v31h-184q-46 0 -78.5 -13t-51 -32.5t-28.5 -52.5t-13 -63.5t-3 -74.5q0 -48 12.5 -83.5t29 -53.5t39 -28.5t36 -12.5 t26.5 -2zM373 1253q-18 0 -34.5 -3.5t-28.5 -9t-22.5 -14t-17 -15.5t-12.5 -16t-8.5 -14.5t-5.5 -11.5l-2 -6q-6 -12 -56 2q-24 7 -37 13.5t-10 13.5q3 11 7.5 26t23 51t41.5 63t64 49t90 22t95 -18.5t74.5 -40t64.5 -40t69 -18.5q25 0 45.5 6.5t33.5 16t24 21.5t15.5 21.5 t8.5 18.5l4 8q4 11 55 -2q50 -13 47 -26l-5 -14q-4 -14 -11 -32t-18.5 -41t-29.5 -44.5t-40.5 -40.5t-54.5 -30t-68 -11q-49 0 -94.5 18t-73.5 40t-64 40t-69 18z" />
<glyph unicode="&#xe4;" horiz-adv-x="1087" d="M1057 82q7 0 10.5 -14.5t3.5 -26.5t-3.5 -26.5t-10.5 -14.5h-332q-15 0 -25 2t-21 9.5t-16.5 23.5t-5.5 41q-69 -96 -215 -96q-379 0 -379 278q0 79 26.5 138t66 91t97.5 51.5t108 25t112 5.5h10q48 0 81.5 7t51.5 17.5t27.5 29.5t11.5 34.5t2 40.5v19q0 65 -16 111 t-42.5 67.5t-53 30t-56.5 8.5q-45 0 -76.5 -10.5t-46.5 -22.5t-23 -31t-8.5 -27t-0.5 -20q0 -8 3 -25t3 -26q0 -36 -12 -61t-32 -36t-37.5 -15.5t-35.5 -4.5q-17 0 -33.5 5t-35.5 18t-31 41.5t-12 68.5q0 35 21.5 70.5t64.5 68.5t119 53.5t173 20.5q32 0 62.5 -2t73.5 -9 t79.5 -18.5t75 -33t65 -50.5t43.5 -73t17 -98v-508q0 -29 4.5 -48.5t19 -39t46.5 -29.5t82 -10zM442 80q29 0 51.5 4t55.5 25.5t54.5 60t37.5 114.5t16 181v31h-184q-46 0 -78.5 -13t-51 -32.5t-28.5 -52.5t-13 -63.5t-3 -74.5q0 -48 12.5 -83.5t29 -53.5t39 -28.5t36 -12.5 t26.5 -2zM279 1137q-22 0 -41 4t-43 16.5t-38 41t-14 71.5q0 131 142 131q133 0 133 -133q0 -131 -139 -131zM725 1137q-137 0 -137 133q0 131 141 131q133 0 133 -133q0 -131 -137 -131z" />
<glyph unicode="&#xe5;" horiz-adv-x="1087" d="M1057 82q7 0 10.5 -14.5t3.5 -26.5t-3.5 -26.5t-10.5 -14.5h-332q-15 0 -25 2t-21 9.5t-16.5 23.5t-5.5 41q-69 -96 -215 -96q-379 0 -379 278q0 79 26.5 138t66 91t97.5 51.5t108 25t112 5.5h10q48 0 81.5 7t51.5 17.5t27.5 29.5t11.5 34.5t2 40.5v19q0 65 -16 111 t-42.5 67.5t-53 30t-56.5 8.5q-45 0 -76.5 -10.5t-46.5 -22.5t-23 -31t-8.5 -27t-0.5 -20q0 -8 3 -25t3 -26q0 -36 -12 -61t-32 -36t-37.5 -15.5t-35.5 -4.5q-17 0 -33.5 5t-35.5 18t-31 41.5t-12 68.5q0 35 21.5 70.5t64.5 68.5t119 53.5t173 20.5q32 0 62.5 -2t73.5 -9 t79.5 -18.5t75 -33t65 -50.5t43.5 -73t17 -98v-508q0 -29 4.5 -48.5t19 -39t46.5 -29.5t82 -10zM442 80q29 0 51.5 4t55.5 25.5t54.5 60t37.5 114.5t16 181v31h-184q-46 0 -78.5 -13t-51 -32.5t-28.5 -52.5t-13 -63.5t-3 -74.5q0 -48 12.5 -83.5t29 -53.5t39 -28.5t36 -12.5 t26.5 -2zM504 1466q101 0 148.5 -45.5t47.5 -140.5q0 -91 -47 -135.5t-151 -44.5q-106 0 -155.5 46t-49.5 138q0 91 50 136.5t157 45.5zM502 1188q41 0 57 22.5t16 75.5q0 51 -16 71.5t-55 20.5q-42 0 -62 -21t-20 -69q0 -52 18.5 -76t61.5 -24z" />
<glyph unicode="&#xe6;" horiz-adv-x="1669" d="M1503 303q7 0 15 -0.5t17 -1.5t14.5 -3t4.5 -5q-53 -183 -144.5 -250.5t-252.5 -67.5q-48 0 -89 4t-87.5 15.5t-85 30.5t-76 52t-65.5 77q-44 -94 -114.5 -136.5t-180.5 -42.5q-50 0 -96 5.5t-100.5 23.5t-93 47t-65 82.5t-26.5 124.5q0 73 21.5 127.5t57.5 89t90.5 56 t115 30t135.5 8.5q48 0 81.5 7.5t51.5 18t27.5 29.5t11.5 34t2 40v19q0 217 -168 217q-154 0 -154 -107q0 -12 3 -29.5t3 -25.5q0 -60 -32.5 -88.5t-83.5 -28.5q-47 0 -80 32.5t-33 100.5q0 37 23 73.5t67 68t119 51.5t168 20q212 0 321 -81q111 88 303 88q42 0 78 -3.5 t84.5 -15.5t87 -33.5t78 -60.5t66 -92.5t43 -133.5t16.5 -180h-475q-41 0 -70 -4.5t-57 -17t-40.5 -39.5t-8.5 -68q6 -59 17 -105t22 -75.5t31 -50t34 -30.5t40 -15t39 -5.5t42 -0.5q51 0 91.5 9t80.5 31.5t71.5 66t53.5 108.5q2 10 51 10zM459 76q52 0 89.5 19.5t66.5 65.5 t43 129t14 204h-185q-46 0 -78.5 -13t-51 -33t-28.5 -53t-13 -63t-3 -72q0 -90 44 -137t102 -47zM1128 940q-104 0 -149 -88t-51 -285h387q-8 196 -46.5 284.5t-140.5 88.5z" />
<glyph unicode="&#xe7;" horiz-adv-x="1005" d="M887 295h7h9.5t11.5 -1t10 -1.5t7 -2t2 -3.5q-13 -76 -38 -133t-57.5 -91.5t-76 -56t-87.5 -29.5t-97 -8l-29 -63q32 0 54.5 -2t47 -8t38.5 -18t24 -30.5t9 -47.5t-11 -68q-9 -35 -24 -61.5t-38 -42t-42.5 -24.5t-51 -13t-48.5 -4.5t-51 -0.5h-14q-16 0 -34.5 3.5 t-31.5 7.5t-25 8t-13 4q-10 3 -10 47q0 11 0.5 18.5t1.5 13t3 8t5 1.5q84 -21 117 -21q30 0 46 2.5t34 16t26 41.5q23 86 -61 86l-125 -6l71 164q-360 62 -360 507q0 98 17.5 177.5t46 132t70 92t83 61t92.5 34.5t90.5 16.5t85.5 3.5q54 0 111 -9t111.5 -27t89.5 -50t35 -74 v-166q0 -5 -17.5 -8.5t-28.5 -3.5q-10 0 -26.5 3.5t-16.5 8.5q0 124 -66.5 188t-191.5 64q-37 0 -63.5 -6t-58 -31.5t-51 -70.5t-33 -128.5t-13.5 -199.5q0 -110 14.5 -190.5t36 -124t54 -69t59.5 -32t62 -6.5q110 0 175.5 46t84.5 169q2 8 49 8z" />
<glyph unicode="&#xe8;" horiz-adv-x="1058" d="M563 66q104 0 178.5 46.5t116.5 170.5q3 10 53 10h7.5t10.5 -0.5t12.5 -1t11 -1.5t8 -3t2.5 -4q-28 -97 -67 -161t-91.5 -97.5t-108.5 -46.5t-133 -13q-47 0 -88.5 4t-93 18t-93.5 36t-83.5 62t-69.5 92.5t-45.5 131t-17.5 174.5t17 174.5t44 131.5t66.5 92.5t79.5 61.5 t89 35t88 17t83 4q46 0 84.5 -4t85.5 -17.5t84 -36t74 -62t62 -93t41.5 -132t18.5 -175.5h-477q-92 0 -137 -25.5t-37 -101.5t23 -129.5t33 -84t46.5 -47t55.5 -21t67 -4.5zM332 557h393q-7 151 -31 234.5t-60 112t-95 28.5q-45 0 -78 -15.5t-61.5 -55.5t-45.5 -116 t-22 -188zM571 1096l-229 309q-4 6 16 24t48 37q71 48 79 35l230 -309q4 -7 -15 -24t-49 -38q-73 -48 -80 -34z" />
<glyph unicode="&#xe9;" horiz-adv-x="1058" d="M563 66q104 0 178.5 46.5t116.5 170.5q3 10 53 10h7.5t10.5 -0.5t12.5 -1t11 -1.5t8 -3t2.5 -4q-28 -97 -67 -161t-91.5 -97.5t-108.5 -46.5t-133 -13q-47 0 -88.5 4t-93 18t-93.5 36t-83.5 62t-69.5 92.5t-45.5 131t-17.5 174.5t17 174.5t44 131.5t66.5 92.5t79.5 61.5 t89 35t88 17t83 4q46 0 84.5 -4t85.5 -17.5t84 -36t74 -62t62 -93t41.5 -132t18.5 -175.5h-477q-92 0 -137 -25.5t-37 -101.5t23 -129.5t33 -84t46.5 -47t55.5 -21t67 -4.5zM332 557h393q-7 151 -31 234.5t-60 112t-95 28.5q-45 0 -78 -15.5t-61.5 -55.5t-45.5 -116 t-22 -188zM715 1405l-230 -309q-7 -13 -79 34q-30 21 -49 38t-15 24l229 309q9 13 80 -35q29 -18 48.5 -36.5t15.5 -24.5z" />
<glyph unicode="&#xea;" horiz-adv-x="1058" d="M563 66q104 0 178.5 46.5t116.5 170.5q3 10 53 10h7.5t10.5 -0.5t12.5 -1t11 -1.5t8 -3t2.5 -4q-28 -97 -67 -161t-91.5 -97.5t-108.5 -46.5t-133 -13q-47 0 -88.5 4t-93 18t-93.5 36t-83.5 62t-69.5 92.5t-45.5 131t-17.5 174.5t17 174.5t44 131.5t66.5 92.5t79.5 61.5 t89 35t88 17t83 4q46 0 84.5 -4t85.5 -17.5t84 -36t74 -62t62 -93t41.5 -132t18.5 -175.5h-477q-92 0 -137 -25.5t-37 -101.5t23 -129.5t33 -84t46.5 -47t55.5 -21t67 -4.5zM164 1196l336 317q11 11 27 12t32 -12l336 -317q3 -3 -1 -12t-15.5 -22.5t-28.5 -28.5 q-53 -56 -66 -43l-256 239q-241 -238 -249 -244q-10 -10 -72 48q-56 53 -43 63zM332 557h393q-7 151 -31 234.5t-60 112t-95 28.5q-45 0 -78 -15.5t-61.5 -55.5t-45.5 -116t-22 -188z" />
<glyph unicode="&#xeb;" horiz-adv-x="1058" d="M563 66q104 0 178.5 46.5t116.5 170.5q3 10 53 10h7.5t10.5 -0.5t12.5 -1t11 -1.5t8 -3t2.5 -4q-28 -97 -67 -161t-91.5 -97.5t-108.5 -46.5t-133 -13q-47 0 -88.5 4t-93 18t-93.5 36t-83.5 62t-69.5 92.5t-45.5 131t-17.5 174.5t17 174.5t44 131.5t66.5 92.5t79.5 61.5 t89 35t88 17t83 4q46 0 84.5 -4t85.5 -17.5t84 -36t74 -62t62 -93t41.5 -132t18.5 -175.5h-477q-92 0 -137 -25.5t-37 -101.5t23 -129.5t33 -84t46.5 -47t55.5 -21t67 -4.5zM332 557h393q-7 151 -31 234.5t-60 112t-95 28.5q-45 0 -78 -15.5t-61.5 -55.5t-45.5 -116 t-22 -188zM307 1137q-22 0 -41 4t-42.5 16.5t-37.5 41t-14 71.5q0 131 141 131q133 0 133 -133q0 -131 -139 -131zM754 1137q-138 0 -138 133q0 131 142 131q133 0 133 -133q0 -131 -137 -131z" />
<glyph unicode="&#xec;" horiz-adv-x="686" d="M629 0h-559q-3 0 -7 15t-4 28t3.5 26t7.5 13q49 0 80.5 11t44.5 32.5t16.5 39t3.5 44.5v561q0 29 -4 47.5t-18 39.5t-47 31.5t-85 10.5q-7 0 -10.5 14t-3.5 25q0 12 3.5 26.5t10.5 14.5h412v-770q0 -30 4 -48.5t18.5 -39t47.5 -30t86 -9.5q12 0 12 -39q0 -43 -12 -43z M352 1096l-229 309q-4 6 15.5 24.5t47.5 36.5q71 48 80 35l230 -309q4 -7 -15 -24t-49 -38q-73 -48 -80 -34z" />
<glyph unicode="&#xed;" horiz-adv-x="686" d="M629 0h-559q-3 0 -7 15t-4 28t3.5 26t7.5 13q49 0 80.5 11t44.5 32.5t16.5 39t3.5 44.5v561q0 29 -4 47.5t-18 39.5t-47 31.5t-85 10.5q-7 0 -10.5 14t-3.5 25q0 12 3.5 26.5t10.5 14.5h412v-770q0 -30 4 -48.5t18.5 -39t47.5 -30t86 -9.5q12 0 12 -39q0 -43 -12 -43z M508 1405l-229 -309q-7 -14 -80 34q-30 21 -49 38t-15 24l230 309q8 13 79 -35q29 -18 48.5 -36.5t15.5 -24.5z" />
<glyph unicode="&#xee;" horiz-adv-x="686" d="M629 0h-559q-3 0 -7 15t-4 28t3.5 26t7.5 13q49 0 80.5 11t44.5 32.5t16.5 39t3.5 44.5v561q0 29 -4 47.5t-18 39.5t-47 31.5t-85 10.5q-7 0 -10.5 14t-3.5 25q0 12 3.5 26.5t10.5 14.5h412v-770q0 -30 4 -48.5t18.5 -39t47.5 -30t86 -9.5q12 0 12 -39q0 -43 -12 -43z M-80 1196l336 317q11 11 27 12t32 -12l336 -317q3 -3 -1 -12t-15.5 -22.5t-28.5 -28.5q-52 -56 -65 -43l-256 239q-242 -238 -250 -244q-10 -10 -72 48q-56 53 -43 63z" />
<glyph unicode="&#xef;" horiz-adv-x="686" d="M629 0h-559q-3 0 -7 15t-4 28t3.5 26t7.5 13q49 0 80.5 11t44.5 32.5t16.5 39t3.5 44.5v561q0 29 -4 47.5t-18 39.5t-47 31.5t-85 10.5q-7 0 -10.5 14t-3.5 25q0 12 3.5 26.5t10.5 14.5h412v-770q0 -30 4 -48.5t18.5 -39t47.5 -30t86 -9.5q12 0 12 -39q0 -43 -12 -43z M100 1137q-22 0 -41 4t-42.5 16.5t-37.5 41t-14 71.5q0 131 141 131q134 0 134 -133q0 -34 -10.5 -59t-25 -38.5t-35 -21.5t-36.5 -10t-33 -2zM547 1137q-137 0 -137 133q0 131 141 131q133 0 133 -133q0 -131 -137 -131z" />
<glyph unicode="&#xf0;" horiz-adv-x="1210" d="M524 -23q-46 0 -82.5 3t-85.5 15t-86.5 32.5t-77 59t-64.5 90.5t-41.5 131.5t-16.5 178.5q0 95 16 172.5t41.5 130t63.5 92t76.5 62t87 36t88 17.5t85.5 4q42 0 83 -13t61.5 -25.5t32.5 -22.5q12 -9 27.5 -2.5t15.5 23.5v77h-162q-17 0 -17 70q0 66 17 66h162v16 q0 106 -154 106q-6 0 -10 12.5t-4 28.5q0 14 4 27.5t10 13.5h410v-204h167q19 0 19 -68t-19 -68h-167v-829q0 -65 30.5 -97t124.5 -32q5 0 8.5 -12t3.5 -27q0 -41 -12 -41h-344q-33 0 -50 15t-17 57q-82 -95 -224 -95zM524 45q33 0 60.5 7.5t59.5 34.5t53.5 71.5t36 126 t14.5 190.5v346q-25 22 -41.5 36t-47.5 35t-64 31.5t-67 10.5q-32 0 -56 -8t-50.5 -35.5t-43 -75t-27.5 -133t-11 -203.5q0 -116 11 -199t27 -127.5t42 -69.5t49 -31.5t55 -6.5z" />
<glyph unicode="&#xf1;" horiz-adv-x="1282" d="M594 0h-518q-7 0 -11 13.5t-4 27.5t4 27.5t11 13.5q51 0 83.5 10t46 30.5t17.5 39t4 47.5v561q0 66 -31 96.5t-120 30.5q-15 0 -15 41t15 41h340q26 0 41.5 -11t19.5 -42q2 -11 10 -13t17 5q26 24 45.5 38t61.5 29.5t89 15.5q49 0 93.5 -6t98.5 -26.5t93 -54.5 t65.5 -96.5t26.5 -145.5v-463q0 -62 21.5 -94.5t89.5 -32.5q5 0 8.5 -14.5t3.5 -26.5q0 -41 -12 -41h-483q-4 0 -8.5 13.5t-4.5 27.5t3.5 27.5t9.5 13.5q36 0 59 10.5t32.5 31.5t12 38.5t2.5 46.5v414q0 73 -9.5 124t-22 77t-35 40t-38.5 16.5t-42 2.5q-39 0 -69.5 -10 t-52.5 -31.5t-33 -37t-28 -44.5v-551q0 -63 21 -95t92 -32q12 0 12 -41q0 -10 -3.5 -25.5t-8.5 -15.5zM494 1253q-16 0 -31 -2.5t-26.5 -8t-21 -11t-17 -13.5t-13 -14.5t-10 -14t-7 -12t-4.5 -9.5l-2 -5q-6 -12 -55 2q-24 7 -37 13.5t-10 13.5q3 12 7.5 26t22.5 50.5 t41 63.5t64 49t90 22t95 -18.5t74.5 -40t64.5 -40t69 -18.5q25 0 46 6.5t34 16t23.5 21.5t15.5 21.5t9 18.5l4 8q4 11 55 -2q50 -13 47 -26l-4 -14q-5 -14 -12 -32t-18.5 -41t-29.5 -44.5t-40.5 -40.5t-54.5 -30t-68 -11q-49 0 -94.5 18t-73.5 40t-64 40t-69 18z" />
<glyph unicode="&#xf2;" d="M549 1001q46 0 87 -4.5t88.5 -19t86.5 -37.5t76 -63.5t62.5 -93.5t41 -130t15.5 -172q0 -94 -16 -171t-42.5 -129.5t-65.5 -92t-78.5 -62t-87.5 -36.5t-88.5 -18.5t-84.5 -4.5q-467 0 -467 518q0 131 31.5 228t78 150.5t113.5 86t125 42t125 9.5zM541 37q34 0 58 6.5 t53.5 32.5t48 72.5t31.5 133.5t13 207q0 121 -12.5 207t-30.5 131.5t-47 70.5t-51.5 30.5t-54.5 5.5t-56.5 -5.5t-56 -31t-51.5 -70t-34.5 -130t-14.5 -203.5q0 -119 12.5 -205.5t31 -134t47.5 -75t54.5 -35t59.5 -7.5zM586 1096l-230 309q-4 6 16 24t48 37q71 48 80 35 l229 -309q4 -7 -15 -24.5t-48 -37.5q-73 -48 -80 -34z" />
<glyph unicode="&#xf3;" d="M549 1001q46 0 87 -4.5t88.5 -19t86.5 -37.5t76 -63.5t62.5 -93.5t41 -130t15.5 -172q0 -94 -16 -171t-42.5 -129.5t-65.5 -92t-78.5 -62t-87.5 -36.5t-88.5 -18.5t-84.5 -4.5q-467 0 -467 518q0 131 31.5 228t78 150.5t113.5 86t125 42t125 9.5zM541 37q34 0 58 6.5 t53.5 32.5t48 72.5t31.5 133.5t13 207q0 121 -12.5 207t-30.5 131.5t-47 70.5t-51.5 30.5t-54.5 5.5t-56.5 -5.5t-56 -31t-51.5 -70t-34.5 -130t-14.5 -203.5q0 -119 12.5 -205.5t31 -134t47.5 -75t54.5 -35t59.5 -7.5zM729 1405l-229 -309q-7 -14 -80 34q-30 21 -49 38 t-15 24l230 309q9 13 80 -35q28 -18 47.5 -36.5t15.5 -24.5z" />
<glyph unicode="&#xf4;" d="M549 1001q46 0 87 -4.5t88.5 -19t86.5 -37.5t76 -63.5t62.5 -93.5t41 -130t15.5 -172q0 -94 -16 -171t-42.5 -129.5t-65.5 -92t-78.5 -62t-87.5 -36.5t-88.5 -18.5t-84.5 -4.5q-467 0 -467 518q0 131 31.5 228t78 150.5t113.5 86t125 42t125 9.5zM541 37q34 0 58 6.5 t53.5 32.5t48 72.5t31.5 133.5t13 207q0 121 -12.5 207t-30.5 131.5t-47 70.5t-51.5 30.5t-54.5 5.5t-56.5 -5.5t-56 -31t-51.5 -70t-34.5 -130t-14.5 -203.5q0 -119 12.5 -205.5t31 -134t47.5 -75t54.5 -35t59.5 -7.5zM176 1196l336 317q11 11 27 12t32 -12l336 -317 q3 -3 -1 -12t-15.5 -22.5t-28.5 -28.5q-52 -56 -65 -43l-256 239q-242 -238 -250 -244q-10 -10 -72 48q-56 53 -43 63z" />
<glyph unicode="&#xf5;" d="M549 1001q46 0 87 -4.5t88.5 -19t86.5 -37.5t76 -63.5t62.5 -93.5t41 -130t15.5 -172q0 -94 -16 -171t-42.5 -129.5t-65.5 -92t-78.5 -62t-87.5 -36.5t-88.5 -18.5t-84.5 -4.5q-467 0 -467 518q0 131 31.5 228t78 150.5t113.5 86t125 42t125 9.5zM541 37q34 0 58 6.5 t53.5 32.5t48 72.5t31.5 133.5t13 207q0 121 -12.5 207t-30.5 131.5t-47 70.5t-51.5 30.5t-54.5 5.5t-56.5 -5.5t-56 -31t-51.5 -70t-34.5 -130t-14.5 -203.5q0 -119 12.5 -205.5t31 -134t47.5 -75t54.5 -35t59.5 -7.5zM395 1253q-18 0 -34.5 -3.5t-28.5 -9t-22.5 -14 t-17 -15.5t-12.5 -16t-8.5 -14.5t-5.5 -11.5l-2 -6q-6 -12 -55 2q-24 7 -37 13.5t-10 13.5q3 12 7.5 26t22.5 50.5t41 63.5t64 49t90 22t95 -18.5t74.5 -40t64.5 -40t69 -18.5q25 0 45.5 6.5t33.5 16t24 21.5t15.5 21.5t8.5 18.5l4 8q4 11 56 -2q50 -13 47 -26l-4 -11 q-3 -11 -8 -25.5t-15 -34.5t-22 -39t-30 -38t-39 -33t-49.5 -23t-60.5 -9q-49 0 -94.5 18t-73.5 40t-64 40t-69 18z" />
<glyph unicode="&#xf6;" d="M549 1001q46 0 87 -4.5t88.5 -19t86.5 -37.5t76 -63.5t62.5 -93.5t41 -130t15.5 -172q0 -94 -16 -171t-42.5 -129.5t-65.5 -92t-78.5 -62t-87.5 -36.5t-88.5 -18.5t-84.5 -4.5q-467 0 -467 518q0 131 31.5 228t78 150.5t113.5 86t125 42t125 9.5zM541 37q34 0 58 6.5 t53.5 32.5t48 72.5t31.5 133.5t13 207q0 121 -12.5 207t-30.5 131.5t-47 70.5t-51.5 30.5t-54.5 5.5t-56.5 -5.5t-56 -31t-51.5 -70t-34.5 -130t-14.5 -203.5q0 -119 12.5 -205.5t31 -134t47.5 -75t54.5 -35t59.5 -7.5zM317 1137q-22 0 -41 4t-42.5 16.5t-37.5 41t-14 71.5 q0 131 142 131q133 0 133 -133q0 -34 -10.5 -59t-25 -38.5t-35 -21.5t-36.5 -10t-33 -2zM764 1137q-137 0 -137 133q0 131 141 131q133 0 133 -133q0 -131 -137 -131z" />
<glyph unicode="&#xf7;" horiz-adv-x="729" d="M659 485h-587q-19 0 -19 86q0 84 19 84h587q15 0 15 -86q0 -84 -15 -84zM375 766q-21 0 -40 4.5t-43 16.5t-38 41t-14 71q0 131 141 131q135 0 135 -133q0 -34 -10.5 -59t-25.5 -38.5t-35.5 -21.5t-36.5 -10t-33 -2zM375 98q-21 0 -40 4.5t-43 16.5t-38 41t-14 71 q0 131 141 131q135 0 135 -133q0 -34 -10.5 -59t-25.5 -38.5t-35.5 -21.5t-36.5 -10t-33 -2z" />
<glyph unicode="&#xf8;" horiz-adv-x="1083" d="M270 -16q-11 -11 -131 -11h-28t-29.5 0.5t-28.5 1.5t-22 2t-14.5 3t-2.5 4l136 172q-74 125 -74 329q0 131 31.5 228t78 150.5t113.5 86t125 42t125 9.5q131 0 229 -45l25 33q10 12 131 12q127 -2 127 -12l-133 -168q78 -129 78 -340q0 -94 -16 -171t-42.5 -129.5 t-65.5 -92t-78.5 -62t-87.5 -36.5t-88.5 -18.5t-84.5 -4.5q-141 0 -246 51q-6 -7 -13 -16t-10.5 -13t-3.5 -5zM541 37q34 0 58 6.5t53.5 32.5t48 72.5t31.5 133.5t13 207q0 18 -1 50t-1 47l-354 -453q27 -56 65 -76t87 -20zM336 494q0 -68 2 -97l354 451q-28 53 -62.5 69.5 t-80.5 16.5q-32 0 -56.5 -5.5t-56 -31t-51.5 -70t-34.5 -130t-14.5 -203.5z" />
<glyph unicode="&#xf9;" horiz-adv-x="1269" d="M31 899q-13 0 -13 39q0 41 13 41h422v-680q0 -205 153 -205q30 0 59 10t59.5 33.5t49.5 72.5t19 118v442q0 28 -4.5 47t-18.5 39.5t-47 31.5t-84 11q-5 0 -9.5 14t-4.5 25t4.5 26t9.5 15h414v-770q0 -22 2 -36.5t10.5 -33.5t24 -30t45 -19t71.5 -8q13 0 13 -41t-11 -41 h-350q-32 0 -48.5 16t-16.5 66q-84 -102 -275 -102q-332 0 -332 329v461q0 29 -5 49.5t-20 40t-47.5 29.5t-82.5 10zM635 1096l-229 309q-4 6 15.5 24.5t47.5 36.5q71 48 80 35l229 -309q4 -7 -15 -24.5t-48 -37.5q-73 -48 -80 -34z" />
<glyph unicode="&#xfa;" horiz-adv-x="1271" d="M31 899q-13 0 -13 39q0 41 13 41h422v-680q0 -205 153 -205q30 0 59 10t59.5 33.5t49.5 72.5t19 118v442q0 28 -4.5 47t-18.5 39.5t-47 31.5t-84 11q-5 0 -9.5 14t-4.5 25t4.5 26t9.5 15h414v-770q0 -22 2 -36.5t10.5 -33.5t24 -30t45 -19t71.5 -8q13 0 13 -41t-11 -41 h-350q-32 0 -48.5 16t-16.5 66q-84 -102 -275 -102q-332 0 -332 329v461q0 29 -5 49.5t-20 40t-47.5 29.5t-82.5 10zM819 1405l-229 -309q-7 -14 -80 34q-30 21 -49 38t-15 24l230 309q9 13 80 -35q28 -18 47.5 -36.5t15.5 -24.5z" />
<glyph unicode="&#xfb;" horiz-adv-x="1269" d="M31 899q-13 0 -13 39q0 41 13 41h422v-680q0 -205 153 -205q30 0 59 10t59.5 33.5t49.5 72.5t19 118v442q0 28 -4.5 47t-18.5 39.5t-47 31.5t-84 11q-5 0 -9.5 14t-4.5 25t4.5 26t9.5 15h414v-770q0 -22 2 -36.5t10.5 -33.5t24 -30t45 -19t71.5 -8q13 0 13 -41t-11 -41 h-350q-32 0 -48.5 16t-16.5 66q-84 -102 -275 -102q-332 0 -332 329v461q0 29 -5 49.5t-20 40t-47.5 29.5t-82.5 10zM231 1196l336 317q11 11 27.5 12t32.5 -12l336 -317q3 -3 -1 -12t-15.5 -22.5t-28.5 -28.5q-53 -56 -66 -43l-256 239q-242 -238 -250 -244q-10 -10 -72 48 q-56 53 -43 63z" />
<glyph unicode="&#xfc;" horiz-adv-x="1269" d="M31 899q-13 0 -13 39q0 41 13 41h422v-680q0 -205 153 -205q30 0 59 10t59.5 33.5t49.5 72.5t19 118v442q0 28 -4.5 47t-18.5 39.5t-47 31.5t-84 11q-5 0 -9.5 14t-4.5 25t4.5 26t9.5 15h414v-770q0 -22 2 -36.5t10.5 -33.5t24 -30t45 -19t71.5 -8q13 0 13 -41t-11 -41 h-350q-32 0 -48.5 16t-16.5 66q-84 -102 -275 -102q-332 0 -332 329v461q0 29 -5 49.5t-20 40t-47.5 29.5t-82.5 10zM369 1137q-22 0 -41 4t-43 16.5t-38 41t-14 71.5q0 131 142 131q133 0 133 -133q0 -131 -139 -131zM815 1137q-137 0 -137 133q0 131 141 131 q133 0 133 -133q0 -131 -137 -131z" />
<glyph unicode="&#xfd;" horiz-adv-x="1155" d="M47 897q-5 0 -8.5 15t-3.5 26q0 41 12 41h533q10 0 10 -41t-10 -41q-49 0 -71.5 -15.5t-21 -41.5t12.5 -62q16 -43 79.5 -232.5t67.5 -199.5q4 -12 17 -11.5t20 13.5l184 432q13 29 17.5 47t1 35.5t-23 26t-56.5 8.5q-14 0 -14 41t14 41h315q7 0 11 -15t4 -26 q0 -12 -4 -26.5t-11 -14.5q-39 0 -68 -10t-47.5 -29.5t-29 -37.5t-21.5 -46l-434 -1007q-14 -34 -31.5 -59t-33.5 -42.5t-42.5 -28.5t-45 -17t-57 -9t-62.5 -3.5t-76 -0.5q-6 0 -10 16.5t-4 30.5t3.5 30.5t10.5 16.5q44 0 67 0.5t54.5 4t49 10.5t37.5 19t33.5 31t24.5 46 l78 188q-276 682 -311 772q-25 64 -58 94.5t-102 30.5zM784 1405l-229 -309q-7 -14 -80 34q-29 20 -48 37.5t-15 24.5l229 309q9 13 80 -35q28 -18 47.5 -36.5t15.5 -24.5z" />
<glyph unicode="&#xfe;" horiz-adv-x="1253" d="M733 1001q45 0 82 -3t85.5 -15.5t86.5 -33.5t77.5 -60t65 -91.5t42 -132t16.5 -178.5t-17 -178.5t-43.5 -132t-66.5 -91.5t-78.5 -60t-87 -33.5t-85 -15.5t-79.5 -3q-94 0 -180 62q-12 9 -26.5 1.5t-14.5 -22.5v-198q0 -29 5 -49t19.5 -39.5t47 -29t82.5 -9.5 q5 0 8.5 -14.5t3.5 -26.5t-3.5 -26.5t-8.5 -14.5h-564q-14 0 -14 41t14 41q51 0 83.5 10t46.5 30.5t18 39t4 47.5v1353q0 30 -4.5 49t-18.5 39t-46 29.5t-83 9.5q-14 0 -14 41t14 41h342q20 0 32.5 -3.5t24 -21t11.5 -50.5v-400q88 98 223 98zM729 41q31 0 54 6.5t50.5 33.5 t45 74t29.5 134t12 207q0 87 -6 155.5t-16 114t-25.5 78t-30 50t-36 27t-36.5 11.5t-37 2q-33 0 -60 -8t-58.5 -35t-53.5 -73t-36.5 -129.5t-14.5 -196.5v-338q123 -113 219 -113z" />
<glyph unicode="&#xff;" horiz-adv-x="1155" d="M47 897q-5 0 -8.5 15t-3.5 26q0 41 12 41h533q10 0 10 -41t-10 -41q-49 0 -71.5 -15.5t-21 -41.5t12.5 -62q16 -43 79.5 -232.5t67.5 -199.5q4 -12 17 -11.5t20 13.5l184 432q13 29 17.5 47t1 35.5t-23 26t-56.5 8.5q-14 0 -14 41t14 41h315q7 0 11 -15t4 -26 q0 -12 -4 -26.5t-11 -14.5q-39 0 -68 -10t-47.5 -29.5t-29 -37.5t-21.5 -46l-434 -1007q-14 -34 -31.5 -59t-33.5 -42.5t-42.5 -28.5t-45 -17t-57 -9t-62.5 -3.5t-76 -0.5q-6 0 -10 16.5t-4 30.5t3.5 30.5t10.5 16.5q44 0 67 0.5t54.5 4t49 10.5t37.5 19t33.5 31t24.5 46 l78 188q-276 682 -311 772q-25 64 -58 94.5t-102 30.5zM823 1137q-137 0 -137 133q0 131 141 131q134 0 134 -133q0 -131 -138 -131zM377 1137q-22 0 -41 4t-42.5 16.5t-37.5 41t-14 71.5q0 131 141 131q133 0 133 -133q0 -131 -139 -131z" />
<glyph unicode="&#x152;" horiz-adv-x="1953" d="M1835 324q14 0 27.5 -3.5t13.5 -9.5l-39 -293q-4 -18 -22 -18h-822v53q-129 -73 -299 -73q-61 0 -106 3t-111 18.5t-114 42.5t-100.5 80t-85.5 126t-55 185t-22 253q0 144 23 258.5t56.5 188t89 126t102 78.5t114.5 40.5t108.5 17t100.5 2.5q164 0 299 -76v55h805 q19 0 23 -18q2 -8 20.5 -147.5t18.5 -145.5q0 -5 -13 -8.5t-30 -3.5q-40 0 -43 12q-25 135 -67 184t-112 49h-227q-59 0 -77.5 -32t-18.5 -94v-420h219q65 0 99 30t34 123q0 6 14 9.5t29 3.5q14 0 27.5 -3.5t13.5 -9.5v-387q0 -10 -41 -10q-43 0 -43 10q0 51 -10.5 83.5 t-31 47.5t-41 20t-50.5 5h-86q-33 0 -53.5 -4.5t-40.5 -20.5t-29.5 -51.5t-9.5 -91.5v-303q0 -30 3 -49.5t11.5 -39t28.5 -29t51 -9.5h248q31 0 53.5 7.5t48 30t44.5 71.5t32 124q3 13 43 13zM694 57q31 0 51 1.5t47.5 8t46 18.5t40.5 34.5t36.5 54.5t29.5 79.5t23 108.5 t13.5 143.5t5.5 182.5q0 128 -8.5 227.5t-22 166t-37 112.5t-45 70.5t-56 37.5t-59.5 16t-65 3q-29 0 -49 -1.5t-47 -8t-45.5 -18.5t-41 -34.5t-37 -54.5t-30 -80t-24 -109t-14 -144t-5.5 -183q0 -125 10 -224t25.5 -164t40.5 -112t48 -72t55.5 -39t56.5 -17t57 -3z" />
<glyph unicode="&#x153;" horiz-adv-x="1761" d="M1597 303q53 0 52 -10q-24 -88 -61.5 -150t-75 -94.5t-89 -50.5t-87.5 -21.5t-87 -3.5q-234 0 -356 115q-120 -115 -340 -115q-105 0 -187.5 28t-146.5 87.5t-98.5 161.5t-34.5 242q0 516 475 516q108 0 185.5 -25t142.5 -86q65 62 147 86.5t189 24.5q66 0 121 -9.5 t118 -42.5t106 -87.5t72.5 -151.5t30.5 -228h-475q-31 0 -52 -1.5t-48.5 -8.5t-43 -20t-25.5 -38.5t-7 -60.5q8 -76 23 -129t33 -83.5t47 -46.5t56 -20.5t68 -4.5q113 0 183 50t112 167q7 10 53 10zM551 41q24 0 43 3t41.5 14t38.5 30t32.5 53t26.5 80.5t16.5 115.5t6.5 155 q0 119 -11.5 204.5t-28 132t-44 72.5t-52 32.5t-59.5 6.5q-34 0 -60 -7t-56.5 -33.5t-50 -72t-33 -129t-13.5 -198.5q0 -119 12.5 -206t31 -135t47 -75.5t54 -35t58.5 -7.5zM1225 940q-34 0 -59.5 -7t-53 -30.5t-45.5 -63t-31.5 -108.5t-17.5 -164h393q-4 117 -18.5 193.5 t-40.5 114.5t-55 51.5t-72 13.5z" />
<glyph unicode="&#x178;" horiz-adv-x="1353" d="M991 0h-629q-14 0 -14 43q0 39 14 39q49 0 83.5 7.5t52.5 18.5t27.5 30t11.5 33.5t2 37.5l-2 387q-265 499 -306 573q-31 65 -77 97t-134 32q-4 0 -8 13t-4 26q0 41 12 41h627q5 0 8.5 -14.5t3.5 -26.5q0 -39 -12 -39q-58 0 -90 -10t-38 -30t-1 -39.5t21 -49.5l223 -415 q8 -14 23.5 -13.5t21.5 13.5l223 415q17 32 22 53.5t-2.5 40t-39 27t-86.5 8.5q-7 0 -11 13.5t-4 25.5q0 13 4 27t11 14h411q13 0 13 -41q0 -9 -3.5 -24t-9.5 -15q-87 0 -131.5 -30t-79.5 -99q-20 -34 -97 -179.5t-143 -270.5t-69 -125v-385q0 -31 4.5 -49.5t20.5 -38.5 t53.5 -29.5t97.5 -9.5q7 0 11 -15t4 -24q0 -11 -4 -27t-11 -16zM473 1536q-22 0 -41 4t-42.5 16.5t-37.5 41t-14 71.5q0 131 141 131q133 0 133 -133q0 -131 -139 -131zM920 1536q-138 0 -138 133q0 131 142 131q133 0 133 -133q0 -131 -137 -131z" />
<glyph unicode="&#x2c6;" d="M178 1196l336 317q11 11 27 12t32 -12l336 -317q3 -3 -1 -12t-15.5 -22.5t-28.5 -28.5q-52 -56 -65 -43l-256 239q-242 -238 -250 -244q-10 -10 -72 48q-56 53 -43 63z" />
<glyph unicode="&#x2dc;" d="M397 1253q-18 0 -34.5 -3.5t-28.5 -9t-22.5 -14t-17 -15.5t-12.5 -16t-8.5 -14.5t-5.5 -11.5l-2 -6q-6 -12 -55 2q-24 7 -37 13.5t-10 13.5q3 12 7.5 26t22.5 50.5t41 63.5t64 49t90 22t95 -18.5t74.5 -40t64.5 -40t69 -18.5q25 0 45.5 6.5t33.5 16t24 21.5t15.5 21.5 t8.5 18.5l4 8q4 11 56 -2q50 -13 47 -26l-4 -11q-3 -11 -8 -25.5t-15 -34.5t-22 -39t-30 -38t-39 -33t-49.5 -23t-60.5 -9q-49 0 -94.5 18t-73.5 40t-64 40t-69 18z" />
<glyph unicode="&#x2000;" horiz-adv-x="962" />
<glyph unicode="&#x2001;" horiz-adv-x="1925" />
<glyph unicode="&#x2002;" horiz-adv-x="962" />
<glyph unicode="&#x2003;" horiz-adv-x="1925" />
<glyph unicode="&#x2004;" horiz-adv-x="641" />
<glyph unicode="&#x2005;" horiz-adv-x="481" />
<glyph unicode="&#x2006;" horiz-adv-x="320" />
<glyph unicode="&#x2007;" horiz-adv-x="320" />
<glyph unicode="&#x2008;" horiz-adv-x="240" />
<glyph unicode="&#x2009;" horiz-adv-x="385" />
<glyph unicode="&#x200a;" horiz-adv-x="106" />
<glyph unicode="&#x2010;" horiz-adv-x="794" d="M692 518h-588q-18 0 -18 86q0 84 18 84h588q15 0 15 -86q0 -84 -15 -84z" />
<glyph unicode="&#x2011;" horiz-adv-x="794" d="M692 518h-588q-18 0 -18 86q0 84 18 84h588q15 0 15 -86q0 -84 -15 -84z" />
<glyph unicode="&#x2012;" horiz-adv-x="794" d="M692 518h-588q-18 0 -18 86q0 84 18 84h588q15 0 15 -86q0 -84 -15 -84z" />
<glyph unicode="&#x2013;" horiz-adv-x="903" d="M801 518h-697q-18 0 -18 86q0 84 18 84h697q14 0 14 -86q0 -84 -14 -84z" />
<glyph unicode="&#x2014;" horiz-adv-x="1120" d="M1018 518h-914q-18 0 -18 86q0 84 18 84h914q14 0 14 -86q0 -84 -14 -84z" />
<glyph unicode="&#x2018;" horiz-adv-x="477" d="M242 981q-71 0 -102 36t-31 138q0 49 19 99.5t49 91.5t44 57t27 29q8 8 45 -5q7 -3 13.5 -5.5t14 -6t10.5 -7t1 -5.5q-8 -8 -23.5 -30.5t-31 -69.5t-5.5 -86q97 -17 97 -119q0 -117 -127 -117z" />
<glyph unicode="&#x2019;" horiz-adv-x="477" d="M238 1427q68 0 99.5 -36.5t31.5 -137.5q0 -49 -19 -99t-50 -91.5t-44 -56.5t-27 -29q-7 -10 -45 4q-16 6 -29.5 13.5t-9.5 11.5q8 8 23.5 30.5t31 69.5t5.5 86q-96 16 -96 119q0 116 129 116z" />
<glyph unicode="&#x201a;" horiz-adv-x="477" d="M238 236q68 0 99.5 -36.5t31.5 -138.5q0 -49 -19 -99t-50 -91.5t-44 -56.5t-27 -29q-7 -10 -45 4q-16 6 -29.5 13.5t-9.5 11.5q8 8 23.5 30.5t31 69.5t5.5 86q-96 16 -96 119q0 117 129 117z" />
<glyph unicode="&#x201c;" horiz-adv-x="821" d="M242 981q-71 0 -102 36t-31 138q0 49 19 99.5t49 91.5t44 57t27 29q8 8 45 -5q7 -3 13.5 -5.5t14 -6t10.5 -7t1 -5.5q-8 -8 -23.5 -30.5t-31 -69.5t-5.5 -86q97 -17 97 -119q0 -117 -127 -117zM584 981q-71 0 -102 36t-31 138q0 49 19 99.5t49 91.5t44 57t27 29 q8 8 45 -5q7 -3 13.5 -5.5t14 -6t10.5 -7t1 -5.5q-8 -8 -23.5 -30.5t-31 -69.5t-5.5 -86q97 -16 97 -119q0 -117 -127 -117z" />
<glyph unicode="&#x201d;" horiz-adv-x="821" d="M238 1427q68 0 99.5 -36.5t31.5 -137.5q0 -49 -19 -99t-50 -91.5t-44 -56.5t-27 -29q-7 -10 -45 4q-16 6 -29.5 13.5t-9.5 11.5q8 8 23.5 30.5t31 69.5t5.5 86q-96 16 -96 119q0 116 129 116zM582 1427q68 0 99.5 -36.5t31.5 -137.5q0 -29 -7 -59t-19 -56t-26 -50 t-29 -43.5t-26.5 -33.5t-21.5 -24l-9 -10q-9 -9 -47 4q-15 6 -28.5 13.5t-10.5 11.5q8 8 23.5 30.5t31 69.5t5.5 86q-96 17 -96 119q0 116 129 116z" />
<glyph unicode="&#x201e;" horiz-adv-x="821" d="M238 236q68 0 99.5 -36.5t31.5 -138.5q0 -49 -19 -99t-50 -91.5t-44 -56.5t-27 -29q-7 -10 -45 4q-16 6 -29.5 13.5t-9.5 11.5q8 8 23.5 30.5t31 69.5t5.5 86q-96 16 -96 119q0 117 129 117zM582 236q68 0 99.5 -36.5t31.5 -138.5q0 -29 -7 -59t-19 -56t-26 -50 t-29 -43.5t-26.5 -33.5t-21.5 -24l-9 -10q-9 -9 -47 4q-15 6 -28.5 13.5t-10.5 11.5q8 8 23.5 30.5t31 69.5t5.5 86q-96 17 -96 119q0 117 129 117z" />
<glyph unicode="&#x2022;" horiz-adv-x="737" d="M369 453q-199 0 -199 190q0 188 203 188q194 0 194 -190q0 -188 -198 -188z" />
<glyph unicode="&#x2026;" horiz-adv-x="1562" d="M260 -23q-18 0 -35 2t-39 11t-38 24t-27.5 44t-11.5 67q0 145 155 145q148 0 148 -147q0 -38 -11.5 -66t-27 -43t-38 -24t-39.5 -11t-36 -2zM780 -23q-18 0 -35 2t-39 11t-38 24t-27.5 44t-11.5 67q0 145 155 145q148 0 148 -147q0 -38 -11.5 -66t-27 -43t-38 -24 t-39.5 -11t-36 -2zM1300 -23q-18 0 -35 2t-39 11t-38 24t-27.5 44t-11.5 67q0 145 156 145q149 0 149 -147q0 -47 -16 -78.5t-43 -45t-48.5 -18t-46.5 -4.5z" />
<glyph unicode="&#x202f;" horiz-adv-x="385" />
<glyph unicode="&#x2039;" horiz-adv-x="737" d="M502 186q-3 3 -94.5 99.5t-185.5 196t-99 104.5q-12 12 -13 27.5t13 31.5l379 379q11 11 61 -39q53 -49 41 -61l-307 -310q301 -323 307 -329q8 -13 -41 -62q-51 -51 -61 -37z" />
<glyph unicode="&#x203a;" horiz-adv-x="737" d="M236 1022q3 -3 94.5 -99t185 -195.5t98.5 -104.5q12 -12 13.5 -27.5t-13.5 -32.5l-378 -379q-3 -3 -11 0t-21.5 13t-29.5 26q-52 49 -39 62l305 309q-301 324 -307 330q-8 12 41 61q51 51 62 37z" />
<glyph unicode="&#x205f;" horiz-adv-x="481" />
<glyph unicode="&#x20ac;" horiz-adv-x="1398" d="M1268 401q45 0 45 -8q-10 -93 -44 -167t-81.5 -120.5t-110 -77t-126 -43t-132.5 -12.5q-52 0 -92 2.5t-100.5 13t-107.5 28.5t-101.5 54t-94.5 85t-74 124.5t-52 170.5h-201q-19 0 -19 86q0 84 19 84h182q-2 23 -2 69q0 45 2 68h-182q-19 0 -19 86q0 84 19 84h201 q18 95 52.5 170.5t74.5 124.5t95 84.5t102 54t107.5 29t100 12.5t90.5 2q84 0 163 -12t145.5 -35t106.5 -60.5t40 -83.5v-227q0 -12 -39 -12q-9 0 -24 3.5t-15 8.5q0 78 -26 139.5t-65.5 98t-91.5 60.5t-99.5 33t-94.5 9q-34 0 -59 -2t-57.5 -11t-57 -25t-51 -46t-46 -71 t-36 -103t-25.5 -141h332q17 0 17 -86q0 -84 -17 -84h-342v-68q0 -46 2 -69h340q17 0 17 -86q0 -84 -17 -84h-323q15 -87 43.5 -152.5t60.5 -103t72 -61t74.5 -31t72.5 -7.5q35 0 60.5 1t65.5 7.5t70 18t66 33.5t61 52.5t47.5 78t33.5 106.5q2 8 45 8z" />
<glyph unicode="&#x2122;" horiz-adv-x="2033" d="M1116 551h-262q-8 0 -8 24q0 25 8 25q34 0 55.5 6t31.5 18t13 23.5t4 30.5l29 575q0 19 -2.5 30t-12 23t-32 17.5t-59.5 5.5q-7 0 -7 25q0 24 7 24h278q14 0 17 -10q2 -3 107.5 -243.5t107.5 -245.5q4 -7 11.5 -7t10.5 5q4 5 108.5 246.5t110.5 244.5q0 10 17 10h247 q7 0 7 -24q0 -25 -7 -25q-55 0 -72.5 -17t-17.5 -59q0 -14 10.5 -286.5t10.5 -288.5q0 -40 19.5 -59t80.5 -19q8 0 8 -25q0 -24 -8 -24h-379q-3 0 -5.5 8.5t-2.5 15.5q0 25 8 25q67 0 87 19t20 59q0 24 -6.5 295t-6.5 272q0 7 -3.5 8t-6.5 -4q-5 -7 -70.5 -163.5t-130 -313 t-65.5 -158.5l-9 -2q-9 -2 -14 -2q-23 0 -26 6l-268 639q-2 5 -4.5 6.5t-4.5 -1t-2 -9.5q-1 -6 -7.5 -142t-13 -277.5t-7.5 -153.5q-2 -40 18 -59t86 -19q8 0 8 -25q0 -24 -6 -24zM637 551h-379q-6 0 -6 24q0 25 6 25q37 0 59.5 6t32.5 18.5t12.5 23.5t2.5 30v555 q0 34 -6 55t-18.5 29.5t-24 11t-31.5 2.5h-29q-44 0 -68 -29t-38 -110q-2 -6 -25 -6q-25 0 -25 6q0 5 11 87.5t12 86.5q0 12 14 12h625q11 0 14 -10q0 -3 11.5 -88.5t11.5 -87.5q0 -6 -27 -6q-22 0 -24 6q-14 81 -39 110t-68 29h-27q-43 0 -63.5 -17.5t-20.5 -80.5v-555 q0 -18 2.5 -29t12.5 -24t33 -19t59 -6q6 0 6 -25q0 -24 -6 -24z" />
<glyph unicode="&#x25fc;" horiz-adv-x="983" d="M0 983h983v-983h-983v983z" />
</font>
</defs>
</svg>
