<?xml version="1.0" standalone="no"?>
<!DOCTYPE svg PUBLIC "-//W3C//DTD SVG 1.1//EN" "http://www.w3.org/Graphics/SVG/1.1/DTD/svg11.dtd" >
<svg xmlns="http://www.w3.org/2000/svg">
<metadata></metadata>
<defs>
<font id="ethos_regular_italicRgIt" horiz-adv-x="1085" >
<font-face units-per-em="2048" ascent="1536" descent="-512" />
<missing-glyph horiz-adv-x="542" />
<glyph unicode="&#xfb01;" horiz-adv-x="1210" d="M-211 -360q10 34 18 34h56q102 0 154.5 61t84.5 220l193 958h-133q-11 0 -4 33t18 33h41q59 0 87 29t40 79q30 108 78.5 174t139 102t229.5 36q171 0 250.5 -49t62.5 -142q-9 -46 -38 -70t-69 -24q-35 0 -53.5 20.5t-13.5 51.5q3 14 9.5 27t8.5 24q9 41 -26 70.5 t-121 29.5q-77 0 -127 -15t-83 -52.5t-51 -86.5t-34 -130l-14 -74h481q99 0 76 -113l-140 -690q-5 -35 -1.5 -60.5t33.5 -40t91 -14.5q10 0 4 -28q0 -33 -16 -33h-223q-103 0 -82 100l164 813h-232q-57 0 -94 -8t-56 -26t-27 -35.5t-13 -46.5l-170 -842q-70 -348 -426 -348 h-66q-11 0 -6 33z" />
<glyph unicode="&#xfb02;" horiz-adv-x="1275" d="M-212.5 -381.5q-1.5 11.5 1.5 21.5q2 12 7 22t11 10h56q110 0 160 68.5t79 214.5l193 958h-131q-6 0 -7.5 10.5t1.5 22.5q2 13 7 23t11 10h39q54 0 83.5 25t47.5 90q19 70 50.5 122t85.5 95t138.5 65.5t198.5 22.5q200 0 295.5 -66t67.5 -203l-193 -954q-6 -22 -3.5 -43 t11.5 -37.5t37.5 -26.5t75.5 -10q12 0 4 -28q-3 -31 -14 -31h-215q-49 0 -73 29t-13 90l202 1011q21 97 -27 152t-169 55q-136 0 -202 -63t-97 -221l-14 -74h237q12 0 4 -33t-16 -33h-68q-58 0 -95.5 -8t-56.5 -25.5t-27 -35t-13 -47.5l-170 -842q-35 -175 -144 -261.5 t-280 -86.5h-68q-6 0 -7.5 11.5z" />
<glyph horiz-adv-x="0" />
<glyph horiz-adv-x="682" />
<glyph unicode=" "  horiz-adv-x="542" />
<glyph unicode="&#x09;" horiz-adv-x="542" />
<glyph unicode="&#xa0;" horiz-adv-x="542" />
<glyph unicode="!" horiz-adv-x="540" d="M61 94q20 115 142 115q15 0 28 -2.5t28.5 -9.5t24 -20t14 -34t-2.5 -51q-20 -112 -139 -112q-117 0 -95 114zM170 436l188 942q3 13 80 13q17 0 30 -0.5t23.5 -2t16 -4t4.5 -6.5l-188 -942q-2 -12 -80 -12q-18 0 -30.5 0.5t-23 1.5t-16 3.5t-4.5 6.5z" />
<glyph unicode="&#x22;" horiz-adv-x="686" d="M246 1024l71 358q4 13 64 13q18 0 31.5 -1.5t21 -4.5t6.5 -7l-71 -358q-2 -12 -64 -12q-14 0 -24.5 0.5t-19 1.5t-12.5 3.5t-3 6.5zM506 1024l69 358q4 13 66 13q17 0 30.5 -1.5t20.5 -4.5t6 -7l-69 -358q-2 -12 -66 -12q-13 0 -23 0.5t-18.5 1.5t-12.5 3.5t-3 6.5z" />
<glyph unicode="#" horiz-adv-x="1312" d="M55 399q-14 0 8 60q17 61 35 61h219l129 338h-221q-14 0 8 60q20 61 35 61h221q144 389 148 399q4 13 76 13q16 0 26.5 -0.5t21.5 -1.5t15.5 -4t3.5 -7l-145 -399h172q79 0 116.5 30.5t59.5 88.5q18 42 55 146.5t49 133.5q4 13 80 13q14 0 24.5 -0.5t22 -1.5t16.5 -4 t3 -7l-146 -399h226q4 0 5.5 -5t0 -14t-4.5 -19t-7 -23q-23 -60 -37 -60h-226l-126 -338h225q4 0 5.5 -4t-0.5 -13.5t-5 -19t-8 -24.5q-21 -60 -35 -60h-226q-141 -387 -145 -397q-6 -14 -78 -14q-17 0 -28.5 0.5t-21.5 1.5t-14 3.5t-3 6.5l143 399h-170q-81 0 -118 -30 t-60 -86l-103 -283q-2 -12 -77 -12q-15 0 -27 0.5t-22.5 1.5t-15 3.5t-3.5 6.5l145 399h-221zM465 520h172q44 0 77 10.5t52.5 30t29.5 36.5t19 42l84 219h-170q-85 0 -122 -31t-56 -86z" />
<glyph unicode="$" horiz-adv-x="1105" d="M27 143l41 207q2 10 32 10q14 0 21 -2t6 -8q-12 -59 1 -110t42.5 -84.5t70 -58.5t82 -36.5t80.5 -13.5l119 592q-34 18 -60.5 33t-55 34t-50.5 36.5t-43 39t-35.5 43.5t-26 48t-16.5 53.5t-4.5 59.5t7.5 67q16 79 51.5 141t80 99.5t99 61.5t104.5 33t101 9l22 121 q3 14 64 14q60 0 57 -14l-26 -121q69 0 137.5 -18.5t115 -58t37.5 -89.5l-28 -141q-3 -11 -33 -11q-14 0 -21 2.5t-6 8.5q13 64 -20.5 119.5t-87 86.5t-107.5 35l-108 -540q75 -42 130 -84.5t101 -98t63.5 -124.5t2.5 -146q-15 -75 -45.5 -134.5t-71.5 -97t-85 -64 t-92.5 -39.5t-87 -18t-75.5 -5l-25 -119q-3 -15 -61 -15q-60 0 -57 15l22 119q-55 0 -118.5 10.5t-122 29.5t-93.5 51.5t-28 71.5zM412 1098q-14 -69 25 -124t128 -112l92 461q-38 -9 -73 -23.5t-71.5 -39.5t-63.5 -67t-37 -95zM524 53q225 52 267 260q14 69 -26.5 128.5 t-137.5 125.5z" />
<glyph unicode="%" horiz-adv-x="1392" d="M161 -4q0 1 1 2l952 1384q9 13 84 13q39 0 59 -2.5t15 -10.5q-2 -4 -474 -692t-474 -692q-10 -12 -84 -12q-79 0 -79 10zM163 1003.5q1 42.5 11 92.5q15 78 45.5 135.5t66 90t82 52t85.5 25.5t86 6q41 0 73 -5t63.5 -18t51 -36t34 -57.5t13 -83t-11.5 -113.5 q-61 -308 -354 -308q-27 0 -50 2t-49.5 7.5t-47 16.5t-40 26.5t-32 39.5t-20 54.5t-6.5 73zM324 966.5q-3 -51.5 9 -77.5t31 -34.5t54 -8.5q34 0 56.5 8t45 33.5t40 76.5t34.5 134q16 81 19 131t-9 74.5t-29.5 32t-50.5 7.5t-55.5 -8t-46 -31.5t-43 -73.5t-35.5 -128 q-17 -84 -20 -135.5zM676.5 203q1.5 42 11.5 92q16 78 46.5 136t65.5 90.5t81.5 52t85.5 25t86 5.5q41 0 73 -5t64 -18t51.5 -35.5t34 -57t13 -83.5t-12.5 -114q-15 -76 -44.5 -132.5t-63.5 -89t-78.5 -52t-83.5 -25.5t-84 -6q-27 0 -50 2t-49.5 7.5t-47 16t-40 25.5t-32 39 t-20.5 54.5t-6.5 72.5zM840 167q-3 -52 9 -78.5t31 -35t54 -8.5q45 0 72.5 16t53.5 72.5t48 165.5q16 82 19 131.5t-8 74.5t-28.5 32.5t-50.5 7.5q-34 0 -56.5 -8t-46.5 -32t-42.5 -74t-34.5 -128q-17 -84 -20 -136z" />
<glyph unicode="&#x26;" horiz-adv-x="1234" d="M33.5 279q0.5 54 13.5 118q14 69 43.5 135t62.5 110t63.5 78t50.5 50l20 16q-3 4 -7 12t-13 35t-14 56.5t-4 77t11 96.5q13 64 35 115.5t48.5 86t61.5 60t67.5 39.5t74 22t73.5 10.5t72 2.5q166 0 239.5 -47t59.5 -121l-28 -154q-3 -10 -39 -10q-7 0 -12 0.5t-10 1.5 t-7.5 3t-1.5 5q3 30 3.5 62t-13.5 64.5t-36 58t-64.5 41.5t-98.5 16q-208 0 -258 -244q-7 -34 -7.5 -67.5t6.5 -66.5t13.5 -57.5t22.5 -57t24.5 -48.5t27.5 -48.5t24 -41.5q242 -409 258 -434q17 20 28.5 37t14.5 24l2 7l39 190q6 20 4.5 40.5t-8.5 37.5t-32 28t-67 11 q-10 0 -6 28q7 31 18 31q4 0 200 1t200 1q10 0 6 -33q-8 -28 -18 -28q-81 0 -112.5 -32.5t-41.5 -84.5l-45 -211q-49 -86 -123 -154q28 -46 62 -67t108 -21q11 0 6 -28q-9 -31 -18 -31h-215q-53 0 -82 43q-129 -63 -260 -63q-40 0 -71.5 1t-72.5 6t-72 13.5t-65.5 23.5 t-58 36.5t-44 53t-29.5 71.5t-8.5 94zM210.5 299.5q-1.5 -44.5 3.5 -77t18 -58t28 -42.5t38 -29.5t42 -18.5t45 -9.5t44 -4.5t42 -1q50 0 100 15.5t75 31.5l24 15l-326 549q-3 -3 -9 -9.5t-22 -31t-30.5 -53t-31.5 -77t-28 -102.5q-11 -53 -12.5 -97.5z" />
<glyph unicode="'" horiz-adv-x="448" d="M258 1024l70 358q4 13 65 13q17 0 30.5 -1.5t21 -4.5t6.5 -7l-70 -358q-2 -12 -64 -12q-14 0 -24.5 0.5t-19 1.5t-12.5 3.5t-3 6.5z" />
<glyph unicode="(" horiz-adv-x="589" d="M158 690q31 157 72 290t76.5 215t80 154t69 102.5t56.5 64.5q2 3 5 5t6.5 3.5t6 2.5t7.5 1.5t8 1t9 0.5h9h10.5h10.5q73 -2 67 -14q-55 -54 -97.5 -128t-98 -249.5t-111.5 -448.5q-54 -269 -69.5 -441.5t-2.5 -251.5t50 -134q5 -6 -15 -10q-20 -5 -55 -5q-61 0 -70 15 q-140 249 -24 827z" />
<glyph unicode=")" horiz-adv-x="591" d="M-5 -139q0 1 1 2q57 56 100.5 134.5t97 251t107.5 441.5q42 208 61.5 356.5t16.5 239t-16 140.5t-39 90q-2 4 8 7q21 7 65 7q60 0 68 -14q18 -34 30 -64.5t27.5 -102.5t18.5 -154t-9 -215t-43 -290q-117 -584 -354 -827q-15 -15 -74 -15q-70 0 -66 13z" />
<glyph unicode="*" horiz-adv-x="1050" d="M339 1155q4 15 17 39q12 24 23.5 38.5t17.5 12.5l158 -51q10 -3 26 6.5t19 20.5l33 165q0 13 61 13q58 0 58 -13l-35 -165q-2 -9 10.5 -19.5t24.5 -7.5l178 51q4 1 7.5 -2t6 -12.5t3.5 -16t3 -20.5q8 -54 -4 -57l-178 -54q-12 -3 -21.5 -18.5t-3.5 -24.5q2 -4 21 -37 t36.5 -64t18.5 -34q3 -4 -9.5 -15t-39.5 -30q-53 -31 -57 -20q-4 4 -38 63t-40 70q-6 9 -23.5 8.5t-25.5 -8.5q-17 -17 -65.5 -68.5t-63.5 -66.5q-11 -10 -51 24q-42 34 -33 43l131 135q9 9 7 24.5t-13 18.5l-158 54q-5 3 -1 18z" />
<glyph unicode="+" horiz-adv-x="1044" d="M135 629q11 61 27 61h327l62 311q0 13 63 13q20 0 34 -1.5t20.5 -4.5t5.5 -7l-62 -311h330q6 0 6 -18t-6 -43q-11 -62 -24 -62h-328l-62 -309q-2 -12 -65 -12q-14 0 -24 0.5t-19 1.5t-13.5 3.5t-3.5 6.5l62 309h-328q-14 0 -2 62z" />
<glyph unicode="," horiz-adv-x="444" d="M-57 -256q9 9 25 28t44 57t45.5 82t14.5 81q-79 20 -60 112q20 113 144 113q61 0 85 -37t5 -135q-10 -51 -41 -107t-74 -106t-63.5 -72t-44.5 -44l-3 -3q-7 -7 -45 6q-15 6 -26 13.5t-6 11.5z" />
<glyph unicode="-" horiz-adv-x="749" d="M102 627q14 61 27 61h547q15 0 0 -61q-11 -62 -25 -62h-547q-13 0 -2 62z" />
<glyph unicode="." horiz-adv-x="438" d="M14 92q22 109 138 109q108 0 88 -111q-6 -34 -22 -57t-37.5 -33.5t-39 -14t-35.5 -3.5q-112 0 -92 110z" />
<glyph unicode="/" horiz-adv-x="862" d="M-98 -8l950 1384q9 13 84 13q19 0 31.5 -0.5t25.5 -1.5t18 -4t1 -7l-949 -1384q-8 -12 -86 -12q-78 2 -75 12z" />
<glyph unicode="0" horiz-adv-x="1167" d="M86 333q-4 67 4 157.5t29 197.5q27 138 66.5 248.5t81 184t94.5 127t99 82t103.5 45t99 20.5t93.5 4q53 0 93.5 -4.5t90.5 -21.5t84 -46t64.5 -82.5t42 -127t6.5 -183t-33 -246.5q-27 -138 -66 -248.5t-80.5 -183.5t-94 -126t-98.5 -81.5t-102.5 -44.5t-97.5 -20t-92 -4 q-40 0 -72 2.5t-72.5 11t-70.5 23.5t-62 41.5t-53 63t-37 90.5t-20 121zM283.5 314.5q0.5 -64.5 13.5 -111t30.5 -73t46 -41.5t54 -19t61.5 -4q38 0 66.5 4.5t62.5 19t61 41t57.5 73t56 111.5t52 159t50.5 214q24 119 35 212t12 158.5t-10 112.5t-27.5 74.5t-44.5 43.5 t-55.5 21t-65.5 5q-55 0 -94 -10t-86.5 -47t-84 -103t-75 -183t-71.5 -282q-24 -120 -34.5 -215.5t-10 -160z" />
<glyph unicode="1" horiz-adv-x="831" d="M74 29q0 10 5.5 21t12.5 11q56 0 93 8.5t56.5 26t28 35.5t13.5 47l186 924h-229q-8 0 -4 33q5 32 18 32q38 0 89 11t108.5 33t102 66t56.5 101q3 13 56 13q54 0 51 -13l-240 -1200q-11 -60 16.5 -88.5t133.5 -28.5q4 0 5 -12t-1 -18q-8 -31 -17 -31h-534q-12 0 -6 29z " />
<glyph unicode="2" horiz-adv-x="1081" d="M-41.5 12.5q-4.5 12.5 8.5 24.5q31 28 99 90t212.5 202t264 265t219 253.5t112.5 192.5q9 58 8 101t-19 73t-38 49t-50 29.5t-55.5 14.5t-53.5 4q-131 0 -227.5 -73.5t-112.5 -160.5q-3 -10 -31 -10q-4 0 -9 0.5t-10 1.5t-8 3t-2 5l31 154q14 72 125 120t268 48 q27 0 51 -1.5t54 -5t55.5 -10t53.5 -16.5t50 -26t42.5 -36t33.5 -47.5t21 -61t7 -76.5t-11 -93q-13 -67 -94.5 -182t-182.5 -227.5t-212.5 -225.5t-175 -173.5t-79.5 -74.5q-11 -9 -7.5 -21.5t21.5 -12.5h357q25 0 40 1.5t37 8.5t37.5 20t33.5 38.5t34 62.5q6 12 35 12 q3 0 7.5 -0.5t9.5 -1.5t8 -4t2 -6q-1 -5 -38 -112t-38 -112q-3 -16 -23 -16h-842q-14 0 -18.5 12.5z" />
<glyph unicode="3" horiz-adv-x="1077" d="M37 139q41 198 41 199q0 10 33 10q6 0 11 -0.5t9 -1.5t6.5 -3t1.5 -5q-7 -34 -8 -63t5 -61.5t25.5 -57t51.5 -45.5t86 -32t125 -11q50 0 91 10t86 37.5t79 87t51 147.5q14 71 15.5 125.5t-10.5 88.5t-29 56.5t-45.5 32.5t-53.5 13.5t-59 3.5h-111q-6 0 -6.5 16t4.5 29 q9 47 21 47h112q33 0 58.5 4t59 21t58 47t49 85t40.5 132q10 52 11 92.5t-4.5 67.5t-19.5 46.5t-29 29.5t-38.5 15.5t-41.5 7t-44 1.5q-75 0 -141 -25t-108.5 -62.5t-69 -77t-32.5 -73.5q-2 -10 -30 -10q-29 0 -29 10q14 54 31 154q13 69 118.5 118.5t276.5 49.5 q31 0 57 -1.5t58 -6t58 -12t53.5 -21t47.5 -31.5t36.5 -45t24.5 -60t7.5 -77.5t-10.5 -96.5q-47 -230 -217 -305q-11 -5 -12 -13t10 -13q176 -81 121 -371q-73 -367 -510 -367q-191 0 -288 45t-83 119z" />
<glyph unicode="4" horiz-adv-x="1110" d="M15 365q-4 9 3 18q4 6 388 498t389 497q11 13 90 13q18 0 31 -0.5t27.5 -1.5t21.5 -4t6 -7l-176 -886h223q7 -3 6 -21t-8 -47q-12 -68 -25 -68h-223l-37 -178q-7 -23 -4.5 -44t14 -37.5t46.5 -26t92 -9.5q11 0 6 -30q-6 -31 -17 -31h-520q-6 0 -6 29q5 32 18 32 q57 0 95 9t57.5 28t27 36t13.5 44l37 178h-563q-8 0 -12 9zM217.5 507q7.5 -15 26.5 -15h372l138 698q3 14 -5 15.5t-16 -9.5l-512 -661q-11 -13 -3.5 -28z" />
<glyph unicode="5" horiz-adv-x="1017" d="M16 143l37 187q2 12 35 12q31 0 29 -12q-26 -130 42.5 -194t237.5 -64q40 0 71 5.5t69.5 25t67.5 54t56 96.5t44 148q18 93 19.5 158t-9 101.5t-37.5 56.5t-55 25.5t-72 5.5q-68 0 -163.5 -18.5t-150.5 -34.5t-69 -21q-8 -2 -16 3t-5 13q1 6 91.5 323.5t93.5 329.5 q4 15 16.5 25t26.5 10h608q23 0 23 -20q-1 -8 -7 -114t-6 -114q1 -4 -5 -6.5t-13.5 -4t-13.5 -1.5q-9 0 -19 4t-10 11q-3 46 -14 75.5t-31.5 42.5t-39.5 17t-48 4h-195q-52 0 -89.5 -12t-57.5 -33.5t-29 -39.5t-16 -42l-86 -285q-3 -11 4.5 -19t17.5 -5q156 38 227 38 q47 0 81 -2.5t77 -13.5t72 -30t56 -55t38 -85t10 -123.5t-20 -167.5q-16 -81 -45 -146t-62 -108t-76.5 -74.5t-82.5 -48t-87 -26t-82 -12t-75 -2.5q-190 0 -284 42.5t-79 120.5z" />
<glyph unicode="6" horiz-adv-x="1093" d="M88 261q-6 74 2.5 181.5t36.5 245.5q27 138 64.5 247.5t76.5 183t89.5 127t95 82.5t102 45.5t102 21t103.5 4.5q127 0 214.5 -37.5t76.5 -97.5l-33 -174q-3 -13 -35 -13q-5 0 -11.5 1t-12.5 4t-5 8q20 105 -35.5 163t-173.5 58q-73 0 -124.5 -19.5t-101.5 -73t-90.5 -156 t-78.5 -261.5q-4 -14 6.5 -19.5t22.5 2.5q114 76 244 76q37 0 64.5 -1t64.5 -6t63.5 -13.5t56.5 -24.5t50 -38t37 -55.5t23.5 -74.5t4 -97.5t-15.5 -123.5q-16 -83 -42.5 -149t-57 -112t-70.5 -80t-79 -54t-87 -31.5t-90 -15.5t-92 -4q-64 0 -108 4.5t-93.5 21.5t-79 46.5 t-54 82t-30.5 126.5zM272 281.5q3 -66.5 16 -109t40.5 -66t60 -32t80.5 -8.5q32 0 51 1t49 8t49.5 20.5t44.5 39t43 62.5t36.5 93t33.5 128q12 59 17 107t5.5 83.5t-7 63t-15.5 45.5t-24.5 31t-29.5 19.5t-36 10t-38.5 4t-41.5 0.5q-136 0 -287 -114q-26 -128 -38 -224 t-9 -162.5z" />
<glyph unicode="7" horiz-adv-x="1005" d="M61 0l850 1233q10 12 3 26.5t-25 14.5h-422q-71 0 -110.5 -26t-77.5 -109q-5 -13 -33 -13q-3 0 -8 0.5t-10.5 2t-8.5 4.5t-2 6q3 6 40 111t38 112q6 16 24 16h814q13 0 19 -11t-3 -26q-335 -497 -913 -1343q-8 -10 -91 -10q-39 0 -64 2.5t-20 9.5z" />
<glyph unicode="8" horiz-adv-x="1058" d="M49.5 270q0.5 46 11.5 99q48 247 248 338q13 6 16 17t-6 17q-13 9 -18.5 13t-21.5 19.5t-24 29t-19 39t-15 52.5t-2.5 66.5t10.5 83.5q71 355 476 355q26 0 49 -1t53.5 -5.5t55.5 -12t53 -21t48 -31.5t37.5 -45.5t26 -61.5t9 -80.5t-10.5 -100.5q-16 -75 -45.5 -133.5 t-64.5 -92t-55.5 -48t-39.5 -23.5q-11 -6 -13 -17t7 -19q45 -30 68 -60q76 -100 39 -282q-14 -74 -43 -134t-63.5 -99t-79.5 -68.5t-85.5 -45t-88 -24.5t-80 -11.5t-68.5 -2.5q-23 0 -44.5 1t-50.5 4.5t-54 10.5t-53.5 17t-51 26t-44.5 36.5t-36 50t-22.5 64t-8 80.5z M234 269.5q-1 -47.5 6.5 -79.5t23.5 -55.5t33.5 -36.5t42 -20.5t45 -9.5t45.5 -2q37 0 66 4t69.5 22t71 49t59.5 91t45 143q12 60 12.5 108.5t-7.5 80.5t-24 56t-34 37t-42 21t-43 10t-42 2q-32 0 -62 -5.5t-70.5 -25t-73 -51.5t-63 -91.5t-46.5 -139.5q-11 -60 -12 -107.5z M399.5 935q-1.5 -50 10 -80.5t27 -50.5t41.5 -29t47 -12t50 -3q34 0 59.5 4t59.5 20.5t59 45.5t49.5 84.5t39.5 132.5q11 54 12.5 97.5t-4 72t-19 49.5t-28.5 32t-36.5 17.5t-38 8t-38.5 1.5q-32 0 -56.5 -3t-61 -18.5t-63.5 -42.5t-53.5 -81t-41.5 -129q-13 -66 -14.5 -116 z" />
<glyph unicode="9" horiz-adv-x="1075" d="M57 115l33 174q2 12 35 12q6 0 12.5 -1t12 -3.5t4.5 -7.5q-22 -109 42.5 -161t194.5 -52q75 0 126 18.5t99.5 72.5t88.5 155.5t79 263.5q3 14 -8 20t-22 -2q-122 -78 -246 -78q-36 0 -63.5 1.5t-62.5 6.5t-61 14t-54 25t-47 37.5t-34.5 54t-21.5 73.5t-3.5 96t15.5 120 q23 114 64.5 197.5t88.5 130t111 74t120 35.5t128 8q62 0 105 -4.5t91.5 -20.5t77.5 -45.5t53.5 -82t30 -126.5t-3 -182.5t-36.5 -247.5q-21 -108 -48 -198.5t-56 -158t-64 -121.5t-68.5 -90.5t-75 -63t-77.5 -41.5t-81.5 -23.5t-81.5 -11t-83 -2.5q-137 0 -232 37t-82 98z M352 795.5q-1 -68.5 9.5 -106t39.5 -57t55.5 -24t71.5 -4.5q20 0 40 2.5t37 5.5t35.5 10t31.5 12t30 14t26.5 14t25 16t21 15t20 14t16.5 12q48 243 47.5 373t-44.5 178.5t-142 48.5q-31 0 -51.5 -1.5t-48.5 -9t-47.5 -21.5t-43 -40.5t-41 -63.5t-35.5 -92.5t-32 -127.5 q-20 -99 -21 -167.5z" />
<glyph unicode=":" horiz-adv-x="475" d="M33 94q20 107 137 107q108 0 88 -109q-20 -108 -135 -108q-110 0 -90 110zM172 784q20 109 135 109q111 0 88 -111q-20 -106 -133 -106q-112 0 -90 108z" />
<glyph unicode=";" horiz-adv-x="489" d="M-31 -256l11 12q11 13 25 29.5t31 41t30.5 49t21.5 53t6 53.5q-74 17 -57 104q20 109 137 109q59 0 81.5 -35.5t4.5 -128.5q-8 -41 -32.5 -88.5t-53 -85t-58.5 -71t-48 -50.5t-23 -21q-7 -7 -45 6q-13 6 -24 13t-7 10zM176 784q22 109 137 109q111 0 88 -111 q-20 -106 -133 -106q-112 0 -92 108z" />
<glyph unicode="&#x3c;" horiz-adv-x="1005" d="M126.5 689.5q3.5 12.5 18.5 21.5l869 460q6 4 7 -6q1 -15 -7 -53q-11 -60 -27 -70l-571 -294q-15 -8 -17 -25.5t11 -26.5l450 -297q13 -11 -4 -108q-20 -101 -37 -90q-9 7 -342.5 235t-341.5 232q-12 9 -8.5 21.5z" />
<glyph unicode="=" horiz-adv-x="1044" d="M104 469q14 61 27 61h778q13 0 2 -61q-15 -61 -24 -61h-781q-13 0 -2 61zM168 788q11 62 25 62h780q11 0 0 -62q-11 -61 -23 -61h-780q-17 0 -2 61z" />
<glyph unicode="&#x3e;" horiz-adv-x="1005" d="M36 225q1 24 9 66q22 98 39 108l571 297q17 9 20.5 27t-7.5 25l-455 294q-10 7 4 70q12 67 21 59l688 -460q12 -9 9.5 -22t-17.5 -21l-873 -467q-10 -7 -9 24z" />
<glyph unicode="?" horiz-adv-x="860" d="M156 86q20 107 135 107q105 0 86 -107q-21 -106 -131 -106t-90 106zM197 1077l30 152q13 73 109.5 121.5t255.5 48.5q30 0 56 -1.5t56.5 -6.5t56 -13t50.5 -21.5t44 -31.5t34 -43.5t22 -57t6.5 -73t-10.5 -90.5q-11 -54 -42 -103t-73.5 -89t-91.5 -79.5t-99 -82 t-93.5 -88.5t-77 -106.5t-47.5 -129.5q-3 -10 -72 -10q-17 0 -29 0.5t-21 1.5t-13.5 3t-3.5 5q19 95 61.5 176t92.5 133t107 102.5t104.5 88.5t84 87.5t47.5 102.5q24 127 -26.5 185.5t-145.5 58.5q-123 0 -204 -70t-101 -170q-3 -12 -35 -12q-16 0 -24.5 2.5t-7.5 9.5z" />
<glyph unicode="@" horiz-adv-x="1495" d="M87 503.5q2 86.5 22 186.5q33 163 101 290t151.5 204t186 127t196 69t190.5 19q40 0 78 -2.5t82 -9t83.5 -18.5t80.5 -28.5t74.5 -41t63.5 -55.5t50 -73t32 -91.5t10.5 -113t-15.5 -135.5q-18 -91 -50.5 -168.5t-69 -128.5t-79 -91.5t-80.5 -63t-74.5 -37t-59 -19 t-36.5 -4.5h-80q-30 0 -42 15t-5 59q-87 -90 -223 -90q-37 0 -68.5 4.5t-64 16t-56.5 31t-43 51t-28 73.5t-7.5 101.5t15.5 132.5q20 97 54 170.5t74.5 117.5t91.5 71t98 36.5t102 9.5q20 0 39.5 -3t34.5 -8.5t27.5 -11t23.5 -13t17 -12t13 -10.5l7 -7q4 -5 14 -2.5t14 12.5 q11 24 27.5 32.5t42.5 8.5h80l-138 -688q12 0 34.5 9.5t59 38t71 71.5t68.5 120.5t54 175.5q13 75 14 136t-15 109t-38.5 85t-57.5 63.5t-71 44.5t-80 28.5t-84.5 15t-83.5 4.5q-108 0 -208 -35t-191 -107t-160 -196.5t-102 -288.5q-21 -120 -19 -212.5t30.5 -161.5 t68.5 -116.5t96 -76.5t113 -42t119 -13q76 0 163 16.5t155 39t128.5 47.5t91 39.5t35.5 18.5q6 4 6 -13q-1 -12 -4 -32q-10 -42 -20 -47q-5 -4 -34.5 -19t-88 -39t-126 -45.5t-155.5 -37.5t-168 -16q-44 0 -86.5 4t-92.5 15t-95 28t-89.5 46.5t-79.5 67t-62.5 92t-41 119.5 t-11.5 151.5zM557 548.5q-3 -66.5 5.5 -103.5t28.5 -59t41.5 -28t51.5 -6q42 0 78 14.5t74 51t69.5 111t52.5 182.5l52 254q-3 4 -8.5 11t-23.5 25t-37 32t-49 25t-61 11t-55.5 -6.5t-54.5 -28.5t-54 -60t-47.5 -106t-41.5 -161q-18 -92 -21 -158.5z" />
<glyph unicode="A" horiz-adv-x="1419" d="M-76 31q2 8 8 18t13 10q144 0 211 111l735 1210q7 9 16 9q13 0 13 -9q0 -3 46 -285.5t96.5 -589.5t55.5 -339q17 -107 158 -107q10 0 10 -13q0 -5 -2 -13q-6 -33 -18 -33h-521q-11 0 -6 31q0 8 5.5 18t11.5 10q81 1 122 25q33 20 33 63q0 11 -2 23l-30 229h-326 q-61 0 -104 -8.5t-69.5 -26.5t-39.5 -33t-29 -40q-38 -62 -71 -123q-16 -32 -17 -52.5t15.5 -33.5t42 -18t63.5 -5q14 0 8 -26q-6 -33 -18 -33h-400q-10 0 -10 31zM418 465h289q87 1 121 27q28 22 28 63q0 10 -2 20q-9 52 -36 241t-30 216q-1 9 -6 12q-3 2 -6 2q-4 0 -6 -2 q-6 -2 -12 -10z" />
<glyph unicode="B" horiz-adv-x="1267" d="M-35 31q2 10 9 20t14 10q97 0 137 25t51 84l207 1030q4 20 4 37q1 36 -19 54q-28 26 -132 26q-7 0 -8 12.5t1 18.5q6 30 19 30h608q191 0 289 -88q72 -65 72 -177q0 -40 -9 -87q-10 -52 -30.5 -98t-41.5 -76t-50.5 -57t-48 -40t-45 -25.5t-30 -13.5t-14.5 -5l8 -3 q8 -2 21 -7.5t29.5 -14.5t33.5 -23.5t33.5 -32.5t29.5 -44t21 -56q8 -29 8 -67q0 -43 -10 -92q-20 -100 -68 -173.5t-117.5 -116t-150.5 -62t-176 -19.5h-635q-6 0 -9 10q-2 6 -2 13q0 4 1 8zM373 182q-5 -27 -5 -47q0 -25 8 -40q15 -27 64 -27h111q172 0 258 80t115 223 q11 53 11 97q0 206 -241 206h-61q-94 0 -134.5 -30t-52.5 -89q-5 -28 -33 -168.5t-40 -204.5zM481 739h178q155 0 241.5 70t115.5 217q10 51 10 92q0 79 -36 125q-55 70 -206 70h-100q-46 0 -72 -28.5t-37 -88.5z" />
<glyph unicode="C" horiz-adv-x="1277" d="M114 442q1 110 27 244q27 136 70 246t90.5 183t108.5 126.5t115.5 82.5t120.5 46.5t115 22t107 4.5q117 0 211 -19t147 -56q45 -32 45 -71q0 -7 -1 -14l-41 -211q-2 -12 -35 -12q-4 0 -10 1t-12 4t-5 7q6 34 6 64q0 33 -7 61q-14 55 -46.5 88t-79.5 54.5t-92 29.5t-92 8 q-37 0 -66 -3t-73 -17.5t-80 -39.5t-79.5 -73.5t-78.5 -115t-69.5 -168t-59.5 -228.5q-20 -106 -26 -194q-2 -36 -3 -67q0 -46 5 -82q8 -62 28.5 -110t47 -77t61.5 -47.5t69.5 -25.5t73.5 -7q56 0 102.5 6t99.5 24.5t95 49.5t81 85t65 128q3 8 43 8q4 0 10.5 -0.5t13 -1.5 t11 -2.5t3.5 -3.5q-120 -392 -542 -392q-59 0 -106.5 4.5t-107 22t-102.5 46.5t-82 83q-39 55 -58 127q-18 69 -18 171v11z" />
<glyph unicode="D" horiz-adv-x="1394" d="M-39 31q2 9 7.5 18.5t11.5 9.5q100 0 140 28.5t52 88.5q2 13 51 254t100 493.5t56 276.5q3 16 3 30q0 40 -22 60q-30 28 -129 27q-7 0 -8.5 11.5t2.5 19.5q6 30 17 30h630q59 0 109 -5.5t107 -24t100 -48.5t80.5 -83t55.5 -123q17 -67 17 -164v-10q-1 -104 -26 -232 q-26 -127 -66 -230.5t-86.5 -174t-104.5 -123t-112.5 -82.5t-119 -48.5t-116 -24t-110.5 -5.5h-631q-9 0 -9 16q0 6 1 15zM367 182q-5 -28 -5 -49q0 -27 8 -43q16 -28 64 -27h176q59 0 108 11.5t109 50.5t108 104.5t94.5 182.5t78.5 276q24 114 30 208q3 47 3 86q1 40 -3 72 q-6 64 -26.5 112t-46 75.5t-61.5 44t-69.5 22t-74.5 5.5h-176q-51 0 -77.5 -30t-37.5 -89z" />
<glyph unicode="E" horiz-adv-x="1206" d="M-25 29q2 11 8 21.5t13 10.5q96 0 137 27t53 90l207 1024q3 18 3 33q0 40 -23 58q-32 26 -127 26q-13 0 -6 29q5 30 18 30h918q16 0 16 -14l-16 -258q0 -5 -11.5 -8.5t-21.5 -3.5q-29 0 -29 12q-4 120 -31 164.5t-90 44.5h-297q-46 0 -72 -27.5t-38 -91.5l-90 -446h303 q65 0 102.5 33t50.5 114q0 12 33 12q29 0 29 -12l-72 -360q-3 -13 -35 -13q-10 0 -19.5 3.5t-8.5 9.5q7 36 7 63q0 34 -12 52q-22 32 -88 32h-180q-67 0 -101.5 -32.5t-53.5 -127.5l-68 -340q-6 -28 -6 -49q0 -25 9 -41q16 -28 63 -28h313q62 0 106 46.5t95 159.5 q7 13 32 13q5 0 12 -1t13.5 -4t5.5 -8l-86 -256q-3 -16 -20 -16h-936q-9 0 -9 29z" />
<glyph unicode="F" horiz-adv-x="1155" d="M-20 31q5 28 20 28q100 0 141 28.5t52 90.5l204 1024q4 18 4 33q1 35 -19 55q-28 28 -132 27q-12 0 -6 31q0 9 5.5 19.5t12.5 10.5h918q16 0 16 -16q0 -7 -8.5 -129.5t-9.5 -126.5q0 -12 -33 -12q-29 0 -29 18q-2 52 -9.5 89t-17.5 58.5t-25.5 34t-30.5 16t-36 3.5h-297 q-47 0 -73.5 -27t-38.5 -90l-88 -446h303q62 0 99.5 30.5t53.5 116.5q0 12 31 12q7 0 13.5 -1t12.5 -3.5t5 -7.5l-72 -362q-1 -5 -14.5 -9t-22.5 -4q-7 0 -16.5 4t-9.5 9q7 36 7 62q0 38 -14 56q-24 31 -85 31h-183q-64 0 -98.5 -31t-56.5 -131l-68 -344q-3 -17 -3 -32 q0 -36 19 -57q27 -30 131 -30q5 0 6 -10t-1 -16q0 -9 -5 -21t-12 -12h-532q-9 0 -9 17q0 6 1 14z" />
<glyph unicode="G" horiz-adv-x="1409" d="M115 485q4 92 26 201q28 138 74 249.5t96.5 184.5t116 126.5t122.5 82t125.5 44.5t114.5 20t101 4q110 0 207.5 -18.5t159.5 -56.5q52 -34 52 -75q0 -7 -1 -14l-41 -209q-2 -10 -33 -10q-4 0 -8 0.5t-9 1.5t-8 3t-2 5q6 30 6 58q0 59 -28 108q-41 71 -121.5 106 t-185.5 35q-44 0 -82.5 -5.5t-84.5 -23t-85 -46.5t-80.5 -78.5t-75.5 -115.5t-65.5 -162t-55.5 -214q-23 -117 -28 -213q-1 -28 -1 -53q0 -62 8 -108q11 -64 36 -113t54.5 -76.5t67.5 -44.5t69.5 -22t66.5 -5q57 0 110.5 8t88 20t61.5 24t39 20l12 8l70 352q5 22 5 39 q0 31 -15 50q-23 28 -99 28q-5 0 -6 9.5t2 21.5q4 28 16 28h436q5 0 7 -10q1 -5 1 -9t-1 -7q0 -9 -6 -21t-13 -12q-71 0 -105 -27t-46 -90l-70 -348q-7 -6 -20 -17t-60 -38t-100.5 -48t-140 -38t-179.5 -17q-43 0 -78.5 2t-84 10.5t-86.5 22.5t-80 40.5t-71.5 62t-54 90 t-34.5 121.5q-7 48 -7 108q0 25 1 51z" />
<glyph unicode="H" horiz-adv-x="1497" d="M-33 10q-1 5 -1 9.5t1 9.5q4 30 19 30q89 0 133.5 25.5t58.5 93.5l205 1024q4 18 4 34q-1 36 -21 54q-30 28 -130 27q-11 0 -5 31q5 30 17 30h532q8 0 8 -28q-11 -33 -18 -33q-100 0 -140 -25.5t-52 -89.5l-91 -452h433q59 0 96.5 8t56.5 26t26.5 35t12.5 47l70 336 q3 16 3 30q-1 38 -23 58q-30 26 -130 27q-4 0 -5.5 11.5t1.5 19.5q5 30 16 30h535q5 0 7 -11q1 -5 0 -9q0 -5 -1 -8q0 -7 -6 -20t-10 -13q-102 0 -142 -27t-53 -88l-205 -1024q-6 -36 -1.5 -62.5t40.5 -41.5t109 -15q3 0 4.5 -2t2 -6t0.5 -7.5t-0.5 -7.5t-0.5 -5 q-8 -31 -16 -31h-537q-6 0 -6 29q4 30 18 30q99 0 140.5 28.5t52.5 90.5l102 508h-434q-46 0 -80 -6.5t-53 -16t-31.5 -26.5t-17.5 -31t-10 -37l-78 -391q-6 -36 -2 -62t39.5 -41.5t107.5 -15.5q13 0 6 -28q-8 -31 -16 -31h-533q-6 0 -8 10z" />
<glyph unicode="I" horiz-adv-x="710" d="M-29 29q0 11 6 20.5t13 9.5q102 0 141 28.5t51 90.5l207 1024q7 22 4 43t-14.5 37t-46 25.5t-90.5 9.5q-7 0 -9 11t0 20q2 10 7.5 20t11.5 10h534q7 0 7 -12q0 -6 -2 -16q0 -8 -5.5 -20.5t-11.5 -12.5q-100 0 -140.5 -27.5t-51.5 -87.5l-207 -1024q-7 -21 -4 -42.5 t14 -38.5t46 -27.5t93 -10.5q11 0 4 -28q-8 -31 -16 -31h-532q-6 0 -8 10l-2 10q0 5 1 9z" />
<glyph unicode="J" horiz-adv-x="722" d="M-119 -106q6 34 19 34q35 0 52 0.5t45.5 2.5t43 7t36.5 14.5t34.5 23.5t29 35t27.5 49t22.5 65.5t20.5 83.5l199 993q7 20 3.5 40.5t-14 37t-46 27t-93.5 10.5q-11 0 -6 31q2 11 7 20.5t11 9.5h535q5 0 7 -11v-9q0 -5 -1 -8q-8 -33 -18 -33q-105 0 -144 -27.5t-49 -87.5 l-199 -993q-12 -56 -32.5 -103.5t-43 -81t-56 -60t-60.5 -43.5t-67 -28.5t-65.5 -17.5t-66 -9t-58 -3h-51.5h-16q-8 0 -8 14q0 7 2 17z" />
<glyph unicode="K" horiz-adv-x="1425" d="M-25 29q0 9 5.5 19.5t11.5 10.5q95 0 135.5 27.5t54.5 91.5q24 117 101 506.5t104 517.5q4 17 4 32q-1 35 -21 55q-28 28 -126 28q-5 0 -7 10.5t1 20.5q1 12 6 21t10 9h524q5 0 6.5 -11t-0.5 -17q0 -8 -5.5 -20.5t-12.5 -12.5q-98 0 -137 -29t-49 -86l-88 -448h49 q84 0 154 34.5t153 129.5l254 288q23 25 32.5 43.5t5.5 34.5t-33 24.5t-83 8.5q-4 0 -5 11.5t1 19.5q2 11 7 20.5t11 9.5h412q8 0 8 -13q0 -6 -2 -15q-6 -33 -18 -33q-140 0 -236 -113l-262 -299q-110 -121 -188 -157q33 -6 58.5 -16t53.5 -30t51 -57t41 -90 q21 -61 67.5 -202t57.5 -175q9 -31 16 -46.5t23.5 -35.5t46 -28.5t74.5 -8.5q14 0 8 -28q-6 -31 -18 -31h-225q-27 0 -56 12.5t-37 36.5q-2 5 -71.5 226.5t-85.5 265.5q-11 32 -23.5 56t-22.5 40t-27 26.5t-26.5 16t-32.5 7.5t-34 2.5t-41 0.5h-72l-100 -512q-4 -19 -4 -35 q1 -35 19 -55q28 -30 124 -29q12 0 6 -26q-7 -33 -16 -33h-524q-8 0 -8 14q0 6 1 15z" />
<glyph unicode="L" horiz-adv-x="1130" d="M-23 31q8 28 19 28q57 0 94.5 9t57 28t27.5 36.5t13 45.5q27 126 104.5 521.5t100.5 502.5q6 34 2.5 59.5t-40 40.5t-109.5 15q-4 0 -6 11.5t0 19.5q9 30 18 30h535q5 0 6.5 -11t-0.5 -17q0 -6 -6 -19.5t-13 -13.5q-46 0 -80 -6.5t-53.5 -16.5t-32 -26.5t-17.5 -30.5 t-9 -35l-205 -1020q-7 -22 -5 -43t13 -37t46 -26t93 -10h215q60 0 104.5 43t96.5 165q4 11 35 11q4 0 11.5 -1.5t13.5 -3.5q5 -2 4 -5l-42 -130q-40 -125 -42 -129q-6 -16 -21 -16h-919q-10 0 -10 18q0 6 1 13z" />
<glyph unicode="M" horiz-adv-x="1792" d="M-41 31q2 9 8 19.5t13 10.5q96 0 136.5 29t53.5 86q194 776 260 1024q5 21 6 34t-3.5 30.5t-18.5 27.5t-44 17.5t-75 7.5q-4 0 -6 10.5t0 20.5q9 30 18 30h361q20 0 24 -14q0 -4 92 -464.5t93 -467.5q1 -9 7 -12t13 0.5t12 11.5q441 714 561 934q12 12 27 12h328 q8 0 8 -28q-7 -33 -21 -33q-83 0 -115 -29t-44 -88l-176 -1022q-3 -17 -3 -31q0 -35 19 -57q27 -30 127 -29q4 0 5 -11.5t-1 -18.5q-6 -31 -16 -31h-529q-12 0 -8 31q2 10 7.5 20t11.5 10q71 0 112 15t56.5 38t23.5 62q8 40 94.5 523.5t89.5 494.5q4 15 -2 15.5t-14 -13.5 l-649 -1092q-3 -8 -37 -8q-37 0 -39 8l-205 1100q-2 8 -5.5 10.5t-7.5 -1.5t-7 -15l-254 -1022q-5 -20 -5 -37q0 -29 16 -48q26 -30 132 -30q6 0 6 -28q-5 -33 -16 -33h-412q-8 0 -8 31z" />
<glyph unicode="N" horiz-adv-x="1474" d="M-29 29q1 10 7.5 21t11.5 11q101 0 138.5 29t47.5 88l205 1024q4 17 4 32q0 34 -20 54q-28 28 -125 29q-4 0 -5 11.5t1 19.5q0 10 4.5 20t11.5 10h307q22 0 29 -10l502 -1008q4 -11 13 -9.5t13 16.5l168 835q4 18 4 33q0 33 -20 53q-28 28 -129 29q-10 0 -4 31q0 10 5 20 t11 10h410q7 0 9 -12q1 -5 0 -8q0 -4 -1 -6q-9 -35 -21 -35q-55 0 -92 -8.5t-56 -27t-27 -36t-13 -45.5l-244 -1212q-2 -8 -31 -8q-24 0 -28 8l-580 1163q-6 12 -15.5 10.5t-12.5 -16.5l-195 -967q-4 -21 -4.5 -34t5.5 -30.5t21 -27.5t46 -17.5t77 -7.5q11 0 4 -30 q-8 -31 -16 -31h-407q-6 0 -8 10l-2 10q0 5 1 9z" />
<glyph unicode="O" horiz-adv-x="1398" d="M118 483q4 93 27 203q28 140 72 252t92 184.5t111 126t116.5 81t121 43t112.5 19t102 3.5q42 0 76 -2t80.5 -10.5t82.5 -22.5t76 -40.5t67 -62t50 -90t31 -121.5q5 -41 5 -92q0 -32 -2 -67q-5 -92 -27 -201q-28 -140 -72.5 -252t-92.5 -185t-111 -126.5t-116.5 -81 t-119.5 -43.5t-110 -19.5t-99 -3.5q-42 0 -75 2t-80 10t-83 21.5t-77 40t-69 62t-52 89.5t-32 122q-6 44 -5 100q-1 29 1 61zM322 459q-2 -38 -3 -72q0 -54 6 -95q9 -66 33.5 -114.5t51 -74t65 -40.5t66.5 -18.5t63 -3.5q37 0 66.5 3.5t73 18t79 39.5t77.5 73.5t76.5 115 t68.5 167.5t59 228q26 126 32 227q3 47 3 86q-1 45 -5 81q-8 66 -30 114.5t-47.5 74t-63.5 40.5t-67 18.5t-68 3.5q-37 0 -67.5 -3.5t-74.5 -18.5t-80.5 -40.5t-79 -74t-77 -114.5t-68.5 -167t-58.5 -227t-30.5 -227z" />
<glyph unicode="P" horiz-adv-x="1214" d="M-27 31q2 11 7.5 20.5t11.5 9.5q59 0 96 8t56 26t26.5 35t13.5 48l205 1022q7 25 5 46.5t-13 37t-46 24.5t-93 9q-4 0 -6 10.5t0 20.5q9 30 18 30h608q82 0 146 -13.5t105 -35.5t69 -54t40.5 -64.5t16.5 -71.5q2 -24 2 -45q-1 -13 -1 -26q-2 -32 -9 -67q-9 -51 -25.5 -96 t-54 -99t-90 -92.5t-140 -64.5t-198.5 -26h-86q-48 0 -82 -6.5t-53.5 -16t-32 -26.5t-17 -31t-8.5 -37l-65 -326q-7 -26 -6 -47.5t12.5 -37.5t46.5 -25t94 -9q5 0 5.5 -11.5t-1.5 -16.5q0 -9 -4.5 -21t-11.5 -12h-534q-8 0 -8 17q0 6 1 14zM481 688h178q70 0 127 14 t95.5 39.5t66.5 54.5t45.5 68t27.5 69.5t17 67.5q10 48 14 85q1 10 0 21q0 28 -6 61q-9 45 -34 74.5t-79.5 50t-135.5 20.5h-103q-29 0 -50 -9.5t-33 -28.5t-18 -36t-11 -43z" />
<glyph unicode="Q" horiz-adv-x="1409" d="M109 484q5 92 26 200q28 138 71.5 249t92 183.5t111 126.5t117 82.5t121 45t113.5 20.5t103 4q42 0 77.5 -2.5t81.5 -11t82 -23t75.5 -41t66.5 -62.5t49.5 -90.5t30.5 -122.5q5 -41 5 -92q0 -31 -2 -66q-5 -92 -27 -200q-19 -96 -47 -181.5t-54.5 -138.5t-50.5 -92.5 t-39 -55.5l-14 -17q27 -49 57 -79t63.5 -41.5t55 -14.5t57.5 -3q8 0 8 -12q0 -6 -2 -16q0 -9 -5 -21t-11 -12q-212 0 -268 8q-81 12 -107 51q-148 -84 -362 -84q-44 0 -79.5 2t-82.5 10.5t-84 23t-77 41t-67.5 62.5t-50 90.5t-31.5 121.5q-5 42 -5 94q0 31 2 64zM312 350 q3 -61 16 -110.5t29.5 -81.5t42.5 -55.5t48.5 -35.5t52.5 -18.5t49.5 -8t45.5 -1.5q37 0 63.5 2.5t70.5 16t79 38t78 72.5t77.5 114.5t69 169.5t60.5 232q20 101 28 186q8 73 8 129v19q-2 61 -14.5 110.5t-27.5 81.5t-40 55.5t-46.5 35.5t-52 18.5t-50.5 8t-47 1.5 q-37 0 -64 -2.5t-72 -16.5t-80.5 -38t-79.5 -72t-79 -114.5t-70 -169.5t-61 -232q-20 -101 -28 -186q-6 -66 -6 -117v-31z" />
<glyph unicode="R" horiz-adv-x="1327" d="M-27 31q2 11 8.5 20.5t12.5 9.5q59 0 96.5 8.5t56.5 27.5t25.5 35t13.5 46l205 1024q7 23 5 44t-12.5 37.5t-45.5 26t-94 9.5q-11 0 -6 29q4 30 16 30h610q85 0 150.5 -14.5t106.5 -37.5t68 -56.5t39 -65.5q11 -32 14 -72q2 -20 2 -37t-2 -31q-3 -28 -9 -60 q-64 -326 -404 -371q86 -34 117 -162l82 -293q14 -59 46 -88t116 -29q5 0 5.5 -11.5t-1.5 -16.5q0 -1 -2 -7.5t-3.5 -11.5t-4.5 -9.5t-6 -4.5h-222q-24 0 -53.5 10.5t-36.5 34.5l-108 416q-15 57 -34.5 91.5t-47.5 49.5t-52.5 19t-66.5 4h-90l-90 -447q-7 -24 -5 -45t13 -37 t46 -25.5t95 -9.5q6 0 6 -28q-7 -33 -18 -33h-532q-6 0 -8 10q-2 8 -1 15v6zM481 690h178q85 0 150.5 21.5t103.5 51.5t66 76.5t39.5 82t21.5 82.5q6 32 10 58q3 22 3 52q-1 4 -1 8q0 34 -7.5 59t-25.5 51t-45.5 43t-72.5 27.5t-104 10.5h-101q-31 0 -52 -10t-33 -29.5 t-17 -36t-10 -41.5z" />
<glyph unicode="S" horiz-adv-x="1101" d="M31 139l41 207q2 10 32 10q4 0 9 -0.5t10 -1.5t8 -3t2 -5q-6 -31 -6 -59q-1 -96 73 -161q96 -85 253 -85q36 0 71.5 5.5t80.5 23t80.5 45.5t66 78t43.5 116q4 18 4 36q0 65 -51 124q-65 75 -224 168q-42 24 -72.5 43t-63 42t-54.5 43t-43 44.5t-33 50t-19.5 55t-7 63 t8.5 71.5q14 67 41 121.5t59 90t75.5 61.5t82 39.5t87 21.5t82.5 10t76 2q89 0 168 -17.5t131 -57.5q43 -33 43 -77q0 -9 -2 -18l-26 -140q-3 -12 -33 -12q-5 0 -11 1.5t-11.5 4t-4.5 6.5q3 16 3 31q0 70 -60 134q-72 78 -203 79q-29 0 -60.5 -4t-75 -19t-79 -39.5t-66 -69 t-42.5 -103.5q-3 -17 -3 -33q1 -67 55 -125q68 -72 214 -152q298 -164 298 -383q0 -33 -7 -67q-19 -91 -62 -158.5t-94 -105t-119.5 -60t-126 -29t-125.5 -6.5q-66 0 -137.5 9.5t-138.5 27.5t-106 52q-32 28 -32 61q0 7 1 14z" />
<glyph unicode="T" horiz-adv-x="1187" d="M164 1106l82 256q6 16 24 16h979q6 0 11.5 -4t5.5 -10q-1 -7 -9 -129.5t-8 -128.5q-3 -12 -35 -12q-10 0 -18.5 2.5t-7.5 9.5q-4 123 -33 165t-90 42h-104q-23 0 -37 -1.5t-33.5 -10.5t-32.5 -25.5t-26.5 -48t-22.5 -76.5l-197 -973q-7 -21 -4 -41.5t13.5 -37.5 t45.5 -27.5t93 -10.5q12 0 6 -30q-6 -31 -16 -31h-535q-4 0 -6 9.5t0 19.5q0 11 5.5 21.5t12.5 10.5q57 0 95 9.5t57.5 28.5t27 35.5t13.5 43.5l194 973q8 38 9 66.5t-5.5 46t-14 28t-23 15t-27 5.5t-31.5 1h-98q-38 0 -66 -13.5t-63 -60.5t-72 -133q-4 -12 -33 -12 q-3 0 -7.5 1t-9.5 2t-7.5 3.5t-1.5 5.5z" />
<glyph unicode="U" horiz-adv-x="1464" d="M204 298q2 52 13 112l160 802q7 21 5 40.5t-12.5 34.5t-46 23.5t-96.5 8.5q-4 0 -6 10.5t0 18.5q2 10 7.5 20t11.5 10h532q5 0 6.5 -11t-0.5 -17q0 -8 -5.5 -19.5t-12.5 -11.5q-60 0 -98 -7.5t-57 -24t-25.5 -32t-12.5 -43.5l-161 -815q-11 -55 -12 -101v-9q0 -39 8 -69 q10 -32 25 -58t38 -42t46 -27t53 -16t54.5 -7t53.5 -2q55 0 100.5 5.5t104 26t102 55t81 99t54.5 151.5l162 809q7 22 5.5 41.5t-12 34t-46 23t-95.5 8.5q-6 0 -6 29q2 10 7.5 20t9.5 10h415q5 0 7 -12q1 -6 1 -10t-1 -6q0 -6 -6 -18.5t-13 -12.5q-48 0 -82.5 -6t-53.5 -14 t-31 -24t-16.5 -28.5t-8.5 -34.5l-162 -811q-17 -83 -48 -149.5t-67 -109.5t-84.5 -74.5t-91 -48t-95.5 -26t-88.5 -11.5t-80.5 -2q-32 0 -58 1t-62 4t-65 10t-62.5 18t-59 28.5t-50.5 40t-40 54.5q-14 33 -24 72q-8 34 -9 77q1 6 1 13z" />
<glyph unicode="V" horiz-adv-x="1406" d="M189 1326q-1 4 -1 8q0 6 2 14q3 30 17 30h516q13 0 8 -28q-5 -33 -18 -33q-105 1 -133 -29q-21 -21 -20 -58q0 -14 3 -30l146 -885q1 -16 19 -16.5t28 12.5q19 22 46 54t96.5 124t130 184.5t129 222.5t110.5 249q9 28 9 52q0 41 -26 71q-42 49 -141 49q-14 0 -6 31 q3 30 16 30h260q54 0 54 -45q0 -8 -2 -18q-26 -130 -81.5 -269.5t-119.5 -256t-146.5 -237.5t-148.5 -205t-140.5 -168.5t-107.5 -119t-62 -63.5q-8 -7 -8 -8q-8 -8 -32 -8q-27 0 -29 8l-203 1214q-10 58 -42 86.5t-115 28.5q-6 -1 -8 9z" />
<glyph unicode="W" horiz-adv-x="1937" d="M208 1331q0 9 3 17q4 30 16 30h510q15 0 8 -30q-7 -31 -18 -31q-46 0 -78.5 -7t-49.5 -17.5t-26 -27t-10 -31t0 -34.5l68 -809q2 -12 13.5 -12.5t19.5 12.5l466 836q6 8 33 8q29 0 33 -8q12 -79 72.5 -401t74.5 -425q3 -15 20 -15.5t26 11.5q19 26 36 49.5t74.5 111 t103.5 168.5t101.5 199.5t89.5 227.5q8 23 8 45q0 38 -27 70q-41 48 -126 49q-6 0 -8.5 10.5t-0.5 20.5q9 30 21 30h237q34 0 50 -20q11 -13 10 -34q0 -10 -2 -21q-26 -130 -78.5 -271t-108.5 -255t-133 -239t-130.5 -203t-124.5 -168.5t-90.5 -114t-51.5 -59.5l-4 -5 q-8 -8 -25 -8q-19 0 -22 8l-137 899q-2 14 -13.5 15.5t-19.5 -13.5q-68 -131 -262 -478t-236 -425q-3 -6 -28 -6q-20 0 -23 8q-11 118 -53 592t-56 622q-7 59 -36 87t-109 28q-7 0 -7 14z" />
<glyph unicode="X" horiz-adv-x="1378" d="M-96 31q2 11 7 20.5t11 9.5q166 0 277 111l465 471q-182 487 -207 557q-21 60 -65.5 88.5t-127.5 28.5q-14 0 -6 31q1 12 6 21t10 9h535q12 0 8 -30q-4 -31 -18 -31q-98 0 -126 -30q-16 -17 -16 -41q0 -18 9 -40l141 -375q5 -12 25 -14t32 8q1 1 21.5 20.5t43.5 42 t57.5 57.5t65.5 69t64.5 73.5t57.5 73.5q19 27 21.5 54.5t-10.5 50.5t-47.5 37t-84.5 14q-13 0 -6 31q3 30 18 30h256q41 0 41 -33q0 -7 -2 -16q-11 -57 -67 -142t-128.5 -166t-143 -154t-119.5 -117l-48 -45q172 -467 197 -535q18 -53 62 -81t126 -28q6 0 6 -28 q-2 -13 -7 -23t-11 -10h-535q-5 0 -7 9.5t-1 21.5q1 11 8.5 20.5t12.5 9.5q58 0 91.5 9.5t42 28.5t7.5 35t-10 42l-129 348q-6 13 -25 13.5t-31 -11.5l-354 -358q-15 -15 -25 -28.5t-14 -28.5t3.5 -25.5t31.5 -17.5t65 -7q7 0 8.5 -9.5t-1.5 -20.5q-8 -31 -19 -31h-434 q-9 0 -9 17q0 6 1 14z" />
<glyph unicode="Y" horiz-adv-x="1308" d="M193 1348q1 12 6 21t10 9h522q13 0 6 -30q-2 -11 -7 -20t-11 -9q-66 0 -98.5 -16.5t-32.5 -42.5t10 -58q110 -337 143 -430q5 -14 24 -14.5t34 12.5l45 46q44 46 92 96.5t106.5 120.5t92.5 124q22 36 22 66q0 27 -18 49q-38 47 -131 47q-11 0 -7 29q7 30 19 30h256 q25 0 34 -12q6 -7 6 -22q0 -7 -1 -15q-13 -65 -73 -159.5t-135.5 -183t-149.5 -167t-125 -126.5l-50 -48l-92 -467q-6 -35 -1.5 -61t40.5 -41t109 -15q2 0 3.5 -0.5t2 -2.5t1 -3.5t0 -4.5t-0.5 -5t-1 -6t-1 -6q-5 -33 -17 -33h-532q-10 0 -6 31q4 30 18 30q105 0 143 29 t48 88l86 422q-170 516 -199 602q-22 64 -64.5 90.5t-121.5 26.5q-7 0 -7 10q0 7 3 19z" />
<glyph unicode="Z" horiz-adv-x="1165" d="M-18 14q-2 5 -2 11q0 8 6 16q6 7 500 613t503 616q10 14 3.5 28.5t-21.5 14.5h-432q-25 0 -43 -5.5t-43.5 -24.5t-54 -63t-60.5 -114q-5 -12 -31 -12q-11 0 -21 2.5t-7 9.5q72 229 81 256q10 16 25 16h850q15 0 21 -14q3 -6 3 -11q0 -8 -6 -16q-128 -152 -506 -623.5 t-495 -609.5q-11 -12 -5.5 -25t23.5 -13h502q54 0 98.5 40t102.5 166q5 13 33 13q4 0 11 -1.5t13 -4.5t4 -7q-1 -7 -41 -127l-43 -129q-3 -16 -24 -16h-920q-18 0 -24 14z" />
<glyph unicode="[" horiz-adv-x="651" d="M-14 -393l352 1771h391q11 0 6 -30q-6 -31 -18 -31q-56 0 -96.5 -7.5t-62.5 -17.5t-37 -27.5t-19.5 -30.5t-9.5 -34q-32 -148 -139.5 -699.5t-143.5 -715.5q-4 -19 -5 -32t6.5 -30.5t26 -28.5t57 -18.5t95.5 -7.5q10 0 6 -30q-9 -31 -18 -31h-391z" />
<glyph unicode="\" horiz-adv-x="860" d="M178 1376q-1 4 5 7t19.5 4t26 1.5t31.5 0.5q78 0 80 -13l395 -1384q1 -4 -5 -6.5t-18.5 -3.5t-26 -1.5t-30.5 -0.5q-76 0 -80 12q-1 4 -198 691t-199 693z" />
<glyph unicode="]" horiz-adv-x="651" d="M-107.5 -382.5q-1.5 10.5 1.5 20.5q4 30 16 30q70 0 116 10t68 30.5t29.5 35.5t13.5 41q33 154 140.5 704.5t142.5 712.5q4 16 4.5 27t-2.5 26t-14.5 25t-31.5 19t-54.5 13.5t-81.5 4.5q-13 0 -7 31q5 30 17 30h393l-352 -1771h-391q-6 0 -7.5 10.5z" />
<glyph unicode="^" d="M59 685q0 2 2 5l633 709q12 15 25.5 15t19.5 -13q3 -5 58 -116.5t118 -241.5t117.5 -241t54.5 -112q2 -7 -19 -10q-15 -2 -44 -2q-67 0 -70 12l-227 453q-6 13 -24.5 11.5t-30.5 -13.5q-54 -57 -206.5 -227.5t-203.5 -225.5q-13 -16 -112 -16q-91 0 -91 13z" />
<glyph unicode="_" horiz-adv-x="1087" d="M-98 -197q12 60 26 60h959q15 0 2 -62q-12 -59 -27 -59h-958q-10 0 -2 61z" />
<glyph unicode="`" d="M489 1399q-3 4 12.5 16.5t41.5 28.5q58 33 63 24q1 -3 38.5 -73.5t75.5 -142t38 -72.5q3 -6 -11.5 -18.5t-39.5 -26.5q-60 -35 -62 -25z" />
<glyph unicode="a" horiz-adv-x="1110" d="M37 320q1 77 20 172q24 123 67 215t92.5 146.5t113 87.5t122.5 44.5t128 11.5q26 0 50.5 -4t43.5 -11t35.5 -14.5t29 -17t21 -16t15.5 -12.5l7 -7q7 -5 19 -1.5t18 16.5q13 28 33 38.5t53 10.5h99l-162 -801q-3 -17 -3 -32q0 -36 17 -56q24 -30 111 -29q12 0 8 -30 q-8 -31 -19 -31h-245q-37 0 -55 19q-11 12 -11 37q0 15 4 36q-112 -112 -278 -112q-42 0 -78 4t-77 17.5t-71.5 36t-56.5 61.5q-28 39 -40 91q-12 49 -11 119v11zM222 294q-1 -24 -1 -45q1 -50 7 -84q10 -48 34 -76.5t52.5 -38t68.5 -9.5q27 0 49.5 3.5t52.5 14.5t55 30 t53 53t51.5 80t45.5 113.5t39 151.5l64 320q-4 5 -11 14t-29.5 31.5t-47 40t-62 31.5t-74.5 14q-38 0 -69.5 -8t-69 -36.5t-68 -76t-61 -132.5t-53.5 -202q-22 -109 -26 -189z" />
<glyph unicode="b" horiz-adv-x="1161" d="M113 102l221 1100q5 20 5 36q1 30 -15 50q-24 31 -113 31q-11 0 -4 31q6 28 16 28h324l-86 -434q-3 -15 9 -22t26 2q111 73 225 73q49 0 89.5 -6t81.5 -21t71.5 -39.5t54.5 -63.5t35 -91q9 -44 10 -102q0 -11 -1 -22q-2 -72 -20 -160q-22 -112 -76 -200t-120 -141.5 t-147 -88.5t-152.5 -48.5t-140.5 -13.5h-218q-45 0 -65 22q-13 15 -13 45q0 16 3 35zM285 66h133q39 0 83 10t98.5 39t101 73.5t87 121t60.5 173.5q24 117 27 203q1 18 1 34q0 61 -9 99q-11 48 -38 75.5t-54.5 35.5t-65.5 8q-59 0 -128 -32t-108 -64l-39 -31z" />
<glyph unicode="c" horiz-adv-x="960" d="M68 338q2 66 18 145q26 135 77 233.5t105.5 150t125.5 82t121.5 37.5t109.5 7q47 0 97 -7.5t97 -23t73 -42.5q22 -22 22 -49q0 -6 -1 -13l-34 -174q-3 -10 -35 -10q-3 0 -7.5 0.5t-10 1.5t-9 3t-2.5 5q7 34 7 64q0 72 -41 118q-58 66 -169 66q-36 0 -65.5 -6t-70.5 -32 t-73.5 -71.5t-66 -130.5t-57.5 -203q-23 -115 -23 -199v-5q0 -79 14 -123t45 -69.5t59 -31.5t66 -6q107 0 183 52t118 174q5 8 43 8q5 0 11.5 -0.5t13 -1.5t11 -2.5t3.5 -3.5q-104 -308 -397 -308q-28 0 -52 1.5t-58.5 7.5t-62 16t-58.5 29t-53.5 44.5t-41.5 64.5 q-18 40 -26 88q-6 39 -6 89v25z" />
<glyph unicode="d" horiz-adv-x="1134" d="M56 334q4 72 20 158q19 97 50 175t66 129.5t79.5 90t84 59t87 33t82 15.5t73.5 3q104 0 195 -73q10 -10 26 -3.5t19 23.5l51 256q7 21 5 42t-11 37.5t-38.5 27t-78.5 10.5q-4 0 -5.5 11t1.5 20q5 30 16 30h324l-240 -1202q-7 -21 -5 -41.5t10.5 -37.5t38.5 -27.5 t79 -10.5q4 0 6 -9t0 -17q0 -12 -4.5 -22.5t-11.5 -10.5h-244q-17 0 -28 2.5t-23.5 12t-13.5 27.5t2 50q-59 -60 -124 -85t-155 -25q-34 0 -62 2.5t-65 10t-65.5 23.5t-57.5 40.5t-47 63.5q-18 40 -29 90q-8 38 -8 88q0 17 1 34zM240 216q3 -46 15 -78.5t26.5 -50.5 t36.5 -28.5t40.5 -13t42.5 -2.5q26 0 48.5 3t52 14t55 29.5t54 52.5t52 79t46 112.5t39.5 151.5l63 326q-107 127 -225 127q-34 0 -61 -6t-66 -32.5t-70.5 -72.5t-64.5 -134.5t-58 -209.5q-17 -85 -23 -153q-4 -45 -4 -81q0 -18 1 -33z" />
<glyph unicode="e" horiz-adv-x="999" d="M53 317q0 75 19 166q20 102 55 184.5t78.5 136.5t92 92.5t103 59t103.5 29t100 8.5q44 0 81.5 -3.5t76.5 -12t68 -22.5t55 -34.5t38.5 -49.5t18.5 -67q2 -12 2 -26q0 -27 -8 -59q-28 -141 -163 -221t-341 -80q-189 0 -192 -117q0 -6 -1 -11q0 -70 13 -116 q13 -50 41 -75.5t60.5 -34.5t80.5 -9q54 0 95.5 8t85 31t82 69t71.5 116q4 10 45 10q7 0 14 -0.5t14 -1.5t10.5 -3t2.5 -5q-35 -79 -76 -135.5t-81 -89t-89.5 -51.5t-92 -24.5t-97.5 -5.5q-44 0 -82 4.5t-82 18t-78 36t-63 61.5t-44 91q-16 54 -16 133zM260 487h180 q128 0 210.5 60t101.5 164q9 47 9 84q1 59 -25 89q-42 48 -144 48q-239 0 -332 -445z" />
<glyph unicode="f" horiz-adv-x="688" d="M-231 -358q7 32 18 32h55q101 0 154.5 62t85.5 219l192 960h-131q-11 0 -8 31q7 33 21 33h39q54 0 84.5 28t44.5 87q73 305 352 305q101 0 159 -38q47 -31 47 -85q0 -13 -3 -27q-8 -46 -38 -69t-67 -23q-33 0 -52 19.5t-13 50.5q2 15 9.5 28t10.5 23q5 24 -7.5 41.5 t-39.5 17.5q-86 0 -126.5 -64t-72.5 -218l-14 -76h240q11 0 4 -33q-7 -31 -19 -31h-65q-60 0 -98.5 -8.5t-57.5 -27.5t-26 -36t-13 -46l-168 -842q-16 -82 -50.5 -145t-76 -101t-94.5 -61.5t-102 -32t-103 -8.5h-65q-8 0 -8 15q0 8 2 20z" />
<glyph unicode="g" horiz-adv-x="1077" d="M-72 -123q10 51 32 94.5t43.5 68.5t50 46.5t41.5 28.5t28 14q28 10 18 33q-9 36 -9 68q0 19 3 36q18 86 115 129q9 5 11 14t-7 15q-46 27 -68 59q-36 52 -36 128q0 36 8 77q31 149 147 229t303 80q44 0 83 -4.5t56 -8.5l17 -5h323q4 0 5 -11v-6q0 -8 -2 -16 q-5 -33 -17 -33q-59 0 -93.5 -9t-45 -24t-13 -34t3.5 -40q1 -6 1 -9q4 -22 4 -45q0 -33 -8 -68q-8 -40 -22.5 -76.5t-47 -80t-78.5 -74.5t-122.5 -52.5t-172.5 -21.5q-110 0 -158.5 -31t-56.5 -72q-4 -25 8 -43t56.5 -31.5t122.5 -13.5q167 0 261 -32t124 -96q19 -37 19 -89 q0 -35 -9 -77q-28 -143 -162 -220t-356 -77q-227 0 -328 67q-78 52 -78 152q0 28 6 61zM70 -123q-5 -27 -5 -50q0 -73 53 -109q71 -48 222 -48q298 0 340 205q5 25 5 47q0 64 -47 93q-63 38 -214 38q-71 0 -122.5 -6t-103.5 -23.5t-84.5 -54.5t-43.5 -92zM336 694 q-10 -51 -10 -91q0 -165 163 -165q202 0 254 254q10 51 10 90q0 62 -25 97q-43 57 -132 57q-57 0 -105.5 -20t-92.5 -76.5t-62 -145.5z" />
<glyph unicode="h" horiz-adv-x="1191" d="M-55 31q6 30 22 30q47 0 78.5 9.5t48 29t23 36t12.5 42.5l205 1024q4 19 4 35q0 32 -15 52q-22 30 -110 30q-12 0 -8 29q7 30 18 30h330l-88 -440q-3 -12 10.5 -17.5t26.5 3.5q111 73 229 73q28 0 52.5 -1.5t52.5 -6t51.5 -12t46.5 -20t40 -29t31 -40.5q15 -23 21 -52 q6 -27 5 -62q1 -3 1 -5q0 -38 -10 -83l-102 -508q-5 -22 -5 -40q0 -29 13 -47q21 -30 106 -30q6 0 6 -14q0 -7 -2 -16q-8 -31 -16 -31h-219q-47 0 -71 25q-16 18 -16 47q0 13 3 28l110 562q16 76 15.5 128t-15.5 80q-31 58 -120 58q-59 0 -127 -31t-106 -61l-38 -31 l-125 -627q-4 -20 -4 -36q-1 -30 13 -50q20 -30 100 -31q10 0 4 -30q-6 -31 -14 -31h-459q-10 0 -10 14q0 7 2 17z" />
<glyph unicode="i" horiz-adv-x="608" d="M121 102l141 701q4 19 4 35q0 32 -16 52q-23 30 -111 30q-9 0 -6 28q7 31 17 31h325l-160 -801q-4 -18 -4 -34q0 -32 16 -52q23 -30 113 -31q13 0 4 -30q-9 -31 -16 -31h-229q-47 0 -67 26q-14 18 -14 47q0 13 3 29zM326 1278q19 111 137 111q95 0 95 -80q0 -15 -3 -33 q-12 -57 -44.5 -84t-92.5 -27q-59 -1 -81 27q-15 18 -15 51q0 16 4 35z" />
<glyph unicode="j" horiz-adv-x="591" d="M-216 -382q-1 4 -1 8q0 7 2 14q2 11 7 21.5t9 10.5h56q105 0 157 64t84 219l168 846q4 18 5 30.5t-3.5 30.5t-17.5 29t-40.5 19t-68.5 8q-4 0 -6 10t0 20t7.5 20.5t11.5 10.5h329l-204 -1024q-32 -155 -137.5 -251.5t-286.5 -96.5h-64q-6 0 -7 11zM332 1276 q20 113 141 113q19 0 35 -4t32.5 -15t22.5 -35q3 -12 3 -26.5t-3 -32.5q-22 -111 -135 -111q-99 0 -99 81q0 14 3 30z" />
<glyph unicode="k" horiz-adv-x="1193" d="M-47 11q-1 6 -1 10.5t1 7.5q0 8 6 20t12 12q39 0 68.5 8t45.5 18t27 28t15 30.5t8 32.5l205 1024q7 19 5 39.5t-10 38t-38 28.5t-80 11q-10 0 -4 29q5 30 16 30h330l-160 -805q-3 -13 8 -17t23 7l350 277q21 18 31.5 31t10.5 25t-21.5 18t-65.5 6q-6 0 -7.5 9.5t1.5 18.5 q1 12 6 21.5t10 9.5h402q8 0 8 -15q0 -7 -2 -16q-9 -28 -16 -28q-63 0 -112 -12.5t-73 -27t-53 -38.5l-330 -260q76 0 127 -25.5t78 -65.5t51 -108q33 -88 68 -205q15 -54 34 -74q38 -43 130 -43q11 0 4 -30q-8 -31 -17 -31h-225q-28 0 -57 12t-37 35q-6 27 -41 141.5 t-55 171.5q-26 75 -60.5 107.5t-95.5 32.5l-106 -88l-48 -234q-6 -21 -4.5 -41.5t9.5 -37.5t36.5 -27.5t75.5 -10.5q6 0 6 -30q-6 -31 -18 -31h-465q-4 0 -6 11z" />
<glyph unicode="l" horiz-adv-x="602" d="M127 102l221 1100q4 18 4 34q0 34 -16 54q-24 30 -111 29q-12 0 -8 29q3 30 19 30h323l-240 -1200q-4 -18 -3 -34q0 -32 15 -52q23 -30 113 -31q14 0 5 -30q-4 -31 -17 -31h-229q-47 0 -67 26q-13 18 -12 45q0 14 3 31z" />
<glyph unicode="m" horiz-adv-x="1759" d="M-29 9q-2 4 -1.5 9.5t1.5 12.5q7 28 19 28q48 0 81 9t50 28t24.5 36.5t12.5 45.5l125 625q7 23 5 44t-11 36.5t-38 25t-77 9.5q-10 0 -6 30q4 31 18 31h240q35 0 51 -15t12 -55q-2 -9 5 -12t16 6q102 94 229 94q124 0 185.5 -32.5t88.5 -94.5q5 -8 14.5 -8.5t18.5 8.5 q113 127 258 127q48 0 87.5 -5.5t77.5 -19.5t63 -37q26 -23 44 -57q19 -35 19 -87q0 -45 -10 -105l-100 -508q-6 -24 -4.5 -45.5t10 -38t35.5 -26t71 -9.5q7 0 7 -13q0 -5 -1 -13q0 -12 -4.5 -22.5t-11.5 -10.5h-207q-99 0 -99 77q0 13 3 29l112 556q11 59 11 102t-9 69 t-29 41.5t-44 21t-58 5.5q-41 0 -80 -15t-65.5 -36.5t-47.5 -42.5t-30 -36l-10 -15l-117 -578q-5 -36 -2 -62t29 -41.5t80 -15.5q10 0 4 -28t-12 -30q-1 -1 -3 -1h-204q-91 0 -91 80q0 15 3 33l110 549q12 51 12 89q-1 7 -1 13q-2 42 -10.5 69t-30 42t-44.5 20.5t-55 5.5 q-43 0 -83.5 -15.5t-68.5 -37.5t-49.5 -44.5t-32.5 -37.5l-10 -16l-114 -572q-7 -22 -5.5 -43.5t9.5 -38t34.5 -27t69.5 -10.5q13 0 6 -28q-4 -31 -16 -31h-450q-6 0 -9 9z" />
<glyph unicode="n" horiz-adv-x="1193" d="M-26 9q-1 4 -1 9q0 6 2 13q7 28 17 28q48 0 80.5 9t50 27.5t25.5 36.5t14 46l125 625q7 23 5 44t-12 36.5t-39 25t-77 9.5q-10 0 -6 30q9 31 18 31h240q34 0 49.5 -14.5t15.5 -57.5q0 -9 5 -11.5t14 5.5q100 96 233 96q291 0 291 -221q0 -41 -10 -90l-101 -508 q-4 -22 -4 -39q1 -31 13 -51q20 -30 98 -29q7 0 7 -10q0 -7 -3 -18q-7 -31 -16 -31h-211q-43 0 -69 24q-19 18 -19 48q0 10 2 22l114 568q9 50 11 90q0 6 1 13q0 31 -7 53q-8 26 -20.5 43t-32.5 25.5t-39 11.5t-44 3q-43 0 -83.5 -15.5t-68 -37.5t-49 -43.5t-31.5 -36.5 l-11 -16l-117 -574q-5 -32 -4 -58.5t28.5 -43.5t83.5 -17q12 0 9 -28q-9 -31 -19 -31h-450q-6 0 -8 9z" />
<glyph unicode="o" horiz-adv-x="1030" d="M56 310q0 78 20 173q102 510 536 510q40 0 74.5 -4t75.5 -17.5t72 -35.5t58 -62q28 -40 41 -92q13 -51 13 -124v-6q0 -78 -20 -173q-101 -506 -527 -506q-41 0 -75.5 4t-76.5 17t-74 35t-60.5 61t-42.5 91q-14 50 -14 124v5zM240 284v-19q0 -74 12 -116q12 -47 41 -74 t55.5 -33.5t63.5 -6.5q36 0 64 6t68 32.5t71.5 72.5t64.5 133.5t57 207.5q17 88 23 158q4 44 4 79q0 20 -2 37q-4 46 -16.5 79.5t-27.5 51t-38 27.5t-40.5 12.5t-41.5 2.5q-23 0 -41.5 -2t-47 -12t-52 -27t-52 -50t-52 -78.5t-47 -115.5t-40.5 -157q-24 -120 -26 -208z" />
<glyph unicode="p" horiz-adv-x="1140" d="M-136 -382v9q0 5 1 8q0 9 5 21t11 12q48 0 80.5 9t49.5 28t24 35t14 43l203 1018q7 22 5 43.5t-11 38t-38 27t-77 10.5q-6 0 -8 9t0 19t7 20.5t11 10.5h244q17 0 27.5 -2.5t23 -12t13 -28t-2.5 -49.5q114 110 279 110q42 0 76 -3.5t75.5 -16t72.5 -34t58.5 -60.5 t40.5 -91q12 -49 12 -120v-12q-1 -78 -20 -175t-50.5 -175t-66.5 -129.5t-79.5 -90t-84 -59t-87 -33t-82 -15.5t-74.5 -3q-50 0 -94.5 15t-64.5 29t-35 29q-9 9 -25.5 3.5t-20.5 -23.5l-49 -250q-5 -32 -3 -57.5t32.5 -41.5t91.5 -16q14 0 6 -30q-5 -31 -16 -31h-467 q-5 0 -7 11zM303 168q56 -66 109.5 -97.5t115.5 -31.5q38 0 68.5 8t68.5 36.5t68.5 76t61 133t53.5 201.5q24 118 26 203q1 15 1 29q0 64 -9 101q-12 45 -39.5 71t-52.5 32t-61 6q-39 0 -71 -7t-74.5 -34t-75.5 -73t-66.5 -131t-56.5 -202z" />
<glyph unicode="q" horiz-adv-x="1116" d="M71 326q4 63 19 137q19 96 62 176.5t99.5 135t120 95.5t130 64t123 34t104.5 11h199q77 0 77 -63q0 -14 -4 -31l-219 -1100q-4 -19 -4 -35q0 -32 16 -52q22 -30 111 -30q10 0 6 -28q-7 -33 -18 -33h-467q-15 0 -8 33q7 28 20 28q90 0 122.5 30t43.5 87l51 250q3 15 -9 22 t-25 -2q-129 -75 -226 -75q-34 0 -59.5 1.5t-59 7t-58 15.5t-51.5 28t-44.5 42.5t-32 61t-18.5 82.5q-3 24 -3 53q0 26 2 55zM275 157q30 -100 135 -100q64 0 132.5 29.5t105.5 58.5l36 29l147 741h-116q-35 0 -78 -12t-97.5 -43.5t-102.5 -79t-89.5 -126.5t-60.5 -177 q-25 -128 -25 -216q0 -62 13 -104z" />
<glyph unicode="r" horiz-adv-x="892" d="M-33 31q2 9 8 19.5t11 10.5q48 0 80 8.5t49 26.5t24.5 35.5t12.5 44.5l127 625q7 23 5 44.5t-11 38t-38 26.5t-77 10q-12 0 -6 28q2 10 7 20.5t11 10.5h238q10 0 17.5 -1t17.5 -3.5t15.5 -9t10.5 -17t4.5 -27.5t-6.5 -40q113 116 283 116q88 0 132 -50q35 -39 36 -91 q0 -14 -3 -29q-10 -52 -40 -77t-72 -25q-40 0 -61 21t-15 55q3 15 11 30.5t10 26.5q5 21 -8.5 36t-37.5 15q-15 0 -28 -1t-39.5 -9t-49 -22.5t-52 -44t-53 -70.5t-47.5 -106t-40 -146l-65 -334q-7 -21 -5 -42t11.5 -37t39 -26t77.5 -10q4 0 5 -10.5t-1 -17.5q0 -10 -5 -21.5 t-10 -11.5h-467q-8 0 -8 15q0 6 2 16z" />
<glyph unicode="s" horiz-adv-x="903" d="M16 84l35 174q2 12 31 12q31 0 29 -12q-3 -17 -4 -34q0 -34 13 -66q19 -50 75 -85.5t137 -35.5q215 0 250 176q2 10 2 20q0 45 -42 85q-52 50 -165 110q-28 14 -45.5 24t-41.5 24.5t-39 26t-33 27.5t-28.5 31t-21 34t-14 39t-3.5 44t5 51q53 266 387 266q125 0 201 -33 q68 -29 68 -73q0 -6 -1 -12l-25 -132q-2 -12 -32 -12q-9 0 -18.5 3.5t-8.5 8.5q6 31 -1 62.5t-27 60t-61 46.5t-97 18q-190 0 -222 -160q-6 -30 6.5 -56.5t45 -53t64.5 -46t85 -47.5q53 -27 92.5 -53.5t78.5 -65t55 -88.5q9 -29 9 -60q0 -22 -5 -46q-15 -73 -47.5 -126 t-71 -82.5t-91.5 -47t-97.5 -22.5t-100.5 -5q-79 0 -156 13q-76 14 -126 40q-44 23 -45 50q0 4 1 8z" />
<glyph unicode="t" horiz-adv-x="673" d="M131 946q2 10 7.5 21.5t11.5 11.5q97 0 167.5 67t98.5 211q2 9 55 9q51 -1 51 -9l-55 -278h238q3 0 4.5 -2t2 -5.5t0.5 -6.5t-0.5 -7t-0.5 -6q0 -11 -6 -24t-13 -13h-67q-59 0 -97.5 -9t-57.5 -28.5t-25.5 -35.5t-12.5 -45l-96 -471q-15 -86 -17 -140v-11q-1 -46 15 -73 q18 -30 39.5 -40.5t54.5 -10.5q29 0 104 15q6 2 6 -19q0 -7 -1 -14q-4 -30 -17 -33q-54 -18 -131 -18q-37 0 -66 3t-60 12t-53 24t-40.5 41t-26.5 62q-7 32 -7 75v11q1 52 14 116l118 589h-131q-8 0 -8 15q0 6 2 16z" />
<glyph unicode="u" horiz-adv-x="1157" d="M115 948q7 31 18 31h242q76 0 76 -57q0 -9 -2 -19l-115 -577q-11 -55 -11 -98q0 -156 146 -156q39 0 78.5 13.5t80.5 43t74 86.5t48 133l90 455q7 21 5 42t-11.5 37t-39 26t-77.5 10q-13 0 -6 30q3 31 18 31h236q78 0 78 -56q0 -10 -3 -22l-145 -723q-6 -21 -4 -42 t11 -37.5t39 -27t79 -10.5q9 0 4 -30q-4 -31 -16 -31h-248q-39 0 -56 20q-10 12 -10 39q0 17 4 41q-113 -120 -299 -120q-264 0 -264 233q0 50 12 111l97 479q7 22 5 43t-11 37t-38.5 25.5t-78.5 9.5q-7 0 -7 15q0 6 1 15z" />
<glyph unicode="v" horiz-adv-x="1052" d="M55 948q8 31 19 31h434q6 0 6.5 -11t-2.5 -20q-4 -30 -16 -30q-74 0 -94 -28q-14 -20 -13 -54q0 -14 2 -31l92 -531q4 -16 26 -15.5t32 13.5q1 1 21.5 25t47.5 57.5t65 84t73.5 103.5t72 118.5t62.5 125.5q11 29 11 54v10q-2 30 -31 49t-79 19q-14 0 -6 30q1 12 6.5 21.5 t10.5 9.5h202q38 0 38 -37q0 -7 -1 -14q-23 -111 -93.5 -248.5t-153 -252.5t-167 -218.5t-135.5 -159t-59 -61.5q-8 -8 -35 -8q-35 0 -35 8l-157 815q-10 59 -40.5 87t-97.5 28q-7 0 -7 15q0 6 1 15z" />
<glyph unicode="w" horiz-adv-x="1517" d="M85 928q-1 4 -1 8q0 6 2 12q4 31 18 31h424q6 0 8 -9.5t-1 -21.5q-4 -30 -19 -30q-77 0 -97 -30q-15 -22 -15 -57q0 -12 2 -26q4 -24 31.5 -257.5t27.5 -236.5q2 -16 15.5 -15t21.5 15q41 67 169 266.5t169 266.5q4 8 39 8q34 0 34 -8q1 -3 31.5 -135.5t60.5 -264.5 t31 -139q3 -14 19.5 -14.5t27.5 14.5q15 19 56.5 82t106.5 178t104 209q11 26 12.5 51t-7 46t-33 34t-62.5 13q-14 0 -7 30q3 31 19 31h207q25 0 25 -30q0 -6 -1 -13q-21 -104 -81 -237t-126 -243.5t-141 -221.5t-115.5 -164.5t-60.5 -79.5l-2 -2q-8 -8 -37 -8t-31 8 l-121 590q-1 14 -16 13t-24 -16l-361 -587q-8 -8 -37 -8t-31 8q0 6 -49 389.5t-55 425.5q-7 59 -31.5 87t-89.5 28q-7 0 -9 10z" />
<glyph unicode="x" horiz-adv-x="1091" d="M-78 29q4 32 19 32q74 0 126.5 27.5t100.5 73.5l303 287q-121 290 -152 362q-25 58 -59 83.5t-98 25.5q-14 0 -8 28q9 31 18 31h430q14 0 6 -31q-5 -28 -16 -28q-36 0 -56 -9t-24 -25.5t-1 -33t13 -39.5l80 -188q5 -12 27.5 -13.5t36.5 11.5q30 24 88.5 78t97.5 102 q24 28 27.5 54.5t-19 44.5t-71.5 18q-15 0 -9 28q6 31 19 31h192q26 0 26 -29q0 -6 -1 -12q-8 -39 -49 -97t-93.5 -113t-103.5 -103.5t-86 -78.5l-35 -30q123 -287 148 -346q21 -51 55.5 -80t101.5 -29q11 0 7 -30q-2 -11 -7.5 -21t-11.5 -10h-440q-14 0 -6 31q7 30 18 30 q38 0 60 8t27 24t1.5 33.5t-14.5 43.5q-46 113 -74 172q-5 12 -25.5 12.5t-35.5 -12.5q-7 -5 -47 -42.5l-88 -82.5t-64 -59q-22 -21 -33.5 -36t-14.5 -30t15.5 -23t59.5 -8q11 0 4 -30q-7 -31 -17 -31h-342q-7 0 -7 15q0 6 1 14z" />
<glyph unicode="y" horiz-adv-x="997" d="M-33 -348q9 43 21 43q116 0 171 17t95 81l121 207q-181 729 -199 803q-16 63 -46 90t-97 27q-6 0 -8 9t0 19q2 11 7 21t11 10h434q10 0 6 -31q-5 -28 -18 -28q-47 0 -70.5 -16.5t-23.5 -41.5t6 -55q5 -22 37 -154.5t61.5 -254t30.5 -128.5q5 -14 18.5 -14.5t24.5 16.5 q17 25 61 96.5t116 199.5t110 216q13 31 13 55q0 27 -15 45q-30 36 -91 36q-16 0 -8 28q1 13 7 22t14 9h192q18 0 27 -10q7 -7 7 -19q0 -4 -1 -8q-10 -48 -30 -106t-50.5 -121.5t-58 -118.5t-66.5 -122t-61 -105t-57 -95t-40 -65q-35 -56 -146.5 -237t-135.5 -218 q-26 -41 -53.5 -68t-55 -43t-69.5 -24t-81.5 -10t-105.5 -2q-8 0 -8 16q0 11 4 29z" />
<glyph unicode="z" horiz-adv-x="968" d="M-29 9q-2 4 -2 7q0 5 4 9l717 856q9 11 4 22.5t-18 11.5h-273q-25 0 -38.5 -1.5t-33.5 -10t-35.5 -25t-35.5 -48t-41 -78.5q-4 -11 -33 -11q-3 0 -7.5 0.5t-10 2t-8.5 3.5t-2 5q3 15 69 213q3 14 27 14h690q14 0 18 -8q2 -3 1 -6q0 -5 -5 -11l-712 -850q-10 -14 -5.5 -26 t19.5 -12h281q36 0 56 3.5t45.5 18.5t47.5 49t47 92q5 13 33 13q10 0 21 -3t8 -10l-78 -211q-6 -18 -25 -18h-706q-14 0 -19 9z" />
<glyph unicode="{" horiz-adv-x="731" d="M119 494q4 26 14 26q90 0 125.5 29.5t44.5 77.5q36 181 72.5 310.5t65.5 202t66 122t62.5 69t67.5 44.5l6 3q25 13 78 13q59 0 63 -10q1 -1 -2 -3q-51 -35 -80 -68.5t-64 -112t-68 -211.5t-78 -357q-3 -15 -9 -29.5t-13 -26t-15.5 -21.5t-16.5 -17t-16.5 -13.5t-14.5 -10 t-11 -6.5l-5 -3q-5 -3 -6.5 -9.5t2.5 -9.5q5 -3 13.5 -10.5t20 -22t17 -39.5t0.5 -53q-45 -224 -65 -359t-16 -213.5t20 -111.5t53 -67q4 -3 -6 -6q-22 -7 -62 -7q-53 0 -69 13q-27 21 -40 33t-32 40t-25 59t-10.5 86t2.5 126t22.5 173.5t41.5 233.5q9 50 -15.5 79.5 t-113.5 29.5q-11 0 -4 27z" />
<glyph unicode="|" d="M293 -393l352 1771q4 15 66 15q20 0 33 -1.5t19 -5t5 -8.5l-352 -1771q-1 -6 -21 -10.5t-43 -4.5q-9 0 -18 1t-16.5 2t-13.5 3t-9 4.5t-2 4.5z" />
<glyph unicode="}" horiz-adv-x="729" d="M-79 -396q-2 1 1 3q51 34 80.5 67t65.5 111.5t70 213.5t79 359q6 28 20.5 52.5t32.5 40t28 22t17 10.5q6 3 8 9.5t-1 9.5q-6 3 -14 9.5t-22 23.5t-17 38.5t1 55.5q45 224 64.5 357t15.5 211.5t-20 112t-54 68.5q-6 6 21 10q22 3 47 3q52 0 72 -13q49 -38 67 -65 q54 -82 33 -304q-14 -149 -61 -382q-6 -19 -2.5 -38t14 -34.5t40.5 -25t77 -9.5q10 0 6 -26q-7 -27 -17 -27q-89 0 -125 -29.5t-45 -79.5q-21 -102 -41 -187t-37.5 -149.5t-38 -117.5t-35.5 -89.5t-36.5 -68t-35 -49t-38 -37t-37.5 -28t-41 -25.5q-26 -13 -77 -13 q-56 0 -65 10z" />
<glyph unicode="~" horiz-adv-x="1112" d="M94 541q8 14 15.5 25t38.5 45t63.5 57t87.5 43t115 20q50 0 89.5 -12.5t65 -30.5t50 -36.5t56 -31t70.5 -12.5q42 0 80.5 10t63.5 23.5t45.5 29.5t28 25t10.5 13q7 10 41 0q14 -5 22.5 -11t5.5 -12q-38 -57 -76 -91q-106 -97 -243 -97q-48 0 -85 12.5t-61 31t-47 36.5 t-57.5 30.5t-79.5 12.5q-42 0 -80.5 -10t-63.5 -24t-44.5 -29.5t-28 -25.5t-10.5 -14q-6 -10 -41 2q-15 5 -24.5 11t-6.5 10z" />
<glyph unicode="&#xa1;" horiz-adv-x="538" d="M0 -403l190 942q0 12 78 12q18 0 30.5 -0.5t24 -1.5t17 -3.5t4.5 -6.5l-188 -942q-3 -13 -80 -13q-17 0 -30.5 0.5t-24.5 2t-16.5 4t-4.5 6.5zM217 883q22 112 139 112t97 -114q-20 -115 -142 -115q-20 0 -36.5 4.5t-33.5 15.5t-23.5 36t-0.5 61z" />
<glyph unicode="&#xa2;" horiz-adv-x="960" d="M69 258.5q-7 93.5 17 226.5q94 479 481 508l35 176q3 13 64 13q7 0 13.5 -0.5t12.5 -1t11.5 -1t9.5 -2t7 -2.5t4 -2.5t1 -3.5l-35 -178q34 -4 69.5 -12t75.5 -23t62 -40t16 -56l-34 -174q-3 -12 -33 -12q-13 0 -22.5 3t-8.5 9q21 93 -18 156.5t-121 81.5l-172 -863 q83 14 144 70t93 150q3 8 43 8q8 0 15 -0.5t13 -1.5t9 -2.5t2 -3.5q-48 -146 -132 -218t-204 -86l-34 -170q-3 -14 -66 -14q-11 0 -20 0.5t-18.5 2t-14.5 4.5t-4 7l35 168q-84 7 -144.5 37.5t-102.5 91.5t-49 154.5zM274 492q-79 -388 107 -429l172 863q-43 -9 -79.5 -33.5 t-74 -72.5t-69.5 -130.5t-56 -197.5z" />
<glyph unicode="&#xa3;" horiz-adv-x="1105" d="M-4 31q2 11 7 19.5t11 8.5q57 0 94.5 8.5t57.5 27t28.5 36.5t14.5 47l90 451h-170q-9 0 -2 61q12 60 25 60h63q110 0 131 116l37 187q38 189 138.5 268.5t266.5 79.5q67 0 131 -13t109 -45t37 -77l-37 -174q-3 -11 -35 -11q-12 0 -19.5 2.5t-6.5 8.5q25 125 -31.5 185 t-159.5 60q-90 0 -136 -66t-77 -218l-59 -303h205q12 0 2 -62q-9 -59 -25 -59h-55q-86 0 -123.5 -26.5t-48.5 -80.5l-68 -340q-8 -24 -5.5 -45t14 -36.5t46 -25t91.5 -9.5h172q62 0 107 43t95 163q5 13 33 13q10 0 21 -3t8 -10q-4 -9 -42.5 -129.5t-39.5 -128.5 q-8 -14 -23 -14h-864q-12 0 -8 31z" />
<glyph unicode="&#xa5;" horiz-adv-x="1308" d="M180 1348q1 12 6.5 21t10.5 9h522q5 0 7.5 -10.5t0.5 -17.5q-7 -33 -18 -33q-55 0 -86.5 -10t-39 -29.5t-6.5 -35t9 -40.5l153 -463q4 -12 20.5 -11.5t26.5 13.5l340 461q20 26 27.5 45t3.5 36t-31 25.5t-77 8.5q-4 0 -6.5 10.5t-0.5 20.5q9 30 19 30h385q5 0 6.5 -12 t-0.5 -16q0 -7 -5.5 -20t-10.5 -13q-91 0 -142 -30t-92 -85l-233 -311h143q16 0 4 -62q-11 -61 -24 -61h-205q-14 -19 -55.5 -75.5t-61.5 -80.5h291q12 0 0 -61q-11 -62 -27 -62h-293l-63 -311q-4 -21 -5 -35t5 -31t21.5 -27t47 -17t78.5 -7q5 0 5.5 -11.5t-1.5 -16.5 q0 -9 -4.5 -21t-9.5 -12h-532q-6 0 -8.5 10.5t-0.5 20.5q2 9 8 19.5t11 10.5q47 0 81 7t53 17t32 27.5t17 31t9 34.5l64 311h-293q-13 0 -2 62q14 61 25 61h288l-51 156h-205q-12 0 -2 61q14 62 25 62h141l-104 311q-11 36 -28 59t-56.5 39.5t-100.5 16.5q-10 0 -6 31z" />
<glyph unicode="&#xa6;" d="M293 -393l158 788q0 15 65 15q60 0 57 -15l-157 -788q-1 -6 -21 -10.5t-43 -4.5q-9 0 -18 1t-16.5 2t-13.5 3t-9 4.5t-2 4.5zM496 629l149 749q4 15 66 15q20 0 33 -1.5t19 -5t5 -8.5l-150 -749q0 -6 -19.5 -10.5t-43.5 -4.5q-23 0 -41 4.5t-18 10.5z" />
<glyph unicode="&#xa7;" horiz-adv-x="894" d="M6 88l33 174q2 12 33 12q13 0 21 -2.5t7 -9.5q-14 -66 16.5 -118t86 -77.5t121.5 -25.5q214 0 249 178q11 58 -45.5 108.5t-162.5 104.5q-21 11 -35.5 19t-35 20t-34.5 22t-31 24t-28.5 27t-23.5 29.5t-19 34t-11.5 37t-4.5 42t5 46.5q9 45 27.5 84t35.5 61t37.5 40 t28 22.5t13.5 7.5q-83 83 -62 187q54 264 385 264q118 0 199 -30.5t70 -86.5l-25 -131q-2 -10 -35 -10q-13 0 -19 2t-5 8q15 80 -36 134t-147 54q-40 0 -71.5 -6t-64 -22.5t-55 -49.5t-32.5 -81q-11 -55 41 -103t160 -100q264 -127 227 -313q-10 -48 -27.5 -89t-35.5 -64.5 t-34.5 -40.5t-27.5 -24l-10 -6q3 -3 8 -8.5t18 -24t19.5 -37.5t12.5 -49t-3 -59q-14 -69 -43.5 -120.5t-66.5 -82t-88 -48.5t-100 -24.5t-109 -6.5q-84 0 -161 13.5t-124.5 39t-40.5 55.5zM301 770q-7 -33 8.5 -62t50.5 -55t70.5 -46t86.5 -47t81 -46q5 4 13.5 12t26.5 37 t26 64q7 33 -10.5 64.5t-54 59.5t-72 49t-84 46.5t-70.5 40.5q-6 -4 -16 -12.5t-29.5 -38.5t-26.5 -66z" />
<glyph unicode="&#xa8;" horiz-adv-x="1083" d="M364.5 1231q-5.5 20 2.5 49q19 106 135 106q110 0 90 -108q-23 -109 -135 -109q-14 0 -27 2t-28.5 8.5t-23.5 19t-13.5 32.5zM783.5 1221.5q-6.5 23.5 0.5 58.5q22 106 138 106q110 0 88 -108q-6 -34 -22 -57.5t-37 -33.5t-38.5 -14t-35.5 -4q-20 0 -36 4t-33.5 14.5 t-24 34z" />
<glyph unicode="&#xa9;" horiz-adv-x="1269" d="M164 891q28 138 123.5 255t232.5 185t283 68q147 0 257.5 -68t158.5 -185t20 -255q-27 -138 -122 -255.5t-232.5 -186t-284.5 -68.5q-145 0 -255 68.5t-159 186t-22 255.5zM231 891q-24 -121 18 -223.5t138.5 -162t224.5 -59.5q195 0 360 130.5t202 314.5q18 90 -3 172 t-72.5 141t-131.5 94t-176 35q-195 0 -359 -129.5t-201 -312.5zM414 786.5q1 47.5 12 104.5q66 332 350 332q31 0 64 -5t64 -15t49 -28t14 -40l-23 -115q-3 -6 -24 -6q-17 0 -17 6q15 76 -23.5 119t-111.5 43q-23 0 -42 -4t-45.5 -21t-47.5 -46.5t-43 -84.5t-37 -131 q-15 -75 -15 -129.5t9.5 -83.5t30 -45.5t38.5 -20.5t43 -4q74 0 125.5 34t59.5 112q0 6 39 6q24 0 24 -6q-67 -201 -258 -201q-21 0 -39 1.5t-43 6t-45 15t-41.5 26t-35 41.5t-23 59t-8.5 80.5z" />
<glyph unicode="&#xaa;" horiz-adv-x="622" d="M79.5 660q0.5 23 4.5 53q36 182 281 182h10q35 0 57 5t33 17t14.5 20.5t7.5 27.5l5 16q28 135 -89 135q-56 0 -87 -22.5t-35 -46.5l-5 -29q-7 -30 -26 -41.5t-37 -11.5q-8 0 -15.5 2.5t-15.5 8.5t-12 20t0 34q8 40 72 80.5t170 40.5q22 0 42.5 -2t46.5 -8.5t44 -18 t34.5 -30.5t19 -46.5t-2.5 -64.5l-64 -322q-3 -18 -2 -33.5t19.5 -25.5t56.5 -10q4 0 4 -17q0 -6 -4 -13t-8 -7h-143q-22 0 -33 11t-4 44q-58 -65 -154 -65q-15 0 -28 0.5t-32.5 3.5t-34 8t-32.5 13t-28 20.5t-20 30.5t-9.5 41zM190 650q7 -26 24 -37t31.5 -15t28.5 -4 q19 0 33.5 2.5t38.5 16t42.5 38t39 73t35.5 116.5l4 18h-111q-80 0 -116 -37.5t-50 -107.5q-7 -37 0 -63z" />
<glyph unicode="&#xab;" horiz-adv-x="1060" d="M129 594q-16 20 8 41l432 362q12 12 41 -28q34 -40 23 -49l-363 -306q234 -319 238 -325q7 -10 -41 -49q-46 -38 -55 -29q-1 4 -137.5 188t-145.5 195zM493 614q2 13 13 21l432 362q10 10 43 -28q33 -39 20 -49l-360 -306q232 -319 236 -325q7 -10 -41 -49 q-46 -37 -54 -29l-284 383q-7 7 -5 20z" />
<glyph unicode="&#xac;" horiz-adv-x="1138" d="M94 553q13 55 21 60q2 1 4 1h936q-105 -541 -107 -551q-3 -14 -65 -14q-63 0 -60 14l88 429h-815q-12 0 -2 61z" />
<glyph unicode="&#xad;" horiz-adv-x="749" d="M102 627q14 61 27 61h547q15 0 0 -61q-11 -62 -25 -62h-547q-13 0 -2 62z" />
<glyph unicode="&#xae;" horiz-adv-x="1269" d="M164 891q28 138 123.5 255t232.5 185t283 68t256.5 -68t159.5 -185t22 -255q-28 -138 -123.5 -255t-233 -185t-284.5 -68q-145 0 -255 68t-159 185t-22 255zM229 891q-24 -121 19 -223.5t139.5 -162t224.5 -59.5q195 0 360 130.5t202 314.5q18 90 -3 172t-72.5 141 t-131.5 94t-176 35q-195 0 -360 -129.5t-202 -312.5zM395 616q0 4 3 8.5t5 4.5q35 0 54.5 8t25 17.5t9.5 27.5l92 461q2 14 2 25.5t-17 18.5t-53 7q-2 0 -2 12q0 17 6 17h277q197 0 166 -170q-30 -148 -183 -166q43 -16 54 -72q2 -10 9.5 -37.5t16 -58t10.5 -37.5 q7 -28 21 -40.5t53 -12.5q2 0 2.5 -2.5t-0.5 -5.5v-3q0 -16 -8 -16h-100q-11 0 -24.5 5t-16.5 16l-47 186q-9 33 -24 50t-29.5 20.5t-39.5 3.5h-41l-38 -201q-2 -15 -2 -26.5t16.5 -19t52.5 -7.5q2 0 2 -11q0 -16 -8 -16h-240q-4 0 -4 14zM625 911h80q46 0 79.5 13.5 t51.5 38t26.5 44.5t14.5 46q29 141 -113 141h-43q-43 0 -51 -53z" />
<glyph unicode="&#xaf;" d="M410 1317q14 61 26 61h547q4 0 6 -8t1 -22.5t-5 -30.5q-11 -62 -24 -62h-549q-13 0 -2 62z" />
<glyph unicode="&#xb0;" horiz-adv-x="811" d="M360 1274q15 82 72 127t156 45q95 0 131 -44t18 -132q-32 -170 -219 -170q-190 0 -158 174zM463 1276q-12 -61 5 -85t64 -24q45 0 69 23.5t36 85.5q12 56 -3.5 79t-60.5 23t-72 -22t-38 -80z" />
<glyph unicode="&#xb1;" horiz-adv-x="1046" d="M145 344q11 62 25 62h649q13 0 2 -62q-11 -61 -24 -61h-650q-17 0 -2 61zM258 918q12 61 25 61h266l47 248q3 12 66 12q62 0 59 -10l-49 -250h262q14 0 2 -61q-11 -62 -27 -62h-262l-49 -248q-3 -14 -66 -14q-14 0 -24 0.5t-18.5 2t-13 4.5t-3.5 7l49 248h-262 q-10 0 -2 62z" />
<glyph unicode="&#xb2;" horiz-adv-x="647" d="M41 560.5q-2 7.5 6 14.5l25 23q25 23 60 56.5t83 80.5t96.5 95t96.5 101t86 98.5t64.5 85.5t31.5 65q10 41 4 70.5t-17.5 48t-32 29t-39.5 14.5t-40 4q-77 0 -136.5 -48t-66.5 -98q0 -6 -18 -6q-19 0 -19 6l19 92q8 43 74.5 72t160.5 29q258 0 213 -224 q-9 -46 -68.5 -127t-149.5 -176t-132.5 -137.5t-89.5 -87.5l-4 -4q-8 -6 -5 -13.5t13 -7.5h213q25 0 40 3.5t34.5 22t36.5 54.5q2 6 20 6h4t5.5 -0.5t5.5 -2t1 -3.5l-45 -133q-3 -10 -16 -10h-504q-8 0 -10 7.5z" />
<glyph unicode="&#xb3;" horiz-adv-x="647" d="M88 637l25 119q0 6 20 6q18 -1 17 -6q-5 -26 -5 -46.5t7.5 -44t25.5 -39t54 -26t87 -10.5q151 0 187 174q8 43 9 75t-6.5 52.5t-17.5 33.5t-27.5 19t-32.5 8t-36 2h-65q-3 0 -3.5 10t1.5 17q0 11 4 20t8 9h66q27 0 46.5 5t42.5 21.5t41 53.5t29 94q7 36 8 63.5t-6 44.5 t-16 27.5t-25 15.5t-28.5 6.5t-30.5 1.5q-85 0 -143.5 -49t-67.5 -96q-2 -6 -18 -6h-4h-4.5t-4 0.5t-4 2t-0.5 3.5q1 9 8 43t9 47q8 41 73 72t166 31q21 0 38.5 -1t39.5 -4.5t38 -10t34 -17.5t27.5 -26.5t19 -37t7.5 -50t-7 -64.5q-30 -140 -129 -183q-8 -3 -8.5 -8t6.5 -8 q107 -50 73 -221q-43 -221 -307 -221q-113 0 -171 27t-50 71z" />
<glyph unicode="&#xb4;" d="M592 1180l270 288q7 7 44 -18l9 -6q20 -15 30 -27.5t5 -17.5l-268 -289q-8 -10 -53 25q-46 36 -37 45z" />
<glyph unicode="&#xb5;" horiz-adv-x="1179" d="M-147 -362q4 28 18 28q48 0 80 9t49 27.5t24.5 36.5t12.5 46l237 1194h187l-131 -655q-49 -252 137 -252q39 0 78.5 14t79.5 43.5t72.5 86t47.5 132.5l125 631h183l-160 -801q-11 -59 12 -89t111 -30q12 0 4 -28q-4 -31 -16 -31h-248q-14 0 -23 1.5t-20.5 7t-15 16 t-6.5 29t5 46.5q-111 -120 -297 -120q-39 0 -72.5 6t-46.5 12l-14 6l-45 -219q-7 -24 -5 -45.5t12 -38t39 -26t77 -9.5q14 0 6 -28q-8 -31 -16 -31h-475q-10 0 -6 31z" />
<glyph unicode="&#xb6;" horiz-adv-x="1239" d="M137 -248q4 31 17 31q55 0 93 9t58 26.5t29 36t14 45.5l139 692q4 29 5.5 52.5t-19.5 38.5t-67 15h-54q-256 0 -190 340q33 163 117 251.5t217 88.5h821q13 0 8 -30q-10 -31 -20 -31q-97 0 -139.5 -28t-53.5 -89l-260 -1300q-7 -23 -4 -44t14.5 -37.5t45.5 -26t89 -9.5 q7 0 9.5 -10.5t-0.5 -20.5q-2 -10 -7.5 -19t-11.5 -9h-846q-11 0 -4 28zM481 -100q-11 -53 7.5 -85t86.5 -32q121 0 146 115l260 1302q12 61 -11 89t-87 28q-65 0 -97.5 -28t-44.5 -89z" />
<glyph unicode="&#xb7;" horiz-adv-x="669" d="M239.5 594q-5.5 20 2.5 49q20 109 135 109q110 0 90 -111q-23 -109 -135 -109q-14 0 -27 2t-28.5 8.5t-23.5 19t-13.5 32.5z" />
<glyph unicode="&#xb8;" d="M197 -354q7 35 18 32q60 -20 111 -20q31 0 48 3t39.5 20t39.5 51q49 98 -43 98l-115 -6l113 176h106l-63 -104q32 0 56.5 -2.5t50 -13t37.5 -27.5t11 -49t-22 -76q-14 -30 -33 -53.5t-35.5 -38t-42 -25t-41.5 -15.5t-45.5 -7.5t-42 -2.5h-43.5t-100 23q-10 5 -4 37z" />
<glyph unicode="&#xb9;" horiz-adv-x="497" d="M109 571q6 19 12 19q63 0 86.5 17.5t30.5 51.5l110 555h-135q-4 0 -6 6.5t0 12.5q4 20 12 20q23 0 53.5 6.5t65 20t61 40t33.5 60.5q2 6 35 6h8.5t9.5 -0.5t9 -2t2 -3.5l-144 -721q-7 -35 9.5 -52t78.5 -17q4 0 4 -17q0 -5 -3.5 -12.5t-6.5 -7.5h-319q-6 0 -6 18z" />
<glyph unicode="&#xba;" horiz-adv-x="616" d="M113 844q59 305 319 305q253 0 191 -309q-61 -303 -316 -303q-256 0 -194 307zM210 722q-1 -53 7 -81t25 -44t33 -20t38 -4q27 0 49 8t50.5 33t53 84t42.5 148q15 73 16 125t-7 79t-25.5 42.5t-32 18.5t-35.5 3q-20 0 -36.5 -3t-41.5 -18.5t-44.5 -42t-40.5 -78.5 t-36 -124q-14 -73 -15 -126z" />
<glyph unicode="&#xbb;" horiz-adv-x="1060" d="M80 289l362 305q-231 320 -235 326q-6 10 39 49q47 36 55 28l285 -383q13 -22 -8 -41l-435 -362q-9 -9 -41 29q-34 40 -22 49zM451 289l362 305q-234 320 -240 326q-4 11 43 49q45 37 54 28l284 -383q7 -7 5 -20t-13 -21l-432 -362q-11 -11 -41 29q-36 39 -22 49z" />
<glyph unicode="&#xbc;" horiz-adv-x="1443" d="M104 571q6 19 13 19q63 0 86 17t30 52l111 555h-135q-4 0 -6 6.5t0 12.5q4 20 12 20q23 0 53.5 6.5t65 20t61 40t33.5 60.5q2 6 35 6h8.5t9.5 -0.5t9 -2t2 -3.5l-144 -721q-7 -35 9.5 -52t78.5 -17q4 0 4 -17q0 -5 -3.5 -12.5t-6.5 -7.5h-319q-7 0 -7 18zM196 -3q0 1 1 3 l946 1380q9 11 65 11q16 0 26.5 -0.5t21 -1.5t14 -4t0.5 -7l-948 -1378q-6 -8 -19 -10t-49 -2q-58 0 -58 9zM720.5 218q-1.5 5 2.5 11q2 3 231.5 298.5t233.5 299.5q7 7 53 7q53 -1 53 -7l-106 -532h133q8 0 0 -41q-9 -41 -16 -41h-134l-20 -107q-3 -19 -2 -34.5t23 -25 t67 -9.5q3 0 3.5 -7.5t-1.5 -11.5q0 -18 -10 -18h-311q-3 0 -5 5.5t0 10.5q5 21 11 21q35 0 58 5t34.5 16.5t15.5 21t8 26.5l21 107h-336q-5 0 -6.5 5zM836 304.5q4 -9.5 14 -9.5h229l86 432q1 9 -2 9.5t-8 -5.5q-4 -4 -81.5 -103.5t-155.5 -201.5t-80 -104q-6 -8 -2 -17.5z " />
<glyph unicode="&#xbd;" horiz-adv-x="1521" d="M104 571q6 19 13 19q63 0 86 17t30 52l111 555h-135q-4 0 -6 6.5t0 12.5q4 20 12 20q23 0 53.5 6.5t65 20t61 40t33.5 60.5q2 6 35 6h8.5t9.5 -0.5t9 -2t2 -3.5l-144 -721q-7 -35 9.5 -52t78.5 -17q4 0 4 -17q0 -5 -3.5 -12.5t-6.5 -7.5h-319q-7 0 -7 18zM194 -3q0 1 1 3 l946 1380q9 11 65 11q16 0 26.5 -0.5t21 -1.5t14 -4t0.5 -7t-473.5 -687.5t-475.5 -690.5q-6 -8 -19 -10t-48 -2q-58 0 -58 9zM787 8q-3 8 4 15q15 12 88 81.5t176 171t186.5 203t93.5 148.5q10 41 4 70.5t-17.5 48t-32.5 29t-39.5 14.5t-39.5 4q-79 0 -138 -47.5t-62 -98.5 q0 -6 -23 -6q-18 0 -18 6l20 92q8 43 74.5 72t161.5 29q258 0 213 -224q-9 -49 -78.5 -140.5t-151 -176.5t-145.5 -147.5t-72 -67.5q-7 -6 -4 -13.5t12 -7.5h213q25 0 40.5 3.5t36 22t36.5 54.5q3 7 21 7q1 0 3.5 -0.5t6 -1t5.5 -2t1 -3.5q0 -1 -7.5 -22.5t-15.5 -44.5 t-15 -43.5t-7 -22.5q-3 -10 -14 -10h-504q-9 0 -12 8z" />
<glyph unicode="&#xbe;" horiz-adv-x="1509" d="M98 637l25 119q0 6 20 6q18 -1 17 -6q-3 -23 -5 -46t7.5 -44.5t26.5 -38.5t53.5 -27t87.5 -10q150 0 186 174q8 43 9 75t-6.5 52.5t-17.5 33.5t-27 19t-32 8t-36 2h-66q-3 0 -3.5 10t1.5 17q0 11 4 20t8 9h66q27 0 46.5 5t42.5 21.5t41 53.5t29 94q7 36 8 63.5t-6 44.5 t-16 27.5t-25 15.5t-28.5 6.5t-30.5 1.5q-85 0 -143.5 -49t-67.5 -96q-2 -6 -18 -6h-4h-4.5t-4 0.5t-4 2t-0.5 3.5q1 9 8 43t9 47q8 41 73 72t166 31q21 0 38.5 -1t39.5 -4.5t38 -10t34 -17.5t27.5 -26.5t19 -37t7.5 -50t-7 -64.5q-30 -140 -129 -183q-8 -3 -8.5 -8t6.5 -8 q108 -51 74 -221q-43 -221 -308 -221q-113 0 -171 27t-50 71zM262 -3q0 1 2 3l944 1380q9 11 68 11q33 0 48.5 -2.5t10.5 -10.5l-946 -1378q-10 -12 -70 -12q-57 0 -57 9zM779.5 218q-1.5 5 2.5 11q2 3 231.5 298.5t233.5 299.5q7 7 53 7q54 -1 54 -7l-107 -532h133 q8 0 0 -41q-9 -41 -16 -41h-133l-21 -107q-3 -19 -2 -34.5t23 -25t67 -9.5q3 0 3.5 -7.5t-1.5 -11.5q0 -18 -10 -18h-311q-3 0 -4.5 6t0.5 10q5 21 10 21q46 0 72 11t33 23.5t12 34.5l20 107h-336q-5 0 -6.5 5zM895 304.5q4 -9.5 14 -9.5h230l86 432q1 9 -2.5 9.5t-8.5 -5.5 q-4 -4 -81.5 -103.5t-155.5 -201.5t-80 -104q-6 -8 -2 -17.5z" />
<glyph unicode="&#xbf;" horiz-adv-x="860" d="M-82 -174.5q0 41.5 10 90.5q10 54 41 103t73 89t91.5 79.5t99.5 82t93.5 88.5t77 106.5t47.5 129.5q3 12 71 12q17 0 29.5 -0.5t22.5 -1.5t14.5 -3.5t3.5 -6.5q-16 -82 -50 -153t-75.5 -121.5t-89 -94.5t-93.5 -81.5t-84.5 -73t-67.5 -78t-38 -88.5q-26 -127 25.5 -185.5 t146.5 -58.5q122 0 203 70.5t100 169.5q3 12 37 12q16 0 25 -2.5t8 -9.5l-31 -152q-14 -73 -109.5 -121.5t-254.5 -48.5q-30 0 -56 1.5t-56.5 6.5t-55.5 13t-50.5 21.5t-44.5 31.5t-34 43.5t-22 57t-7 73zM457 893q21 104 133 104q54 0 76.5 -25t13.5 -81 q-20 -107 -135 -107q-110 0 -88 109z" />
<glyph unicode="&#xc0;" horiz-adv-x="1421" d="M-76 31q2 8 8 18t13 10q144 0 211 111l735 1210q7 9 16 9q13 0 13 -9q0 -3 46 -285.5t96.5 -589.5t55.5 -339q17 -107 158 -107q14 0 8 -26q-6 -33 -18 -33h-521q-11 0 -6 31q0 8 5.5 18t11.5 10q81 0 122 24.5t31 86.5l-30 229h-326q-61 0 -104 -8.5t-69.5 -26.5 t-39.5 -33t-29 -40q-38 -62 -71 -123q-16 -32 -17 -52.5t15.5 -33.5t42 -18t63.5 -5q14 0 8 -26q-6 -33 -18 -33h-400q-10 0 -10 31zM418 465h289q86 0 120.5 26.5t26.5 83.5q-9 52 -36 241t-30 216q-1 9 -6 12t-11.5 0.5t-12.5 -10.5zM727 1798q-3 4 12 16.5t41 28.5 q60 34 64 25q1 -3 38 -74t75 -142.5t38 -72.5q3 -6 -11.5 -18.5t-39.5 -26.5q-57 -32 -61 -25z" />
<glyph unicode="&#xc1;" horiz-adv-x="1421" d="M-76 31q2 8 8 18t13 10q144 0 211 111l735 1210q7 9 16 9q13 0 13 -9q0 -3 46 -285.5t96.5 -589.5t55.5 -339q17 -107 158 -107q14 0 8 -26q-6 -33 -18 -33h-521q-11 0 -6 31q0 8 5.5 18t11.5 10q81 0 122 24.5t31 86.5l-30 229h-326q-61 0 -104 -8.5t-69.5 -26.5 t-39.5 -33t-29 -40q-38 -62 -71 -123q-16 -32 -17 -52.5t15.5 -33.5t42 -18t63.5 -5q14 0 8 -26q-6 -33 -18 -33h-400q-10 0 -10 31zM418 465h289q86 0 120.5 26.5t26.5 83.5q-9 52 -36 241t-30 216q-1 9 -6 12t-11.5 0.5t-12.5 -10.5zM748 1579l270 289q2 2 4 2.5t5.5 -0.5 t6.5 -2.5t7.5 -4.5t8.5 -5.5t10.5 -7t10.5 -7.5q20 -15 30 -27.5t5 -17.5l-268 -289q-8 -11 -54 25q-45 36 -36 45z" />
<glyph unicode="&#xc2;" horiz-adv-x="1421" d="M-76 31q2 8 8 18t13 10q144 0 211 111l735 1210q7 9 16 9q13 0 13 -9q0 -3 46 -285.5t96.5 -589.5t55.5 -339q17 -107 158 -107q14 0 8 -26q-6 -33 -18 -33h-521q-11 0 -6 31q0 8 5.5 18t11.5 10q81 0 122 24.5t31 86.5l-30 229h-326q-61 0 -104 -8.5t-69.5 -26.5 t-39.5 -33t-29 -40q-38 -62 -71 -123q-16 -32 -17 -52.5t15.5 -33.5t42 -18t63.5 -5q14 0 8 -26q-6 -33 -18 -33h-400q-10 0 -10 31zM418 465h289q86 0 120.5 26.5t26.5 83.5q-9 52 -36 241t-30 216q-1 9 -6 12t-11.5 0.5t-12.5 -10.5zM565 1579q11 8 191 151.5t186 149.5 q28 20 43 0l256 -301q9 -9 -41 -49q-47 -41 -57 -31l-207 240q-295 -238 -301 -242q-10 -7 -47 33q-31 41 -23 49z" />
<glyph unicode="&#xc3;" horiz-adv-x="1421" d="M-76 31q2 8 8 18t13 10q144 0 211 111l735 1210q7 9 16 9q13 0 13 -9q0 -3 46 -285.5t96.5 -589.5t55.5 -339q17 -107 158 -107q14 0 8 -26q-6 -33 -18 -33h-521q-11 0 -6 31q0 8 5.5 18t11.5 10q81 0 122 24.5t31 86.5l-30 229h-326q-61 0 -104 -8.5t-69.5 -26.5 t-39.5 -33t-29 -40q-38 -62 -71 -123q-16 -32 -17 -52.5t15.5 -33.5t42 -18t63.5 -5q14 0 8 -26q-6 -33 -18 -33h-400q-10 0 -10 31zM418 465h289q86 0 120.5 26.5t26.5 83.5q-9 52 -36 241t-30 216q-1 9 -6 12t-11.5 0.5t-12.5 -10.5zM492 1599q7 15 12.5 25t31 46t50.5 59 t66.5 44t84.5 21q45 0 83.5 -19t61.5 -41.5t55.5 -41.5t66.5 -19q86 0 157 107q3 6 15 6t26 -6q15 -3 24 -10t5 -13l-5 -8q-4 -8 -10 -19t-16 -26t-23 -30.5t-28 -31.5t-34 -30t-39 -25t-45 -17.5t-50 -6.5q-37 0 -68 12.5t-53 30t-42.5 35t-45.5 30t-53 12.5 q-15 0 -29.5 -3.5t-27 -9.5t-24 -13t-21.5 -16t-18 -16.5t-15 -16.5t-11 -14.5t-8 -11.5l-4 -5q-6 -10 -41 2q-16 5 -23.5 10t-4.5 10z" />
<glyph unicode="&#xc4;" horiz-adv-x="1421" d="M-76 31q2 8 8 18t13 10q144 0 211 111l735 1210q7 9 16 9q13 0 13 -9q0 -3 46 -285.5t96.5 -589.5t55.5 -339q17 -107 158 -107q14 0 8 -26q-6 -33 -18 -33h-521q-11 0 -6 31q0 8 5.5 18t11.5 10q81 0 122 24.5t31 86.5l-30 229h-326q-61 0 -104 -8.5t-69.5 -26.5 t-39.5 -33t-29 -40q-38 -62 -71 -123q-16 -32 -17 -52.5t15.5 -33.5t42 -18t63.5 -5q14 0 8 -26q-6 -33 -18 -33h-400q-10 0 -10 31zM418 465h289q86 0 120.5 26.5t26.5 83.5q-9 52 -36 241t-30 216q-1 9 -6 12t-11.5 0.5t-12.5 -10.5zM633 1679q20 107 135 107 q110 0 90 -109q-22 -108 -135 -108q-112 0 -90 110zM1051 1679q22 107 137 107q14 0 26.5 -2t28 -8.5t23 -18.5t13 -31.5t-2.5 -48.5q-8 -44 -34.5 -70t-49.5 -32t-49 -6q-114 0 -92 110z" />
<glyph unicode="&#xc5;" horiz-adv-x="1421" d="M-76 31q2 8 8 18t13 10q144 0 211 111l735 1210q7 9 16 9q13 0 13 -9q0 -3 46 -285.5t96.5 -589.5t55.5 -339q17 -107 158 -107q14 0 8 -26q-6 -33 -18 -33h-521q-11 0 -6 31q0 8 5.5 18t11.5 10q81 0 122 24.5t31 86.5l-30 229h-326q-61 0 -104 -8.5t-69.5 -26.5 t-39.5 -33t-29 -40q-38 -62 -71 -123q-16 -32 -17 -52.5t15.5 -33.5t42 -18t63.5 -5q14 0 8 -26q-6 -33 -18 -33h-400q-10 0 -10 31zM418 465h289q86 0 120.5 26.5t26.5 83.5q-9 52 -36 241t-30 216q-1 9 -6 12t-11.5 0.5t-12.5 -10.5zM760 1673q32 172 229 172 q185 0 150 -176q-32 -170 -221 -170q-190 0 -158 174zM864 1675q-12 -61 5 -84.5t63 -23.5q45 0 69 23t37 85q10 57 -4 80t-59 23t-72.5 -22.5t-38.5 -80.5z" />
<glyph unicode="&#xc6;" horiz-adv-x="1957" d="M-104 31q2 11 7 19.5t11 8.5q117 0 219 113l1075 1206h750q12 0 16 -16q-1 -5 -9.5 -127.5t-8.5 -128.5q0 -12 -33 -12q-29 0 -29 12q-4 120 -31 163.5t-89 43.5h-295q-49 0 -75.5 -28.5t-37.5 -86.5l-90 -450h303q27 0 47.5 4.5t43 19t39 46t24.5 79.5q0 5 11 8.5 t21 3.5q6 0 12.5 -1.5t12 -4t4.5 -6.5l-72 -362q-1 -5 -12.5 -9t-19.5 -4q-12 0 -21 3t-8 10q7 33 7 58t-6 40.5t-14.5 25.5t-23 15t-27 6.5t-30.5 1.5h-195q-57 0 -90 -35.5t-51 -124.5q-23 -123 -68 -340q-12 -64 3 -91.5t65 -27.5h311q59 0 105 43t98 166q4 11 33 11 q5 0 9.5 -0.5t9.5 -1.5t7.5 -3t1.5 -6q-3 -8 -43 -129.5t-41 -128.5q-6 -14 -20 -14h-938q-5 0 -7 9.5t1 21.5q4 28 16 28q57 0 95 9t57.5 27.5t28 35.5t14.5 45l45 223h-412q-104 0 -157.5 -27.5t-100.5 -82.5l-106 -117q-102 -113 53 -113q11 0 6 -26q0 -12 -4.5 -22.5 t-11.5 -10.5h-377q-12 0 -8 31zM498 463h372q51 0 85.5 8.5t53 25.5t27 34.5t13.5 43.5l125 627q3 15 -5.5 17.5t-19.5 -9.5z" />
<glyph unicode="&#xc7;" horiz-adv-x="1277" d="M115.5 475q4.5 97 27.5 213q27 136 69.5 245.5t90 182.5t108.5 126.5t116 83t121.5 47t116 22t107.5 4.5q177 0 294 -45t104 -115l-41 -213q-3 -10 -33 -10q-3 0 -7.5 0.5t-10 1.5t-9 3t-2.5 5q10 61 4 107.5t-31 80.5t-56 57t-72 36.5t-78.5 19.5t-75.5 6 q-37 0 -66.5 -3t-74 -17.5t-80.5 -39.5t-79 -73.5t-78 -115t-69 -168t-59 -228.5q-21 -106 -26.5 -193.5t2.5 -150t28.5 -110.5t47 -77.5t61.5 -48t69.5 -25.5t73.5 -7q56 0 102 6t99 24.5t95 49.5t81 85.5t64 127.5q2 8 43 8h11t13 -1t11.5 -2.5t2.5 -4.5 q-119 -389 -540 -389l-49 -80q32 0 56.5 -2.5t49.5 -12.5t37 -27.5t10.5 -49t-22.5 -74.5q-14 -31 -32.5 -54.5t-36 -39t-42 -26t-42 -15.5t-46 -7.5t-43 -3t-43.5 -0.5t-98 23q-14 7 -4 39q7 36 16 33q1 0 9.5 -3t19 -5.5t24.5 -5.5t30 -5t30 -2q30 0 47.5 3t41 20t40.5 51 q49 98 -41 98l-119 -6l98 156q-51 5 -94 16.5t-88 35.5t-78.5 59t-60 89.5t-38 124t-7 166.5z" />
<glyph unicode="&#xc8;" horiz-adv-x="1206" d="M-25 29q2 11 8 21.5t13 10.5q96 0 137 27t53 90l207 1024q12 65 -20 91t-127 26q-13 0 -6 29q5 30 18 30h918q16 0 16 -14l-16 -258q0 -5 -11.5 -8.5t-21.5 -3.5q-29 0 -29 12q-4 120 -31 164.5t-90 44.5h-297q-46 0 -72 -27.5t-38 -91.5l-90 -446h303q65 0 102.5 33 t50.5 114q0 12 33 12q29 0 29 -12l-72 -360q-3 -13 -35 -13q-10 0 -19.5 3.5t-8.5 9.5q17 84 -5.5 115.5t-87.5 31.5h-180q-67 0 -101.5 -32.5t-53.5 -127.5l-68 -340q-13 -63 3 -90.5t63 -27.5h313q62 0 106 46.5t95 159.5q7 13 32 13q5 0 12 -1t13.5 -4t5.5 -8l-86 -256 q-3 -16 -20 -16h-936q-9 0 -9 29zM664 1798q-3 4 12 16.5t41 28.5q59 34 63 25q1 -3 38.5 -74t75.5 -142.5t38 -72.5q3 -6 -11.5 -18.5t-39.5 -26.5q-60 -35 -62 -25z" />
<glyph unicode="&#xc9;" horiz-adv-x="1206" d="M-25 29q2 11 8 21.5t13 10.5q96 0 137 27t53 90l207 1024q12 65 -20 91t-127 26q-13 0 -6 29q5 30 18 30h918q16 0 16 -14l-16 -258q0 -5 -11.5 -8.5t-21.5 -3.5q-29 0 -29 12q-4 120 -31 164.5t-90 44.5h-297q-46 0 -72 -27.5t-38 -91.5l-90 -446h303q65 0 102.5 33 t50.5 114q0 12 33 12q29 0 29 -12l-72 -360q-3 -13 -35 -13q-10 0 -19.5 3.5t-8.5 9.5q17 84 -5.5 115.5t-87.5 31.5h-180q-67 0 -101.5 -32.5t-53.5 -127.5l-68 -340q-13 -63 3 -90.5t63 -27.5h313q62 0 106 46.5t95 159.5q7 13 32 13q5 0 12 -1t13.5 -4t5.5 -8l-86 -256 q-3 -16 -20 -16h-936q-9 0 -9 29zM641 1579l270 289q1 1 3 1.5t4 0.5t4.5 -1t5.5 -2.5l6 -3t7 -4.5t7 -5t8.5 -5.5t8.5 -5.5q45 -34 34 -45l-268 -289q-8 -10 -53 25q-46 36 -37 45z" />
<glyph unicode="&#xca;" horiz-adv-x="1206" d="M-25 29q2 11 8 21.5t13 10.5q96 0 137 27t53 90l207 1024q12 65 -20 91t-127 26q-13 0 -6 29q5 30 18 30h918q16 0 16 -14l-16 -258q0 -5 -11.5 -8.5t-21.5 -3.5q-29 0 -29 12q-4 120 -31 164.5t-90 44.5h-297q-46 0 -72 -27.5t-38 -91.5l-90 -446h303q65 0 102.5 33 t50.5 114q0 12 33 12q29 0 29 -12l-72 -360q-3 -13 -35 -13q-10 0 -19.5 3.5t-8.5 9.5q17 84 -5.5 115.5t-87.5 31.5h-180q-67 0 -101.5 -32.5t-53.5 -127.5l-68 -340q-13 -63 3 -90.5t63 -27.5h313q62 0 106 46.5t95 159.5q7 13 32 13q5 0 12 -1t13.5 -4t5.5 -8l-86 -256 q-3 -16 -20 -16h-936q-9 0 -9 29zM459 1579q11 8 191 151.5t186 149.5q28 20 43 0l256 -301q9 -9 -41 -49q-48 -41 -58 -31l-207 240q-295 -238 -301 -242q-10 -7 -47 33q-30 41 -22 49z" />
<glyph unicode="&#xcb;" horiz-adv-x="1206" d="M-25 29q2 11 8 21.5t13 10.5q96 0 137 27t53 90l207 1024q12 65 -20 91t-127 26q-13 0 -6 29q5 30 18 30h918q16 0 16 -14l-16 -258q0 -5 -11.5 -8.5t-21.5 -3.5q-29 0 -29 12q-4 120 -31 164.5t-90 44.5h-297q-46 0 -72 -27.5t-38 -91.5l-90 -446h303q65 0 102.5 33 t50.5 114q0 12 33 12q29 0 29 -12l-72 -360q-3 -13 -35 -13q-10 0 -19.5 3.5t-8.5 9.5q17 84 -5.5 115.5t-87.5 31.5h-180q-67 0 -101.5 -32.5t-53.5 -127.5l-68 -340q-13 -63 3 -90.5t63 -27.5h313q62 0 106 46.5t95 159.5q7 13 32 13q5 0 12 -1t13.5 -4t5.5 -8l-86 -256 q-3 -16 -20 -16h-936q-9 0 -9 29zM498 1679q20 107 135 107q110 0 90 -109q-23 -108 -135 -108t-90 110zM915 1679q22 107 138 107q14 0 26.5 -2t28 -8.5t23 -18.5t13 -31.5t-2.5 -48.5q-8 -44 -34.5 -70t-49.5 -32t-49 -6q-115 0 -93 110z" />
<glyph unicode="&#xcc;" horiz-adv-x="710" d="M-29 29q0 11 6 20.5t13 9.5q102 0 141 28.5t51 90.5l207 1024q7 22 4 43t-14.5 37t-46 25.5t-90.5 9.5q-7 0 -9 11t0 20q2 10 7.5 20t11.5 10h534q11 0 5 -28q0 -8 -5.5 -20.5t-11.5 -12.5q-100 0 -140.5 -27.5t-51.5 -87.5l-207 -1024q-7 -21 -4 -42.5t14 -38.5 t46 -27.5t93 -10.5q11 0 4 -28q-8 -31 -16 -31h-532q-6 0 -8.5 9.5t-0.5 19.5zM416 1798q-3 4 12 16.5t41 28.5q59 34 63 25q1 -3 38.5 -74t75.5 -142.5t38 -72.5q3 -6 -11.5 -18.5t-39.5 -26.5q-60 -35 -62 -25z" />
<glyph unicode="&#xcd;" horiz-adv-x="710" d="M-29 29q0 11 6 20.5t13 9.5q102 0 141 28.5t51 90.5l207 1024q7 22 4 43t-14.5 37t-46 25.5t-90.5 9.5q-7 0 -9 11t0 20q2 10 7.5 20t11.5 10h534q11 0 5 -28q0 -8 -5.5 -20.5t-11.5 -12.5q-100 0 -140.5 -27.5t-51.5 -87.5l-207 -1024q-7 -21 -4 -42.5t14 -38.5 t46 -27.5t93 -10.5q11 0 4 -28q-8 -31 -16 -31h-532q-6 0 -8.5 9.5t-0.5 19.5zM397 1579l271 289q2 2 4 2.5t5.5 -0.5t6.5 -2.5t7.5 -4.5t8.5 -5.5t10.5 -7t10.5 -7.5q20 -15 30 -27.5t5 -17.5l-269 -289q-8 -10 -53 25q-46 36 -37 45z" />
<glyph unicode="&#xce;" horiz-adv-x="710" d="M-29 29q0 11 6 20.5t13 9.5q102 0 141 28.5t51 90.5l207 1024q7 22 4 43t-14.5 37t-46 25.5t-90.5 9.5q-7 0 -9 11t0 20q2 10 7.5 20t11.5 10h534q11 0 5 -28q0 -8 -5.5 -20.5t-11.5 -12.5q-100 0 -140.5 -27.5t-51.5 -87.5l-207 -1024q-7 -21 -4 -42.5t14 -38.5 t46 -27.5t93 -10.5q11 0 4 -28q-8 -31 -16 -31h-532q-6 0 -8.5 9.5t-0.5 19.5zM213 1579q11 8 191 151.5t186 149.5q28 20 43 0l256 -301q9 -9 -41 -49q-47 -41 -57 -31l-207 240q-295 -238 -301 -242q-10 -7 -47 33q-31 41 -23 49z" />
<glyph unicode="&#xcf;" horiz-adv-x="710" d="M-29 29q0 11 6 20.5t13 9.5q102 0 141 28.5t51 90.5l207 1024q7 22 4 43t-14.5 37t-46 25.5t-90.5 9.5q-7 0 -9 11t0 20q2 10 7.5 20t11.5 10h534q11 0 5 -28q0 -8 -5.5 -20.5t-11.5 -12.5q-100 0 -140.5 -27.5t-51.5 -87.5l-207 -1024q-7 -21 -4 -42.5t14 -38.5 t46 -27.5t93 -10.5q11 0 4 -28q-8 -31 -16 -31h-532q-6 0 -8.5 9.5t-0.5 19.5zM250 1679q20 107 135 107q110 0 90 -109q-23 -108 -135 -108t-90 110zM668 1679q22 107 137 107q14 0 26.5 -2t28 -8.5t23 -18.5t13 -31.5t-2.5 -48.5q-8 -44 -34.5 -70t-49.5 -32t-49 -6 q-114 0 -92 110z" />
<glyph unicode="&#xd0;" horiz-adv-x="1394" d="M-41 31q8 28 18 28q46 0 80 7t53.5 17t33 27.5t18.5 31.5t10 36l90 449h-178q-13 0 0 61q8 62 22 62h179l92 450q7 24 4 45t-15 37t-46.5 25.5t-90.5 9.5q-10 0 -6 31q7 30 19 30h630q56 0 103.5 -5t105.5 -22.5t101.5 -46.5t82 -81.5t57.5 -123t18 -176t-27 -235.5 q-25 -127 -65 -230t-86.5 -173.5t-104.5 -123t-112.5 -83t-118.5 -48.5t-116 -24t-110 -6h-633q-5 0 -7 9.5t-1 21.5zM362.5 122.5q0.5 -25.5 18 -41t53.5 -15.5h178q61 0 113.5 14t110.5 55t105 108t91 180.5t74 264.5q32 158 33.5 274t-19.5 182t-65 105.5t-90 51.5 t-107 12h-176q-52 0 -76.5 -30t-36.5 -87l-88 -446h174q11 0 2 -62q-9 -61 -24 -61h-176l-90 -445q-5 -34 -4.5 -59.5z" />
<glyph unicode="&#xd1;" horiz-adv-x="1474" d="M-29 29q1 10 7.5 21t11.5 11q101 0 138.5 29t47.5 88l205 1024q12 58 -16 86.5t-125 28.5q-4 0 -5 11.5t1 19.5q0 10 4.5 20t11.5 10h307q22 0 29 -10l502 -1008q4 -11 13 -9.5t13 16.5l168 835q12 58 -15.5 86.5t-129.5 28.5q-10 0 -4 31q0 10 5 20t11 10h410 q7 0 8.5 -11.5t-0.5 -14.5q-9 -35 -21 -35q-55 0 -92 -8.5t-56 -27t-27 -36t-13 -45.5l-244 -1212q-2 -8 -31 -8q-24 0 -28 8l-580 1163q-6 12 -15.5 10.5t-12.5 -16.5l-195 -967q-4 -21 -4.5 -34t5.5 -30.5t21 -27.5t46 -17.5t77 -7.5q11 0 4 -30q-8 -31 -16 -31h-407 q-6 0 -8.5 9.5t-0.5 19.5zM567 1599l12.5 25t31 46t51 59t67 44.5t84.5 20.5q45 0 83.5 -19t61.5 -41.5t55 -41.5t66 -19q87 0 158 107q3 6 15 6t26 -6q15 -3 24 -10t5 -13l-5 -8q-4 -8 -10 -19t-16 -26t-23 -30.5t-28 -31.5t-34 -30t-39 -25t-45 -17.5t-50 -6.5 q-37 0 -68 12.5t-53 30t-42.5 35t-45.5 30t-53 12.5q-15 0 -29.5 -3.5t-27 -9.5t-24 -13t-21.5 -16t-18 -16.5t-15 -16.5t-11 -14.5t-8 -11.5l-4 -5q-6 -10 -41 2q-16 5 -24 10t-5 10z" />
<glyph unicode="&#xd2;" horiz-adv-x="1398" d="M118.5 483q4.5 93 26.5 203q28 140 72 252t92 184.5t111 126t116.5 81t121 43t112.5 19t102 3.5q42 0 76 -2t80.5 -10.5t82.5 -22.5t76 -40.5t67 -62t50 -90t31 -121.5t3 -159t-27 -201q-28 -140 -72.5 -252t-92.5 -185t-111 -126.5t-116.5 -81t-119.5 -43.5t-110 -19.5 t-99 -3.5q-42 0 -75 2t-80 10t-83 21.5t-77 40t-69 62t-51.5 90t-32 122t-4 160.5zM321.5 459q-5.5 -101 3.5 -167t33.5 -114.5t51 -74t65 -40.5t66.5 -18.5t63 -3.5q37 0 66.5 3.5t73 18t79 39.5t77.5 73.5t76.5 115t68.5 167.5t59 228q25 126 31.5 227t-1 167t-30 114.5 t-48 74t-63.5 40.5t-67 18.5t-68 3.5q-37 0 -67.5 -3.5t-74.5 -18.5t-80.5 -40.5t-79 -74t-77 -114.5t-68.5 -167t-59 -227t-30.5 -227zM780 1798q-3 4 12.5 16.5t41.5 28.5q59 34 63 25q1 -3 38.5 -74t75.5 -142.5t38 -72.5q3 -6 -12 -18t-40 -27q-57 -32 -61 -25z" />
<glyph unicode="&#xd3;" horiz-adv-x="1398" d="M118.5 483q4.5 93 26.5 203q28 140 72 252t92 184.5t111 126t116.5 81t121 43t112.5 19t102 3.5q42 0 76 -2t80.5 -10.5t82.5 -22.5t76 -40.5t67 -62t50 -90t31 -121.5t3 -159t-27 -201q-28 -140 -72.5 -252t-92.5 -185t-111 -126.5t-116.5 -81t-119.5 -43.5t-110 -19.5 t-99 -3.5q-42 0 -75 2t-80 10t-83 21.5t-77 40t-69 62t-51.5 90t-32 122t-4 160.5zM321.5 459q-5.5 -101 3.5 -167t33.5 -114.5t51 -74t65 -40.5t66.5 -18.5t63 -3.5q37 0 66.5 3.5t73 18t79 39.5t77.5 73.5t76.5 115t68.5 167.5t59 228q25 126 31.5 227t-1 167t-30 114.5 t-48 74t-63.5 40.5t-67 18.5t-68 3.5q-37 0 -67.5 -3.5t-74.5 -18.5t-80.5 -40.5t-79 -74t-77 -114.5t-68.5 -167t-59 -227t-30.5 -227zM758 1579l270 289q2 2 4 2.5t5.5 -0.5t6.5 -2.5t7.5 -4.5t8.5 -5.5t10.5 -7t10.5 -7.5q20 -15 30 -27.5t5 -17.5l-268 -289 q-8 -10 -53 25q-46 36 -37 45z" />
<glyph unicode="&#xd4;" horiz-adv-x="1398" d="M118.5 483q4.5 93 26.5 203q28 140 72 252t92 184.5t111 126t116.5 81t121 43t112.5 19t102 3.5q42 0 76 -2t80.5 -10.5t82.5 -22.5t76 -40.5t67 -62t50 -90t31 -121.5t3 -159t-27 -201q-28 -140 -72.5 -252t-92.5 -185t-111 -126.5t-116.5 -81t-119.5 -43.5t-110 -19.5 t-99 -3.5q-42 0 -75 2t-80 10t-83 21.5t-77 40t-69 62t-51.5 90t-32 122t-4 160.5zM321.5 459q-5.5 -101 3.5 -167t33.5 -114.5t51 -74t65 -40.5t66.5 -18.5t63 -3.5q37 0 66.5 3.5t73 18t79 39.5t77.5 73.5t76.5 115t68.5 167.5t59 228q25 126 31.5 227t-1 167t-30 114.5 t-48 74t-63.5 40.5t-67 18.5t-68 3.5q-37 0 -67.5 -3.5t-74.5 -18.5t-80.5 -40.5t-79 -74t-77 -114.5t-68.5 -167t-59 -227t-30.5 -227zM578 1579q10 8 190 151.5t186 149.5q28 20 43 0l256 -301q9 -9 -41 -49q-47 -41 -57 -31l-207 240q-295 -238 -301 -242q-10 -7 -47 33 q-30 41 -22 49z" />
<glyph unicode="&#xd5;" horiz-adv-x="1398" d="M118.5 483q4.5 93 26.5 203q28 140 72 252t92 184.5t111 126t116.5 81t121 43t112.5 19t102 3.5q42 0 76 -2t80.5 -10.5t82.5 -22.5t76 -40.5t67 -62t50 -90t31 -121.5t3 -159t-27 -201q-28 -140 -72.5 -252t-92.5 -185t-111 -126.5t-116.5 -81t-119.5 -43.5t-110 -19.5 t-99 -3.5q-42 0 -75 2t-80 10t-83 21.5t-77 40t-69 62t-51.5 90t-32 122t-4 160.5zM321.5 459q-5.5 -101 3.5 -167t33.5 -114.5t51 -74t65 -40.5t66.5 -18.5t63 -3.5q37 0 66.5 3.5t73 18t79 39.5t77.5 73.5t76.5 115t68.5 167.5t59 228q25 126 31.5 227t-1 167t-30 114.5 t-48 74t-63.5 40.5t-67 18.5t-68 3.5q-37 0 -67.5 -3.5t-74.5 -18.5t-80.5 -40.5t-79 -74t-77 -114.5t-68.5 -167t-59 -227t-30.5 -227zM479 1599l12.5 25t31 46t51 59t67 44.5t84.5 20.5q45 0 83.5 -19t61.5 -41.5t55 -41.5t66 -19q87 0 158 107q3 6 15 6t26 -6 q15 -3 24 -10t5 -13l-5 -8q-4 -8 -10 -19t-16 -26t-23 -30.5t-28 -31.5t-34 -30t-39 -25t-45 -17.5t-50 -6.5q-37 0 -68 12.5t-53 30t-42.5 35t-45.5 30t-53 12.5q-15 0 -29.5 -3.5t-27 -9.5t-24 -13t-21.5 -16t-18 -16.5t-15 -16.5t-11 -14.5t-8 -11.5l-4 -5q-6 -10 -41 2 q-16 5 -24 10t-5 10z" />
<glyph unicode="&#xd6;" horiz-adv-x="1398" d="M118.5 483q4.5 93 26.5 203q28 140 72 252t92 184.5t111 126t116.5 81t121 43t112.5 19t102 3.5q42 0 76 -2t80.5 -10.5t82.5 -22.5t76 -40.5t67 -62t50 -90t31 -121.5t3 -159t-27 -201q-28 -140 -72.5 -252t-92.5 -185t-111 -126.5t-116.5 -81t-119.5 -43.5t-110 -19.5 t-99 -3.5q-42 0 -75 2t-80 10t-83 21.5t-77 40t-69 62t-51.5 90t-32 122t-4 160.5zM321.5 459q-5.5 -101 3.5 -167t33.5 -114.5t51 -74t65 -40.5t66.5 -18.5t63 -3.5q37 0 66.5 3.5t73 18t79 39.5t77.5 73.5t76.5 115t68.5 167.5t59 228q25 126 31.5 227t-1 167t-30 114.5 t-48 74t-63.5 40.5t-67 18.5t-68 3.5q-37 0 -67.5 -3.5t-74.5 -18.5t-80.5 -40.5t-79 -74t-77 -114.5t-68.5 -167t-59 -227t-30.5 -227zM592 1679q20 107 135 107q110 0 90 -109q-23 -108 -135 -108t-90 110zM1010 1679q22 107 137 107q14 0 26.5 -2t28 -8.5t23 -18.5 t13 -31.5t-2.5 -48.5q-8 -44 -34.5 -70t-49.5 -32t-49 -6q-114 0 -92 110z" />
<glyph unicode="&#xd7;" horiz-adv-x="1046" d="M172 395l277 221l-189 220q-7 11 47 53q50 43 58 35l188 -222l276 220q10 10 48 -33q34 -43 24 -53l-276 -220l188 -219q8 -8 -45 -53q-22 -19 -38 -29t-19 -4l-191 219l-276 -221q-11 -8 -45 35q-36 45 -27 51z" />
<glyph unicode="&#xd8;" horiz-adv-x="1398" d="M145 686q28 140 72 252t92 184.5t111 126t116.5 81t121 43t112.5 19t102 3.5q146 0 234 -35l14 20q9 13 84 13q19 0 31.5 -0.5t25.5 -1.5t18 -4t1 -7l-59 -88q179 -165 90 -606q-28 -140 -72.5 -252t-92.5 -185t-111 -126.5t-116.5 -81t-119.5 -43.5t-110 -19.5t-99 -3.5 q-154 0 -248 37q-2 -3 -4.5 -7t-4 -6t-1.5 -3q-8 -12 -86 -12q-86 0 -76 12l61 88q-173 169 -86 602zM336 238l713 1038q-64 55 -191 55q-37 0 -67.5 -3.5t-74.5 -18.5t-80.5 -40.5t-79 -74t-77 -114.5t-68.5 -167t-59 -227q-58 -286 -16 -448zM408 106q65 -65 196 -65 q37 0 66.5 3.5t73 18t79 39.5t77.5 73.5t76.5 115t68.5 167.5t59 228q60 306 16 461z" />
<glyph unicode="&#xd9;" horiz-adv-x="1464" d="M203.5 298.5q1.5 51.5 13.5 111.5l160 802q7 21 5 40.5t-12.5 34.5t-46 23.5t-96.5 8.5q-4 0 -6 10.5t0 18.5q2 10 7.5 20t11.5 10h532q5 0 6.5 -11t-0.5 -17q0 -8 -5.5 -19.5t-12.5 -11.5q-60 0 -98 -7.5t-57 -24t-25.5 -32t-12.5 -43.5l-161 -815q-11 -55 -12 -101 t8.5 -78.5t24.5 -58t38 -41.5t46 -27t53 -16t54.5 -7t53.5 -2q55 0 100.5 5.5t104 26t102 55t81 99t54.5 151.5l162 809q7 22 5.5 41.5t-12 34t-46 23t-95.5 8.5q-6 0 -6 29q2 10 7.5 20t9.5 10h415q5 0 7 -12t0 -16q0 -6 -6 -18.5t-13 -12.5q-48 0 -82.5 -6t-53.5 -14 t-31 -24t-16.5 -28.5t-8.5 -34.5l-162 -811q-17 -83 -48 -149.5t-67 -109.5t-84.5 -74.5t-91 -48t-95.5 -26t-88.5 -11.5t-80.5 -2q-32 0 -58 1t-62 4t-65 10t-62.5 18t-59 28.5t-50.5 40t-40 55t-24.5 71.5t-8 90.5zM823 1798q-3 4 12.5 16.5t41.5 28.5q59 34 63 25 q1 -3 38.5 -74t75.5 -142.5t38 -72.5q3 -6 -12 -18t-40 -27q-57 -32 -61 -25z" />
<glyph unicode="&#xda;" horiz-adv-x="1464" d="M203.5 298.5q1.5 51.5 13.5 111.5l160 802q7 21 5 40.5t-12.5 34.5t-46 23.5t-96.5 8.5q-4 0 -6 10.5t0 18.5q2 10 7.5 20t11.5 10h532q5 0 6.5 -11t-0.5 -17q0 -8 -5.5 -19.5t-12.5 -11.5q-60 0 -98 -7.5t-57 -24t-25.5 -32t-12.5 -43.5l-161 -815q-11 -55 -12 -101 t8.5 -78.5t24.5 -58t38 -41.5t46 -27t53 -16t54.5 -7t53.5 -2q55 0 100.5 5.5t104 26t102 55t81 99t54.5 151.5l162 809q7 22 5.5 41.5t-12 34t-46 23t-95.5 8.5q-6 0 -6 29q2 10 7.5 20t9.5 10h415q5 0 7 -12t0 -16q0 -6 -6 -18.5t-13 -12.5q-48 0 -82.5 -6t-53.5 -14 t-31 -24t-16.5 -28.5t-8.5 -34.5l-162 -811q-17 -83 -48 -149.5t-67 -109.5t-84.5 -74.5t-91 -48t-95.5 -26t-88.5 -11.5t-80.5 -2q-32 0 -58 1t-62 4t-65 10t-62.5 18t-59 28.5t-50.5 40t-40 55t-24.5 71.5t-8 90.5zM809 1579l270 289q1 1 3 1.5t4 0.5t4.5 -1t5.5 -2.5 l6 -3t7 -4.5t7 -5t8.5 -5.5t8.5 -5.5q45 -34 34 -45l-268 -289q-8 -10 -53 25q-46 36 -37 45z" />
<glyph unicode="&#xdb;" horiz-adv-x="1464" d="M203.5 298.5q1.5 51.5 13.5 111.5l160 802q7 21 5 40.5t-12.5 34.5t-46 23.5t-96.5 8.5q-4 0 -6 10.5t0 18.5q2 10 7.5 20t11.5 10h532q5 0 6.5 -11t-0.5 -17q0 -8 -5.5 -19.5t-12.5 -11.5q-60 0 -98 -7.5t-57 -24t-25.5 -32t-12.5 -43.5l-161 -815q-11 -55 -12 -101 t8.5 -78.5t24.5 -58t38 -41.5t46 -27t53 -16t54.5 -7t53.5 -2q55 0 100.5 5.5t104 26t102 55t81 99t54.5 151.5l162 809q7 22 5.5 41.5t-12 34t-46 23t-95.5 8.5q-6 0 -6 29q2 10 7.5 20t9.5 10h415q5 0 7 -12t0 -16q0 -6 -6 -18.5t-13 -12.5q-48 0 -82.5 -6t-53.5 -14 t-31 -24t-16.5 -28.5t-8.5 -34.5l-162 -811q-17 -83 -48 -149.5t-67 -109.5t-84.5 -74.5t-91 -48t-95.5 -26t-88.5 -11.5t-80.5 -2q-32 0 -58 1t-62 4t-65 10t-62.5 18t-59 28.5t-50.5 40t-40 55t-24.5 71.5t-8 90.5zM621 1579q10 8 190 151.5t186 149.5q28 20 43 0 l256 -301q8 -9 -41 -49q-47 -41 -57 -31l-207 240q-295 -238 -301 -242q-10 -7 -47 33q-30 41 -22 49z" />
<glyph unicode="&#xdc;" horiz-adv-x="1464" d="M203.5 298.5q1.5 51.5 13.5 111.5l160 802q7 21 5 40.5t-12.5 34.5t-46 23.5t-96.5 8.5q-4 0 -6 10.5t0 18.5q2 10 7.5 20t11.5 10h532q5 0 6.5 -11t-0.5 -17q0 -8 -5.5 -19.5t-12.5 -11.5q-60 0 -98 -7.5t-57 -24t-25.5 -32t-12.5 -43.5l-161 -815q-11 -55 -12 -101 t8.5 -78.5t24.5 -58t38 -41.5t46 -27t53 -16t54.5 -7t53.5 -2q55 0 100.5 5.5t104 26t102 55t81 99t54.5 151.5l162 809q7 22 5.5 41.5t-12 34t-46 23t-95.5 8.5q-6 0 -6 29q2 10 7.5 20t9.5 10h415q5 0 7 -12t0 -16q0 -6 -6 -18.5t-13 -12.5q-48 0 -82.5 -6t-53.5 -14 t-31 -24t-16.5 -28.5t-8.5 -34.5l-162 -811q-17 -83 -48 -149.5t-67 -109.5t-84.5 -74.5t-91 -48t-95.5 -26t-88.5 -11.5t-80.5 -2q-32 0 -58 1t-62 4t-65 10t-62.5 18t-59 28.5t-50.5 40t-40 55t-24.5 71.5t-8 90.5zM655 1679q20 107 136 107q110 0 90 -109 q-23 -108 -136 -108q-112 0 -90 110zM1073 1679q22 107 137 107q14 0 26.5 -2t28 -8.5t23 -18.5t13 -31.5t-2.5 -48.5q-8 -44 -34.5 -70t-49.5 -32t-49 -6q-114 0 -92 110z" />
<glyph unicode="&#xdd;" horiz-adv-x="1308" d="M84 1348q1 12 6 21t10 9h523q13 0 6 -30q-2 -11 -7.5 -20t-11.5 -9q-66 0 -98.5 -16.5t-32.5 -42.5t10 -58q96 -292 144 -430q5 -14 23.5 -14.5t33.5 12.5l44 46q45 46 93 96.5t106.5 120.5t92.5 124q42 69 4 115.5t-131 46.5q-10 0 -6 29q7 30 18 30h256q25 0 34 -11.5 t5 -37.5q-13 -65 -72.5 -159.5t-135.5 -183t-150 -167t-124 -126.5l-50 -48l-92 -467q-6 -35 -2 -61t40 -41t109 -15q2 0 3.5 -0.5t2 -2.5t1 -3.5t0 -4.5t-0.5 -5t-1 -6t-1 -6q-5 -33 -16 -33h-533q-10 0 -6 31q4 30 19 30q105 0 142.5 29t47.5 88l86 422q-170 516 -199 602 q-22 64 -64.5 90.5t-121.5 26.5q-12 0 -4 29zM633 1579l270 289q2 2 4 2.5t5.5 -0.5t6.5 -2.5t7.5 -4.5t8.5 -5.5t10.5 -7t10.5 -7.5q20 -15 30 -27.5t5 -17.5l-268 -289q-8 -10 -53 25q-46 36 -37 45z" />
<glyph unicode="&#xde;" horiz-adv-x="1216" d="M-16 31q4 28 16 28q47 0 81 6.5t53.5 15.5t32 26t17.5 31.5t9 37.5l206 1024q6 23 3 44t-14.5 37.5t-45.5 26t-90 9.5q-12 0 -6 31q6 30 16 30h535q12 0 6 -30q-6 -31 -19 -31q-100 0 -140.5 -28.5t-51.5 -88.5l-10 -49h245q82 0 146 -13.5t105 -36t69 -54.5t40.5 -64.5 t16.5 -71.5t1.5 -70.5t-9.5 -66.5q-76 -379 -508 -379h-86q-48 0 -82 -6t-53 -14.5t-31.5 -25t-17 -30t-8.5 -36.5q-6 -29 -14 -61.5t-11 -45.5q-7 -26 -4.5 -47t14.5 -37t46.5 -24.5t93.5 -8.5q5 0 6.5 -10.5t-0.5 -15.5q-7 -33 -19 -33h-532q-14 0 -6 31zM446 461h179 q70 0 127 14t95.5 39.5t66.5 54.5t45.5 68t27.5 69.5t17 67.5q7 33 10.5 60t2.5 60.5t-8.5 59t-26 51t-47 42.5t-73.5 27.5t-104 10.5h-96q-30 0 -51.5 -9.5t-33.5 -28.5t-18.5 -36.5t-11.5 -43.5z" />
<glyph unicode="&#xdf;" horiz-adv-x="1089" d="M-51 8.5q-3 8.5 0 22.5q7 28 18 28q49 0 82 9.5t50.5 28.5t25 36.5t12.5 44.5l176 877q67 344 418 344q29 0 51.5 -1t53.5 -5t54.5 -11t50.5 -20t45.5 -30.5t34.5 -44.5t23.5 -60t7 -78.5t-11.5 -99.5q-13 -64 -35.5 -116.5t-41.5 -81t-49 -55t-40.5 -32.5t-33.5 -19 q-11 -5 -13 -13t7 -13q184 -75 124 -369q-13 -67 -39 -121t-58 -90t-76 -62.5t-84.5 -41t-93 -23t-93.5 -10.5t-92 -2q-10 0 -4 47q9 45 22 45q39 0 67 2.5t65.5 10.5t65.5 25.5t56 45.5t49 74t33 106q14 73 15.5 128t-10.5 88.5t-28.5 55t-45.5 31t-52.5 12.5t-58.5 3h-39 q-12 0 -2 47q7 45 20 45h39q33 0 58.5 5t55 22t51.5 47.5t44 85t37 129.5q12 60 14 105.5t-7 74t-21.5 47t-35.5 27t-43.5 11.5t-49.5 3q-35 0 -64.5 -10t-62 -37t-59.5 -85t-44 -144l-188 -955q-10 -53 -33.5 -72.5t-64.5 -19.5h-244q-5 0 -8 8.5z" />
<glyph unicode="&#xe0;" horiz-adv-x="1107" d="M37 320q1 77 20 172q24 123 67 215t92.5 146.5t113 87.5t122.5 44.5t128 11.5q26 0 50.5 -4t43.5 -11t35.5 -14.5t29 -17t21 -16t15.5 -12.5l7 -7q7 -5 19 -1.5t18 16.5q13 28 33 38.5t53 10.5h99l-162 -801q-10 -58 14 -87.5t111 -29.5q12 0 8 -30q-8 -31 -19 -31h-245 q-37 0 -55 19t-7 73q-112 -112 -278 -112q-42 0 -78 4t-77 17.5t-71.5 36t-57 61.5t-39 91.5t-11.5 129.5zM222 293.5q-4 -80.5 5.5 -128.5t34 -76.5t53 -38t68.5 -9.5q27 0 49.5 3.5t52.5 14.5t55 30t53 53t51.5 80t45.5 113.5t39 151.5l64 320q-4 5 -11 14t-29.5 31.5 t-47 40t-62 31.5t-74.5 14q-38 0 -69.5 -8t-69 -36.5t-68 -76t-61 -132.5t-53.5 -202q-22 -109 -26 -189.5zM586 1399q-3 4 12 16.5t41 28.5q58 33 63 24q1 -3 38.5 -73.5t75.5 -142t38 -72.5q3 -6 -11.5 -18.5t-39.5 -26.5q-60 -35 -62 -25z" />
<glyph unicode="&#xe1;" horiz-adv-x="1107" d="M37 320q1 77 20 172q24 123 67 215t92.5 146.5t113 87.5t122.5 44.5t128 11.5q26 0 50.5 -4t43.5 -11t35.5 -14.5t29 -17t21 -16t15.5 -12.5l7 -7q7 -5 19 -1.5t18 16.5q13 28 33 38.5t53 10.5h99l-162 -801q-10 -58 14 -87.5t111 -29.5q12 0 8 -30q-8 -31 -19 -31h-245 q-37 0 -55 19t-7 73q-112 -112 -278 -112q-42 0 -78 4t-77 17.5t-71.5 36t-57 61.5t-39 91.5t-11.5 129.5zM222 293.5q-4 -80.5 5.5 -128.5t34 -76.5t53 -38t68.5 -9.5q27 0 49.5 3.5t52.5 14.5t55 30t53 53t51.5 80t45.5 113.5t39 151.5l64 320q-4 5 -11 14t-29.5 31.5 t-47 40t-62 31.5t-74.5 14q-38 0 -69.5 -8t-69 -36.5t-68 -76t-61 -132.5t-53.5 -202q-22 -109 -26 -189.5zM545 1180l270 288q7 7 44 -18l9 -6q20 -15 30 -27.5t5 -17.5l-268 -289q-8 -10 -53 25q-46 36 -37 45z" />
<glyph unicode="&#xe2;" horiz-adv-x="1105" d="M37 320q1 77 20 172q24 123 67 215t92.5 146.5t113 87.5t122.5 44.5t128 11.5q26 0 50.5 -4t43.5 -11t35.5 -14.5t29 -17t21 -16t15.5 -12.5l7 -7q7 -5 19 -1.5t18 16.5q13 28 33 38.5t53 10.5h99l-162 -801q-10 -58 14 -87.5t111 -29.5q12 0 8 -30q-8 -31 -19 -31h-245 q-37 0 -55 19t-7 73q-112 -112 -278 -112q-42 0 -78 4t-77 17.5t-71.5 36t-57 61.5t-39 91.5t-11.5 129.5zM222 293.5q-4 -80.5 5.5 -128.5t34 -76.5t53 -38t68.5 -9.5q27 0 49.5 3.5t52.5 14.5t55 30t53 53t51.5 80t45.5 113.5t39 151.5l64 320q-4 5 -11 14t-29.5 31.5 t-47 40t-62 31.5t-74.5 14q-38 0 -69.5 -8t-69 -36.5t-68 -76t-61 -132.5t-53.5 -202q-22 -109 -26 -189.5zM340 1180q11 8 191 151.5t186 149.5q28 20 43 0l256 -301q9 -9 -41 -50q-47 -40 -57 -30l-207 239q-295 -237 -301 -241q-11 -8 -48 32q-31 41 -22 50z" />
<glyph unicode="&#xe3;" horiz-adv-x="1107" d="M37 320q1 77 20 172q24 123 67 215t92.5 146.5t113 87.5t122.5 44.5t128 11.5q26 0 50.5 -4t43.5 -11t35.5 -14.5t29 -17t21 -16t15.5 -12.5l7 -7q7 -5 19 -1.5t18 16.5q13 28 33 38.5t53 10.5h99l-162 -801q-10 -58 14 -87.5t111 -29.5q12 0 8 -30q-8 -31 -19 -31h-245 q-37 0 -55 19t-7 73q-112 -112 -278 -112q-42 0 -78 4t-77 17.5t-71.5 36t-57 61.5t-39 91.5t-11.5 129.5zM222 293.5q-4 -80.5 5.5 -128.5t34 -76.5t53 -38t68.5 -9.5q27 0 49.5 3.5t52.5 14.5t55 30t53 53t51.5 80t45.5 113.5t39 151.5l64 320q-4 5 -11 14t-29.5 31.5 t-47 40t-62 31.5t-74.5 14q-38 0 -69.5 -8t-69 -36.5t-68 -76t-61 -132.5t-53.5 -202q-22 -109 -26 -189.5zM342 1200l12.5 25t31 46t51 59t67 44.5t84.5 20.5q45 0 83.5 -19t61.5 -41.5t55 -41.5t66 -19q87 0 158 106q3 6 15.5 6t25.5 -6q15 -3 23.5 -9.5t4.5 -12.5l-5 -8 q-4 -8 -10 -19t-16 -26t-23 -30.5t-28 -32t-34 -30.5t-39 -25t-45 -17.5t-50 -6.5q-37 0 -68 12.5t-53 30.5t-42.5 35.5t-45.5 30t-53 12.5q-15 0 -29.5 -3.5t-27 -9t-24 -13t-21 -16.5t-17.5 -16.5t-15 -16.5t-11 -14.5t-8 -10.5l-4 -6q-6 -10 -41 2q-16 5 -24 10t-5 10z " />
<glyph unicode="&#xe4;" horiz-adv-x="1107" d="M37 320q1 77 20 172q24 123 67 215t92.5 146.5t113 87.5t122.5 44.5t128 11.5q26 0 50.5 -4t43.5 -11t35.5 -14.5t29 -17t21 -16t15.5 -12.5l7 -7q7 -5 19 -1.5t18 16.5q13 28 33 38.5t53 10.5h99l-162 -801q-10 -58 14 -87.5t111 -29.5q12 0 8 -30q-8 -31 -19 -31h-245 q-37 0 -55 19t-7 73q-112 -112 -278 -112q-42 0 -78 4t-77 17.5t-71.5 36t-57 61.5t-39 91.5t-11.5 129.5zM222 293.5q-4 -80.5 5.5 -128.5t34 -76.5t53 -38t68.5 -9.5q27 0 49.5 3.5t52.5 14.5t55 30t53 53t51.5 80t45.5 113.5t39 151.5l64 320q-4 5 -11 14t-29.5 31.5 t-47 40t-62 31.5t-74.5 14q-38 0 -69.5 -8t-69 -36.5t-68 -76t-61 -132.5t-53.5 -202q-22 -109 -26 -189.5zM392.5 1231q-5.5 20 2.5 49q19 106 135 106q111 0 91 -108q-23 -109 -136 -109q-14 0 -27 2t-28.5 8.5t-23.5 19t-13.5 32.5zM810.5 1231q-5.5 20 2.5 49 q22 106 137 106q110 0 88 -108q-6 -34 -22 -57.5t-37 -33.5t-38.5 -14t-35.5 -4q-15 0 -28 2t-29 8.5t-24 19t-13.5 32.5z" />
<glyph unicode="&#xe5;" horiz-adv-x="1107" d="M37 320q1 77 20 172q24 123 67 215t92.5 146.5t113 87.5t122.5 44.5t128 11.5q26 0 50.5 -4t43.5 -11t35.5 -14.5t29 -17t21 -16t15.5 -12.5l7 -7q7 -5 19 -1.5t18 16.5q13 28 33 38.5t53 10.5h99l-162 -801q-10 -58 14 -87.5t111 -29.5q12 0 8 -30q-8 -31 -19 -31h-245 q-37 0 -55 19t-7 73q-112 -112 -278 -112q-42 0 -78 4t-77 17.5t-71.5 36t-57 61.5t-39 91.5t-11.5 129.5zM222 293.5q-4 -80.5 5.5 -128.5t34 -76.5t53 -38t68.5 -9.5q27 0 49.5 3.5t52.5 14.5t55 30t53 53t51.5 80t45.5 113.5t39 151.5l64 320q-4 5 -11 14t-29.5 31.5 t-47 40t-62 31.5t-74.5 14q-38 0 -69.5 -8t-69 -36.5t-68 -76t-61 -132.5t-53.5 -202q-22 -109 -26 -189.5zM514 1274q32 172 229 172q185 0 150 -176q-32 -170 -221 -170q-190 0 -158 174zM618 1276q-12 -61 5 -85t63 -24q45 0 69.5 23.5t37.5 85.5q10 56 -4.5 79t-59.5 23 t-72.5 -22t-38.5 -80z" />
<glyph unicode="&#xe6;" horiz-adv-x="1619" d="M26 183.5q0 35.5 7 80.5q14 70 45.5 123t75.5 87t103 56t122 30.5t139 8.5q49 0 84.5 7.5t54 17t31 27.5t16 30.5t7.5 34.5l6 27q43 223 -152 223q-98 0 -147.5 -36.5t-55.5 -76.5q-2 -9 -4 -25t-4 -24q-9 -44 -38 -67t-68 -23q-37 0 -57.5 27.5t-10.5 81.5 q14 74 122.5 139t275.5 65q209 0 288 -112q131 114 334 114q46 0 84.5 -5t78 -19.5t69.5 -38t54 -62t35.5 -90t11 -124.5t-16.5 -162h-484q-96 0 -140.5 -26.5t-51.5 -92.5q-8 -58 -5.5 -103.5t7 -79t19 -57t29.5 -38.5t38.5 -23.5t46.5 -11.5t53 -3q41 0 73.5 4t70.5 17.5 t69 37t63.5 65t59.5 98.5q5 10 45 10q7 0 14 -0.5t14 -1.5t10.5 -3t2.5 -5q-34 -78 -73.5 -133.5t-78.5 -88.5t-88 -52t-94 -25t-104 -6t-106.5 8t-95.5 28t-83.5 62t-54.5 104q-119 -200 -334 -200q-33 0 -62 2.5t-61 8t-57.5 15.5t-51 25.5t-41 36.5t-27.5 49.5t-12 64z M212 171q8 -38 32 -61t51.5 -33.5t58.5 -10.5q53 0 95.5 17.5t85.5 63t78.5 136t62.5 223.5h-184q-88 0 -146.5 -31t-88 -82t-44.5 -129q-9 -55 -1 -93zM872 561h463q15 116 14.5 199.5t-39.5 130.5t-122 47q-123 0 -197 -94t-119 -283z" />
<glyph unicode="&#xe7;" horiz-adv-x="960" d="M86 485q100 510 539 510q47 0 97 -7.5t97 -23t73.5 -42.5t20.5 -62l-34 -174q-1 -5 -14 -8.5t-21 -3.5q-5 0 -11.5 1t-12.5 4t-5 7q23 115 -34.5 180.5t-168.5 65.5q-37 0 -66 -6t-70.5 -32t-74 -70.5t-66 -129.5t-56.5 -202q-17 -84 -22 -151t-0.5 -112t18.5 -78t31 -51 t41.5 -28.5t45.5 -13.5t47 -3q107 0 182.5 51.5t118.5 174.5q2 8 43 8q5 0 11 -0.5t12.5 -1.5t10.5 -2.5t3 -3.5q-100 -308 -395 -308l-47 -77q32 0 56 -2.5t49.5 -12.5t37 -27.5t10.5 -49t-22 -74.5q-15 -31 -33.5 -54.5t-35.5 -38.5t-42.5 -25.5t-41.5 -15.5t-46 -7.5 t-42.5 -2.5h-43.5q-29 0 -98 23q-10 5 -4 37q7 35 16 32q80 -20 113 -20q31 0 48 3t39.5 20.5t39.5 52.5q49 96 -41 96l-115 -6l96 158q-322 56 -233 503z" />
<glyph unicode="&#xe8;" horiz-adv-x="1015" d="M53.5 313q-0.5 76 18.5 170q20 102 55 184.5t78.5 136.5t92 92.5t103 59t103.5 29t100 8.5q44 0 81.5 -3.5t76.5 -12t68 -22.5t55 -34.5t38.5 -49.5t18.5 -66.5t-6 -85.5q-28 -141 -163 -221t-341 -80q-189 0 -192 -117q-1 -77 12 -127.5t41 -75.5t60.5 -34t80.5 -9 q54 0 95.5 8t85 31t82 69t71.5 116q4 10 45 10q7 0 14 -0.5t14 -1.5t10.5 -3t2.5 -5q-35 -79 -76 -135.5t-81 -89t-89.5 -51.5t-92 -24.5t-97.5 -5.5q-44 0 -82 4.5t-82 18t-78 36t-63 61.5t-44 91.5t-15.5 128.5zM260 487h180q128 0 210.5 60t101.5 164q25 126 -16.5 173.5 t-143.5 47.5q-239 0 -332 -445zM541 1399q-3 4 12 16.5t41 28.5q58 33 63 24q1 -3 38.5 -73.5t75.5 -142t38 -72.5q3 -6 -11.5 -18.5t-39.5 -26.5q-60 -35 -62 -25z" />
<glyph unicode="&#xe9;" horiz-adv-x="1015" d="M53.5 313q-0.5 76 18.5 170q20 102 55 184.5t78.5 136.5t92 92.5t103 59t103.5 29t100 8.5q44 0 81.5 -3.5t76.5 -12t68 -22.5t55 -34.5t38.5 -49.5t18.5 -66.5t-6 -85.5q-28 -141 -163 -221t-341 -80q-189 0 -192 -117q-1 -77 12 -127.5t41 -75.5t60.5 -34t80.5 -9 q54 0 95.5 8t85 31t82 69t71.5 116q4 10 45 10q7 0 14 -0.5t14 -1.5t10.5 -3t2.5 -5q-35 -79 -76 -135.5t-81 -89t-89.5 -51.5t-92 -24.5t-97.5 -5.5q-44 0 -82 4.5t-82 18t-78 36t-63 61.5t-44 91.5t-15.5 128.5zM260 487h180q128 0 210.5 60t101.5 164q25 126 -16.5 173.5 t-143.5 47.5q-239 0 -332 -445zM543 1180l270 288q7 7 44 -18l9 -6q20 -15 30 -27.5t5 -17.5l-268 -289q-8 -10 -53 25q-46 36 -37 45z" />
<glyph unicode="&#xea;" horiz-adv-x="1015" d="M53.5 313q-0.5 76 18.5 170q20 102 55 184.5t78.5 136.5t92 92.5t103 59t103.5 29t100 8.5q44 0 81.5 -3.5t76.5 -12t68 -22.5t55 -34.5t38.5 -49.5t18.5 -66.5t-6 -85.5q-28 -141 -163 -221t-341 -80q-189 0 -192 -117q-1 -77 12 -127.5t41 -75.5t60.5 -34t80.5 -9 q54 0 95.5 8t85 31t82 69t71.5 116q4 10 45 10q7 0 14 -0.5t14 -1.5t10.5 -3t2.5 -5q-35 -79 -76 -135.5t-81 -89t-89.5 -51.5t-92 -24.5t-97.5 -5.5q-44 0 -82 4.5t-82 18t-78 36t-63 61.5t-44 91.5t-15.5 128.5zM260 487h180q128 0 210.5 60t101.5 164q25 126 -16.5 173.5 t-143.5 47.5q-239 0 -332 -445zM338 1180q11 8 191 151.5t186 149.5q28 20 43 0l256 -301q9 -9 -41 -50q-47 -41 -58 -30l-206 239q-295 -237 -301 -241q-11 -8 -48 32q-31 41 -22 50z" />
<glyph unicode="&#xeb;" horiz-adv-x="1015" d="M53.5 313q-0.5 76 18.5 170q20 102 55 184.5t78.5 136.5t92 92.5t103 59t103.5 29t100 8.5q44 0 81.5 -3.5t76.5 -12t68 -22.5t55 -34.5t38.5 -49.5t18.5 -66.5t-6 -85.5q-28 -141 -163 -221t-341 -80q-189 0 -192 -117q-1 -77 12 -127.5t41 -75.5t60.5 -34t80.5 -9 q54 0 95.5 8t85 31t82 69t71.5 116q4 10 45 10q7 0 14 -0.5t14 -1.5t10.5 -3t2.5 -5q-35 -79 -76 -135.5t-81 -89t-89.5 -51.5t-92 -24.5t-97.5 -5.5q-44 0 -82 4.5t-82 18t-78 36t-63 61.5t-44 91.5t-15.5 128.5zM260 487h180q128 0 210.5 60t101.5 164q25 126 -16.5 173.5 t-143.5 47.5q-239 0 -332 -445zM380.5 1231q-5.5 20 2.5 49q19 106 135 106q110 0 90 -108q-23 -109 -135 -109q-14 0 -27 2t-28.5 8.5t-23.5 19t-13.5 32.5zM798.5 1231q-5.5 20 2.5 49q22 106 137 106q110 0 88 -108q-6 -34 -22 -57.5t-37 -33.5t-38.5 -14t-35.5 -4 q-15 0 -28 2t-29 8.5t-24 19t-13.5 32.5z" />
<glyph unicode="&#xec;" horiz-adv-x="620" d="M-31 10.5q-2 10.5 0 20.5q2 9 8 19.5t11 10.5q47 0 79.5 10t49 29t23.5 36t12 42l124 625q4 20 5.5 33.5t-3 31t-17 27.5t-39 17.5t-66.5 7.5q-5 0 -6.5 11t0.5 17q5 31 16 31h326l-160 -801q-7 -22 -5 -43t11 -37.5t38.5 -26.5t78.5 -10q8 0 8.5 -12.5t-2.5 -15.5 q-8 -33 -17 -33h-469q-4 0 -6 10.5zM303 1399q-3 4 12 16.5t41 28.5q59 34 64 24q1 -3 38 -73.5t75 -142t38 -72.5q3 -6 -11.5 -18.5t-39.5 -26.5q-57 -32 -61 -25z" />
<glyph unicode="&#xed;" horiz-adv-x="620" d="M-31 10.5q-2 10.5 0 20.5q2 9 8 19.5t11 10.5q47 0 79.5 10t49 29t23.5 36t12 42l124 625q4 20 5.5 33.5t-3 31t-17 27.5t-39 17.5t-66.5 7.5q-5 0 -6.5 11t0.5 17q5 31 16 31h326l-160 -801q-7 -22 -5 -43t11 -37.5t38.5 -26.5t78.5 -10q8 0 8.5 -12.5t-2.5 -15.5 q-8 -33 -17 -33h-469q-4 0 -6 10.5zM291 1180l270 288q7 7 44 -18l9 -6q20 -15 30 -27.5t5 -17.5l-268 -289q-8 -10 -53 25q-46 36 -37 45z" />
<glyph unicode="&#xee;" horiz-adv-x="620" d="M-31 10.5q-2 10.5 0 20.5q2 9 8 19.5t11 10.5q47 0 79.5 10t49 29t23.5 36t12 42l124 625q4 20 5.5 33.5t-3 31t-17 27.5t-39 17.5t-66.5 7.5q-5 0 -6.5 11t0.5 17q5 31 16 31h326l-160 -801q-7 -22 -5 -43t11 -37.5t38.5 -26.5t78.5 -10q8 0 8.5 -12.5t-2.5 -15.5 q-8 -33 -17 -33h-469q-4 0 -6 10.5zM53 1180q11 8 191 151.5t186 149.5q28 20 43 0l256 -301q9 -9 -41 -50q-46 -40 -57 -30l-207 239q-295 -237 -301 -241q-10 -8 -47 32q-31 42 -23 50z" />
<glyph unicode="&#xef;" horiz-adv-x="620" d="M-31 10.5q-2 10.5 0 20.5q2 9 8 19.5t11 10.5q47 0 79.5 10t49 29t23.5 36t12 42l124 625q4 20 5.5 33.5t-3 31t-17 27.5t-39 17.5t-66.5 7.5q-5 0 -6.5 11t0.5 17q5 31 16 31h326l-160 -801q-7 -22 -5 -43t11 -37.5t38.5 -26.5t78.5 -10q8 0 8.5 -12.5t-2.5 -15.5 q-8 -33 -17 -33h-469q-4 0 -6 10.5zM75.5 1231q-5.5 20 2.5 49q19 106 135 106q110 0 90 -108q-23 -109 -135 -109q-14 0 -27 2t-28.5 8.5t-23.5 19t-13.5 32.5zM493.5 1231q-5.5 20 2.5 49q22 106 137 106q111 0 88 -108q-6 -34 -22 -57.5t-37 -33.5t-38.5 -14t-35.5 -4 q-15 0 -28 2t-29 8.5t-24 19t-13.5 32.5z" />
<glyph unicode="&#xf0;" horiz-adv-x="1159" d="M58 319q1 77 20 173t50 173.5t65.5 129t78.5 90t84 59.5t87 33.5t82 16t75 3.5q52 0 98.5 -16.5t66.5 -30.5t28 -24q10 -11 27.5 -5t21.5 23l24 121h-186q-11 0 -4 51q10 51 24 51h187l8 43q10 48 -13.5 77.5t-111.5 29.5q-12 0 -8 31q8 30 20 30h324l-43 -211h186 q10 0 2 -51q-11 -51 -22 -51h-185l-180 -887q-7 -23 -4.5 -44.5t12.5 -38t39 -26.5t76 -10q13 0 6 -28q-1 -12 -6 -21.5t-10 -9.5h-244q-38 0 -55 18.5t-6 73.5q-105 -108 -279 -108q-43 0 -77.5 3.5t-76.5 16.5t-72.5 34.5t-57.5 60t-39.5 91t-11.5 129.5zM242.5 312 q-6.5 -74 1.5 -120.5t21.5 -77.5t38 -46t47 -20t52.5 -5q38 0 70.5 7.5t75 34t76.5 72t68 129.5t57 197l65 328q-1 1 -13.5 14.5t-16 16.5t-16.5 16t-19.5 17.5t-20.5 15.5t-23.5 15.5t-25 12t-28.5 11t-29 6t-33 2.5q-36 0 -65.5 -7t-68 -34.5t-69.5 -74t-63 -133.5 t-56 -206q-19 -97 -25.5 -171z" />
<glyph unicode="&#xf1;" horiz-adv-x="1193" d="M-25.5 9q-2.5 9 0.5 22q7 28 17 28q48 0 80.5 9t50 27.5t25.5 36.5t14 46l125 625q7 23 5 44t-12 36.5t-39 25t-77 9.5q-10 0 -6 30q9 31 18 31h240q34 0 49.5 -14.5t15.5 -57.5q0 -9 5 -11.5t14 5.5q100 96 233 96q345 0 281 -311l-101 -508q-11 -60 8.5 -89.5 t98.5 -29.5q11 0 4 -28q-7 -31 -16 -31h-211q-44 0 -69.5 24.5t-16.5 69.5l114 568q10 51 11.5 90.5t-6.5 65t-20.5 43t-32.5 26t-39 11.5t-44 3q-43 0 -83.5 -15.5t-68 -37.5t-49 -43.5t-31.5 -36.5l-11 -16l-117 -574q-5 -32 -4 -58.5t28.5 -43.5t83.5 -17q12 0 9 -28 q-9 -31 -19 -31h-450q-5 0 -7.5 9zM373 1200q7 15 12.5 25t31 46t50.5 59t66.5 44t84.5 21q45 0 83.5 -19t61.5 -41.5t55.5 -41.5t66.5 -19q86 0 157 106q3 6 15.5 6t25.5 -6q15 -3 24 -9.5t5 -12.5l-4 -8q-5 -8 -11 -19t-16 -26t-23 -30.5t-28 -32t-34 -30.5t-39 -25 t-45 -17.5t-50 -6.5q-37 0 -68 12.5t-53 30.5t-42.5 35.5t-45.5 30t-53 12.5q-15 0 -29.5 -3.5t-27 -9.5t-24 -13t-21.5 -16t-18 -16.5t-15 -16.5t-11 -14.5t-8 -10.5l-4 -6q-6 -10 -41 2q-16 5 -23.5 10t-4.5 10z" />
<glyph unicode="&#xf2;" horiz-adv-x="1042" d="M60.5 310.5q0.5 77.5 19.5 172.5q102 510 536 510q40 0 74.5 -4t75.5 -17.5t72 -35.5t58.5 -61.5t40.5 -92t12.5 -130t-19.5 -173.5q-101 -506 -527 -506q-41 0 -75.5 4t-76.5 17t-74 35t-60.5 61t-42.5 91t-13.5 129.5zM244.5 283.5q-1.5 -87.5 11 -134.5t41.5 -74 t55.5 -33.5t63.5 -6.5q36 0 64 6t68 32.5t71.5 72.5t64.5 133.5t57 207.5q17 88 23 158t2.5 116t-16.5 79.5t-28 51t-38 27.5t-40.5 12.5t-41.5 2.5q-23 0 -41.5 -2t-47 -12t-52 -27t-52 -50t-52 -78.5t-47 -115.5t-40.5 -157q-24 -121 -25.5 -208.5zM526 1399 q-3 4 12.5 16.5t41.5 28.5q58 33 63 24q1 -3 38.5 -73.5t75.5 -142t38 -72.5q3 -6 -12 -18t-40 -27q-57 -32 -61 -25z" />
<glyph unicode="&#xf3;" horiz-adv-x="1042" d="M60.5 310.5q0.5 77.5 19.5 172.5q102 510 536 510q40 0 74.5 -4t75.5 -17.5t72 -35.5t58.5 -61.5t40.5 -92t12.5 -130t-19.5 -173.5q-101 -506 -527 -506q-41 0 -75.5 4t-76.5 17t-74 35t-60.5 61t-42.5 91t-13.5 129.5zM244.5 283.5q-1.5 -87.5 11 -134.5t41.5 -74 t55.5 -33.5t63.5 -6.5q36 0 64 6t68 32.5t71.5 72.5t64.5 133.5t57 207.5q17 88 23 158t2.5 116t-16.5 79.5t-28 51t-38 27.5t-40.5 12.5t-41.5 2.5q-23 0 -41.5 -2t-47 -12t-52 -27t-52 -50t-52 -78.5t-47 -115.5t-40.5 -157q-24 -121 -25.5 -208.5zM516 1180l270 288 q7 7 47 -19q5 -3 7 -5q45 -34 34 -45l-268 -289q-8 -10 -53 25q-46 36 -37 45z" />
<glyph unicode="&#xf4;" horiz-adv-x="1042" d="M60.5 310.5q0.5 77.5 19.5 172.5q102 510 536 510q40 0 74.5 -4t75.5 -17.5t72 -35.5t58.5 -61.5t40.5 -92t12.5 -130t-19.5 -173.5q-101 -506 -527 -506q-41 0 -75.5 4t-76.5 17t-74 35t-60.5 61t-42.5 91t-13.5 129.5zM244.5 283.5q-1.5 -87.5 11 -134.5t41.5 -74 t55.5 -33.5t63.5 -6.5q36 0 64 6t68 32.5t71.5 72.5t64.5 133.5t57 207.5q17 88 23 158t2.5 116t-16.5 79.5t-28 51t-38 27.5t-40.5 12.5t-41.5 2.5q-23 0 -41.5 -2t-47 -12t-52 -27t-52 -50t-52 -78.5t-47 -115.5t-40.5 -157q-24 -121 -25.5 -208.5zM309 1180 q11 8 191 151.5t186 149.5q28 20 43 0l256 -301q9 -9 -41 -50q-46 -40 -57 -30l-207 239q-295 -237 -301 -241q-10 -8 -47 32q-31 42 -23 50z" />
<glyph unicode="&#xf5;" horiz-adv-x="1042" d="M60.5 310.5q0.5 77.5 19.5 172.5q102 510 536 510q40 0 74.5 -4t75.5 -17.5t72 -35.5t58.5 -61.5t40.5 -92t12.5 -130t-19.5 -173.5q-101 -506 -527 -506q-41 0 -75.5 4t-76.5 17t-74 35t-60.5 61t-42.5 91t-13.5 129.5zM244.5 283.5q-1.5 -87.5 11 -134.5t41.5 -74 t55.5 -33.5t63.5 -6.5q36 0 64 6t68 32.5t71.5 72.5t64.5 133.5t57 207.5q17 88 23 158t2.5 116t-16.5 79.5t-28 51t-38 27.5t-40.5 12.5t-41.5 2.5q-23 0 -41.5 -2t-47 -12t-52 -27t-52 -50t-52 -78.5t-47 -115.5t-40.5 -157q-24 -121 -25.5 -208.5zM297 1200l12.5 25 t31 46t51 59t67 44.5t84.5 20.5q45 0 83.5 -19t61.5 -41.5t55 -41.5t66 -19q87 0 158 106q3 6 15 6t26 -6q15 -3 23.5 -9.5t4.5 -12.5l-4 -8q-5 -8 -11 -19t-16 -26t-23 -30.5t-28 -32t-34 -30.5t-39 -25t-45 -17.5t-50 -6.5q-37 0 -68 12.5t-53 30.5t-42.5 35.5t-45.5 30 t-53 12.5q-15 0 -29.5 -3.5t-27 -9t-24 -13t-21 -16.5t-17.5 -16.5t-15 -16.5t-11 -14.5t-8 -10.5l-4 -6q-6 -10 -41 2q-16 5 -24 10t-5 10z" />
<glyph unicode="&#xf6;" horiz-adv-x="1042" d="M60.5 310.5q0.5 77.5 19.5 172.5q102 510 536 510q40 0 74.5 -4t75.5 -17.5t72 -35.5t58.5 -61.5t40.5 -92t12.5 -130t-19.5 -173.5q-101 -506 -527 -506q-41 0 -75.5 4t-76.5 17t-74 35t-60.5 61t-42.5 91t-13.5 129.5zM244.5 283.5q-1.5 -87.5 11 -134.5t41.5 -74 t55.5 -33.5t63.5 -6.5q36 0 64 6t68 32.5t71.5 72.5t64.5 133.5t57 207.5q17 88 23 158t2.5 116t-16.5 79.5t-28 51t-38 27.5t-40.5 12.5t-41.5 2.5q-23 0 -41.5 -2t-47 -12t-52 -27t-52 -50t-52 -78.5t-47 -115.5t-40.5 -157q-24 -121 -25.5 -208.5zM366.5 1231 q-5.5 20 2.5 49q19 106 135 106q110 0 90 -108q-23 -109 -135 -109q-14 0 -27 2t-28.5 8.5t-23.5 19t-13.5 32.5zM785.5 1221.5q-6.5 23.5 0.5 58.5q22 106 138 106q110 0 88 -108q-6 -34 -22 -57.5t-37 -33.5t-38.5 -14t-35.5 -4q-20 0 -36 4t-33.5 14.5t-24 34z" />
<glyph unicode="&#xf7;" horiz-adv-x="681" d="M57 569q14 62 25 62h549q13 0 2 -62q-15 -61 -27 -61h-547q-13 0 -2 61zM150 221q20 107 137 107q108 0 88 -109q-20 -108 -135 -108q-110 0 -90 110zM289 911q20 109 135 109q111 0 88 -111q-20 -106 -133 -106q-112 0 -90 108z" />
<glyph unicode="&#xf8;" horiz-adv-x="1040" d="M-16 -18l114 131q-72 128 -22 370q102 510 536 510q132 0 213 -53l41 47q8 8 78 8h29t23 -1t17.5 -2.5t0.5 -4.5l-113 -129q76 -128 25 -379q-101 -506 -527 -506q-138 0 -225 56q-39 -45 -39 -47q-9 -9 -80 -9q-17 0 -29 0.5t-23 1t-16 2.5t-3 5zM240 272l503 576 q-11 28 -28 46t-38 26.5t-38.5 11t-40.5 2.5t-41.5 -2t-47 -12t-52 -27t-52 -50t-52 -78.5t-47 -115.5t-40.5 -157q-26 -130 -26 -220zM260 125q21 -54 60 -72t92 -18q36 0 64 6t68 32.5t71.5 72.5t64.5 133.5t57 207.5q24 129 27 213z" />
<glyph unicode="&#xf9;" horiz-adv-x="1191" d="M115 948q7 31 18 31h242q88 0 74 -76l-115 -577q-51 -254 135 -254q39 0 78.5 13.5t80.5 43t74 86.5t48 133l90 455q7 21 5 42t-11.5 37t-39 26t-77.5 10q-13 0 -6 30q3 31 18 31h236q92 0 75 -78l-145 -723q-6 -21 -4 -42t11 -37.5t39 -27t79 -10.5q9 0 4 -30 q-4 -31 -16 -31h-248q-39 0 -56 20t-6 80q-113 -120 -299 -120q-321 0 -252 344l97 479q7 22 5 43t-11 37t-38.5 25.5t-78.5 9.5q-10 0 -6 30zM541 1399q-3 4 12 16.5t41 28.5q58 33 63 24q1 -3 38.5 -73.5t75.5 -142t38 -72.5q3 -6 -11.5 -18.5t-39.5 -26.5 q-60 -35 -62 -25z" />
<glyph unicode="&#xfa;" horiz-adv-x="1191" d="M115 948q7 31 18 31h242q88 0 74 -76l-115 -577q-51 -254 135 -254q39 0 78.5 13.5t80.5 43t74 86.5t48 133l90 455q7 21 5 42t-11.5 37t-39 26t-77.5 10q-13 0 -6 30q3 31 18 31h236q92 0 75 -78l-145 -723q-6 -21 -4 -42t11 -37.5t39 -27t79 -10.5q9 0 4 -30 q-4 -31 -16 -31h-248q-39 0 -56 20t-6 80q-113 -120 -299 -120q-321 0 -252 344l97 479q7 22 5 43t-11 37t-38.5 25.5t-78.5 9.5q-10 0 -6 30zM561 1180l270 288q7 7 47 -19q5 -3 7 -5q20 -15 30 -27.5t5 -17.5l-269 -289q-8 -10 -53 25q-46 36 -37 45z" />
<glyph unicode="&#xfb;" horiz-adv-x="1191" d="M115 948q7 31 18 31h242q88 0 74 -76l-115 -577q-51 -254 135 -254q39 0 78.5 13.5t80.5 43t74 86.5t48 133l90 455q7 21 5 42t-11.5 37t-39 26t-77.5 10q-13 0 -6 30q3 31 18 31h236q92 0 75 -78l-145 -723q-6 -21 -4 -42t11 -37.5t39 -27t79 -10.5q9 0 4 -30 q-4 -31 -16 -31h-248q-39 0 -56 20t-6 80q-113 -120 -299 -120q-321 0 -252 344l97 479q7 22 5 43t-11 37t-38.5 25.5t-78.5 9.5q-10 0 -6 30zM348 1180q11 8 191 151.5t186 149.5q28 20 43 0l256 -301q9 -9 -41 -50q-46 -40 -57 -30l-207 239q-295 -237 -301 -241 q-10 -8 -47 32q-31 42 -23 50z" />
<glyph unicode="&#xfc;" horiz-adv-x="1189" d="M115 948q7 31 18 31h242q88 0 74 -76l-115 -577q-51 -254 135 -254q39 0 78.5 13.5t80.5 43t74 86.5t48 133l90 455q7 21 5 42t-11.5 37t-39 26t-77.5 10q-13 0 -6 30q3 31 18 31h236q92 0 75 -78l-145 -723q-6 -21 -4 -42t11 -37.5t39 -27t79 -10.5q9 0 4 -30 q-4 -31 -16 -31h-248q-39 0 -56 20t-6 80q-113 -120 -299 -120q-321 0 -252 344l97 479q7 22 5 43t-11 37t-38.5 25.5t-78.5 9.5q-10 0 -6 30zM388.5 1231q-5.5 20 2.5 49q19 106 135 106q110 0 90 -108q-23 -109 -135 -109q-14 0 -27 2t-28.5 8.5t-23.5 19t-13.5 32.5z M806.5 1231q-5.5 20 2.5 49q22 106 137 106q110 0 88 -108q-6 -34 -22 -57.5t-37 -33.5t-38.5 -14t-35.5 -4q-15 0 -28 2t-29 8.5t-24 19t-13.5 32.5z" />
<glyph unicode="&#xfd;" horiz-adv-x="1095" d="M-84 -348q9 43 21 43q116 0 171 17t95 81l121 207q-181 729 -199 803q-16 63 -46 90t-97 27q-6 0 -8.5 9t-0.5 19q2 11 7.5 21t11.5 10h434q10 0 6 -31q-5 -28 -18 -28q-47 0 -70.5 -16.5t-23.5 -41.5t6 -55q5 -22 37 -154.5t61.5 -254t30.5 -128.5q5 -14 18.5 -14.5 t24.5 16.5q16 24 60.5 96.5t116 200t109.5 215.5q28 65 -1.5 100.5t-90.5 35.5q-16 0 -8 28q1 13 7 22t14 9h192q18 0 27 -10t6 -27q-10 -48 -30 -106t-50.5 -121.5t-58 -118.5t-66.5 -122t-61 -105t-57 -95t-40 -65q-35 -56 -146.5 -237t-135.5 -218q-26 -41 -53.5 -68 t-55 -43t-69.5 -24t-81.5 -10t-105.5 -2q-13 0 -4 45zM489 1180l271 288q7 7 44 -18l9 -6q20 -15 30 -27.5t5 -17.5l-268 -289q-8 -11 -54 25t-37 45z" />
<glyph unicode="&#xfe;" horiz-adv-x="1159" d="M-96 -365q7 33 18 33q49 0 82 9t49.5 28t23.5 35t13 43l285 1417q6 22 4 43t-11 37.5t-38.5 26.5t-77.5 10q-11 0 -6 31q5 30 16 30h244q16 0 26.5 -2.5t23 -12t13.5 -27.5t-2 -50l-80 -399q114 110 279 110q42 0 76 -3.5t75.5 -16t72.5 -34t58.5 -60.5t40.5 -91.5 t12 -131t-20 -175.5t-50.5 -175t-66 -129.5t-79 -90t-84 -59t-87.5 -33t-82.5 -15.5t-74.5 -3q-111 0 -195 73q-7 9 -24 3t-21 -23l-49 -250q-11 -56 12 -85.5t111 -29.5q6 0 6 -30q-5 -31 -16 -31h-469q-8 0 -8 28zM346 168q54 -65 107.5 -97t115.5 -32q38 0 69.5 8 t69.5 36.5t68.5 76t61 133t53.5 201.5q17 85 23 153.5t3.5 114t-14.5 79t-27 52t-37 29t-41 13.5t-44 3q-38 0 -70.5 -7.5t-74.5 -35t-75.5 -74t-67 -131.5t-56.5 -201z" />
<glyph unicode="&#xff;" horiz-adv-x="1095" d="M25 -348q9 43 20 43q116 0 171 17t95 81l121 207q-181 729 -199 803q-16 63 -46 90t-97 27q-6 0 -8 9t0 19q2 11 7 21t11 10h435q10 0 6 -31q-5 -28 -19 -28q-47 0 -70.5 -16.5t-23.5 -41.5t6 -55q5 -22 37 -154.5t61.5 -254t30.5 -128.5q5 -14 18.5 -14.5t24.5 16.5 q17 25 61 96.5t116 199.5t110 216q28 65 -1.5 100.5t-90.5 35.5q-16 0 -8 28q3 31 20 31h193q17 0 26 -10t6 -27q-10 -48 -30 -105.5t-50.5 -122t-57.5 -118t-66.5 -122.5t-60.5 -104.5t-57 -95t-40 -65.5q-33 -53 -146 -235t-137 -220q-32 -51 -64 -80.5t-79 -44.5 t-92.5 -18.5t-128.5 -3.5q-13 0 -4 45zM378.5 1231q-5.5 20 2.5 49q19 106 135 106q110 0 90 -108q-23 -109 -135 -109q-14 0 -27 2t-28.5 8.5t-23.5 19t-13.5 32.5zM796.5 1231q-5.5 20 2.5 49q22 106 137 106q110 0 88 -108q-6 -34 -22 -57.5t-37 -33.5t-38.5 -14 t-35.5 -4q-15 0 -28 2t-29 8.5t-24 19t-13.5 32.5z" />
<glyph unicode="&#x152;" horiz-adv-x="1884" d="M111.5 485.5q5.5 92.5 27.5 202.5q28 140 70 251.5t86.5 184.5t103 126t107.5 80t112.5 42.5t106 19t98.5 3.5q217 0 312 -109l20 92h733q8 0 10.5 -10t2.5 -45q1 -4 -2.5 -57l-7 -106t-3.5 -54q-3 -12 -33 -12q-28 0 -28 12q-4 121 -32.5 164t-88.5 43h-281 q-53 0 -77.5 -30t-34.5 -87l-92 -446h290q27 0 46.5 4.5t42 18t38.5 45t25 79.5q3 12 35 12q11 0 20 -3.5t8 -8.5l-71 -362q-3 -11 -35 -11q-29 0 -29 11q4 34 6.5 58.5t-5.5 41t-15.5 26.5t-22.5 15t-26.5 6.5t-28.5 1.5h-180q-52 0 -87 -31.5t-56 -130.5l-68 -340 q-10 -57 3 -86.5t65 -29.5h299q57 0 103.5 41t98.5 165q5 13 31 13q12 0 22 -3t9 -10l-86 -256q-6 -16 -21 -16h-751l18 90q-136 -106 -356 -106q-42 0 -73 1.5t-76 9t-77.5 21t-70.5 39t-62 60.5t-45 89t-27 121.5t-0.5 160zM314 296q5 -66 24 -113.5t41 -73t56 -39.5 t59.5 -17.5t60.5 -3.5q37 0 64.5 3t67.5 17t71 38.5t69 72t68.5 113.5t62 167t56.5 228q25 126 34 226.5t5 167t-22.5 114t-39.5 73t-55 39.5t-60.5 17.5t-64.5 3.5t-66 -3t-68 -17.5t-71.5 -39.5t-69 -73t-68 -114t-62 -166.5t-56.5 -227.5q-25 -126 -33 -226t-3 -166z" />
<glyph unicode="&#x153;" horiz-adv-x="1687" d="M76 489q29 144 82.5 246.5t125.5 158.5t151 80.5t173 24.5q114 0 185 -33.5t112 -107.5q132 141 363 141q30 0 55.5 -2t57.5 -8.5t57.5 -17.5t52 -30.5t45.5 -45.5t34.5 -64t22 -85t4 -110.5t-15.5 -137.5h-489q-85 0 -131.5 -25.5t-53.5 -91.5q-5 -49 -5.5 -89.5 t3 -70.5t12 -54t18.5 -40.5t25 -28.5t29 -18.5t33.5 -10.5t36 -5t37.5 -1q112 0 192.5 46.5t143.5 177.5q3 8 47 8q10 0 17.5 -0.5t13 -1.5t8.5 -2.5t2 -3.5q-37 -85 -81.5 -144.5t-84.5 -90.5t-93 -48t-90 -20.5t-92 -3.5q-109 0 -189 31t-130 114q-74 -81 -163.5 -113 t-199.5 -32q-423 0 -321 509zM239.5 300q-3.5 -84 7.5 -133t37 -78.5t56 -39.5t70 -10q52 0 94 17t86 62.5t81 138.5t64 232q22 113 26 195.5t-5.5 131t-34.5 77t-54 38t-69 9.5q-41 0 -74 -8.5t-72 -36t-70.5 -74.5t-62 -129t-53.5 -194q-23 -114 -26.5 -198zM940 561h461 q15 98 14.5 168.5t-12 110.5t-36.5 63t-51 30t-63 7q-47 0 -85 -13.5t-81 -51t-80.5 -117t-66.5 -197.5z" />
<glyph unicode="&#x178;" horiz-adv-x="1308" d="M193 1348q1 12 6 21t10 9h522q13 0 6 -30q-2 -11 -7 -20t-11 -9q-66 0 -98.5 -16.5t-32.5 -42.5t10 -58q110 -337 143 -430q5 -14 24 -14.5t34 12.5l45 46q44 46 92 96.5t106.5 120.5t92.5 124q42 69 4 115.5t-131 46.5q-11 0 -7 29q7 30 19 30h256q25 0 34 -11.5 t5 -37.5q-13 -65 -73 -159.5t-135.5 -183t-149.5 -167t-125 -126.5l-50 -48l-92 -467q-6 -35 -1.5 -61t40.5 -41t109 -15q2 0 3.5 -0.5t2 -2.5t1 -3.5t0 -4.5t-0.5 -5t-1 -6t-1 -6q-5 -33 -17 -33h-532q-10 0 -6 31q4 30 18 30q105 0 143 29t48 88l86 422q-170 516 -199 602 q-22 64 -64.5 90.5t-121.5 26.5q-12 0 -4 29zM496 1679q20 107 135 107q110 0 90 -109q-23 -108 -135 -108t-90 110zM913 1679q22 107 138 107q14 0 26.5 -2t28 -8.5t23 -18.5t13 -31.5t-2.5 -48.5q-8 -44 -34.5 -70t-49.5 -32t-49 -6q-115 0 -93 110z" />
<glyph unicode="&#x2c6;" d="M330 1180q11 8 191 151.5t186 149.5q28 20 43 0l256 -301q9 -9 -41 -50q-47 -41 -58 -30l-207 239q-295 -237 -301 -241q-10 -8 -47 32q-31 41 -22 50z" />
<glyph unicode="&#x2dc;" d="M319 1200l12.5 25t31 46t51 59t67 44.5t84.5 20.5q45 0 83.5 -19t61.5 -41.5t55 -41.5t66 -19q87 0 158 106q3 6 15.5 6t25.5 -6q15 -3 24 -9.5t5 -12.5l-5 -8q-4 -8 -10 -19t-16 -26t-23 -30.5t-28 -32t-34 -30.5t-39 -25t-45 -17.5t-50 -6.5q-37 0 -68 12.5t-53 30.5 t-42.5 35.5t-45.5 30t-53 12.5q-15 0 -29.5 -3.5t-27 -9.5t-24 -13t-21.5 -16t-18 -16.5t-15 -16.5t-11 -14.5t-8 -10.5l-4 -6q-6 -10 -41 2q-16 5 -24 10t-5 10z" />
<glyph unicode="&#x2000;" horiz-adv-x="945" />
<glyph unicode="&#x2001;" horiz-adv-x="1890" />
<glyph unicode="&#x2002;" horiz-adv-x="945" />
<glyph unicode="&#x2003;" horiz-adv-x="1890" />
<glyph unicode="&#x2004;" horiz-adv-x="630" />
<glyph unicode="&#x2005;" horiz-adv-x="472" />
<glyph unicode="&#x2006;" horiz-adv-x="315" />
<glyph unicode="&#x2007;" horiz-adv-x="315" />
<glyph unicode="&#x2008;" horiz-adv-x="236" />
<glyph unicode="&#x2009;" horiz-adv-x="378" />
<glyph unicode="&#x200a;" horiz-adv-x="105" />
<glyph unicode="&#x2010;" horiz-adv-x="749" d="M102 627q14 61 27 61h547q15 0 0 -61q-11 -62 -25 -62h-547q-13 0 -2 62z" />
<glyph unicode="&#x2011;" horiz-adv-x="749" d="M102 627q14 61 27 61h547q15 0 0 -61q-11 -62 -25 -62h-547q-13 0 -2 62z" />
<glyph unicode="&#x2012;" horiz-adv-x="749" d="M102 627q14 61 27 61h547q15 0 0 -61q-11 -62 -25 -62h-547q-13 0 -2 62z" />
<glyph unicode="&#x2013;" horiz-adv-x="858" d="M102 627q14 61 27 61h655q15 0 0 -61q-11 -62 -24 -62h-656q-13 0 -2 62z" />
<glyph unicode="&#x2014;" horiz-adv-x="1075" d="M102 627q14 61 27 61h872q15 0 0 -61q-11 -62 -24 -62h-873q-13 0 -2 62z" />
<glyph unicode="&#x2018;" horiz-adv-x="428" d="M233 1178q7 36 26 72.5t42.5 64.5t44.5 49.5t37.5 35.5t17.5 15q9 9 39 -4q14 -5 23.5 -11.5t5.5 -10.5l-10 -10q-10 -10 -23 -25.5t-26.5 -35.5t-22.5 -45.5t-8 -49.5q72 -11 55 -97q-19 -96 -123 -96q-50 0 -72.5 30.5t-5.5 117.5z" />
<glyph unicode="&#x2019;" horiz-adv-x="428" d="M225 1053l3 3q4 3 8.5 7t10.5 11t12.5 14t13.5 16.5t13 19t12 21.5t9.5 23.5t6 24.5t1.5 26q-72 9 -55 94q20 98 123 98q51 0 73.5 -30.5t4.5 -118.5q-4 -22 -14 -45.5t-21.5 -43t-26 -39.5t-28.5 -35t-27.5 -29t-23.5 -22.5t-18 -15.5l-7 -6q-13 -10 -41 2 q-15 8 -24 14.5t-5 10.5z" />
<glyph unicode="&#x201a;" horiz-adv-x="428" d="M-18 -166l4 4q3 3 7.5 7t10.5 10.5t12.5 14t13.5 17t13.5 19t12.5 21.5t10 23.5t6 24.5t2 25q-73 11 -56 96q17 97 123 97q51 0 73.5 -30.5t4.5 -117.5q-6 -26 -17.5 -52.5t-26.5 -49t-31 -42.5t-32.5 -37t-28.5 -28.5t-22 -19.5l-10 -9q-9 -7 -41 5q-14 5 -23 11.5 t-5 10.5z" />
<glyph unicode="&#x201c;" horiz-adv-x="737" d="M233 1178q7 36 26 72.5t42.5 64.5t44.5 49.5t37.5 35.5t17.5 15q9 9 39 -4q14 -5 23.5 -11.5t5.5 -10.5l-10 -10q-10 -10 -23 -25.5t-26.5 -35.5t-22.5 -45.5t-8 -49.5q72 -11 55 -97q-19 -96 -123 -96q-50 0 -72.5 30.5t-5.5 117.5zM528 1178q7 36 26 72.5t42.5 64.5 t44.5 49.5t37.5 35.5t17.5 15q9 9 39 -4q14 -5 23.5 -11.5t5.5 -10.5l-10 -10q-10 -10 -23 -25.5t-26.5 -35.5t-22.5 -45.5t-8 -49.5q73 -11 55 -97q-17 -96 -121 -96q-51 0 -74 30.5t-6 117.5z" />
<glyph unicode="&#x201d;" horiz-adv-x="722" d="M225 1053l3 3q4 3 8.5 7t10.5 11t12.5 14t13.5 16.5t13 19t12 21.5t9.5 23.5t6 24.5t1.5 26q-72 9 -55 94q20 98 123 98q51 0 73.5 -30.5t4.5 -118.5q-4 -22 -14 -45.5t-21.5 -43t-26 -39.5t-28.5 -35t-27.5 -29t-23.5 -22.5t-18 -15.5l-7 -6q-13 -10 -41 2 q-15 8 -24 14.5t-5 10.5zM520 1053l10 10q11 10 24 25.5t26.5 35t22 45t7.5 50.5q-72 9 -55 94q20 98 123 98q51 0 73 -30.5t5 -118.5q-4 -22 -14 -45.5t-21.5 -43t-26 -39.5t-28.5 -35t-27.5 -29t-23.5 -22.5t-17 -15.5l-8 -6q-11 -11 -41 2q-15 8 -24 14.5t-5 10.5z" />
<glyph unicode="&#x201e;" horiz-adv-x="722" d="M-18 -166l4 4q3 3 7.5 7t10.5 10.5t12.5 14t13.5 17t13.5 19t12.5 21.5t10 23.5t6 24.5t2 25q-73 11 -56 96q17 97 123 97q51 0 73.5 -30.5t4.5 -117.5q-6 -26 -17.5 -52.5t-26.5 -49t-31 -42.5t-32.5 -37t-28.5 -28.5t-22 -19.5l-10 -9q-9 -7 -41 5q-14 5 -23 11.5 t-5 10.5zM276 -166l4 4q3 3 7.5 7t11 10.5t12.5 14t13.5 17t14 19t12 21.5t10 23.5t6.5 24.5t2 25q-72 11 -58 96q19 97 125 97q24 0 40 -5.5t29.5 -21t14 -44.5t-7.5 -77q-7 -36 -26 -72.5t-42 -64.5t-44 -50t-37.5 -36t-16.5 -15q-9 -7 -41 5q-15 6 -24 12t-5 10z" />
<glyph unicode="&#x2022;" horiz-adv-x="669" d="M182 588.5q-3 23.5 4 54.5q32 160 203 160q17 0 32.5 -2t34.5 -8t31.5 -17t24 -29t12.5 -44t-4 -62q-10 -50 -33.5 -84t-54.5 -49.5t-56.5 -21t-53.5 -5.5q-14 0 -27.5 1.5t-30 5.5t-29 11t-26 19t-19 29.5t-8.5 41z" />
<glyph unicode="&#x2026;" horiz-adv-x="1355" d="M18 96q20 113 142 113q115 0 92 -115q-20 -114 -137 -114q-119 0 -97 116zM469 96q22 113 143 113q115 0 95 -115q-22 -114 -142 -114q-19 0 -35.5 4t-34 14.5t-25 35.5t-1.5 62zM924 96q20 113 141 113q115 0 92 -115q-20 -114 -139 -114q-116 0 -94 116z" />
<glyph unicode="&#x202f;" horiz-adv-x="378" />
<glyph unicode="&#x2039;" horiz-adv-x="692" d="M129 594q-16 20 8 41l432 362q12 12 41 -28q34 -40 23 -49l-363 -306q234 -319 238 -325q7 -10 -41 -49q-46 -38 -55 -29q-1 4 -137.5 188t-145.5 195z" />
<glyph unicode="&#x203a;" horiz-adv-x="692" d="M80 289l362 305q-231 320 -235 326q-6 10 39 49q47 36 55 28l285 -383q13 -22 -8 -41l-435 -362q-9 -9 -41 29q-34 40 -22 49z" />
<glyph unicode="&#x205f;" horiz-adv-x="472" />
<glyph unicode="&#x20ac;" horiz-adv-x="1308" d="M-20 494q-14 0 0 61q11 61 24 61h172q1 13 6 39t6 35q14 59 19 74h-172q-16 0 -2 61q11 62 22 62h185q33 97 77 175.5t90 131t102 91.5t105.5 60.5t107.5 34t101.5 16t94.5 3.5q179 0 296.5 -45t104.5 -115l-43 -211q-2 -12 -33 -12q-8 0 -17 3.5t-9 8.5q13 70 -1.5 125 t-46.5 88t-79 54.5t-92.5 29.5t-92.5 8q-32 0 -58 -2.5t-64 -12.5t-70 -27.5t-71 -51t-71.5 -79.5t-66 -116t-60.5 -157h371q6 0 6.5 -19.5t-4.5 -42.5q-11 -61 -24 -61h-379l-17 -74q-9 -41 -12 -74h377q14 0 2 -61q-15 -61 -27 -61h-364q-7 -98 6 -172.5t39.5 -119.5 t67 -73.5t81 -38.5t88.5 -10q56 0 101.5 5.5t99 23.5t95 48.5t80.5 85t65 128.5q5 8 43 8h11t13.5 -1t13 -2.5t3.5 -4.5q-119 -391 -545 -391q-52 0 -94 3.5t-95.5 16t-94 34t-80.5 60.5t-64.5 92t-36.5 131.5t-6 176.5h-184z" />
<glyph unicode="&#x2122;" horiz-adv-x="1882" d="M229 1214l52 154q3 10 16 10h586q10 0 10 -8q0 -3 -5 -78t-5 -78q0 -6 -19 -6q-20 0 -20 9q-1 72 -18 97t-52 25h-65q-23 0 -37 -4t-30 -26.5t-24 -65.5l-116 -586q-2 -17 -2.5 -32.5t21 -26t67.5 -10.5q9 0 4 -19q0 -18 -10 -18h-320q-3 0 -4.5 6.5t0.5 11.5q5 19 10 19 q65 0 88 18t29 51l117 586q5 22 6 39t-3 27t-9 16.5t-14 9t-16.5 3.5t-19.5 1h-59q-36 0 -63 -24t-58 -101q-2 -6 -18 -6q-19 0 -19 6zM787.5 557.5q-1.5 6.5 0.5 11.5q6 19 11 19q57 0 81 18t33 53q22 83 83 325.5t73 287.5q3 17 4 32.5t-20 26t-66 10.5q-6 0 -2 21 q5 16 10 16h217q12 0 15 -8l108 -559q1 -9 8 -9t13 9q52 83 191.5 315t146.5 244q3 8 14 8h199q4 0 4 -14q0 -23 -10 -23q-51 0 -70.5 -17t-26.5 -52q-2 -8 -51.5 -301.5t-54.5 -313.5q-4 -14 -1.5 -26.5t9.5 -22t26.5 -15t51.5 -5.5q4 -9 4 -17q0 -6 -4 -13t-8 -7h-318 q-3 0 -4.5 6.5t0.5 11.5q5 19 10 19q62 0 87 17.5t32 51.5l109 611q1 6 -0.5 7.5t-4.5 0t-6 -5.5q-213 -365 -391 -656q-3 -6 -20 -6q-21 0 -21 6q0 4 -61.5 328.5t-63.5 331.5q-3 12 -9 4q-2 -3 -3 -8l-154 -613q-3 -19 -2.5 -34.5t22 -25t66.5 -9.5q5 0 5 -17 q0 -5 -3.5 -12.5t-7.5 -7.5h-245q-4 0 -5.5 6.5z" />
<glyph unicode="&#x25fc;" horiz-adv-x="983" d="M0 0v983h983v-983h-983z" />
</font>
</defs>
</svg>
