<svg version="1" xmlns="http://www.w3.org/2000/svg" width="1066.667" height="1066.667" viewBox="0 0 800.000000 800.000000"><path d="M104.7 231.8c-1.6.3-1.9 1.3-1.9 6.7 0 8.6 0 8.5 3.6 8.5 3.4 0 3.4 0 3.3 4.5l-.2 4.5h4.1c5.3 0 13.7 2.5 15.6 4.7 2 2.3 3.6 7.4 4.5 14.3.9 7 .9 233.4 0 241.5-.4 3.3-1.7 8.9-2.9 12.4-3.6 10.3-12.1 16.1-23.7 16.4-4.7.1-4.8.4-4.1 9.1.4 4.4.9 6 1.9 5.8 3.2-.7 4.9.9 4.9 4.4 0 1.9.2 3.8.5 4.1.4.4 66.1.7 82 .4l2.7-.1v-7.5c0-4.1-.3-7.4-.7-7.4-.5.1-2 .1-3.5 0-2.4-.1-2.7-.5-3-4.4l-.3-4.2-7.5-.6c-9.9-.9-14.4-3.1-15.8-7.8-3.4-11.2-3.5-17.3-3.7-133.9-.1-63.9-.1-116.1 0-116 .2.2 3.1 10.9 6.4 23.8 9.7 37.5 13.9 53.7 17.2 65.9 1.7 6.3 3.3 12.3 3.5 13.3.2 1 .6 2.7.8 3.8.3 1.1 1.6 6.1 3 11.2s4.1 15.4 6 22.8c1.9 7.4 6 23.2 9.1 35 7.5 28.6 10.4 39.8 18.1 69.5 3.5 13.7 6.8 25.7 7.3 26.5.5.8 1.7 1.4 2.8 1.2 1.5-.2 2.1.7 3.1 4.2l1.1 4.4 6.7.4c3.6.1 7 0 7.5-.3.7-.4 11.4-35.4 13.4-43.9.2-.8 4-14.1 8.5-29.5s8.8-30.5 9.6-33.5c.9-3 2.9-9.9 4.5-15.4 1.7-5.4 3.2-10.6 3.4-11.5.2-.9 5.8-20.5 12.5-43.6s13.2-45.9 14.6-50.7c1.3-4.8 3.2-11.3 4.2-14.5 1.9-5.8 1.9-5.3 1.7 92.7-.2 89.4-.4 99.1-1.9 104.5-2.1 7.4-5.7 13.7-9.4 16.3-3.1 2.3-12.3 5.2-16.2 5.2-2.6 0-2.6.1-2.5 7.3v7.2l3.8.3c3.7.3 3.7.4 3.7 4.8v4.4l3.8.1c20.6.3 119.2-.2 123.3-.6 12.8-1.3 15.8-1.8 23.5-3.5 28-6.5 49.6-22.8 65.7-49.6 12.1-20.2 23.1-54.3 25.2-78.4.3-3.6.8-8.6 1-11.2 1.2-10.7.5-42.9-1-48.8-.2-.8-.7-4-1-7-.8-6.9-5.4-27.9-6.6-30.3-.6-.9-.7-1.7-.5-1.7 1.7 0-10.7-30.2-16.6-40.5-6.3-11-21.1-29.9-29.5-37.5-12.2-11.1-27.8-19.1-45.3-23.3-9.6-2.3-11.6-2.7-25.5-4.3-10.1-1.2-122.5-1.2-123.3 0-.3.6-.7 3.9-.8 7.3l-.1 6.2 3.9.6c3.8.7 3.9.8 3.5 4.5-.4 3.8-.4 3.8 4 4.5 2.3.3 4.3 1.1 4.3 1.7 0 .6-2.9 11-6.4 23.2-3.6 12.1-13.9 48.2-23.1 80.1-9.1 31.9-17.1 59.3-17.6 61-1.2 3.9-9.6 33.1-11.9 41.5l-1.7 6.5-1.7-6c-.9-3.3-2.1-7.6-2.7-9.5-.5-1.9-5.4-20.8-10.9-42s-12.1-46.3-14.6-55.8-4.7-18.1-4.9-19c-.2-.9-1.2-5.1-2.3-9.2-2.4-8.9-10.3-39-20-76.5-2.6-10-3-11-5.2-11-1.9 0-2.6-.7-3.3-3.5-.5-1.9-1.3-3.9-1.7-4.4-.9-.9-74.2-1.6-78.3-.8zm316.8 28.6c16.6 1.9 35.8 11 47.5 22.6 9.6 9.4 20.7 35.3 24.5 56.5.2 1.6.7 3.9.9 5 .2 1.1.7 4.7 1.1 8 .4 3.2.8 6.7 1 7.5 1.4 7.4 2.1 42.4 1 55-1.3 16.5-1.8 20.6-4.1 32-2.6 13.7-4.4 20.2-8.1 30-10 26-25 44-44.9 53.9-12.6 6.3-26.5 9-42.7 8.4-8.8-.3-22.3-2.8-23.2-4.4-.9-1.3-1.5-4.6-2.1-10.9-.8-8.1-.7-224.9 0-235.3.9-11.3 3.8-20.9 7.2-23.6 2.5-1.9 13.3-4.8 20.4-5.3 4.9-.4 14.4-.1 21.5.6zm129.9-28.3c-.2.4-.3 5-.2 10.4.1 9.5.1 9.7 2.4 9.2 1.9-.3 2.2 0 2.2 2.7-.1 6.4-.6 6.1 10.2 6.2 11.6.2 18.6 1.7 22.3 4.7 2.1 1.8 2.8 3.4 3.3 8.2.9 7.8.9 239.5 0 245.8-2.2 16-9.7 20.8-32.4 20.9l-8.2.1.1 9.8c.1 9.7.3 10.4 3.5 10 .8-.1 1.1 1.2 1 3.4-.1 2 .2 4.1.5 4.7.5.7 19.4 1 61.5 1 33.5-.1 61.7-.1 62.6-.2 1.5 0 1.7-1.2 1.6-10-.1-9.8-.1-10-2.4-10-2.2 0-2.4-.5-2.4-4.3v-4.3l-7.7-.2c-11.6-.3-17.3-1.2-21.3-3.2-5.2-2.7-5.9-3.9-6.7-12.1-1-9.2-.9-234.5.1-241.4 1-7.3 5-14.8 9.4-17.8 5-3.5 10.7-4.8 21.6-5.1l9.1-.2v-10c0-7.2-.3-9.9-1.2-10-.7-.1-1.8-.2-2.4-.3-.6 0-1-1.1-.9-2.4.1-1.2.2-3.1.1-4.2-.1-2-.6-2-62.7-2-34.4 0-62.8.3-63 .6z"/></svg>