<svg version="1" xmlns="http://www.w3.org/2000/svg" width="1066.667" height="1066.667" viewBox="0 0 800.000000 800.000000"><path d="M544 252.5c-11.7 2-19.9 4.4-27.5 8-18 8.5-32.6 23.6-42 43.5-11.5 24.2-16.9 55.5-16.9 97 .1 18.6 1.1 35 2.9 46.5 4.1 25.6 11.7 47.6 21.7 62.3 9.6 14.3 24.1 28.4 36 35.1 14.6 8.2 30.3 11.5 53.8 11.6 24.5 0 34.6-1.8 48.4-8.6 23.7-11.7 37.8-34.9 42-68.6l.7-5.3-3.9-.6c-3.8-.6-3.9-.7-3.5-3.9.4-3.2.2-3.4-3.1-4.1-2-.3-5.5-.3-7.9 0l-4.2.7-2.2 9.7c-2.6 11.2-2.4 10.5-4.6 15.6-.9 2.1-1.7 4.1-1.7 4.4 0 .2-1.8 3.1-4.1 6.4-10.2 15-25.3 23.4-45.8 25.4-21.6 2.1-35.6-.9-48.8-10.5-11.4-8.3-22.4-34.5-25.9-61.6-.2-2.2-.7-4.6-.9-5.3-1.9-5.3-2.7-56.5-1.2-76.7.5-6 1-11.2 1.2-11.5.1-.3.6-3.4.9-7 1.6-15.1 7.7-37.4 13.3-48.5 11.7-22.9 27.3-33 52.1-33.4 19.6-.4 38.3 5.3 50.8 15.4 7.2 5.9 12.5 18.8 13.9 33.5.8 8.6.8 8.6 4.4 9.3 2.6.6 3.1 1.1 3.1 3.6 0 1.6.5 3.3 1.1 3.6 1.8 1.2 7.8 1 9.1-.3.8-.8 1.1-8.2 1.1-25.4 0-22.6-.2-24.6-2.1-28.3-3.3-6.4-14.9-17.6-22.1-21.4-6.7-3.5-22.5-8.5-30.7-9.6-2.7-.4-6-.9-7.4-1.2-5.9-1.2-42.7-1.1-50 .2zm-446.5 3.4c-.8 1.5-.9 7.3-.1 9.8.5 1.5 1.5 2.3 3.1 2.3 2 0 2.4.6 2.7 3.7l.3 3.8 6.9.8c7 .7 14.6 3.5 17.9 6.5 2.7 2.4 3.5 4.6 17.9 48.2 7.1 21.7 14.7 44.7 16.8 51 23.6 71.6 40.4 122.6 40.5 123 .1.3 3.2 9.8 7 21.2 5.5 16.6 7.3 20.8 9 21.6 1.3.6 2.6 2.3 3 3.9.3 1.5 1.2 3.1 1.8 3.5 1.6 1 7.9 1 9.4 0 1-.6 17.9-49.1 35.3-101.2 2.6-7.7 39.4-116.5 47-139 3.5-10.2 6.9-19.9 7.6-21.5 2.2-5.3 9-12.1 14.6-14.6 9.9-4.4 31.9-2.5 34.4 2.9 1.1 2.3 1.3 228.7.2 234-2 9.2-11.2 14.8-25.6 15.4-3.5.2-6.6.6-6.8.9-.2.4-.6 2.3-.9 4.2-.8 4.6.9 7.7 4 7.7 2.1 0 3.3 1.8 2.3 3.2-.1.2.4 1.3 1.1 2.5l1.2 2.3h51c56 0 52 .5 52.4-5.9.3-4-1-6.6-3.4-6.7-4-.3-4.3-.4-3.7-1.9.3-.8.2-2.6-.3-3.8-.8-2-1.6-2.3-6.6-2.5-6.3-.1-14.9-2.3-18-4.6-2-1.4-2-2.7-2.2-117.3-.1-70.7.2-117.1.8-119.1 1.4-4.6 7.6-10.5 12.8-12.1 2.5-.7 7.8-1.5 11.9-1.8 4-.3 7.6-1.1 7.8-1.7 2.1-6.3.8-11.3-3.3-11.8-1.5-.2-2.7-.8-2.6-1.5.2-.7-.2-2.4-.7-3.8l-1-2.5h-83.9c-92.9 0-85.1-.6-85.1 6.5 0 4.9.9 6.5 3.6 6.5 1.9 0 2.4.5 2.4 2.7 0 4.3 1 5 8.6 5.6 3.9.4 8.5 1.2 10.3 1.8 5.3 1.9 6.8-3.9-21.4 79.4-9.7 28.6-17.8 52.7-18 53.5-1.4 5.7-21 61.8-22 62.8-1 1.1-2.3-1.6-6.5-14.5-8.3-25.6-43.5-132.4-49.1-149.3-5.7-17.3-6.2-20.1-4.8-24.7 1.7-5.4 11.1-9.3 22.4-9.3 5 0 5.9-1.4 5.3-8.6-.3-3.4-.6-3.9-3-4.2-2.3-.3-2.7-.8-3-4l-.3-3.7-50.2-.3c-31.3-.1-50.4.1-50.8.7z"/></svg>